<svg id="a8477360-6df7-4765-a5ce-608eade4aea3" data-name="Calque 1" xmlns="http://www.w3.org/2000/svg" xmlns:xlink="http://www.w3.org/1999/xlink" width="145" height="67" viewBox="0 0 145 67"><defs><style>.e8a86013-6827-425f-862e-0d533910e5e3{fill:none;}.bc452f9e-b65a-430b-87ec-589403582eb2{clip-path:url(#b4da2ca4-8170-4e33-8d77-4d08e75dc2a1);}.e9c6021c-1b2d-4625-a8b0-7a94b141270c{fill:#f8cfa9;}</style><clipPath id="b4da2ca4-8170-4e33-8d77-4d08e75dc2a1" transform="translate(0 0)"><rect class="e8a86013-6827-425f-862e-0d533910e5e3" width="145" height="67"/></clipPath></defs><title>Objet dynamique vectoriel_</title><g class="bc452f9e-b65a-430b-87ec-589403582eb2"><path class="e9c6021c-1b2d-4625-a8b0-7a94b141270c" d="M52.19,42.83A2,2,0,0,1,53.86,42c.75,0,1.34.39,1.34,1.7v4.22H57V43.46c0-1.82-.83-3-2.51-3a3,3,0,0,0-2.32.93v-.79H50.37v7.26h1.82Z" transform="translate(0 0)"/><path class="e9c6021c-1b2d-4625-a8b0-7a94b141270c" d="M88,45.83V41.14a7.49,7.49,0,0,0-3.14-.67c-2.34,0-3.91,1.23-3.91,3.76,0,2.32,1.35,3.8,3.18,3.8a3.06,3.06,0,0,0,2.16-.9,1.1,1.1,0,0,0,1.17.89A3.48,3.48,0,0,0,89,47.6V46.34a1.86,1.86,0,0,1-.69.18c-.25,0-.33-.17-.33-.69m-1.82,0a2.14,2.14,0,0,1-1.59.73c-1.06,0-1.76-.79-1.76-2.31s.7-2.29,2-2.29a3.29,3.29,0,0,1,1.32.28Z" transform="translate(0 0)"/><path class="e9c6021c-1b2d-4625-a8b0-7a94b141270c" d="M99.81,43.62v4.25h1.8V43.36c0-1.81-.93-2.89-2.55-2.89a3,3,0,0,0-2.57,1.18,2.3,2.3,0,0,0-2.1-1.18,3,3,0,0,0-2.29,1v-.81H90.29v7.26H92.1v-5.1A2,2,0,0,1,93.75,42c.89,0,1.29.55,1.29,1.73v4.19h1.81V43a2,2,0,0,1,1.6-1c.87,0,1.36.59,1.36,1.65" transform="translate(0 0)"/><path class="e9c6021c-1b2d-4625-a8b0-7a94b141270c" d="M103.15,40.61v10H105V47.47a2.82,2.82,0,0,0,1.78.56,3.55,3.55,0,0,0,3.42-3.85c0-2.32-1.46-3.71-3.17-3.71a3.09,3.09,0,0,0-2,.72v-.58ZM106.47,42c1.07,0,1.82.83,1.82,2.28s-.87,2.32-1.81,2.32A2.28,2.28,0,0,1,105,46V42.59a2.2,2.2,0,0,1,1.5-.64" transform="translate(0 0)"/><path class="e9c6021c-1b2d-4625-a8b0-7a94b141270c" d="M74.8,37.86H73v10H74.8v-5A2,2,0,0,1,76.53,42c.83,0,1.28.53,1.28,1.58v4.34h1.82v-4.5c0-1.73-.76-2.9-2.49-2.9a3,3,0,0,0-2.34,1Z" transform="translate(0 0)"/><path class="e9c6021c-1b2d-4625-a8b0-7a94b141270c" d="M135.17,47.87V43.46c0-1.82-.83-3-2.51-3a3,3,0,0,0-2.32.93v-.79h-1.82v7.26h1.82v-5A2,2,0,0,1,132,42c.74,0,1.33.39,1.33,1.7v4.22Z" transform="translate(0 0)"/><path class="e9c6021c-1b2d-4625-a8b0-7a94b141270c" d="M45.76,40.47a3.49,3.49,0,0,0-3.63,3.73A3.61,3.61,0,0,0,45.92,48a5.53,5.53,0,0,0,2.83-.65V45.9a4.77,4.77,0,0,1-2.52.65A2.1,2.1,0,0,1,44,44.72h5c.35-2.77-1.4-4.25-3.25-4.25M44,43.54a1.7,1.7,0,0,1,1.72-1.7,1.56,1.56,0,0,1,1.61,1.7Z" transform="translate(0 0)"/><path class="e9c6021c-1b2d-4625-a8b0-7a94b141270c" d="M139.85,40.47a3.49,3.49,0,0,0-3.63,3.73A3.61,3.61,0,0,0,140,48a5.53,5.53,0,0,0,2.83-.65V45.9a4.77,4.77,0,0,1-2.52.65,2.1,2.1,0,0,1-2.21-1.83h5c.35-2.77-1.4-4.25-3.25-4.25m-1.78,3.07a1.72,1.72,0,0,1,1.73-1.7,1.56,1.56,0,0,1,1.61,1.7Z" transform="translate(0 0)"/><path class="e9c6021c-1b2d-4625-a8b0-7a94b141270c" d="M67.42,39.05A6.94,6.94,0,0,1,71,40.14v-2a7.57,7.57,0,0,0-3.61-.84c-3.44,0-6.06,2.1-6.06,5.36S64,48,67.43,48A7.57,7.57,0,0,0,71,47.17v-2a6.94,6.94,0,0,1-3.62,1.09,3.61,3.61,0,1,1,0-7.2" transform="translate(0 0)"/><path class="e9c6021c-1b2d-4625-a8b0-7a94b141270c" d="M116.48,47.13a1.09,1.09,0,0,0,1.17.89,3.41,3.41,0,0,0,1.55-.42V46.34a1.76,1.76,0,0,1-.68.18c-.25,0-.33-.17-.33-.69V41.14a7.49,7.49,0,0,0-3.14-.67c-2.34,0-3.91,1.23-3.91,3.76,0,2.32,1.35,3.8,3.18,3.8a3.06,3.06,0,0,0,2.16-.9M113,44.24c0-1.37.7-2.29,2-2.29a3.33,3.33,0,0,1,1.32.28v3.59a2.14,2.14,0,0,1-1.59.73c-1.06,0-1.76-.79-1.76-2.31" transform="translate(0 0)"/><path class="e9c6021c-1b2d-4625-a8b0-7a94b141270c" d="M123.22,49.55a3.73,3.73,0,0,1-2.74-1v1.68a4.52,4.52,0,0,0,2.75.83c2.34,0,3.67-1.12,3.67-3.48V41.14a7.35,7.35,0,0,0-3.12-.67c-2.34,0-3.91,1.23-3.91,3.76h0c0,2.11,1.26,3.78,3.36,3.78a3,3,0,0,0,1.85-.58v.24a1.66,1.66,0,0,1-1.86,1.87m.29-3c-1.15,0-1.75-1-1.75-2.29s.7-2.29,2-2.29a3.23,3.23,0,0,1,1.3.28V46a2.28,2.28,0,0,1-1.57.57" transform="translate(0 0)"/><path class="e9c6021c-1b2d-4625-a8b0-7a94b141270c" d="M106.36,32.53a8,8,0,0,0,6.86,3.72c6.16,0,9.84-4.32,9.84-11.85,0-8.18-5-11.84-9.92-11.84a11,11,0,0,0-6.72,2.51V2.68h-5V35.76h4.78Zm5.75-16.7c3.81,0,6,3,6,8.57,0,5-1.66,8.44-5.89,8.44a6.36,6.36,0,0,1-5.79-3.22V18.14a8.7,8.7,0,0,1,5.69-2.31" transform="translate(0 0)"/><path class="e9c6021c-1b2d-4625-a8b0-7a94b141270c" d="M85.3,36.25a9.3,9.3,0,0,0,7.76-3.8l.16,3.31H98V13H93V29.77a7.49,7.49,0,0,1-6.16,3.07c-2.35,0-4.21-1.2-4.21-5l0-14.81h-5V27.68c0,5.44,2.79,8.57,7.67,8.57" transform="translate(0 0)"/><polygon class="e9c6021c-1b2d-4625-a8b0-7a94b141270c" points="10.53 55.84 8.04 55.84 8.04 66.97 14.39 66.97 14.39 64.89 10.53 64.89 10.53 55.84"/><path class="e9c6021c-1b2d-4625-a8b0-7a94b141270c" d="M34,55.87H30V67h3.73c3.87,0,6.48-2.27,6.48-5.66S37.84,55.87,34,55.87m-.2,9.05H32.44v-7H33.7c2.45,0,3.8,1.24,3.8,3.49,0,.82-.27,3.49-3.75,3.49" transform="translate(0 0)"/><path class="e9c6021c-1b2d-4625-a8b0-7a94b141270c" d="M62.94,55.82,58.57,67h2.54L62,64.61h4.14L67,67h2.66L65,55.82Zm-.28,6.84,1.37-4,1.38,4Z" transform="translate(0 0)"/><polygon class="e9c6021c-1b2d-4625-a8b0-7a94b141270c" points="113.41 66.97 120.21 66.97 120.21 64.89 115.89 64.89 115.89 62.39 119.63 62.39 119.63 60.31 115.89 60.31 115.89 57.91 120.21 57.91 120.21 55.84 113.41 55.84 113.41 66.97"/><polygon class="e9c6021c-1b2d-4625-a8b0-7a94b141270c" points="134.5 57.91 137.79 57.91 137.79 66.97 140.28 66.97 140.28 57.91 143.57 57.91 143.57 55.84 134.5 55.84 134.5 57.91"/><polygon class="e9c6021c-1b2d-4625-a8b0-7a94b141270c" points="79.78 57.91 83.08 57.91 83.08 66.97 85.56 66.97 85.56 57.91 88.86 57.91 88.86 55.84 79.78 55.84 79.78 57.91"/><polygon class="e9c6021c-1b2d-4625-a8b0-7a94b141270c" points="90.27 66.97 97.07 66.97 97.07 64.89 92.75 64.89 92.75 62.39 96.48 62.39 96.48 60.31 92.75 60.31 92.75 57.91 97.07 57.91 97.07 55.84 90.27 55.84 90.27 66.97"/><polygon class="e9c6021c-1b2d-4625-a8b0-7a94b141270c" points="16.27 66.97 23.07 66.97 23.07 64.89 18.76 64.89 18.76 62.39 22.49 62.39 22.49 60.31 18.76 60.31 18.76 57.91 23.07 57.91 23.07 55.84 16.27 55.84 16.27 66.97"/><polygon class="e9c6021c-1b2d-4625-a8b0-7a94b141270c" points="47.28 54.22 45.23 54.22 44.47 55.87 41.86 55.87 41.86 67 48.66 67 48.66 64.92 44.35 64.92 44.35 62.42 48.08 62.42 48.08 60.34 44.35 60.34 44.35 57.95 48.66 57.95 48.66 55.87 45.84 55.87 47.28 54.22"/><polygon class="e9c6021c-1b2d-4625-a8b0-7a94b141270c" points="105.1 61.18 101.51 55.84 99.25 55.84 99.25 66.97 101.73 66.97 101.73 59.86 104.53 63.98 105.61 63.98 108.43 59.88 108.43 66.97 110.92 66.97 110.92 55.84 108.64 55.84 105.1 61.18"/><polygon class="e9c6021c-1b2d-4625-a8b0-7a94b141270c" points="130.43 63.01 125.11 55.83 122.59 55.83 122.59 66.96 125.08 66.96 125.08 59.52 130.59 66.96 132.91 66.96 132.91 55.83 130.43 55.83 130.43 63.01"/><path class="e9c6021c-1b2d-4625-a8b0-7a94b141270c" d="M78.66,59.42c0-2-1.35-3.55-4.06-3.55H70.73V67h2.48V63h1.47l2.17,4h2.82l-2.8-4.69a2.92,2.92,0,0,0,1.79-2.89M74.29,61H73.2l0-3.18h1.11a1.59,1.59,0,1,1,0,3.17" transform="translate(0 0)"/><path class="e9c6021c-1b2d-4625-a8b0-7a94b141270c" d="M54.81,55.87H51.22V67H53.7V63.31h.87c2.24,0,4.72-.79,4.72-3.73,0-2.72-1.92-3.71-4.48-3.71m-.09,5.46h-1V57.84h1c1,0,2,.38,2,1.74s-1.05,1.75-2,1.75" transform="translate(0 0)"/><path class="e9c6021c-1b2d-4625-a8b0-7a94b141270c" d="M135.2,12.56c-7.7,0-10.66,6.43-10.66,11.93,0,7.27,4,11.76,11.67,11.76a15.24,15.24,0,0,0,7.13-1.84V30.49a13,13,0,0,1-6.89,2.17c-4.19,0-6.94-2.38-7-6.65h15.39c.69-5-.94-13.45-9.66-13.45M129.51,23c.17-4.52,2.28-7.14,5.69-7.14,3.13,0,5.18,2.72,5.13,7.14Z" transform="translate(0 0)"/><path class="e9c6021c-1b2d-4625-a8b0-7a94b141270c" d="M31.5,20.36c7.94,0,11.72,2.71,17.39,4.48L44.26,35.76h4.63l3.85-10a35.32,35.32,0,0,0,6.42.55,29.81,29.81,0,0,0,6.51-.69l3.84,10.11h6.85L71.43,23.49a15.8,15.8,0,0,0,4.85-4.16,22.28,22.28,0,0,1-5.69,2.09L62,0H55.71L57.5,4.55,51.19,19.43c-5-1.81-9.12-3.91-15.89-3.91-9.72,0-17,7-24.24,7.12,6.31,1.42,12.9-2.28,20.44-2.28M59.29,8.87l5,13.1a38.4,38.4,0,0,1-9.51-1.39Z" transform="translate(0 0)"/><path class="e9c6021c-1b2d-4625-a8b0-7a94b141270c" d="M31.37,23.23C18.75,23.23,11,31.77,0,29.52a20.21,20.21,0,0,0,8.67,2c7.68,0,11.59-2.72,19.47-2.72,8.26,0,11,4.09,12,6.94h.11l3.59-8.65C42,25.58,38,23.23,31.37,23.23" transform="translate(0 0)"/><path class="e9c6021c-1b2d-4625-a8b0-7a94b141270c" d="M48.45,16l2-4.91a18.5,18.5,0,0,0-9.94-2.63,24.72,24.72,0,0,0-17.26,7.15c2.87-1.66,8.24-3.08,13.32-3.08A20.35,20.35,0,0,1,48.45,16" transform="translate(0 0)"/></g></svg>