<svg version="1.1" xmlns="http://www.w3.org/2000/svg" xmlns:xlink="http://www.w3.org/1999/xlink" viewBox="0 0 1183.1 258.1">
	<style type="text/css">
		.st2{fill:#E63027;}
		.st3{fill:#F39100;}
		.st4{fill:#34A9E1;}
		.st5{fill:#008D34;}
		.st6{fill:#94C11A;}
	</style>
	<g class="logo-svg-text">
		<polygon points="380.7,94.7 329.3,94.7 329.3,107.4 347.3,107.4 347.3,161.6 362.4,161.6 362.4,107.4 380.7,107.4"/>
		<path d="M397.1,94.8l-20.3,66.9h15.6l4.8-17.2h19l5.2,17.2h16.4L417,94.8H397.1z M414.2,133.2h-14.9l4-14.2 c1.1-3.9,2.1-8.9,3.1-12.9h0.2c1,4,2.2,8.9,3.4,12.9L414.2,133.2L414.2,133.2z"/>
		<path d="M482.9,130.3V130c5.7-2.1,11.8-8,11.8-16.4c0-6.2-2.2-10.9-6.3-14.1c-4.7-3.8-11.7-5.3-21.6-5.3 c-8.1,0-15.2,0.6-20.1,1.4h-0.1v66.1h15v-26.3h4.5c6.2,0.1,9.1,2.3,11,10.7c1.9,8.3,3.6,13.6,4.6,15.6h15.5 c-1.3-2.6-3.3-11.4-5.4-19C490.1,136.6,487.6,132.2,482.9,130.3z M467.7,124.4h-5.9v-18.3c1-0.3,3.1-0.5,6.8-0.5 c6.9,0,11.1,3.1,11.1,9.2C479.7,120.6,475.2,124.4,467.7,124.4z"/>
		<path d="M547.1,114.1c0,10.1,0.3,19.2,1.2,28h-0.2c-3.1-7.5-6.9-15.9-10.9-22.9l-13.9-24.5h-17.7v66.9v0.1h13.9v-20.2 c0-10.9-0.2-20.4-0.7-29.3h0.4c3.2,7.8,7.6,16.5,11.6,23.6l14.3,25.8H561V94.7h-13.9V114.1z"/>
		<rect x="570.5" y="130.6" width="26" height="10"/>
		<polygon points="621.2,133.3 645.8,133.3 645.8,133.3 645.8,121 621.2,121 621.2,107.1 647.3,107.1 647.3,94.7 606.1,94.7 606.1,161.6 648.7,161.6 648.7,149.2 621.2,149.2 	"/>
		<polygon points="705.8,94.7 654.4,94.7 654.4,107.4 672.4,107.4 672.4,161.6 687.5,161.6 687.5,107.4 705.8,107.4 	"/>
		<rect x="704.4" y="130.6" width="26" height="10"/>
		<path d="M772,135.2h10.4v14.1c-1.1,0.5-3.9,0.9-7.3,0.9c-12.4,0-21.1-8-21.1-21.9c0-14.6,9.6-21.6,22.2-21.6 c7.4,0,11.8,1.2,15.5,2.9l3.2-12.2c-3.3-1.5-10-3.2-18.6-3.2c-21.9,0-38.1,12.7-38.2,34.9c0,9.8,3.3,18.5,9.4,24.4 c6.2,5.8,15,8.9,27.2,8.9c8.8,0,17.6-2.2,22.3-3.8v-35.2h-25V135.2z"/>
		<path d="M824.3,94.8L804,161.7h15.6l4.8-17.2h19l5.2,17.2H865l-20.8-66.9H824.3z M826.4,133.1l4-14.2 c1.1-3.9,2.1-8.9,3.1-12.9h0.2c1,4,2.2,8.9,3.4,12.9l4.2,14.2H826.4z"/>
		<path d="M910.1,130.3V130c5.7-2.1,11.8-8,11.8-16.4c0-6.2-2.2-10.9-6.3-14.1c-4.7-3.8-11.7-5.3-21.6-5.3 c-8.1,0-15.2,0.6-20.1,1.4h-0.1v66.1h15v-26.3h4.5c6.2,0.1,9.1,2.3,11,10.7c1.9,8.3,3.6,13.6,4.6,15.6h15.5 c-1.3-2.6-3.3-11.4-5.4-19C917.3,136.6,914.8,132.2,910.1,130.3z M894.9,124.4h-6v-18.3c1.1-0.3,3.2-0.5,6.9-0.5 c6.9,0,11.1,3.1,11.1,9.2C906.9,120.6,902.4,124.4,894.9,124.4z"/>
		<path d="M961.8,93.6c-19.7,0-32.6,15-32.6,35c0,19.1,11.7,34.1,31.5,34.1c19.7,0,32.9-13.2,32.9-35.2 C993.6,108.9,982.4,93.5,961.8,93.6z M961.5,150.7c-10.1,0-16.3-9.2-16.3-22.4c0-13,6-22.7,16.3-22.7c10.4,0,16.1,10.3,16.1,22.4 C977.6,141,971.7,150.7,961.5,150.7z"/>
		<path d="M1045,114.1c0,10.1,0.3,19.2,1.2,28h-0.2c-3.1-7.5-6.9-15.9-10.9-22.9l-13.9-24.5h-17.7v66.9v0.1h13.9v-20.2 c0-10.9-0.2-20.4-0.7-29.3h0.4c3.2,7.8,7.6,16.5,11.6,23.6l14.3,25.8h15.9V94.7H1045V114.1z"/>
		<path d="M1113.5,114.1c0,10.1,0.3,19.2,1.2,28h-0.2c-3.1-7.5-6.9-15.9-10.9-22.9l-13.9-24.5H1072v66.9v0.1h13.9v-20.2 c0-10.9-0.2-20.4-0.7-29.3h0.4c3.2,7.8,7.6,16.5,11.6,23.6l14.3,25.8h15.9V94.7h-13.9V114.1z"/>
		<polygon points="1155.7,149.2 1155.7,133.3 1180.3,133.3 1180.3,121 1155.7,121 1155.7,107.1 1181.8,107.1 1181.8,94.7 1140.6,94.7 1140.6,161.6 1183.2,161.6 1183.2,149.2"/>
	</g>
	<g>
		<g>
			<path class="st2" d="M148.2,256.8c-0.4,0.5,0.7,0.5-0.1,0.5C148,256.9,147.9,256.6,148.2,256.8z"/>
			<path class="st2" d="M288.6,167.7c-0.4,3.1-3.9,2.4-5,4.9c-0.2,0.2-0.7-1.2-1-0.6c-0.8,2.7-4.2,3.6-7.2,3.7l-0.1-0.4 c-0.6,0-0.4,1.4-0.9,1.5c-0.1-0.2,0-0.4-0.3-0.6c0.3,0.7-0.6,0.8-0.5,1.4c-0.3-0.1-0.6-0.7-1-0.8l0.2,0.9c0.4,2.2-1.8,1-2.2,2.5 c-0.1-0.2-0.1-0.4-0.2-0.5c-0.9,2-2.9,3-4.4,4.5c-0.1-0.3-0.3-0.8-0.6-1c0.4,0.8,0,1.4-0.4,1.8c-0.7-0.7-0.3,1.2-1.1,1.1l-0.1-0.2 c0.1,1.1-0.9-0.1-0.6,1.1l-0.6-0.5c0.5,1.2-0.9-0.2-0.9,0.6l0.2,0.2c-0.1,0.5-0.7,0-0.8,0.4l-0.1-0.1c-0.5,0.7-1.3,0.3-0.7,1.2 c-0.7-0.5,0.5-0.7-0.6-1.5c-1.6,2.3-4,3.6-6.3,5c-0.5-0.2-0.7-0.2-1-0.5c-0.1,0.3-0.7,0.7-0.7,1.3c0.1-0.1-0.4-0.4-0.6-0.3 c-0.6-0.1,0.2,1.2-0.5,1.1c0-0.3-0.1-0.7-0.4-0.9c0.1,0.9-0.5,1.1-0.8,1.6c0-0.2,0-0.3-0.2-0.6c0,1.1-1,0.4-1.1,1.2l-0.2-0.6 c-1.1-0.2,0.5,1.2-0.4,1.2c0-0.3-0.1-0.4-0.2-0.6c0,1.3-1.1,1.5-1.4,2.2c0-0.1-0.1-0.2-0.1-0.2c-0.5,0.5-1.3,0.6-1.8,1.4 c-0.4-0.1-0.7-1.3-1.2-0.7c0.7,1-0.8,1.1,0.3,2c-0.7,0.2-1.8,0.4-1.9,0.9c0-0.5-1.1-1.1-0.7-1.4l-0.7-0.4c-0.2-0.4,0.4-0.1,0-0.5 c-0.2,0.2-0.6,1-0.9,1c0,0.9,0.3,2.3-0.3,2.9c0.1-0.6-0.9-1-0.8-1.3l0.3,2.5c-0.2,0.2-0.6-0.8-0.7-0.3c0.2,0.3,0.1,0.5,0.2,0.8 c-0.2-0.1-0.8,0.9-1.5-0.1c-0.3-0.3,0.2-0.4-0.2-0.6c-0.4,0.3-0.2,0.6-0.6,0.9l-0.1-0.1c-0.4,0-0.5,0.9,0.1,1.3 c0.2-0.1-0.5-0.5,0-0.4c0.2,0.7-0.2,1.2-0.6,1.5c0-0.3-0.1-0.5-0.3-0.8c-0.1,1.1-0.5,1.8-0.9,2.5c0.3,0.5-0.3-1-0.1-0.8 c-1.2-0.1-1.1,2-2.4,1.5c0.1-0.2,0.5,0.6,0.4,0.5c-0.4,0.2-0.8-0.5-0.9-0.1c-0.3-0.4-0.2,0.3-0.4,0.6c0.1,0.4-0.2-0.1,0-0.3 c-0.1,0.6-1.2,2.1-2.4,2.1c0.2,0.3,0.1,1.3-0.1,1.4l-0.3-0.7c-0.4-0.3-0.6,0.5-1,0c0.1,1,1.2-1.7,1-0.7c-0.5-0.4-0.1,1.5-0.6,0.6 c-0.4,0.3-0.3,1.2-1,0.9c0.2,0-0.2-1.1-0.5-0.8c-0.5,0.5,0,0.4-0.3,0.9l-0.1,0.4c0.4,0.6-0.5,0.2,0.1,0.8 c-0.4-0.5-0.6,0.8-1.2-0.2l-0.4-0.8c-0.2,0.2,0.1,1.1,0.2,1.6c-0.1-0.1-0.2-0.2-0.3-0.3c0.7,1.2-0.6,0.3-0.3,1.4 c-0.8-0.1-1.3,0.8-2,0.2c-0.1,0.6-0.2,1.3-0.8,1.3c0-0.2,0.1-0.3,0-0.6c-0.5-0.2-0.4,0.2-0.5,0.5c-0.1-0.2-1-0.3-1.6-0.6 c-0.1,0.6,0.4,1.2,0.6,1.6c-1.1-1-0.6,1.5-1.7,0.7c0-0.2,0.2-0.9-0.3-1c-1.1-1-0.1,1.3-1.1,1.1l0.8,0.9c-0.6-0.4-0.5,1.1-1,0.1 c0,0.5-0.9,0.1-0.2,1c-1.4-0.2-1.9,1.9-3.6,0.6c0,0.2-0.5,0.3-0.1,0.7c0.6,0.4,0.1-0.6,0.4-0.3c-0.1,0.1,0,0.4,0.1,0.5 c-0.4,0-0.7,0-0.9-0.9c-1-0.2,0.4,2.1-0.7,2.2c-0.2-0.4-0.4-0.5-0.6-0.3v1c-0.6,0.2-0.9-0.7-1.3-1.4c-0.2,0.3-0.6,0.5-0.4,1.1 l-0.9-0.6c0.6,0.5,0,0.6,0,0.8v-0.2c-0.2-0.3-0.5,0.1-0.6,0.3c0.3,0.4,0.7,0.3,1,0.4c0,0.4-0.2,0.5-0.2,0.9 c-0.4-0.7-0.8-0.2-1-0.1c-0.3,0,0.1,0.8,0,0.8c-0.2-0.3-0.5,0.2-0.6-0.4c0-0.2,0.4,0.2,0.4-0.2c-0.3-0.1-0.7-0.8-0.8-0.1 c-0.1,0.5,0.9,1.3,0.1,1.2c0-0.2-0.1-0.5-0.2-0.8h-0.7l0.4,0.6c-0.2-0.1-0.2-0.2-0.2-0.3c0.3,0.7-0.6,0.7-0.2,1.4 c-0.2,0.2-0.8-0.1-1,0v-0.1c-0.5-0.2-0.7,0.3-0.7,0.9l-0.1-0.1c-0.2,0-0.5,0.4-0.4,0.9c-0.7-0.2-1.6-2.2-1.5-1.2 c-0.4,0.3,0.1,1.5,0.5,1.8c-1,0-1.1,1.5-2.4,1c0.1,0.3,0.2,0.4,0.1,0.7c-1.2,0.4-1.7,2.1-3.3,1.4c0.1-0.4-0.4-0.6-0.6-1 c0.1,0.7-0.7-0.4-0.1,0.6c0.4,0.5,0.5,0.8,1,0.8c-0.4,0.7-1.3,1.3-2,1c0.3,0.1,0.3,0.4,0.3,0.6c-0.5-0.9-1.1-0.7-1.2-0.2l0.3,0.6 l-0.6-0.4c0,0.3,0.6,1.2-0.1,0.9c-0.1-0.2-0.3-0.4-0.5-0.5c-0.1,0.7-0.1,1.7-0.8,1.5l-0.8-0.6c-0.1,0.2-0.1,0.8,0.3,0.9 c-1,0-1.4,0.2-2-0.4c-0.1,2.4-1.7,3.5-3,4.2l-0.2-0.4c-0.6-0.1,0.3,0.8-0.2,0.7c-0.1-0.5-0.8-0.7-0.8-1.3 c-0.8-0.1-0.2,1.1-0.4,1.5c0.3,0.6,0-0.5,0.4,0.2c0.1,0.2-1,0-0.5,0.9c-0.3-0.2-0.6-0.9-0.7-1.2l-0.1,0.6c-1-0.7-0.2-2.2-1.3-3.1 l-0.2,0.3c-0.8-0.7,0.1-1.4-0.7-1.2c-0.1,0.6,0.4,1.9,0.9,2.1c-0.5,0.6,0.9,2.1,0.2,2.4c-0.5-0.3,0.5-0.5-0.1-1 c-0.7-0.4-0.4,0.8-0.9,0.7c0.5,0.1,0.8,1.1,0.6,1.3c-0.6-0.1-0.3-0.9-0.8-0.7c0.2,0.5,0,1.1,0.6,1.2c0.5,1.1-0.7,0-0.5,1 c-0.6-0.6-0.6-2-1.3-2c0.5,0.6-0.1,1.4,0.9,2.2c-0.3-0.1-0.7-0.6-0.8-1.1c-0.6-0.2,0.1,1.8-0.9,0.4l0.4,0.8 c-0.2-0.2-0.5-0.3-0.9-0.5c-0.3,0.2-0.2,1.5-0.9,0.4c0,0.2-0.7,0.5,0.1,1.1c0.7,0.2,0.1-0.8,1,0c-0.8-0.7-0.5,0.5-0.5,0.9 l-0.3-0.4c0,0.2-0.4,0.3-0.2,0.9c-0.1-0.3-0.3-0.6-0.5-0.6l0.3,0.7c-0.3,0.7-0.8-1-1.2-0.5l0.1-0.7c0,0.2-0.6-0.3-0.7,0 c0.3,0.6,0.5,1.5,0.7,2c-0.1,0.4-0.6-0.6-0.5,0.2l-0.1-0.9c-0.1-0.2-0.9-0.8-1.3-0.5c-0.1,0.4,0,1.5,0.6,1.5 c-0.2,0.1-0.7,0-0.8-0.6c-0.3,0.5,0.5,0.6,0.3,1.2c-0.4-0.3-1.3-0.5-1.9-0.9l-0.2-1.2l-0.3,0.2c-0.2-1-0.6-0.5-0.9-1.4 c-0.3,0-0.3,0.4-0.3,0.7c1.4,1,0.6,2.2,1.5,3.3c-0.5,0.8-2.3-2.6-1.9-0.3c0.3,0.2,0.6,1.4,0.8,0.7c-0.5,0.2,0.5,1.4-0.4,1.2 c0.1-0.7-1.2-0.9-1.1-2c0.2,0.4,0.5,0.1,0.5-0.1c-0.5-0.3-0.7-1.2-1.2-0.9c-0.2,0.3-0.6,0.6-0.1,1.2c0.5,0.7,0.4-0.4,0.6,0.5 c-0.4,0.6-1.2-0.4-0.6,1c0.3-0.3,0.8,0.3,1.1,0.8l-0.2,0.5l-0.2-0.5c-0.9,0.1,0.3,1-0.4,1.2l-0.9-0.7c-0.3-0.9,1.2-0.3,0.2-1.4 c-0.5,0.2-0.2,0.9-0.8,0.9c0-0.2,0.1-0.3,0.1-0.4c-0.2,0.1-1.4-1.5-1.4-0.2c-0.1,0.6,0.2,0.5,0.5,1c-0.6,0.6-0.5,1.2-0.9,1.5 c-0.5-1-0.8,0.4-0.9-0.9c0.6,0.4,1.5-0.3,1.2-1.3c-0.9-0.9,0.6-0.2,0.1-1.4c-0.6,0.3-1.2-0.8-1.8-1.4c-0.2,0-0.1,0.4-0.2,0.6 c0.4,0.7,0.6,0.6,1,1.2c-0.7,0.2-1.1,0.9-1,1.8c-0.4-0.2-0.8-0.9-0.6-1.1c-0.6,0.7-1.4,1.1-2.2,1.3c1.1,0.8-0.6,0.7,0.3,1.5 c0.5,0,1.3,0.6,1.4,1.2c-0.3,0.1-0.3-0.5-0.5-0.7c0.1,0.8-1.1-0.7-0.7,0.5c0.4-0.8-0.7-1.4-1.1-2.3c-0.2,0.8-0.4-0.6-0.8-0.3 c-0.2,0.8-0.5,1.5-0.9,2c-1.2-0.4-1.7,1-2.2,1.5c-0.6-0.2-1-1.3-1.4-1.3c-0.4,0.3,1,0.9,0.1,0.8l-0.1-0.2c0,0.3-1.5,0-0.8,1.5 l-0.5-1.2c-0.2,0-0.1,0.3-0.1,0.4c-0.2-0.3-0.5-0.6-0.5-0.9c-0.8-0.5-0.7,0.6-1,0.9l0.6,0.5c-0.4,0.9-1.2,0.6-1.7,1.2l-0.4-0.6 l-0.2,0.6c-0.3-0.6-0.9-0.8-0.8-0.2l0.1-2.1c0.5,0.2,0.2,0.9,0.7,1.4c0.5,0.4,1-0.1,0.7-0.8c-0.3,0.1-0.2,0.2-0.2,0.5 c-0.6-0.8-0.2-1-0.4-1.7c-0.1,0.1-0.4,0-0.3,0.2c0-0.6,0.2-0.8,0.5-1c-0.1,0.5,0.5,0.4,0.5,0.7c-0.4-0.8-0.2-1.2,0.4-1.3 c0.9,0.6,0.6-1.1,1.3-1.2c0.2,0.9,0.3,1.7,0.2,2.2c0.6,0.2,0.4-0.3,1-0.1c-0.2-0.7-0.6-1.6-0.4-2.2l0.4,0.5 c0.2-0.5-0.3-1.4,0.3-1.5c1.1-0.3,2-0.9,2.7-1.3l0.4,0.5c-0.4-1.4,1-1.3,1.2-2.1c1.2,0,1.6-1.7,2.6-1.1c1.3-1.4,2.4-2.7,4.1-3.5 l0.2,1c-0.1-0.8,0.5,0.3,0.7,0c-0.7-0.4-0.1-1.1-0.3-1.7c1.1,0.2,1.6-1.1,1.9-2.1l0.4,0.5c0-1.4,1.3-1,2.2-1.4 c0.2,0.2,0.7,0.6,0.9,0.4c-0.1-1.2,0.1-1.2,0.4-2.2c0.5-0.3,1.4-0.6,2.1-0.5c0.9-2.4,3.2-2.7,4.6-4.6l0.5,0.6 c0.9-2.5,3.8-2.6,4.9-4.3l0.6,1.2c0.7,0,0.9-1,0.3-1.7c0.7,0,0.8-1.3,1.7-0.6c0.6-0.1,0.3-0.9,0.6-1.3c1.2-0.2,1.5-0.5,2.3-1.3 l-0.3,0.1c0.1,0.3,0.4,0.8,0.6,0.7c0.1-0.5,1.4-0.5,0.2-1.6c1.5,0.1,1.9-2.1,3.5-1.7c-0.3-0.3-0.1-0.5-0.2-0.8 c0.8-0.6,2.2-0.4,2.5-1.5c0.3,0.1,0.2,0.8,0.6,0.6c0.1-0.3-0.3-0.5-0.2-0.8c0.9-1.6,3.2-1.1,4.4-2.1c1.8-2.1,4.3-3.3,6.4-4.8 l0.1,0.3c0.1-1.5,2.3,0,1.9-1.9c0.3,0.1,0.7-0.3,0.9,0.3c0.1-1.1,2-0.4,2.3-1.8c-0.1,0-0.1,0.1-0.1,0.3c1.2,0.1,1.4-1.2,2.6-1.3 c0,0.2-0.1,0.4,0,0.6c0.7,0.3,0.1-1.6,1.1-0.5c0.2-0.1-0.3-0.7-0.4-0.6c2.2-0.7,3.8-2.9,5.6-4.5c1.9-0.2,1.5,2.1,2,0.4 c0.3,0.2-0.2-0.5-0.1-0.3c0.2-0.6,1.6,1,1.5,0.1c-0.6-0.7-0.1-0.6-0.4-1.1c1.2-0.1,1.8,0.5,2.1-0.5l0.2,0.4 c0.1-1.7,1.4-1.7,1.2-3.4c4.3-3.1,8.1-6.6,12.4-9.6c4.5-2.5,8.3-5.8,13.2-7.9c1.7,0.4,1.8,0.4,2.6-0.8c0.1,0.2,0,0.3,0.2,0.4 c-0.5-0.9,0.7-0.6,0.3-1.5c1.7-0.9,3.1-2.1,4.7-3.1c-0.2,0.3,0.1,1.1,0.4,0.8v-0.8l0.2,0.2c0.1-0.3,0.1-0.9-0.3-1 c3.7-3.4,9-4.3,13-7.1c1.2-0.2,2.4-1.5,3.3-2.3c3.9-0.8,7.4-1.6,10.1-4.4C288.6,163.7,289.6,166.3,288.6,167.7z"/>
			<path class="st2" d="M148.8,256.3c0.4,0.4,0.9,0.4,1,1.2C149.5,257,149,256.7,148.8,256.3z"/>
			<path class="st2" d="M161.5,254.7c-0.1-0.1,0.3,0.1,0.3,0.1c-0.1,0.1,0,0.6-0.2,0.4C161.7,255.1,161.6,254.9,161.5,254.7z"/>
			<path class="st2" d="M164.2,253.3c0.2,0.4-0.1,1.1-0.4,1.3L164.2,253.3z"/>
			<path class="st2" d="M167.5,253.5c0.4,0.2,0.5,0.4,0.2,0.6C167.6,253.9,167.6,253.7,167.5,253.5z"/>
			<path class="st2" d="M167.1,252.5c0.2-0.1,0.4,0,0.7,0.2C167.6,252.3,167.5,253.2,167.1,252.5z"/>
			<path class="st2" d="M172.9,250.4c0.1-0.1,0.2-0.6,0.5-0.2C173.1,249.9,173.2,251,172.9,250.4z"/>
			<path class="st2" d="M174.8,248.3c0.1,0,0.2,0,0.2-0.1c0.3,0.1,0.3,0.5,0.2,0.6L174.8,248.3z"/>
			<polygon class="st2" points="216.4,219.3 216.3,219.7 216.1,219.2 		"/>
			<path class="st2" d="M235,207.3c0.1-0.4,0.4,0.3,0.5,0.3C235.3,207.8,235.3,207,235,207.3z"/>
			<polygon class="st2" points="243.8,198.8 243.8,198.9 243.3,198.1 		"/>
		</g>
		<g>
			<path class="st3" d="M17.4,243.9c-0.4,1.1,1.8,1.4,0.1,1.2C17,244.2,16.6,243.5,17.4,243.9z"/>
			<path class="st3" d="M227.9,78.8c1.3,7.1-6,4.4-6.3,9.8c-0.2,0.5-2-2.9-2.3-1.6c0.3,6-5.8,6.9-11.4,6.4l-0.4-0.9 c-1.1-0.1,0.2,3.1-0.8,3.3c-0.4-0.5-0.4-0.9-1.1-1.5c1,1.7-0.6,1.7,0,3c-0.7-0.4-1.7-1.7-2.5-2.1l1,2.1c2.2,5.1-2.8,1.7-2.5,5 c-0.3-0.5-0.4-0.9-0.8-1.2c-0.3,4.4-3.6,6.1-5.4,9.1c-0.4-0.7-1.2-1.9-1.9-2.6c1.3,2,0.9,3.1,0.5,4c-1.8-1.7,0.2,2.7-1.4,2.3 l-0.3-0.5c1,2.5-1.8-0.5-0.4,2.3l-1.6-1.2c1.9,2.9-2-0.8-1.4,1l0.5,0.5c0.1,1-1.3-0.2-1.3,0.6l-0.3-0.3c-0.4,1.5-2.2,0.4-0.5,2.6 c-1.7-1.4,0.4-1.5-2.1-3.6c-1.6,4.8-5.4,7-8.7,9.7c-1.1-0.6-1.5-0.6-2.2-1.4c0,0.7-0.9,1.4-0.4,2.7c0.1-0.1-1.1-0.9-1.3-0.9 c-1.2-0.3,1.2,2.9-0.2,2.4c-0.2-0.8-0.6-1.5-1.4-2.3c0.7,2.1-0.2,2.4-0.5,3.5c-0.2-0.4-0.2-0.8-0.7-1.4c0.8,2.5-1.7,0.7-1.4,2.4 l-0.7-1.4c-2.2-0.7,1.7,2.8,0.1,2.6c-0.1-0.6-0.6-1-0.9-1.5c0.9,2.9-1,3.2-1.2,4.6c-0.1-0.2-0.4-0.5-0.4-0.5 c-0.7,1-2.2,1.1-2.4,2.8c-0.8-0.3-2.3-3.1-2.9-1.9c2,2.4-0.8,2.3,2,4.6c-1.1,0.3-3.2,0.4-3,1.6c-0.4-1.2-2.8-2.7-2.3-3.4l-1.7-1.1 c-0.7-1.1,0.8-0.1-0.4-1.2c-0.3,0.4-0.5,2.1-1.1,2c0.6,2,2.2,5.3,1.5,6.4c-0.3-1.3-2.4-2.5-2.4-3.2l2.3,5.8 c-0.2,0.4-1.6-1.9-1.6-0.8c0.5,0.6,0.7,1.2,0.9,1.9c-0.4-0.2-0.9,1.7-3-0.6c-0.9-0.8,0.1-0.9-0.9-1.5c-0.6,0.5,0,1.4-0.6,1.9 l-0.3-0.3c-0.7,0-0.4,2,1.1,3c0.3-0.2-1.3-1.4-0.3-1c0.8,1.6,0.4,2.6-0.2,3.1c-0.1-0.6-0.6-1.2-1.1-1.9c0.7,2.6,0.3,3.9,0,5.4 c0.9,1.2-1.3-2.4-0.7-1.9c-2.5-0.6-0.7,4.3-3.5,2.7c0-0.3,1.4,1.6,1.1,1.2c-0.7,0.3-2-1.4-1.9-0.4c-0.8-0.9-0.2,0.7-0.4,1.3 c0.4,0.9-0.5-0.4-0.2-0.8c0.1,1.3-0.8,4.5-3.2,4.1c0.5,0.6,1.1,3,0.8,3.1l-1.1-1.6c-1-0.7-0.9,0.9-1.9-0.3 c0.9,2.3,1.1-3.5,1.4-1.4c-1.2-1.1,0.8,3.3-0.7,1.1c-0.5,0.5,0.3,2.7-1.4,1.7c0.4,0.1-1.2-2.5-1.6-2c-0.6,0.9,0.3,0.9,0.1,2 l0.1,0.9c1.2,1.5-0.9,0.4,0.7,1.8c-1.1-1.1-0.6,1.7-2.5-0.8l-1.4-2c-0.2,0.4,1.1,2.5,1.5,3.6c-0.2-0.1-0.6-0.4-0.8-0.8 c2.3,3-1,0.4,0.4,3c-1.6-0.4-2,1.4-3.8-0.1c0.1,1.4,0.5,2.8-0.7,2.7c-0.1-0.4,0-0.6-0.5-1.3c-1.1-0.5-0.6,0.3-0.6,1.1 c-0.3-0.5-2.2-1-3.5-1.7c0.1,1.3,1.6,2.8,2.3,3.8c-2.9-2.5-0.1,3.2-2.9,1.1c-0.1-0.6-0.3-2.1-1.4-2.4c-2.9-2.5,0.7,3-1.3,2.3 l2.1,2.2c-1.6-1.2-0.1,2.4-2-0.1c0.4,1.1-1.6,0,0.4,2.3c-3-0.9-2.4,3.9-6.6,0.4c0.1,0.6-0.7,0.5,0.4,1.7c1.4,1-0.3-1.3,0.5-0.5 c-0.1,0.2,0.4,0.9,0.6,1.2c-0.9-0.2-1.3-0.1-2.5-2.4c-2.1-0.7,2.2,4.8,0.3,4.8c-0.7-1-1.1-1.3-1.4-0.9l0.7,2.2 c-1.1,0.2-2.2-1.8-3.6-3.5c-0.2,0.6-0.8,1,0,2.3l-2.2-1.6c1.6,1.2,0.5,1.3,0.6,1.8l-0.1-0.6c-0.6-0.6-0.8,0.2-0.9,0.6 c0.9,1,1.7,1,2.2,1.1c0.4,0.9-0.1,1,0.3,2.1c-1.2-1.7-1.6-0.6-2.1-0.5c-0.7,0,0.7,1.8,0.6,1.8c-0.7-0.8-0.7,0.4-1.4-1 c-0.1-0.4,1,0.6,0.6-0.3c-0.8-0.4-1.9-1.9-1.6-0.4c0.3,1.1,2.7,3.1,1.1,2.7c-0.1-0.6-0.6-1.2-0.9-1.9l-1.4-0.3l1.2,1.5 c-0.4-0.3-0.4-0.5-0.6-0.6c1,1.7-0.7,1.3,0.6,3.2c-0.2,0.4-1.6-0.4-2-0.3v-0.2c-1.1-0.5-1.2,0.5-0.7,1.8l-0.2-0.3 c-0.3,0.1-0.7,0.7-0.2,1.8c-1.5-0.6-4.7-5.4-3.8-3c-0.5,0.5,1.3,3.4,2.3,4.2c-1.8-0.2-1.1,3.2-3.9,1.7c0.3,0.7,0.7,1,0.7,1.6 c-2,0.7-1.8,4.3-5.3,2.4c-0.1-1-1.2-1.5-1.8-2.3c0.7,1.6-1.5-1,0.2,1.3c1.1,1.3,1.6,2,2.5,2.2c-0.3,1.4-1.7,2.6-3.2,1.7 c0.7,0.4,0.9,1,1,1.5c-1.6-2.2-2.6-1.9-2.5-0.8l1,1.4l-1.4-1.1c0.1,0.6,2,2.9,0.5,2c-0.4-0.5-0.9-1-1.3-1.3c0.3,1.5,1,3.9-0.4,3.2 l-2-1.5c-0.1,0.4,0.4,1.9,1.3,2.1c-1.9-0.3-2.6,0-4.2-1.4c1.5,5.3-0.8,7.4-3,8.7l-0.7-1c-1.3-0.5,1.1,1.9,0.2,1.5 c-0.6-1.1-2-1.7-2.5-3.1c-1.6-0.4,0.4,2.5,0.3,3.3c0.9,1.3-0.3-1.1,0.9,0.6c0.3,0.5-1.8-0.2-0.4,1.9c-0.8-0.6-1.8-2.1-2.3-3 l0.3,1.3c-2.4-1.8-1.9-5-4.8-7.3l-0.2,0.6c-2-1.7-0.7-3.2-2.3-3c0.3,1.3,2.2,4.4,3.2,4.9c-0.5,1.3,3.2,4.9,2.1,5.6 c-1.2-0.9,0.6-0.9-0.9-2.4c-1.7-1.2-0.3,1.7-1.1,1.5c1.1,0.3,2.2,2.6,2.2,3.2c-1.3-0.5-1.1-2.1-2-1.7c0.8,1.2,0.8,2.6,2,2.9 c1.8,2.7-1.3-0.1-0.2,2.2c-1.7-1.6-2.5-4.7-4-4.9c1.5,1.6,0.9,3.1,3.3,5.3c-0.7-0.2-1.8-1.5-2.4-2.8c-1.3-0.7,1.4,4-1.5,0.7 l1.2,1.9c-0.6-0.5-1.1-0.7-2.1-1.5c-0.4,0.3,0.6,3.4-1.5,0.7c0.1,0.4-0.9,1,0.9,2.5c1.5,0.7-0.4-1.9,1.9,0.3 c-2-1.7-0.6,0.9-0.4,1.9l-0.9-1c0.1,0.6-0.5,0.7,0.2,1.9c-0.3-0.7-0.9-1.3-1.3-1.5l1,1.7c-0.2,1.4-2.4-2.6-2.8-1.5l-0.4-1.7 c0.1,0.4-1.3-0.9-1.3-0.1c1,1.5,2.1,3.4,2.8,4.6c0.1,1-1.5-1.4-0.7,0.4l-0.8-2.2c-0.3-0.5-2.3-2-2.8-1.5c0,0.8,1.1,3.3,2.3,3.6 c-0.3,0.3-1.4-0.3-2-1.5c-0.3,1,1.3,1.5,1.4,2.8c-1-0.8-2.8-1.5-4.3-2.5l-1.3-2.9l-0.4,0.3c-1-2.3-1.4-1.2-2.7-3.5 c-0.5-0.1-0.3,0.8-0.2,1.6c3.4,2.6,2.6,5.1,5.2,7.8c-0.5,1.7-6.4-6.6-3.8-1.1c0.8,0.6,2,3.3,2,1.9c-0.9,0.2,1.9,3.3,0.1,2.7 c-0.4-1.7-3-2.5-3.5-4.9c0.7,1,1.1,0.4,1,0c-1.2-0.9-2.3-3-3-2.4c-0.2,0.6-0.7,1.1,0.6,2.6c1.4,1.7,0.5-0.7,1.6,1.2 c-0.4,1.3-2.6-1.2-0.5,2.1c0.3-0.7,1.9,1,2.8,2.1l-0.1,1.2l-0.8-1.2c-1.6,0,1.3,2.3,0.1,2.7l-2.2-1.8c-1.3-2.1,2.1-0.3-0.6-3.2 c-0.7,0.4,0.3,2.1-0.9,1.8c-0.1-0.4,0-0.6,0-1c-0.3,0.1-3.8-3.8-2.8-0.7c0.3,1.3,0.8,1.2,1.7,2.4c-0.7,1.2-0.1,2.6-0.6,3.3 c-1.7-2.4-1.3,0.7-2.4-2.2c1.4,1.1,2.7-0.2,1.4-2.7c-2.5-2.4,1.1-0.3-0.8-3.1c-0.9,0.6-2.9-2.1-4.4-3.7c-0.3,0.1,0,1,0.1,1.3 c1.2,1.7,1.5,1.4,2.8,3.1c-1.3,0.3-1.4,1.9-0.6,3.8c-0.9-0.6-2.1-2.3-1.9-2.7c-0.7,1.3-2,2-3.4,2.3c2.8,2.1-0.6,1.5,1.6,3.4 c1,0.2,3,1.7,3.6,3.1c-0.5,0.1-0.9-1.2-1.5-1.6c0.7,1.8-2.5-1.8-1.1,0.8c0.3-1.6-2.4-3.4-3.8-5.6c0.2,1.7-1.1-1.5-1.8-1 c0.2,1.7,0.1,3.3-0.4,4.4c-2.5-1.2-2.5,1.9-3.3,2.7c-1.3-0.7-2.8-3.3-3.7-3.3c-0.6,0.5,2.4,2.2,0.7,1.8l-0.3-0.5 c0.2,0.8-2.8-0.3-0.4,3.2l-1.7-2.8c-0.3-0.1,0,0.6,0,1c-0.7-0.8-1.4-1.4-1.6-2.2c-1.9-1.3-0.9,1.2-1.4,1.7l1.6,1.2 c-0.1,2-1.9,1-2.5,2.3l-1.1-1.5l0.1,1.3c-1-1.5-2.2-2.1-1.6-0.6l-1.3-4.8c1.1,0.5,0.9,2.1,2.3,3.4c1.2,1.1,1.8,0,0.8-1.5 c-0.5,0.1-0.2,0.4-0.1,1.2c-1.7-2-1.1-2.3-2-3.9c-0.1,0.2-0.9-0.2-0.4,0.5c-0.4-1.3-0.2-1.7,0.3-2.2c0.2,1.1,1.2,1.1,1.5,1.8 c-1.4-1.8-1.2-2.8-0.1-2.9c2.2,1.7,0.3-2.4,1.6-2.5c1.1,2.1,1.8,3.9,1.9,5c1.3,0.5,0.5-0.5,1.8,0c-0.8-1.6-2.3-3.8-2.3-5.2 l1.1,1.3c0.1-1.2-1.5-3.2-0.4-3.4c1.9-0.4,3.3-1.5,4.4-2.1l1.1,1.3c-1.7-3.3,1.1-2.6,0.8-4.5c2.3,0.3,1.8-3.6,4.3-1.8 c1.5-2.9,2.7-5.5,5.5-6.9l1.2,2.3c-0.7-1.8,1.2,0.9,1.4,0.3c-1.7-1.2-1-2.5-1.7-3.9c2.3,0.7,2.3-2.1,2.2-4.2l1.1,1.3 c-1.1-3.3,1.8-2,3.4-2.5c0.6,0.4,1.8,1.5,2,1.1c-1.1-2.7-0.6-2.8-0.8-4.9c0.7-0.6,2.2-0.9,3.6-0.6c0.1-5.1,4.4-5.3,5.6-9.3 l1.5,1.4c-0.1-5.5,5.6-5,6.4-8.5l2,2.9c1.4,0.3,1-2-0.7-3.8c1.4,0.3,0.7-2.7,2.9-0.9c1.1-0.1-0.1-1.9,0.2-2.8 c2.3-0.1,2.6-0.8,3.5-2.4l-0.5,0.1c0.3,0.7,1.2,1.9,1.7,1.8c-0.1-1.2,2.4-0.8-0.7-3.6c2.9,0.7,2.1-4.2,5.6-2.9 c-0.8-0.8-0.6-1.2-0.9-1.9c1.2-1.1,4-0.4,3.8-2.7c0.6,0.3,0.9,1.7,1.5,1.4c0-0.6-0.9-1.2-0.9-1.9c0.7-3.3,5.5-1.7,7-3.6 c1.9-4.4,6.1-6.3,9-9.2l0.5,0.7c-0.9-3.3,4.5,0.5,2.4-3.9c0.7,0.4,1.2-0.5,2,0.9c-0.6-2.4,3.7-0.3,3.1-3.5c-0.2,0-0.1,0.2,0,0.6 c2.4,0.4,1.9-2.4,4.3-2.2c0.1,0.4,0,0.8,0.5,1.5c1.5,0.8-1-3.7,1.8-0.8c0.3-0.3-1-1.7-1.2-1.5c3.8-1.1,5.3-5.6,7.7-8.7 c3.6,0.1,4.4,5.1,4.2,1.5c0.6,0.5-0.9-1.3-0.3-0.6c0-1.4,3.8,2.6,3,0.7c-1.7-1.8-0.6-1.3-1.5-2.5c2.3,0.2,4,1.7,3.8-0.6l0.7,1.1 c-1.1-3.8,1.6-3.4,0-7.5c6.2-6,11.2-12.9,17.4-18.5c7-4.5,12.2-11.1,20.2-14.5c3.6,1.5,3.7,1.3,4.6-1.1c0.3,0.5,0.2,0.7,0.7,1 c-1.6-2.3,1-1.1-0.4-3.4c2.8-1.5,4.6-3.9,7.1-5.9c-0.2,0.5,1,2.5,1.3,2l-0.6-1.8l0.6,0.6c0.1-0.6-0.4-1.9-1.3-2.4 c4.9-6.8,14.6-7.3,20.4-12.6c2.2-0.2,3.7-2.7,4.9-4.4c7.1-0.7,13.2-1.5,16.5-7.3C225.2,69.7,228.9,75.9,227.9,78.8z"/>
			<path class="st3" d="M18.2,242.9c1,1,2,1.1,2.7,2.9C20,244.9,18.9,244,18.2,242.9z"/>
			<path class="st3" d="M41.6,242.7c-0.2-0.3,0.6,0.3,0.7,0.4c-0.1,0.2,0.4,1.3-0.1,0.8C42.4,243.7,41.9,243.2,41.6,242.7z"/>
			<path class="st3" d="M45.9,240.4c0.7,1,0.5,2.4,0.1,2.9L45.9,240.4z"/>
			<path class="st3" d="M52.5,241.6c0.9,0.6,1.2,1.1,0.8,1.4C52.9,242.5,52.8,242.1,52.5,241.6z"/>
			<path class="st3" d="M51,239.2c0.3-0.2,0.9,0.2,1.5,0.7C51.8,239,52.2,240.9,51,239.2z"/>
			<path class="st3" d="M60.8,236c0.1-0.2-0.1-1.3,0.9-0.4C60.9,235,61.8,237.5,60.8,236z"/>
			<path class="st3" d="M63.2,231.7c0.2,0,0.4,0.1,0.3-0.3c0.6,0.3,0.9,1.2,0.8,1.4L63.2,231.7z"/>
			<polygon class="st3" points="123.5,176.7 123.5,177.4 122.8,176.4 		"/>
			<path class="st3" d="M151.2,154.2c-0.1-0.9,1,0.7,1.2,0.8C152.1,155.4,151.5,153.7,151.2,154.2z"/>
			<polygon class="st3" points="162.3,137.4 162.2,137.5 160.7,135.5 		"/>
		</g>
		<g>
			<path class="st4" d="M1.5,184c-0.6,1.1,1.8,1.3,0,1.2C1,184.3,0.8,183.6,1.5,184z"/>
			<path class="st4" d="M252.4,9.2c0.7,7.3-7,4.8-7.9,10.4c-0.2,0.5-1.9-2.9-2.3-1.6c-0.4,6.3-7.1,7.4-13.1,7l-0.3-1 c-1.1-0.1-0.2,3.2-1.2,3.4c-0.4-0.5-0.3-0.9-1-1.5c0.9,1.7-0.9,1.7-0.4,3.2c-0.7-0.4-1.6-1.7-2.5-2.1l0.8,2.1 c1.8,5.2-3.2,1.8-3.4,5.2c-0.2-0.5-0.3-0.9-0.7-1.3c-0.9,4.5-4.7,6.4-7.1,9.5c-0.3-0.7-1-2-1.7-2.6c1.2,2,0.6,3.2,0,4.1 c-1.7-1.7-0.2,2.8-1.9,2.4l-0.2-0.5c0.7,2.6-1.9-0.5-0.7,2.4l-1.5-1.2c1.6,3-2-0.8-1.6,1.1l0.4,0.6c-0.1,1.1-1.3-0.1-1.5,0.7 l-0.3-0.3c-0.7,1.6-2.5,0.5-0.9,2.7c-1.6-1.5,0.6-1.6-1.8-3.7c-2.4,5-6.8,7.4-10.8,10.1c-1.1-0.6-1.5-0.6-2.2-1.4 c-0.1,0.7-1.2,1.4-0.8,2.8c0.1-0.1-1-0.9-1.3-0.9c-1.3-0.3,0.8,2.9-0.6,2.5c-0.1-0.8-0.5-1.6-1.1-2.3c0.5,2.2-0.6,2.5-1,3.6 c-0.1-0.5-0.1-0.8-0.6-1.5c0.4,2.5-1.9,0.7-1.8,2.4l-0.6-1.5c-2.3-0.7,1.4,2.9-0.3,2.7c0-0.6-0.4-1-0.7-1.6c0.6,3-1.6,3.3-2.1,4.8 c-0.1-0.2-0.3-0.5-0.3-0.5c-0.9,1-2.5,1.1-3,2.9c-0.8-0.3-2-3.2-2.8-1.9c1.8,2.5-1.3,2.4,1.4,4.8c-1.3,0.3-3.5,0.4-3.6,1.7 c-0.2-1.3-2.6-2.8-1.9-3.5l-1.7-1.1c-0.6-1.1,0.9-0.1-0.2-1.3c-0.3,0.4-0.9,2.2-1.5,2c0.3,2.1,1.6,5.5,0.6,6.6 c-0.1-1.4-2.2-2.6-2.1-3.3l1.6,6c-0.3,0.4-1.5-1.9-1.6-0.9c0.5,0.7,0.5,1.2,0.7,1.9c-0.4-0.2-1.3,1.8-3.2-0.6 c-0.8-0.9,0.3-1-0.8-1.6c-0.7,0.5-0.2,1.4-0.9,2l-0.2-0.3c-0.8,0-0.8,2.1,0.7,3.1c0.4-0.2-1.2-1.4-0.1-1c0.6,1.7,0,2.7-0.7,3.2 c0-0.6-0.5-1.2-0.9-2c0.3,2.7-0.3,4-0.9,5.6c0.8,1.2-1.1-2.5-0.5-1.9c-2.6-0.7-1.4,4.4-4.3,2.8c0.1-0.3,1.3,1.6,1,1.3 c-0.8,0.3-1.9-1.4-2-0.5c-0.7-1-0.4,0.7-0.6,1.3c0.3,0.9-0.5-0.4-0.1-0.8c-0.1,1.3-1.6,4.6-4.2,4.2c0.5,0.6,0.7,3.1,0.3,3.3 l-0.9-1.7c-1-0.7-1.1,0.9-2-0.4c0.6,2.4,1.8-3.6,1.8-1.4c-1.2-1.1,0.3,3.4-0.9,1.2c-0.7,0.5-0.1,2.8-1.8,1.8 c0.4,0.1-0.9-2.6-1.4-2.1c-0.8,1,0.2,0.9-0.2,2l-0.1,1c1,1.6-1,0.4,0.5,1.9c-1-1.2-0.9,1.8-2.5-0.8l-1.2-2.1 c-0.3,0.4,0.7,2.6,1,3.7c-0.2-0.1-0.6-0.5-0.8-0.8c2,3.1-1.2,0.4-0.1,3.1c-1.6-0.4-2.4,1.5-4.1-0.1c-0.1,1.4,0.1,2.9-1.2,2.8 c0-0.4,0.1-0.6-0.3-1.3c-1.1-0.6-0.7,0.3-0.8,1.1c-0.2-0.5-2.2-1.1-3.5-1.8c-0.1,1.4,1.3,2.9,1.9,3.9c-2.7-2.6-0.6,3.3-3.3,1.1 c0-0.6,0-2.2-1.1-2.5c-2.7-2.6,0.3,3.1-1.7,2.3l2,2.3c-1.5-1.2-0.5,2.5-2.1-0.1c0.3,1.1-1.8,0,0,2.3c-3.1-0.9-3.2,4-7.2,0.4 c0,0.6-0.8,0.6,0.1,1.7c1.3,1.1-0.1-1.3,0.7-0.5c-0.2,0.2,0.2,0.9,0.5,1.3c-0.9-0.2-1.4-0.1-2.3-2.4c-2.2-0.7,1.7,4.9-0.5,5 c-0.6-1.1-1-1.4-1.3-0.9l0.4,2.3c-1.2,0.3-2.1-1.9-3.3-3.6c-0.3,0.6-1,1-0.3,2.4l-2.1-1.7c1.5,1.2,0.3,1.3,0.3,1.9v-0.6 c-0.6-0.7-0.9,0.2-1,0.6c0.8,1,1.7,1,2.2,1.1c0.3,0.9-0.3,1,0,2.1c-1-1.7-1.6-0.6-2.2-0.5c-0.7,0,0.5,1.8,0.3,1.9 c-0.6-0.8-0.9,0.4-1.3-1.1c0-0.4,0.9,0.6,0.7-0.3c-0.8-0.4-1.8-2-1.6-0.4c0.1,1.2,2.4,3.2,0.8,2.8c-0.1-0.6-0.5-1.3-0.7-2 l-1.4-0.3l1,1.5c-0.4-0.3-0.4-0.5-0.6-0.7c0.9,1.8-0.9,1.4,0.1,3.3c-0.3,0.5-1.6-0.4-2.1-0.3v-0.2c-1.1-0.5-1.4,0.5-1.1,1.8 l-0.2-0.3c-0.4,0.1-0.8,0.8-0.5,1.9c-1.5-0.7-4.2-5.6-3.6-3.1c-0.7,0.5,0.9,3.5,1.8,4.3c-2-0.2-1.6,3.3-4.4,1.8 c0.2,0.7,0.6,1,0.5,1.7c-2.2,0.7-2.6,4.5-6.1,2.5c0.1-1-1-1.5-1.6-2.4c0.5,1.7-1.5-1,0,1.4c1,1.3,1.4,2,2.3,2.2 c-0.6,1.5-2.2,2.7-3.7,1.8c0.7,0.4,0.8,1,0.9,1.6c-1.5-2.2-2.5-2-2.6-0.8l0.9,1.4l-1.4-1.1c0.1,0.6,1.7,3,0.2,2.1 c-0.4-0.5-0.8-1-1.2-1.3c0.1,1.5,0.6,4-0.9,3.3l-1.9-1.5c-0.1,0.4,0.2,1.9,1.1,2.1c-2-0.3-2.8,0-4.4-1.4c0.9,5.5-1.9,7.7-4.4,9 l-0.6-1c-1.3-0.5,0.9,2,0,1.6c-0.5-1.1-1.9-1.7-2.3-3.2c-1.6-0.4,0.1,2.5-0.2,3.4c0.8,1.4-0.1-1.2,0.9,0.6c0.2,0.5-2-0.1-0.7,1.9 c-0.8-0.6-1.6-2.2-2.1-3l0.1,1.3c-2.3-1.8-1.4-5.2-4.1-7.5l-0.3,0.7c-1.9-1.7-0.3-3.3-2.1-3.1c0.1,1.4,1.7,4.5,2.8,5.1 c-0.7,1.4,2.8,5,1.5,5.8c-1.2-0.9,0.8-1-0.6-2.4c-1.7-1.2-0.5,1.7-1.4,1.5c1.1,0.3,2,2.6,1.9,3.3c-1.3-0.5-0.9-2.1-2-1.7 c0.7,1.2,0.5,2.7,1.7,2.9c1.5,2.8-1.4-0.1-0.5,2.3c-1.6-1.6-2.1-4.8-3.7-5c1.4,1.6,0.5,3.2,2.9,5.4c-0.7-0.2-1.8-1.6-2.3-2.8 c-1.3-0.7,1,4.1-1.7,0.8l1.1,1.9c-0.6-0.5-1.1-0.7-2.1-1.5c-0.5,0.3,0.2,3.5-1.7,0.8c0.1,0.4-1.1,1.1,0.6,2.6 c1.5,0.6-0.2-1.9,2,0.3c-2-1.7-0.8,1-0.7,1.9l-0.8-1c0.1,0.6-0.6,0.7,0,2c-0.3-0.7-0.9-1.4-1.2-1.5l0.9,1.7 c-0.4,1.5-2.2-2.6-2.8-1.5l-0.2-1.7c0,0.4-1.3-0.9-1.4-0.1c0.9,1.6,1.8,3.5,2.5,4.7c-0.1,1-1.4-1.4-0.8,0.4l-0.6-2.2 c-0.2-0.5-2.2-2-2.8-1.5c-0.1,0.8,0.8,3.4,2,3.7c-0.3,0.3-1.4-0.2-1.9-1.5c-0.4,1.1,1.2,1.5,1.2,2.8c-1-0.8-2.8-1.5-4.4-2.5 l-1.1-2.9l-0.5,0.3c-0.8-2.4-1.4-1.2-2.5-3.5c-0.6-0.1-0.4,0.9-0.4,1.6c3.3,2.6,2.2,5.2,4.6,7.9c-0.7,1.7-6.1-6.6-4-1 c0.8,0.6,1.8,3.3,2,1.9c-1,0.3,1.6,3.4-0.2,2.8c-0.2-1.7-2.9-2.4-3.2-4.9c0.7,1,1.1,0.3,1.1-0.1c-1.2-0.9-2.1-3-2.9-2.4 c-0.3,0.6-0.9,1.2,0.3,2.7c1.3,1.7,0.6-0.7,1.6,1.2c-0.6,1.3-2.6-1.1-0.8,2.2c0.4-0.7,1.9,0.9,2.7,2.1l-0.2,1.2l-0.7-1.2 c-1.8,0,1.2,2.3-0.2,2.8l-2.2-1.8c-1.1-2.1,2.2-0.4-0.2-3.3c-0.8,0.4,0.1,2.2-1.2,1.9c0-0.4,0.1-0.6,0.1-1 c-0.3,0.1-3.6-3.8-2.9-0.6c0.2,1.3,0.7,1.2,1.5,2.4c-0.9,1.2-0.4,2.7-1,3.4c-1.5-2.4-1.5,0.8-2.4-2.2c1.4,1,3-0.3,1.8-2.8 c-2.4-2.4,1.2-0.3-0.6-3.2c-1,0.6-2.9-2-4.3-3.6c-0.4,0.1-0.1,1,0,1.4c1.1,1.7,1.4,1.4,2.7,3.1c-1.4,0.3-1.7,2-1.1,4 c-1-0.5-2-2.2-1.8-2.7c-0.9,1.4-2.4,2.2-3.9,2.6c2.7,2.1-0.9,1.6,1.3,3.4c1.1,0.1,3,1.6,3.6,3c-0.5,0.1-0.9-1.2-1.4-1.6 c0.6,1.8-2.5-1.7-1.3,0.9c0.5-1.7-2.2-3.4-3.5-5.6c0.1,1.8-1.1-1.5-1.9-0.9c0,1.8-0.3,3.4-0.8,4.5c-2.6-1.1-2.9,2.2-3.9,3 c-1.3-0.6-2.7-3.2-3.6-3.2c-0.6,0.6,2.4,2.1,0.6,1.8l-0.3-0.5c0.1,0.8-3-0.2-0.8,3.4l-1.6-2.8c-0.4-0.1-0.1,0.6,0,1 c-0.6-0.8-1.4-1.4-1.5-2.2c-1.9-1.3-1.1,1.3-1.7,1.9l1.6,1.2c-0.3,2-2.2,1.2-2.9,2.5L9,185.9v1.4c-0.9-1.5-2.2-2-1.7-0.5l-1-4.9 c1.1,0.5,0.8,2.2,2.2,3.4c1.2,1.1,1.9-0.1,1-1.6c-0.5,0.1-0.3,0.5-0.2,1.2c-1.7-1.9-1-2.3-1.8-3.9c-0.1,0.2-0.9-0.1-0.5,0.5 c-0.4-1.3-0.1-1.8,0.6-2.3c0.2,1.1,1.2,1.1,1.5,1.8c-1.3-1.8-1.1-2.9,0.1-3c2.2,1.6,0.6-2.5,2-2.7c1,2.1,1.6,3.9,1.6,5.1 c1.3,0.4,0.6-0.6,1.9-0.1c-0.7-1.6-2.1-3.8-1.9-5.2l1.1,1.3c0.2-1.2-1.3-3.2-0.1-3.5c2.1-0.6,3.7-1.8,5-2.5l1.1,1.3 c-1.5-3.4,1.4-2.7,1.4-4.7c2.5,0.1,2.4-3.8,4.9-2.1c1.9-3.1,3.6-5.9,6.8-7.4l1,2.3c-0.6-1.8,1.2,0.9,1.4,0.2 c-1.7-1.1-0.8-2.6-1.3-4c2.4,0.6,2.8-2.3,2.9-4.5l1,1.3c-0.7-3.4,2.3-2.1,4-2.7c0.6,0.4,1.8,1.5,2.1,1.1c-0.8-2.8-0.3-2.9-0.2-5.1 c0.8-0.6,2.6-1,4-0.8c0.9-5.3,5.5-5.6,7.4-9.8L56,137c0.7-5.7,6.8-5.3,8.2-9l1.7,2.9c1.4,0.3,1.4-2.1-0.2-3.9 c1.4,0.2,1.2-2.8,3.3-0.9c1.2-0.1,0.2-2,0.6-2.9c2.5-0.2,2.9-0.9,4.2-2.5l-0.5,0.1c0.2,0.7,1.1,1.9,1.6,1.8 c0.1-1.2,2.8-0.8-0.2-3.7c3.1,0.7,3-4.4,6.5-3c-0.8-0.8-0.5-1.3-0.7-2c1.5-1.1,4.4-0.4,4.5-2.8c0.6,0.3,0.7,1.8,1.4,1.5 c0.1-0.6-0.8-1.2-0.7-2c1.3-3.4,6.2-1.7,8.2-3.8c2.8-4.5,7.6-6.6,11.3-9.5l0.4,0.7c-0.5-3.4,4.8,0.5,3.2-4c0.7,0.4,1.4-0.5,2,0.9 c-0.2-2.5,4-0.3,4-3.6c-0.2,0-0.2,0.2-0.1,0.6c2.5,0.4,2.5-2.5,5-2.2c0,0.4-0.1,0.8,0.3,1.5c1.5,0.9-0.5-3.8,2.1-0.8 c0.3-0.3-0.9-1.8-1-1.5c4.3-1.1,6.6-5.7,9.7-8.9c3.9,0.2,3.9,5.3,4.3,1.5c0.6,0.5-0.7-1.3-0.2-0.7c0.2-1.4,3.7,2.8,3.1,0.7 c-1.6-1.8-0.4-1.4-1.2-2.6c2.5,0.2,4,1.8,4.2-0.6l0.6,1.1c-0.5-3.9,2.2-3.5,1.2-7.8c7.7-6.1,14.1-13.3,21.7-19 c8.2-4.7,14.8-11.4,23.9-15c3.7,1.5,3.8,1.3,5.1-1.2c0.2,0.5,0.2,0.7,0.6,1c-1.4-2.3,1.3-1.2,0-3.5c3.2-1.6,5.5-4,8.4-6.1 c-0.3,0.6,0.7,2.6,1.2,2l-0.4-1.8l0.5,0.6c0.2-0.6-0.2-2-1.1-2.4c6.2-7.1,16.6-7.7,23.6-13.4c2.4-0.3,4.3-2.9,5.8-4.6 c7.6-1,14.4-2.1,18.6-8.2C250.5,0,253.8,6.2,252.4,9.2z"/>
			<path class="st4" d="M2.5,182.9c1,0.9,2.1,1,2.7,2.9C4.3,184.8,3.1,183.9,2.5,182.9z"/>
			<path class="st4" d="M27.8,181.2c-0.2-0.3,0.6,0.3,0.8,0.4c-0.2,0.2,0.3,1.3-0.2,0.9C28.5,182.2,28.1,181.7,27.8,181.2z"/>
			<path class="st4" d="M32.6,178.6c0.7,1,0.3,2.5-0.2,3L32.6,178.6z"/>
			<path class="st4" d="M39.6,179.5c0.9,0.6,1.2,1.1,0.7,1.4C39.9,180.5,39.9,180.1,39.6,179.5z"/>
			<path class="st4" d="M38.3,177.1c0.3-0.3,0.9,0.2,1.5,0.6C39.1,176.9,39.4,178.8,38.3,177.1z"/>
			<path class="st4" d="M49.2,173.5c0.2-0.2,0-1.4,1-0.4C49.4,172.4,50,175,49.2,173.5z"/>
			<path class="st4" d="M52.2,169c0.2,0,0.4,0.1,0.3-0.3c0.6,0.3,0.8,1.2,0.7,1.4L52.2,169z"/>
			<polygon class="st4" points="125.1,111.7 125,112.5 124.4,111.4 		"/>
			<path class="st4" d="M158.7,88.6c0-0.9,1,0.7,1.1,0.8C159.5,89.8,159.2,88.1,158.7,88.6z"/>
			<polygon class="st4" points="173.5,71.2 173.3,71.4 172,69.3 		"/>
		</g>
		<g>
			<path class="st5" d="M0.5,221.9c-0.6,1.2,1.8,1.4,0,1.2C0,222.3-0.3,221.5,0.5,221.9z"/>
			<path class="st5" d="M253.8,34.5c0.6,7.5-7.2,5-8.2,10.7c-0.2,0.5-1.9-2.9-2.3-1.6c-0.4,6.4-7.2,7.6-13.5,7.3l-0.3-1 c-1.2,0-0.2,3.3-1.3,3.5c-0.4-0.5-0.3-0.9-1-1.5c1,1.8-0.9,1.8-0.4,3.2c-0.8-0.4-1.7-1.7-2.6-2.1l0.9,2.2c1.9,5.3-3.3,1.9-3.4,5.5 c-0.2-0.5-0.3-0.9-0.7-1.3c-0.9,4.7-4.7,6.7-7.1,9.9c-0.3-0.7-1.1-2-1.8-2.6c1.3,2,0.7,3.2,0.1,4.2c-1.8-1.7-0.1,2.8-1.9,2.5 l-0.2-0.5c0.8,2.6-1.9-0.4-0.7,2.5l-1.6-1.2c1.7,3-2.1-0.7-1.7,1.2l0.4,0.6c-0.1,1.1-1.4-0.1-1.6,0.8l-0.3-0.3 c-0.7,1.6-2.5,0.6-0.9,2.7c-1.7-1.4,0.6-1.7-1.9-3.7c-2.4,5.2-6.8,7.8-10.8,10.8c-1.1-0.5-1.6-0.6-2.3-1.3 c-0.1,0.7-1.2,1.5-0.8,2.9c0.1-0.1-1.1-0.9-1.4-0.9c-1.3-0.3,1,3-0.6,2.6c-0.1-0.8-0.5-1.6-1.2-2.3c0.6,2.2-0.5,2.6-0.9,3.8 c-0.1-0.5-0.1-0.8-0.6-1.5c0.5,2.6-1.9,0.8-1.8,2.6l-0.6-1.5c-2.4-0.6,1.6,2.9-0.2,2.8c0-0.6-0.5-1-0.8-1.6c0.7,3-1.5,3.5-1.9,5 c-0.1-0.2-0.3-0.5-0.3-0.5c-0.9,1.1-2.5,1.2-3,3.1c-0.9-0.2-2.1-3.2-2.9-1.8c1.9,2.5-1.2,2.5,1.6,4.8c-1.3,0.3-3.6,0.5-3.6,1.9 c-0.3-1.3-2.8-2.7-2.1-3.5l-1.8-1.1c-0.7-1.1,0.9-0.1-0.3-1.3c-0.3,0.4-0.8,2.3-1.5,2.2c0.4,2.1,1.8,5.5,0.9,6.7 c-0.2-1.4-2.4-2.5-2.3-3.2l1.9,6.1c-0.3,0.4-1.6-1.9-1.7-0.8c0.5,0.6,0.6,1.2,0.8,1.9c-0.4-0.2-1.2,1.9-3.3-0.4 c-0.9-0.8,0.3-1-0.8-1.6c-0.7,0.6-0.1,1.5-0.9,2.1l-0.3-0.3c-0.8,0-0.7,2.2,0.9,3.1c0.4-0.2-1.2-1.4-0.2-1.1 c0.7,1.7,0.2,2.8-0.6,3.4c0-0.6-0.6-1.2-1-2c0.4,2.7-0.2,4.1-0.7,5.8c0.9,1.2-1.2-2.5-0.6-2c-2.7-0.5-1.3,4.6-4.3,3.1 c0-0.4,1.4,1.6,1.1,1.3c-0.8,0.4-2.1-1.3-2-0.4c-0.8-1-0.3,0.7-0.6,1.4c0.3,0.9-0.5-0.4-0.2-0.8c0,1.3-1.5,4.8-4.1,4.5 c0.5,0.6,0.9,3.1,0.5,3.3l-1-1.7c-1-0.7-1.1,1-2.1-0.3c0.7,2.4,1.6-3.8,1.7-1.6c-1.2-1.1,0.5,3.5-0.9,1.2c-0.7,0.6,0,2.8-1.8,1.9 c0.4,0.1-1.1-2.6-1.5-2c-0.8,1,0.3,1-0.1,2.1v1c1.1,1.5-1,0.5,0.6,1.9c-1.1-1.2-0.9,1.9-2.6-0.7l-1.3-2.1 c-0.3,0.5,0.9,2.6,1.2,3.7c-0.2-0.1-0.6-0.4-0.8-0.8c2.2,3-1.2,0.5,0,3.2c-1.7-0.4-2.4,1.6-4.2,0.1c0,1.4,0.2,3-1.1,2.9 c-0.1-0.4,0.1-0.6-0.4-1.3c-1.2-0.5-0.7,0.4-0.8,1.2c-0.2-0.5-2.3-1-3.7-1.6c0,1.4,1.5,2.8,2.1,3.9c-2.9-2.5-0.5,3.4-3.3,1.3 c-0.1-0.6-0.1-2.2-1.2-2.5c-2.9-2.5,0.4,3.1-1.7,2.5l2.1,2.3c-1.6-1.2-0.4,2.6-2.2,0c0.3,1.1-1.8,0.1,0.1,2.4 c-3.2-0.8-3.1,4.3-7.4,0.8c0.1,0.6-0.8,0.6,0.2,1.8c1.4,1-0.2-1.4,0.7-0.6c-0.2,0.2,0.3,0.9,0.5,1.3c-0.9-0.2-1.5,0-2.5-2.4 c-2.3-0.6,1.9,5-0.3,5.1c-0.7-1-1.1-1.3-1.4-0.9l0.5,2.3c-1.2,0.3-2.3-1.8-3.6-3.5c-0.3,0.7-1,1.1-0.2,2.5l-2.2-1.6 c1.6,1.2,0.4,1.3,0.4,1.9l-0.1-0.6c-0.6-0.6-0.9,0.2-1,0.7c0.9,1,1.8,0.9,2.3,1c0.3,0.9-0.2,1.1,0.1,2.2c-1.1-1.7-1.7-0.5-2.2-0.4 c-0.7,0,0.6,1.9,0.4,1.9c-0.7-0.8-0.9,0.4-1.4-1c0-0.4,1,0.6,0.7-0.4c-0.8-0.4-1.9-1.9-1.7-0.4c0.1,1.2,2.6,3.2,0.9,2.8 c-0.1-0.6-0.5-1.3-0.8-2l-1.5-0.2l1.1,1.5c-0.4-0.3-0.4-0.5-0.6-0.6c1,1.8-0.9,1.5,0.2,3.4c-0.3,0.5-1.7-0.3-2.2-0.2V162 c-1.2-0.5-1.4,0.6-1,1.9l-0.2-0.3c-0.4,0.1-0.8,0.8-0.5,2c-1.5-0.6-4.5-5.5-3.9-3c-0.7,0.6,1,3.6,2,4.3c-2-0.1-1.6,3.5-4.5,2 c0.3,0.7,0.7,1,0.6,1.7c-2.3,0.8-2.5,4.7-6.2,2.9c0-1-1.1-1.5-1.8-2.4c0.6,1.7-1.6-1,0,1.4c1.1,1.3,1.5,2,2.5,2.2 c-0.5,1.6-2.2,2.8-3.8,2c0.8,0.4,0.9,1,0.9,1.6c-1.6-2.2-2.6-1.9-2.7-0.7l0.9,1.4l-1.4-1c0.1,0.6,1.8,3,0.3,2.1 c-0.4-0.5-0.8-1-1.2-1.3c0.2,1.6,0.7,4.1-0.8,3.5l-2-1.5c-0.1,0.4,0.3,2,1.2,2.1c-2-0.3-2.9,0.2-4.5-1.2c1.1,5.6-1.7,8-4.3,9.5 l-0.7-1c-1.3-0.4,1,2,0,1.6c-0.5-1.1-2-1.7-2.4-3.2c-1.7-0.4,0.1,2.6-0.1,3.5c0.9,1.4-0.2-1.2,1,0.5c0.3,0.5-2-0.1-0.7,2 c-0.8-0.6-1.7-2.2-2.2-3.1l0.2,1.4c-2.4-1.8-1.6-5.2-4.4-7.5l-0.3,0.7c-2-1.7-0.4-3.3-2.2-3.1c0.2,1.4,1.9,4.6,3,5.1 c-0.7,1.4,3,5.1,1.7,5.8c-1.2-0.9,0.8-1-0.7-2.5c-1.8-1.1-0.5,1.8-1.4,1.6c1.1,0.3,2.2,2.6,2.1,3.3c-1.3-0.4-1-2.2-2-1.7 c0.7,1.2,0.5,2.7,1.8,3c1.6,2.8-1.5,0-0.4,2.3c-1.7-1.6-2.2-4.9-3.9-5c1.5,1.6,0.6,3.3,3.1,5.5c-0.8-0.2-1.8-1.5-2.4-2.8 c-1.4-0.6,1.1,4.2-1.7,0.9l1.2,1.9c-0.6-0.4-1.2-0.7-2.2-1.4c-0.5,0.3,0.3,3.6-1.7,0.9c0.1,0.4-1.1,1.1,0.7,2.7 c1.5,0.6-0.2-2,2,0.3c-2-1.7-0.8,1-0.7,2l-0.9-1c0.1,0.6-0.6,0.8,0.1,2c-0.3-0.7-0.9-1.4-1.3-1.5l0.9,1.8 c-0.4,1.5-2.3-2.6-2.9-1.4l-0.2-1.8c0,0.4-1.4-0.9-1.5,0c0.9,1.6,1.9,3.5,2.6,4.8c-0.1,1-1.5-1.4-0.9,0.4l-0.6-2.3 c-0.3-0.6-2.3-2-2.9-1.5c-0.1,0.8,0.8,3.5,2.1,3.7c-0.3,0.3-1.5-0.2-2-1.5c-0.4,1.1,1.3,1.5,1.3,2.9c-1-0.8-2.9-1.5-4.5-2.4 l-1.1-3l-0.5,0.3c-0.8-2.4-1.4-1.2-2.6-3.5c-0.6-0.1-0.4,0.9-0.3,1.7c3.4,2.5,2.3,5.3,4.8,8c-0.7,1.8-6.3-6.6-4.1-0.9 c0.8,0.6,1.9,3.4,2.1,1.9c-1.1,0.3,1.7,3.4-0.2,2.9c-0.2-1.8-3-2.4-3.4-5c0.7,1,1.1,0.3,1.1-0.1c-1.2-0.9-2.2-3.1-3-2.4 c-0.3,0.7-1,1.2,0.3,2.7c1.3,1.7,0.6-0.8,1.6,1.2c-0.6,1.4-2.7-1.1-0.8,2.2c0.5-0.7,1.9,0.9,2.8,2.1l-0.2,1.3l-0.7-1.2 c-1.8,0.1,1.2,2.3-0.2,2.9l-2.2-1.8c-1.2-2.1,2.3-0.4-0.2-3.4c-0.8,0.4,0.1,2.2-1.2,2c0-0.4,0.1-0.6,0.1-1c-0.4,0.1-3.8-3.9-3-0.6 c0.2,1.4,0.7,1.2,1.6,2.4c-0.9,1.3-0.4,2.7-1,3.5c-1.6-2.4-1.5,0.8-2.5-2.2c1.4,1,3.1-0.4,1.8-2.9c-2.5-2.4,1.2-0.3-0.6-3.3 c-1,0.7-3-2.1-4.5-3.7c-0.4,0.1-0.1,1,0,1.4c1.1,1.7,1.5,1.4,2.8,3.1c-1.4,0.4-1.8,2.1-1.1,4.1c-1-0.6-2.1-2.3-1.8-2.8 c-0.9,1.5-2.5,2.3-4.1,2.7c2.8,2.1-0.9,1.7,1.3,3.5c1.1,0.1,3.1,1.6,3.7,3.1c-0.5,0.1-0.9-1.2-1.5-1.6c0.6,1.9-2.6-1.8-1.3,1 c0.5-1.8-2.2-3.5-3.6-5.7c0,1.8-1.1-1.5-1.9-0.9c0,1.8-0.3,3.5-0.9,4.7c-2.7-1.1-3,2.2-4,3.1c-1.4-0.7-2.8-3.3-3.7-3.3 c-0.7,0.6,2.5,2.2,0.6,1.9l-0.3-0.6c0.1,0.8-3.1-0.2-0.9,3.5l-1.6-2.8c-0.4-0.1-0.1,0.6-0.1,1c-0.6-0.8-1.4-1.4-1.5-2.2 c-2-1.3-1.1,1.3-1.8,1.9l1.6,1.2c-0.3,2.1-2.2,1.2-3,2.6l-1.1-1.5v1.4c-0.9-1.6-2.3-2-1.7-0.6l-1-5c1.2,0.5,0.8,2.2,2.2,3.5 c1.2,1.1,2-0.1,1.1-1.7c-0.5,0.1-0.3,0.5-0.2,1.3c-1.7-2-1-2.4-1.8-4c-0.2,0.2-0.9-0.2-0.5,0.5c-0.3-1.3,0-1.8,0.6-2.4 c0.1,1.2,1.2,1.1,1.5,1.8c-1.3-1.9-1.1-2.9,0.2-3.1c2.2,1.7,0.6-2.6,2-2.8c1,2.2,1.6,4,1.5,5.3c1.3,0.5,0.7-0.6,2-0.1 c-0.7-1.6-2.1-3.9-1.9-5.4l1.1,1.3c0.2-1.3-1.3-3.3-0.1-3.6c2.1-0.5,3.8-1.8,5.2-2.6l1.1,1.3c-1.5-3.4,1.5-2.8,1.4-4.8 c2.6,0.1,2.4-3.9,5-2.1c2-3.2,3.7-6,6.9-7.7l1,2.4c-0.6-1.9,1.2,0.9,1.5,0.2c-1.8-1.1-0.9-2.6-1.4-4.1c2.5,0.6,2.8-2.4,2.9-4.6 l1.1,1.3c-0.8-3.4,2.3-2.2,4-2.9c0.6,0.4,1.8,1.5,2.1,1c-0.9-2.8-0.4-2.9-0.3-5.2c0.8-0.6,2.6-1.1,4.1-0.9 c0.8-5.5,5.5-5.9,7.3-10.3l1.5,1.4c0.5-5.8,6.8-5.7,8.1-9.5l1.8,2.9c1.5,0.2,1.4-2.2-0.3-4c1.5,0.2,1.1-2.9,3.3-1.1 c1.2-0.2,0.1-2.1,0.5-3c2.5-0.3,3-1,4.2-2.8l-0.5,0.1c0.3,0.7,1.2,1.9,1.7,1.8c0-1.2,2.8-1-0.3-3.8c3.2,0.6,2.9-4.6,6.5-3.4 c-0.8-0.8-0.5-1.3-0.8-2c1.5-1.2,4.5-0.6,4.5-3.1c0.6,0.3,0.8,1.8,1.5,1.4c0.1-0.6-0.9-1.2-0.8-2c1.2-3.6,6.3-2.1,8.2-4.2 c2.7-4.8,7.5-7.1,11.1-10.3l0.5,0.7c-0.6-3.5,5,0.3,3.1-4.3c0.8,0.4,1.4-0.6,2.1,0.9c-0.3-2.6,4.1-0.5,3.9-3.9 c-0.2,0-0.2,0.2-0.1,0.6c2.6,0.3,2.4-2.7,5-2.5c0.1,0.4-0.1,0.8,0.4,1.5c1.6,0.8-0.7-3.9,2.1-1c0.3-0.3-1-1.8-1.1-1.5 c4.4-1.4,6.5-6.2,9.6-9.7c4,0,4.2,5.2,4.4,1.3c0.6,0.5-0.8-1.3-0.3-0.7c0.1-1.5,3.9,2.6,3.2,0.5c-1.7-1.8-0.5-1.4-1.3-2.6 c2.5,0.1,4.2,1.6,4.3-0.8l0.7,1.1c-0.7-4,2.1-3.7,0.9-8c7.6-6.7,14-14.4,21.6-20.6c8.3-5.2,14.8-12.4,24.1-16.5 c3.9,1.4,4,1.2,5.2-1.4c0.2,0.5,0.2,0.7,0.6,1c-1.5-2.3,1.3-1.3-0.1-3.5c3.3-1.8,5.5-4.4,8.6-6.6c-0.3,0.6,0.8,2.6,1.2,2l-0.4-1.9 l0.6,0.6c0.1-0.6-0.2-2-1.2-2.5c6.3-7.5,17.1-8.5,24.2-14.4c2.5-0.3,4.4-3,6-4.9c7.9-1.1,14.9-2.3,19.3-8.6 C251.9,25,255.3,31.4,253.8,34.5z"/>
			<path class="st5" d="M1.5,220.9c1,1,2.1,1.1,2.7,3C3.3,222.8,2.1,221.9,1.5,220.9z"/>
			<path class="st5" d="M27.6,219.1c-0.2-0.4,0.6,0.3,0.8,0.4c-0.2,0.2,0.3,1.3-0.3,0.9C28.2,220.2,27.8,219.7,27.6,219.1z"/>
			<path class="st5" d="M32.5,216.4c0.7,1,0.3,2.5-0.2,3.1L32.5,216.4z"/>
			<path class="st5" d="M39.8,217.3c1,0.6,1.2,1.1,0.7,1.4C40.1,218.3,40,217.9,39.8,217.3z"/>
			<path class="st5" d="M38.4,214.9c0.3-0.3,0.9,0.2,1.5,0.6C39.3,214.6,39.5,216.6,38.4,214.9z"/>
			<path class="st5" d="M49.6,210.9c0.2-0.2,0-1.4,1-0.5C49.8,209.8,50.5,212.4,49.6,210.9z"/>
			<path class="st5" d="M52.7,206.2c0.2,0,0.4,0.1,0.3-0.3c0.6,0.3,0.9,1.2,0.7,1.4L52.7,206.2z"/>
			<polygon class="st5" points="126,144.1 125.9,145 125.2,143.9 		"/>
			<path class="st5" d="M159.4,118.7c0-1,1,0.7,1.2,0.8C160.3,119.9,159.8,118.2,159.4,118.7z"/>
			<polygon class="st5" points="173.8,100.2 173.7,100.4 172.2,98.3 		"/>
		</g>
		<g>
			<path class="st6" d="M26.8,237.7c-0.4,1,1.7,2.3,0.1,1.4C26.4,237.8,26.1,236.9,26.8,237.7z"/>
			<path class="st6" d="M225,139.6c1.3,8.8-5.6,2.6-5.8,8.7c-0.1,0.5-1.9-4.2-2.1-2.9c0.3,7.1-5.3,5.6-10.7,2.5l-0.4-1.3 c-1-0.6,0.2,3.7-0.7,3.4c-0.4-0.8-0.3-1.2-1-2.2c1,2.4-0.6,1.6,0,3.5c-0.7-0.8-1.6-2.7-2.4-3.5l1,2.8c2.1,6.8-2.6,0.8-2.3,4.7 c-0.2-0.7-0.3-1.2-0.8-1.8c-0.3,4.9-3.3,5.6-5,8.2c-0.4-1-1.1-2.7-1.8-3.8c1.3,2.9,0.9,4,0.5,4.8c-1.7-2.7,0.2,3.2-1.3,2l-0.3-0.7 c0.9,3.3-1.7-1.3-0.3,2.5l-1.5-2.1c1.8,4.2-1.9-1.7-1.3,0.6l0.4,0.8c0.1,1.2-1.2-0.7-1.3,0.2l-0.3-0.4c-0.4,1.5-2.1-0.5-0.5,2.7 c-1.6-2.4,0.3-1.6-2-5.1c-1.5,4.8-5,5.8-8.1,7.4c-1-1.1-1.4-1.4-2.1-2.5c0,0.8-0.9,1.2-0.4,2.9c0.1-0.1-1-1.5-1.3-1.6 c-1.2-0.9,1.1,3.8-0.2,2.7c-0.2-1-0.6-2-1.3-3.2c0.7,2.7-0.2,2.7-0.4,3.8c-0.2-0.6-0.2-1-0.7-2c0.7,3.2-1.6,0-1.3,2.1l-0.7-1.9 c-2.1-1.7,1.6,4,0.1,3.1c-0.1-0.7-0.5-1.4-0.9-2.1c0.9,3.7-0.9,3.3-1.2,4.8c-0.1-0.3-0.3-0.8-0.3-0.8c-0.6,0.8-2.1,0.3-2.3,2.2 c-0.8-0.6-2.1-4.5-2.7-3.4c1.9,3.7-0.8,2.3,1.8,6.2c-1.1-0.2-3-1-2.9,0.5c-0.4-1.6-2.6-4.3-2.2-4.9l-1.6-2 c-0.7-1.5,0.8,0.3-0.4-1.6c-0.2,0.3-0.5,2.2-1,1.8c0.5,2.6,2.1,7,1.4,8c-0.3-1.7-2.3-3.9-2.3-4.7l2.2,7.7 c-0.2,0.3-1.5-2.9-1.5-1.7c0.5,1,0.6,1.7,0.9,2.5c-0.3-0.4-0.9,1.6-2.8-2c-0.9-1.3,0.1-1-0.9-2.1c-0.6,0.3,0,1.6-0.5,1.9l-0.3-0.5 c-0.7-0.3-0.4,2.1,1.1,3.9c0.3,0-1.2-2.1-0.3-1.3c0.8,2.2,0.4,3.2-0.2,3.5c-0.1-0.7-0.6-1.6-1-2.7c0.6,3.2,0.3,4.6,0,6.2 c0.9,1.7-1.3-3.3-0.7-2.5c-2.3-1.8-0.6,4.6-3.4,1.6c0-0.4,1.3,2.4,1.1,1.9c-0.7,0.1-1.9-2.4-1.8-1.3c-0.8-1.4-0.2,0.7-0.4,1.3 c0.3,1.2-0.5-0.7-0.2-1c0.1,1.5-0.8,4.8-3.1,3.3c0.5,1,1.1,3.9,0.7,3.9l-1-2.3c-0.9-1.2-0.8,0.7-1.8-1.2c0.8,3,1-3.5,1.3-1 c-1.2-1.8,0.7,4.2-0.7,1c-0.5,0.4,0.3,3.2-1.3,1.3c0.3,0.3-1.2-3.4-1.5-3c-0.6,0.8,0.3,1.2,0.1,2.3l0.1,1.1 c1.1,2.2-0.8,0.1,0.7,2.4c-1-1.8-0.6,1.7-2.3-2l-1.4-2.9c-0.2,0.4,1,3.3,1.4,4.7c-0.2-0.2-0.6-0.8-0.8-1.2c2.2,4.4-1,0,0.3,3.6 c-1.5-1.2-1.9,0.8-3.6-1.8c0.1,1.6,0.4,3.4-0.6,2.8c-0.1-0.5,0-0.7-0.4-1.7c-1-1.1-0.6,0.1-0.5,1c-0.2-0.7-2.1-2.2-3.3-3.5 c0.1,1.6,1.5,3.9,2.2,5.3c-2.7-4.1-0.1,3.6-2.7-0.1c-0.1-0.7-0.3-2.5-1.3-3.4c-2.7-4.1,0.6,3.7-1.2,2l2,3.5c-1.5-2-0.1,2.7-1.9-1 c0.4,1.4-1.5-0.7,0.3,2.7c-2.8-2.3-2.3,3.4-6.3-2.5c0.1,0.7-0.7,0.3,0.4,2.1c1.3,1.8-0.3-1.6,0.5-0.3c-0.1,0.2,0.3,1.2,0.6,1.7 c-0.8-0.6-1.3-0.7-2.4-3.8c-2-1.7,2.1,6.4,0.3,5.7c-0.7-1.5-1.1-2-1.3-1.6l0.6,2.8c-1-0.2-2.1-3.1-3.4-5.5c-0.2,0.6-0.7,0.7,0,2.7 l-2.1-2.8c1.5,2,0.4,1.7,0.5,2.3l-0.1-0.7c-0.6-1-0.7-0.1-0.8,0.3c0.8,1.5,1.6,1.9,2.1,2.2c0.4,1.2-0.1,1.1,0.3,2.5 c-1.1-2.5-1.5-1.4-2-1.5c-0.6-0.3,0.7,2.4,0.5,2.3c-0.6-1.2-0.7,0.1-1.3-1.8c-0.1-0.5,0.9,1.1,0.5-0.1c-0.7-0.8-1.8-3-1.5-1.2 c0.2,1.4,2.5,4.7,1,3.5c-0.1-0.7-0.6-1.7-0.9-2.6L109,212l1.1,2.2c-0.4-0.5-0.4-0.7-0.6-1c1,2.4-0.6,1.2,0.5,3.9 c-0.2,0.4-1.5-1.2-1.9-1.2v-0.2c-1-1.1-1.1,0-0.7,1.7l-0.2-0.5c-0.3-0.1-0.6,0.5-0.2,2c-1.4-1.4-4.4-8.2-3.6-5.1 c-0.5,0.4,1.2,4.5,2.1,5.8c-1.7-1-1,3.2-3.7,0.2c0.3,1,0.7,1.5,0.7,2.1c-1.9-0.1-1.7,4.2-5.1,0.4c-0.1-1.1-1.1-2.2-1.7-3.5 c0.7,2.1-1.5-1.8,0.1,1.6c1.1,2,1.5,2.9,2.3,3.5c-0.3,1.5-1.6,2.2-3,0.6c0.7,0.8,0.8,1.5,1,2.2c-1.6-3.2-2.4-3.3-2.3-2l0.9,2 l-1.3-1.8c0.1,0.7,1.9,4.1,0.4,2.5c-0.4-0.7-0.8-1.5-1.2-2c0.3,1.8,1,4.9-0.4,3.5l-1.9-2.6c-0.1,0.4,0.4,2.3,1.2,2.9 c-1.8-1.2-2.5-1.1-4-3.4c1.5,6.7-0.7,8.2-2.8,8.7L84,233c-1.2-1.1,1,2.7,0.2,1.8c-0.5-1.5-1.9-2.8-2.4-4.7c-1.5-1.2,0.4,3,0.3,3.9 c0.9,1.9-0.3-1.4,0.9,1.1c0.3,0.7-1.7-1-0.4,1.9c-0.8-1-1.7-3.2-2.2-4.4l0.3,1.6c-2.2-3.1-1.9-6.6-4.5-10.4l-0.2,0.7 c-1.9-2.8-0.7-3.9-2.2-4.4c0.3,1.6,2.1,6,3.1,7.1c-0.5,1.3,3.1,7.1,2,7.3c-1.1-1.6,0.6-0.8-0.8-3.1c-1.6-2.1-0.2,1.8-1.1,1.2 c1,0.8,2.1,3.9,2.1,4.6c-1.2-1.1-1.1-2.9-1.9-2.8c0.7,1.7,0.7,3.3,1.9,4.2c1.7,3.9-1.3-0.7-0.2,2.4c-1.6-2.5-2.4-6.5-3.8-7.4 c1.4,2.5,0.8,3.9,3.2,7.5c-0.7-0.6-1.7-2.6-2.3-4.2c-1.2-1.3,1.3,5.2-1.4,0.2l1.2,2.7c-0.6-0.8-1.1-1.3-2-2.6 c-0.4,0.1,0.6,4.2-1.4,0.2c0.1,0.5-0.9,0.7,0.9,3.3c1.4,1.4-0.4-2.3,1.8,1.2c-1.9-2.8-0.6,0.8-0.4,2l-0.8-1.5 c0.1,0.7-0.5,0.6,0.2,2.3c-0.3-0.9-0.9-1.9-1.2-2.2l1,2.4c-0.2,1.5-2.3-4-2.6-2.9l-0.4-2.1c0.1,0.4-1.3-1.6-1.3-0.7 c0.9,2.2,2,4.8,2.7,6.5c0.1,1.1-1.4-2.3-0.7,0.1l-0.8-2.8c-0.3-0.7-2.1-3.3-2.7-3c0,0.9,1,4.2,2.2,5.1c-0.3,0.2-1.3-0.9-1.9-2.6 c-0.3,1.1,1.2,2.2,1.4,3.8c-0.9-1.3-2.7-3-4.1-4.8l-1.2-3.8l-0.4,0.2c-1-3.1-1.4-2-2.6-5.2c-0.5-0.3-0.3,0.8-0.1,1.7 c3.2,4.4,2.5,7,5,11.2c-0.4,1.7-6.1-10.3-3.6-2.9c0.8,1,2,4.6,2,3c-0.9-0.1,1.8,4.6,0.1,3.2c-0.4-2.1-2.9-4.1-3.4-7.1 c0.7,1.5,1,0.9,0.9,0.4c-1.1-1.5-2.2-4.4-2.8-4.1c-0.2,0.6-0.7,1,0.6,3.2c1.3,2.5,0.5-0.6,1.5,2.1c-0.3,1.3-2.4-2.5-0.5,2.1 c0.3-0.6,1.8,1.9,2.6,3.6l-0.1,1.3l-0.7-1.7c-1.5-0.7,1.3,3.1,0.1,3.2l-2.1-3.1c-1.2-2.9,2,0.6-0.6-3.9c-0.7,0.1,0.3,2.5-0.8,1.6 c-0.1-0.5,0-0.7-0.1-1.1c-0.3,0-3.6-6-2.6-2c0.3,1.6,0.7,1.7,1.6,3.4c-0.7,1-0.1,2.9-0.5,3.5c-1.6-3.4-1.2,0.2-2.3-3.6 c1.3,1.8,2.6,0.9,1.3-2.4c-2.4-3.8,1,0.2-0.8-4c-0.8,0.3-2.8-3.6-4.2-6.1c-0.3-0.1,0,1.1,0.1,1.6c1.1,2.5,1.4,2.3,2.7,4.8 c-1.2-0.2-1.3,1.5-0.6,4.1c-0.9-1.1-2-3.5-1.8-3.9c-0.6,1.2-1.9,1.4-3.2,1.2c2.6,3.6-0.6,1.5,1.5,4.5c1,0.6,2.8,3.2,3.5,5.1 c-0.5-0.1-0.9-1.7-1.4-2.5c0.7,2.4-2.4-3.1-1.1,0.5c0.3-1.7-2.3-4.9-3.7-8.1c0.2,2.1-1.1-2.2-1.8-1.9c0.2,2,0.1,3.8-0.3,4.9 c-2.4-2.4-2.4,1.1-3.1,1.7c-1.2-1.4-2.7-5-3.5-5.3c-0.5,0.3,2.3,3.6,0.7,2.4l-0.3-0.7c0.2,0.9-2.7-1.6-0.4,3.5l-1.7-3.9 c-0.3-0.3,0,0.7,0.1,1.1c-0.6-1.2-1.4-2.3-1.6-3.2c-1.8-2.3-0.8,1-1.3,1.3l1.5,2.1c0,2.2-1.8,0.3-2.3,1.6l-1.1-2.2l0.1,1.6 c-1-2.2-2.1-3.3-1.5-1.4l-1.3-6.1c1,1.1,0.9,2.9,2.3,4.9c1.2,1.8,1.7,0.8,0.8-1.4c-0.4-0.1-0.2,0.4-0.1,1.3 c-1.7-3-1.1-3.1-1.9-5.3c-0.1,0.2-0.8-0.6-0.4,0.4c-0.4-1.7-0.2-2,0.3-2.4c0.2,1.4,1.2,1.8,1.5,2.7c-1.3-2.7-1.2-3.8-0.2-3.4 c2.1,2.8,0.3-2.6,1.5-2.2c1.1,2.9,1.8,5.3,1.9,6.6c1.2,1.1,0.5-0.3,1.7,0.8c-0.8-2.1-2.2-5.3-2.2-6.9l1.1,2 c0.1-1.3-1.5-4.3-0.4-4.1c1.8,0.3,3.1-0.3,4.2-0.6l1.1,2c-1.6-4.6,1-2.5,0.7-4.8c2.2,1.3,1.7-3.3,4.1-0.2c1.4-2.6,2.5-5.1,5.2-5.6 l1.1,3.1c-0.7-2.3,1.1,1.5,1.3,0.9c-1.6-2.1-1-3.3-1.6-5.2c2.2,1.7,2.2-1.4,2-3.9l1.1,2c-1-4.2,1.7-1.5,3.2-1.4 c0.6,0.8,1.7,2.5,1.9,2.1c-1.1-3.5-0.6-3.5-0.8-6c0.7-0.3,2.1-0.1,3.4,0.9c0.1-5.8,4.1-4.2,5.3-8.2l1.4,2.3 c-0.1-6.3,5.3-3.3,6.1-7l1.9,4.1c1.3,0.9,1-1.8-0.7-4.6c1.3,0.9,0.7-2.8,2.8,0.3c1.1,0.4-0.1-2.3,0.2-3.1c2.1,0.8,2.5,0.2,3.4-1.2 l-0.4-0.1c0.3,1,1.2,2.7,1.6,2.8c-0.1-1.4,2.3,0.2-0.6-4.4c2.8,2.1,2-3.9,5.3-0.8c-0.8-1.3-0.6-1.7-0.9-2.6 c1.2-0.7,3.8,1.4,3.6-1.4c0.5,0.6,0.8,2.4,1.4,2.3c0-0.6-0.9-1.7-0.9-2.6c0.7-3.4,5.2,0.5,6.7-1c1.8-4.1,5.8-4.5,8.6-6.5l0.5,1 c-0.9-4.2,4.3,2.6,2.3-3.4c0.7,0.8,1.1,0,1.9,1.9c-0.5-3,3.5,1.3,3-2.6c-0.2,0-0.1,0.2,0,0.7c2.3,1.5,1.8-1.9,4-0.6 c0.1,0.5,0,0.9,0.5,1.9c1.4,1.6-0.9-4.6,1.7-0.1c0.3-0.2-1-2.4-1.1-2.2c3.6,0.4,5-4,7.3-6.5c3.4,1.8,4.1,7.8,3.9,3.5 c0.6,0.8-0.8-1.8-0.3-0.9c0-1.6,3.6,4.7,2.8,2.1c-1.6-2.8-0.5-1.7-1.4-3.5c2.2,1.2,3.7,3.7,3.6,1l0.7,1.5c-1-4.8,1.5-3.2,0-8.6 c5.9-4.1,10.6-9.9,16.5-13.6c6.6-2.1,11.5-7.4,19-7.8c3.4,3.2,3.5,3.1,4.3,0.7c0.3,0.7,0.2,0.9,0.6,1.4c-1.5-3.3,1-0.9-0.4-4 c2.6-0.6,4.3-2.5,6.6-3.7c-0.2,0.5,0.9,3.3,1.3,2.9l-0.6-2.3l0.5,0.9c0.1-0.6-0.4-2.4-1.2-3.3c4.6-5.8,13.6-2.1,19.1-5.8 c2,0.7,3.4-1.5,4.6-2.9c6.6,2.2,12.3,3.7,15.4-1.5C222.4,128,225.9,136.7,225,139.6z"/>
			<path class="st6" d="M27.5,236.9c1,1.5,1.9,2.2,2.6,4.5C29.3,239.9,28.2,238.4,27.5,236.9z"/>
			<path class="st6" d="M49.7,246.6c-0.2-0.5,0.5,0.5,0.7,0.8c-0.1,0.2,0.4,1.7-0.1,0.9C50.4,248,50,247.3,49.7,246.6z"/>
			<path class="st6" d="M53.7,245.7c0.7,1.5,0.5,3,0.2,3.4L53.7,245.7z"/>
			<path class="st6" d="M60,250c0.9,1.1,1.2,1.8,0.8,1.9C60.3,251.2,60.3,250.7,60,250z"/>
			<path class="st6" d="M58.5,246.6c0.3-0.2,0.8,0.6,1.4,1.4C59.3,246.7,59.7,249.1,58.5,246.6z"/>
			<path class="st6" d="M67.8,247.2c0.1-0.2-0.1-1.6,0.8-0.1C67.9,246.1,68.7,249.3,67.8,247.2z"/>
			<path class="st6" d="M69.9,243.3c0.2,0.1,0.3,0.3,0.3-0.2c0.5,0.6,0.9,1.7,0.8,1.9L69.9,243.3z"/>
			<polygon class="st6" points="126.9,206.9 126.9,207.8 126.2,206.3 		"/>
			<path class="st6" d="M153.1,193.4c-0.1-1.1,0.9,1.2,1.1,1.4C153.9,195.2,153.4,193,153.1,193.4z"/>
			<polygon class="st6" points="163.6,179.1 163.5,179.2 162.1,176.2 		"/>
		</g>
		<g class="logo-svg-shadow">
			<g>
				<path d="M223.6,37.3c0,0,0.8-4.5,1,3l0.6,6l1.2,4.4l-0.1,4.4c0,0-2.6,1.4-31.9,5.6c0,0-11.6,3.2-27.3,4.5 c0,0.2-28.6,1.6-57.6,6.5c-29.3,4.2-57.4,15.9-61.2,17.7C48.2,89,64.2,81.1,82,76.9c17.7-4.6,36.6-6.7,38.7-7.7 c0,0-16.9,1.8-34.2,5.4C69.1,77.9,52,84.9,49.4,85.4c-0.1-0.3,15.2-7.3,32-11.7c16.7-4.6,34.7-7.2,37.4-9.3 c0,0.1-15.2,1.5-31.2,4.6c-16.1,2.8-32.6,8.6-36.5,9.1c0,0,11.4-4.2,14.4-5.5L60,73.8l8.5-3.2c1.7-0.5,3.4-0.7,5.1-1 c0-0.2-13.8,2.9-15,2.4c0.1,0.4-5.9,3,18.3-5.9c0,0,14.7-3.1,40.3-7.8C142.8,53.5,179.6,48.1,223.6,37.3z"/>
				<path d="M227.2,56.9c0,0.2-35.8,4.9-69.9,10.1c0,0.1-18.7,1.5-38,4.5c-19.4,2.9-39.2,8.2-42.9,9.3 c-0.1-0.3-20.3,6.7-31.5,12.3"/>
				<path d="M119,71.5c5.9-0.8,50.9-6.1,51-5.7c18-1.3,57.2-8.8,57.2-8.9"/>
				<path d="M116.9,65.7c0,0.1-13.3,1.7-27.9,4.9c-14.6,3-30.2,8.6-35.6,11"/>
				<path d="M131.2,54.9c0,0-15.5,1.3-31.7,4.1c-16.2,2.6-32.9,7.4-35.5,8.2"/>
			</g>
			<g>
				<path d="M232.4,95.5c0,0,1.3-5.1,2,3l1.4,6.3l2.3,4.4v4.8c0.1,0.5-5.1,1.3-56.8,14.2c0.1,0.2-20.7,6.4-46.8,17 c0.2,0.2-12.6,4-27.4,15.5c-7.1,5.9-13.7,14.2-13.5,23.7c-0.1,10.8,4.8,18,16.5,20.9c23,4.8,50.6-4.3,70.5-11.6 c20.4-7.6,34.7-15.5,38.2-16.9c0.3,0.1-29.3,16.6-61.4,25c-15.9,4.3-32.4,6.4-43.9,4.4c-11.9-1.8-16-7.7-16.9-8.4 c0-0.1,2.4,5.1,12.2,8.2c9.6,3.1,25,2.5,40.4-0.8c31.2-6.3,62.4-21.9,66.9-23.2c0.1,0-27.6,15.1-58,23.3 c-15.1,4.2-30.8,6.6-42.7,5.5c-12.1-1-18.7-6.3-20.5-7.6c0-0.2,3.7,5.5,13.5,8.2c9.5,3,23.8,2.7,38.1,0.1 c29-5,58.7-18.4,65.3-20.3c0.1,0.2-20.3,8.8-25.7,11.2c3.2-1,6.5-2.1,9.7-3.2c-5,2.3-10.2,4.4-15.3,6.4c-3,0.9-6,1.8-9.1,2.6 c0,0.3,24.6-7.2,26.5-7.2c-0.2-0.7,10.9-4.6-32.8,12c0-0.1-6.6,1.9-19.1,4.2c-6.3,1.1-14,2.3-23.2,2.3c-9-0.3-20.2-0.7-30.2-9.4 c-9.8-8.7-13.7-29.7-5.2-45.3c8.4-15.4,22.9-24.9,37.9-33C156.2,115.8,193.2,106.2,232.4,95.5z"/>
			</g>
			<g>
				<path d="M198.1,182.8c0,0-0.2,3.7-0.2-2.5l-0.1-5l-0.2-3.7l0.1-3.6c0,0,0.6-1,6.8-3.2c0,0,2.4-2.1,5.9-2.1 c-0.1-0.3,25.1,1.3,26.9,4.1c0-0.2-15.8-4.3-16.8-3c0-0.2,15.1,3.1,16.1,5.4c0-0.1-14.5-4-15.8-1.2c0-0.2,13.3,3.1,14.6,6 c0,0-2.5-1.2-3.2-0.9l1.1,0.9l-1.9-0.3l-1.1-0.7c0,0,2.9,2,3,2.9c0,0,1.4-1-3.9-1C229.6,174.6,217,168.2,198.1,182.8z"/>
				<path d="M197.5,166.4c0,0,7.5-2.9,15-4.7c-0.1-0.1,16.4,0.4,18.3,1.4c0,0,4.9,0.6,7.7,2.4"/>
				<path d="M220.9,162c-1.4-0.7-11.2-0.2-11.2-0.2c-3.9-0.1-12.2,4.6-12.2,4.6"/>
				<path d="M221.2,167.1c0-0.1,11.7,1.8,14.2,3.2"/>
				<path d="M217.9,174.2c0,0,13.2,2.4,14.1,3.6"/>
			</g>
			<g>
				<path d="M224.5,216.9c0,0,2.8,1.1-2-0.4l-3.9-1.1l-2.9-0.6l-2.8-1c0,0-0.7-0.9-0.7-8.7c0,0-1-3.5-0.1-7.4 c-0.2-0.1,7.4-28.1,9.6-29.5c0,0-6.6,16.8-6.2,18.2c0,0,6-16.2,7.9-16.9c0,0-6.2,15.5-4.6,17.7c0,0,5.7-14.3,8-15.3 c0,0-1.5,2.6-1.4,3.4l0.9-1.1l-0.6,2.1l-0.7,1.1c0,0,2.1-2.9,2.9-2.8c0,0-0.4-1.9-1.6,4.4C226.4,178.7,218,191.7,224.5,216.9z"/>
				<path d="M211.7,213.6c0,0-0.3-9.6,0.3-18.7c-0.1-0.1,4.6-18.6,5.6-20.3c0,0,1.5-5.3,3.4-8"/>
				<path d="M214.4,185.3c-0.9,1.3-3,12.9-3,12.9c-1.1,4.5,0.3,15.5,0.3,15.5"/>
				<path d="M218.4,186.3c0,0,4.3-12.8,5.7-15.4"/>
				<path d="M222.9,192.1c0,0,5.3-14.5,6.2-15.5"/>
			</g>
			<g>
				<g>
					<path d="M112.7,239.5c0,0,2.5,3.1-2.5-0.3l-4.1-2.2l-3.4-0.9l-2.7-2.3c-0.3-0.1,1.2-3,10.4-36.2 c0,0,2.5-13.8,7-31.9c0.1,0.1,8.4-32.7,13.3-68.1c5.3-35.3,7.3-72.5,8.4-77.7c0,0-1.3,21.7-3.9,43.9 c-2.4,22.2-6.2,44.7-6.2,47.5c0,0,3.8-20.2,6.4-41.6c2.8-21.3,4.8-43.7,5.7-46.9c0,0-1.3,20.2-3.5,41.2 c-2.1,21-5.3,42.6-4.7,46.4c1,0.3,10.8-73.5,12.4-82.8c0,0-1.6,14.4-1.6,18.2l1.1-6.7c-0.2,3.6-0.5,7.2-0.8,10.8l-0.9,6.2 c0,0,2.7-16.8,3.5-17.9c-0.1,0-0.3-7.8-2.1,22.8c-0.1,0-2.4,18-6.7,49.2C133.2,141.5,127.8,186,112.7,239.5z"/>
				</g>
				<path d="M98.3,233.9c0.1,0.1,14.2-39.2,21-79.8c0,0,5.1-21.6,8.5-45c3.7-23.4,5.9-48.3,6.6-53.1 c0,0,2.1-26.1,3.7-41.7"/>
			</g>
		</g>
	</g>
	<g class="logo-svg-icon">
		<path d="M138.8,154.5c0.7-0.2,1-0.4,1.2-0.5c20.2-8.1,37.2-13.7,45.4-16.4c3.3-1.1,4.3-1.4,4.7-1.6c27-6.7,42.3-10.4,50.6-12.4 c9.9-2.4,10.2-2.5,10.5-2.9l0.1-0.2v-5.3l-2.5-4.7l-1.5-6.6c-0.4-4.8-1-5.3-1.6-5.3c-0.7,0-1.1,0.9-1.4,1.8l-7.2,1.9 c-34.7,9.4-67.7,18.3-96.4,31.3c0.1-0.7,0.2-1.3,0.3-2c0.8-5.3,1.6-10.3,2.3-15c2.4-17,4.2-30.2,5.4-39.2l63.5-12.5 c1.2-0.2,2.4-0.4,3.5-0.6c0.2,0,16.8-2.9,22.1-4c0.8-0.1,1.2-0.2,1.4-0.3c0.1,0,0.2-0.1,0.2-0.1l-0.1,0c0-0.1,0.1-0.2,0.1-0.3H239 l-0.1-0.4c0,0,0,0-0.1,0l0,0c-0.4,0.1-7.3,1.1-16.7,2.4c-6.1,0.8-13.6,1.9-21.7,3c2.1-0.5,3.1-0.7,3.5-0.9v0.1 c16.1-2.3,24.6-3.8,28.8-4.6c5.7-1.1,5.8-1.4,5.8-1.7l0.1-4.7l-1.2-4.6l-0.7-6.4c-0.1-4.7-0.5-5.1-1-5.1c-0.4,0-0.7,0.1-1,1.5 c-31.8,7.8-60.1,12.9-83.6,17c0.4-6.4,0.7-10.3,1-12.7c0,0.1-0.1,0.3-0.1,0.4c0-0.1,0-0.3,0-0.4c0-0.1,0.1-0.3,0.1-0.4 c0,0.1,0,0.3,0,0.4c0.3-1.3,0.6-2.2,0.7-2.5c0,0,0,0,0,0l0.3-0.5h-0.4c0-0.2-0.1-0.4-0.1-0.4c-0.1-0.3-0.2-0.6-0.5-0.6 c-0.4,0-0.6,0-1,3.9c-0.1,0.7-0.3,1.5-0.5,2.6c0.1-1.4,0.2-2.7,0.3-4.1l-0.7-0.1c0.4-4.7,1-9.9,1.2-12.1c0-0.1,0-0.2,0-0.2 l-0.9-0.1c-0.6,3.3-2.2,14.5-4,27.5c-0.8,0.1-1.5,0.3-2.3,0.4c1.3-13.4,2.5-29.1,2.6-32.5c0.1-0.1,0.1-0.1,0.1-0.2h-0.1 c0-0.2,0-0.4,0-0.4l-0.5-0.6l-0.2,0.8c-0.5,1.9-1.4,9.2-2.5,19.4c-0.4,4.2-1,9-1.5,13.9c-0.1,0-0.2,0-0.3,0.1 c0.9-8.4,1.5-16.2,2-21.9c0.8-9.8,1-13.1,1-14.3c0-0.1,0-0.1,0-0.2c0-0.4-0.1-0.5-0.2-0.5l-0.5-0.2l-0.1,0.6 c-0.4,1.9-0.9,7.7-1.7,16.6c-0.5,5.8-1.1,12.6-1.8,20.1c-0.1,0-0.3,0-0.4,0.1c0.1-0.6,0.1-1.4,0.2-2.5c0.7-8.3,2.3-27.6,3.6-40.3 l-0.9-0.1c-0.2,2.2-0.5,4.7-0.7,7.3l-6.5,35.7c-0.2,0-0.5,0-0.9,0.1c-12.1,1.1-23.2,2.6-32.9,4.2c-19.1,3-38,8.6-38.2,8.7l0.2,0.5 c0,0,0,0-0.1,0l0.1,0l0.1,0.4c0,0,1.5-0.5,3.9-1.1l61.9-11.2c0.9-0.1,1.8-0.2,2.6-0.3c-4,0.7-7.9,1.4-11.5,2 c-21.1,3.9-41.3,7.8-43.4,8.4C73.8,70.1,64.6,73.5,60,75c-1,0.1-1.7,0.2-1.9,0.1l-0.8-0.3l0.1,0.6l-0.1,0.1 c-0.3,0.2-0.6,0.5-0.4,0.9c0.2,0.3,0.3,0.5,3.4-0.5c1-0.1,2.2-0.3,3.8-0.6l-4.8,1.8l0.2,0.7c-2.6,1-5.4,2-7.3,2.8 c-2.5,1-2.5,1-2.6,1.1L49,82.6l1.1-0.1c1.6-0.1,4.9-1.1,9.5-2.4c7.9-2.3,18.8-5.3,29.7-7.2c12.6-2.4,24.6-3.8,30.3-4.5 c-0.5,0.2-1.1,0.3-1.7,0.5c-4.9,0.7-15.7,2.3-27.3,4.9c-16.1,3.3-33.1,9.4-38.3,11.7l0.2,0.4c0,0-0.1,0-0.1,0l0.1,0l0.2,0.4 c0.7-0.3,1.7-0.7,2.9-1.2l6.8-1.7c-8.4,3.1-14.3,5.8-14.5,6.3l-0.1,0.2l0.2,0.5h0.3c0.8-0.2,2.7-0.8,5.5-1.8 c7.2-2.6,20.7-7.2,34.3-9.7c5.8-1.1,11.5-2.2,16.7-3c-6.7,1.2-14.3,2.7-21.7,4.6C66,84.5,49.3,92,46.9,93.6h-0.1 c-0.1,0.1-0.2,0.2-0.2,0.2L46.5,94l0.4,0.6l0.3-0.2c4.7-2.2,34.8-14.4,65.6-19c6.8-1.1,13.6-2.1,20-2.9l-0.2,0.8 c-2.8,0.4-5.7,0.8-8.6,1.2c-0.5,0.1-0.9,0.1-1.2,0.2l0,0c-19.4,2.8-40.1,8.2-45.9,9.9c-2.7,0.4-23.1,7.7-33.9,13.1l0.2,0.5 c0,0,0,0,0,0l0,0l0.2,0.3c0.4-0.2,0.8-0.4,1.2-0.6l86.6-17.1l-11.7,63.7c-12.2,7.3-23.5,16.3-30.7,29.6 c-9.6,17.3-4.7,39.6,5.6,48.7c3.1,2.7,6.4,4.6,9.7,6.1l-3,16.4c-0.6,1.6-0.9,2.4-0.9,2.5l0.4,0.2l0.2,0.4c0.3-0.1,2.9-7.2,6.3-18.3 c0,0,0,0,0,0c-2.4,8-3.7,12.4-4.5,14.9c-0.9,3-0.9,3.1-0.5,3.3l2.9,2.4l3.7,1l4.4,2.3c2.1,1.4,2.9,1.8,3.4,1.8c0.2,0,0.3-0.1,0-0.2 c0.3-0.2,0.3-0.6,0-1.1c-0.1-0.3-0.3-0.5-0.4-0.7c2-7.2,3.9-14.2,5.7-21c1.9,0.1,3.7,0.2,5.3,0.2c7.1,0,13.4-0.7,19.3-1.7 c2.1-0.3,4-0.6,5.8-0.9c13.4-2.5,20.5-4.6,20.5-4.5c17.5-6.6,26.8-10.2,31.6-12c-0.5,0.1-1.1,0.3-1.7,0.5c0.5-0.2,1-0.4,1.5-0.5 c0.5-0.1,1-0.3,1.4-0.4c-0.4,0.1-0.7,0.3-1.2,0.4c1.9-0.5,3.2-0.8,3.6-0.8c0,0,0-0.1,0-0.1h0.4l-0.1-0.3c0.5-0.4,1.3-0.8,0.5-0.5 c0,0,0,0,0,0c0.4-0.2,0.7-0.4,0.5-0.8c-0.2-0.3-0.2-0.4-5.5,1.6c-1.7,0.5-4.1,1.2-6.8,1.9c2.9-1.2,5.7-2.4,8.5-3.6 c-0.2,0.1-0.4,0.1-0.5,0.2c0.2-0.1,0.4-0.2,0.6-0.3l-0.3-0.8c-0.3,0.1-0.5,0.2-0.8,0.3c0,0,0,0,0,0c8.3-3.5,18.3-7.8,18.2-7.9 c-0.1,0-0.1,0-0.2,0.1c0,0,0.1,0,0.1-0.1h0.1h0c0.2-0.1,0.3-0.2,0.3-0.2c-0.1,0.6-0.3,1.3-0.4,2.1c-0.2,0.9-0.3,1.4-0.3,1.7 c-0.2,1-0.4,2-0.6,3.2c-0.1,0.2-0.1,0.4-0.1,0.4c-0.5,2.1-0.6,5.5-0.3,10.2c0,0,0.5,6.4,0.8,6.7l0.1-0.1c0,0,0,0.1,0,0.1l0.6-0.2 c0,0,0-0.1,0-0.2l0,0c0,0,0,0,0,0c0-0.3,0-0.9,0-1.8l0.1-0.5c0.2,2.1,0.5,2.6,0.5,2.7l0.1,0.1l3.2,1.1l3.1,0.7l4.1,1.2 c2,0.6,2.8,0.9,3.2,0.9c0.2,0,0.3-0.1,0-0.7c0.2-0.4-0.2-0.6-0.9-0.9c-2.8-10.7-2.9-19.3-2.2-25.7h0.4l0.4,0.1 c0.6-1.5,5.2-13.7,6.5-16c1.4,0.4,2.4,0.7,2.6,1l0.7-0.5c-0.5-0.5-2.9-1.2-5.6-1.9c0.1-0.5,0.2-0.9,0.3-1.1c0.2,0,0.2-0.1,0.3-0.1 h0.6l0-0.1c0.5,0.2,0.8,0.3,1,0.4l-0.1,0.2h0.6c2,0,3,0.2,3.5,0.3c0.1,0.2,0.2,0.3,0.2,0.4l0.1,0.7l0.6-0.4 c0.2-0.1,0.4-0.4,0.3-0.8c-0.1-0.2-0.3-0.4-0.8-0.6c-0.2-0.2-0.4-0.4-0.6-0.6l2.4,0.3l-1-0.7c0.4,0.2,0.9,0.4,1.3,0.6l1.2,0.6 l-0.6-1.2c-0.6-1.4-3.5-2.9-8.5-4.6c-2.2-0.8-5.1-1.6-6.6-1.9c0.1,0,0.2-0.1,0.3-0.1c1.1,0.2,3.2,0.5,5.4,0.9l6.1,1.4 c1.1,0.3,2.1,0.6,2.6,0.9l0.2-0.3l0,0c0,0,0,0,0,0l0.2-0.4c-1.3-0.7-5.9-1.8-9.8-2.6c4.3,0.4,9.5,1.7,10.6,2.1l0.5,1.1l0.3-1.3 c0-0.1,0-0.2-0.1-0.3c-0.6-1.2-4-2.5-7.6-3.6l0.9,0c3.2,0.7,6,1.4,6.7,1.7l0.6,0.9l0.2-1.2v-0.4l-0.2-0.1c-0.2-0.2-0.5-0.6-1.7-1 l1.5,0c0.3,0.2,0.6,0.3,0.9,0.5l0.5-0.8c-2.8-1.8-7.6-2.5-8.3-2.6c-0.5-0.2-1.9-0.7-10.6-1.2l0,0c-0.8-0.4-4-0.6-9.3-0.4v0 c0,0,0,0,0,0c-0.8,0-1.7,0.1-2.6,0.1c-0.1,0-0.3,0-0.3,0c-3.6-0.2-10.4,3.3-13.2,4.8l-0.1,0.1l0.2,0.4v0.1l0,0h0v0.4 c0,0,0.1,0,0.1,0c0,0,0,0,0,0c0.1,0,0.1,0,0.4-0.1c0.3-0.1,0.6-0.2,0.9-0.3l0.8,0c-1.9,0.9-2.2,1.4-2.3,1.6l-0.1,0.1l-0.1,4 l0.2,3.9l0.1,5.3c0,4.3,0,4.3,0.6,4.3c0.4,0,0.5-0.3,0.7-1.4c7.9-6,14.7-8.6,20-9.6c-0.1,0.2-0.1,0.4-0.1,0.5 c-0.3,0.5-0.7,1.8-1.2,3.4c-0.7,0.4-1.6,0.8-2.5,1.2c-6.8,3.3-19.5,9.5-35.5,15.4c-21.4,7.7-43.7,14.4-63.8,13.7 c5.4-23.4,9.2-44.7,12.1-63.3C138,154.8,138.4,154.6,138.8,154.5z M139.2,79.3c-0.2,1.3-0.4,2.5-0.5,3.8 C138.8,81.8,139,80.6,139.2,79.3L139.2,79.3z M138.4,108.6c0.4-3.8,0.9-8.7,1.6-14.1c0.1-0.9,0.2-1.7,0.3-2.6c0.5-4.1,1-8.5,1.6-13 l1.4-0.3c-2.1,14.3-4.1,28-5.2,34.2C138.2,111.5,138.3,110.1,138.4,108.6z M144.2,71.9c-0.5,0.1-1.1,0.1-1.6,0.2 c0-0.2,0.1-0.5,0.1-0.7c0.6-0.1,1.1-0.1,1.7-0.2C144.3,71.4,144.3,71.7,144.2,71.9z M140.1,72.4c0,0-0.1,0-0.1,0 c0-0.3,0.1-0.5,0.1-0.8c0.1,0,0.1,0,0.2,0C140.2,71.9,140.2,72.1,140.1,72.4z M106.8,214.5c-7.2-3.7-10.6-10.1-10.5-19.3 c-0.1-10.6,7.8-19.3,14.4-24.8c1.6-1.3,3.3-2.4,4.8-3.5L106.8,214.5z M105.7,220.4l-0.1,0.6c-1.6-0.8-3.1-1.7-4.4-2.8 C102.4,218.9,104,219.7,105.7,220.4z M123.6,163v-0.1c0,0,0-0.1,0.1-0.1c0,0.2-0.1,0.4-0.1,0.5C123.6,163.2,123.6,163.1,123.6,163z M123.9,161.7C123.9,161.7,123.9,161.6,123.9,161.7c0-0.1,0-0.1,0-0.1c0,0.1-0.1,0.3-0.1,0.4C123.9,161.9,123.9,161.8,123.9,161.7z M158.1,70.5c-2.3,0.2-5.3,0.5-8.6,0.9c0-0.2,0.1-0.5,0.1-0.7c8.4-0.8,15.4-1.4,19.8-1.7L158.1,70.5z M138.9,71.8 c0,0.3-0.1,0.5-0.1,0.8c-0.1,0-0.3,0-0.4,0.1c0-0.3,0.1-0.5,0.1-0.8C138.6,71.8,138.7,71.8,138.9,71.8z M138,79.5 c-0.9,7.6-1.9,15.5-3.1,23.4c-1.8,12.9-4,25.5-6.2,36.5c0,0-0.1,0-0.1,0c1.7-8.5,3.1-16.6,4.2-24.3c2-12.3,3.6-25.2,4.8-35.5 L138,79.5z M233.7,183.8c0.1,0,0.1,0,0.2,0c-0.1,0.4-0.3,0.7-0.4,1.1c-0.1,0-0.1,0-0.2,0C233.4,184.5,233.6,184.1,233.7,183.8z M233.2,185.7c-0.5,1.2-0.9,2.5-1.4,3.8c0.4-1.3,0.8-2.6,1.3-3.9C233.1,185.6,233.1,185.7,233.2,185.7z M231.2,184.5 c-0.1,0-0.1,0-0.2,0c0.1-0.2,0.1-0.4,0.2-0.6c0.1,0,0.2,0,0.3,0C231.4,184.1,231.3,184.3,231.2,184.5z M230.8,185.2 c0,0,0.1,0,0.1,0c-0.2,0.4-0.3,0.7-0.5,1.1l0.1-0.3C230.6,185.7,230.7,185.4,230.8,185.2z M234.1,185.8c0.3,0.1,0.6,0.1,0.9,0.2 c-1.5,2.9-3.1,6.4-4.1,8.8C231.7,192.2,233,188.7,234.1,185.8z M234.4,185.1c0.2-0.4,0.3-0.9,0.5-1.3c0.5,0,0.9,0.1,1.3,0.1 c-0.3,0.4-0.5,0.9-0.8,1.4C235,185.2,234.7,185.2,234.4,185.1z M238.5,184.3c0.1,0,0.1,0,0.2,0c0,0,0,0.1-0.1,0.1 c-0.1,0.1-0.2,0.2-0.3,0.3L238.5,184.3z M225.8,192.6c-1.3,0.5-3.2,1.3-5.7,2.4c-12.5,5.4-38.6,16.6-64.6,21.8 c-11.1,2.4-21.7,3.3-30.5,2.9c0,0,0-0.1,0-0.1c10.8,0.4,24.7-1.5,39.5-5.5c17.9-4.6,34.8-11.5,45.9-16.5c6.5-3,11.5-5.5,14.6-7.1 c0.6-0.3,1.1-0.6,1.6-0.8C226.3,190.6,226,191.6,225.8,192.6z M149.6,48.1c0,0,0-0.1,0-0.1l0,0L149.6,48.1z M65.4,76.4 c-0.1,0-0.1,0-0.2,0.1l0,0L65.4,76.4z M223.1,202.2l-0.1-0.4l-0.4,0.1c-1.8,0.5-5.1,1.8-9.6,3.5c-12.9,4.9-37.1,14.1-60.4,18.1 c-10.6,1.9-20.6,2.5-29,1.9c0.1-0.5,0.3-1,0.4-1.6c11.3,0.3,25.7-1.9,41.3-6.2c16.9-4.5,32.9-11,43.4-15.6c6.1-2.7,10.9-5,13.8-6.5 c1.2-0.6,2.1-1.1,2.8-1.4c-0.2,0.7-0.4,1.4-0.5,2c-0.4,0.8-1,2.8-1.7,6.2C223.1,202.3,223.1,202.3,223.1,202.2z M234,203.4 c0.8-7.2,2.8-11.6,3.7-13.4c0.1-0.2,0.2-0.4,0.3-0.5l0.2,0.1l0.1-0.5c0.2-0.9,0.3-1.6,0.5-2.2c0.6,0.1,1.1,0.3,1.6,0.4 C238.8,190.4,234.2,202.7,234,203.4z"/>
	</g>
</svg>
