<svg width="377" height="51" viewBox="0 0 377 51" fill="none" xmlns="http://www.w3.org/2000/svg">
    <path d="M137.471 7.92725V43.0728H130.719V25.2938L119.65 38.5364L108.672 25.2938V43.0728H101.92V7.92725H102.38L119.65 28.2264L137.012 7.92725H137.471Z" fill="black" />
    <path d="M161.722 13.5175C160.115 13.5175 158.645 13.8382 157.221 14.5255C155.843 15.167 154.603 16.0377 153.593 17.1374C152.536 18.2371 151.709 19.5201 151.112 20.9406C150.515 22.3611 150.194 23.9191 150.194 25.477C150.194 27.035 150.515 28.5929 151.112 30.0592C151.709 31.4797 152.536 32.7627 153.593 33.8625C154.649 34.9622 155.843 35.8328 157.221 36.5201C158.599 37.1617 160.115 37.5282 161.722 37.5282C163.33 37.5282 164.846 37.2075 166.224 36.5201C167.601 35.8786 168.842 35.008 169.898 33.8625C170.954 32.7627 171.781 31.4797 172.378 30.0592C172.975 28.6387 173.297 27.0808 173.297 25.477C173.297 23.8732 172.975 22.4069 172.378 20.9406C171.781 19.4743 170.954 18.1913 169.898 17.1374C168.842 16.0377 167.647 15.167 166.224 14.5255C164.846 13.884 163.33 13.5175 161.722 13.5175ZM161.722 43.76C159.196 43.76 156.854 43.3018 154.649 42.3396C152.444 41.3773 150.515 40.0943 148.862 38.4447C147.208 36.7951 145.876 34.8705 144.958 32.6711C143.993 30.4716 143.488 28.0889 143.488 25.5687C143.488 23.0484 143.947 20.7115 144.958 18.4662C145.922 16.221 147.208 14.2964 148.862 12.6468C150.515 10.9972 152.444 9.66839 154.649 8.75195C156.854 7.78969 159.242 7.28564 161.722 7.28564C164.203 7.28564 166.637 7.78969 168.842 8.75195C171.046 9.71422 172.975 10.9972 174.629 12.6468C176.282 14.2964 177.568 16.221 178.533 18.4662C179.498 20.7115 180.003 23.0484 180.003 25.5687C180.003 28.0889 179.543 30.4716 178.533 32.6711C177.568 34.8705 176.282 36.7951 174.629 38.4447C172.975 40.0943 171.046 41.4231 168.842 42.3396C166.637 43.3018 164.249 43.76 161.722 43.76Z" fill="black" />
    <path d="M192.725 25.9353H202.003C202.601 25.9353 203.244 25.7978 203.887 25.5687C204.53 25.3396 205.127 24.973 205.632 24.4689C206.137 23.9649 206.551 23.3692 206.918 22.6361C207.24 21.9029 207.423 21.0323 207.423 20.0242C207.423 19.5202 207.377 18.9245 207.24 18.1913C207.102 17.504 206.872 16.8167 206.459 16.1751C206.091 15.5336 205.54 14.9838 204.805 14.5256C204.116 14.0673 203.152 13.8382 201.958 13.8382H192.68V25.8894L192.725 25.9353ZM192.725 43.0727H185.974V7.88135H202.003C203.795 7.88135 205.448 8.15628 206.964 8.75197C208.48 9.34765 209.72 10.1725 210.776 11.2264C211.833 12.2803 212.659 13.5633 213.257 15.0754C213.854 16.5875 214.175 18.1913 214.175 19.9326C214.175 22.5902 213.486 24.9272 212.154 26.8975C210.822 28.8679 209.031 30.3342 206.826 31.159C209.812 35.0539 212.705 38.9946 215.599 42.9811H207.561C206.137 41.1482 204.759 39.3153 203.427 37.4366C202.095 35.5579 200.717 33.6792 199.385 31.7547H192.725V42.9353V43.0727Z" fill="black" />
    <path d="M236.957 37.1159C237.554 37.1159 238.06 36.9784 238.611 36.7035C239.116 36.4285 239.575 36.0619 239.943 35.6037C240.31 35.1455 240.632 34.6415 240.861 34.0458C241.091 33.4959 241.183 32.9002 241.183 32.3504C241.183 31.159 240.724 30.1509 239.851 29.3719C238.978 28.5929 237.738 28.1805 236.222 28.1805H227.404V37.1159H236.957ZM227.404 22.2237H235.671C236.36 22.2237 236.911 22.0862 237.417 21.8571C237.922 21.5822 238.335 21.2614 238.657 20.849C238.978 20.4366 239.254 19.9784 239.438 19.4285C239.621 18.8787 239.713 18.3746 239.713 17.8706C239.713 17.3665 239.621 16.8625 239.438 16.3584C239.254 15.9002 238.978 15.442 238.657 15.1212C238.335 14.7547 237.968 14.4797 237.508 14.2506C237.049 14.0215 236.636 13.9299 236.131 13.9299H227.358V22.3153L227.404 22.2237ZM246.465 17.6873C246.465 18.3746 246.327 19.1536 246.052 19.9326C245.776 20.7574 245.363 21.4905 244.857 22.132C244.352 22.8194 243.755 23.3692 243.066 23.8274C242.377 24.2857 241.596 24.5606 240.77 24.5606C241.642 24.6064 242.515 24.8813 243.342 25.2937C244.168 25.7061 244.949 26.3018 245.638 27.035C246.327 27.7681 246.878 28.6388 247.292 29.601C247.705 30.5633 247.935 31.5714 247.935 32.6711C247.935 34.5956 247.659 36.1994 247.062 37.5282C246.465 38.8571 245.684 39.911 244.72 40.7358C243.709 41.5606 242.561 42.1563 241.229 42.477C239.897 42.8436 238.473 43.0269 236.957 43.0269H220.698V7.88135H236.222C237.646 7.88135 238.978 8.01881 240.218 8.29375C241.458 8.56868 242.561 9.07272 243.479 9.80588C244.398 10.539 245.133 11.5471 245.684 12.7843C246.235 14.0673 246.511 15.6711 246.511 17.6873" fill="black" />
    <path d="M261.851 7.92725H255.1V43.0728H261.851V7.92725Z" fill="black" />
    <path d="M301.398 7.88135V43.0727H294.646V29.097H277.284V43.0727H270.532V7.88135H277.284V23.1401H294.646V7.88135H301.398Z" fill="black" />
    <path d="M318.806 31.709H328.865L323.858 21.0783L318.806 31.709ZM305.532 43.1187L323.537 7.97314H324.226L342.23 43.1187H334.927L332.172 37.5742H315.545L312.835 43.1187H305.532Z" fill="black" />
    <path d="M376.265 43.0728L353.116 22.1779V43.0728H346.364V7.92725H347.053L370.248 29.1887V7.92725H377V43.0728H376.265Z" fill="black" />
    <path d="M76.7504 41.0108C73.4434 42.248 69.9067 42.1563 66.6456 40.7358L60.9502 38.3072C57.5054 36.8409 53.6932 36.8409 50.2024 38.3072L43.864 41.0108C40.5569 42.248 37.0203 42.1563 33.7592 40.7358L28.3394 38.4447L32.565 49.3962L33.7133 49.9002C36.9743 51.2749 40.511 51.3665 43.818 50.1752L50.1565 47.4717C53.6472 46.0054 57.4136 46.0054 60.9043 47.4717L66.5997 49.9002C69.8608 51.2749 73.3975 51.3665 76.7045 50.1752L82.8133 47.5633V38.3989L76.7045 41.0108H76.7504Z" fill="#0F58CE" />
    <path d="M76.7506 22.1318C73.4436 23.369 69.9069 23.2774 66.6458 21.8569L60.9504 19.4283C57.5056 17.962 53.6933 17.962 50.2026 19.4283L43.8641 22.1318C40.5571 23.369 37.0205 23.2774 33.7594 21.8569L31.4169 20.8488L24.6191 27.5847C25.7674 27.768 26.9616 28.0887 28.064 28.5469L33.7594 30.9755C37.0205 32.3502 40.5571 32.4418 43.8641 31.2504L50.2026 28.5469C53.6933 27.0806 57.4597 27.0806 60.9504 28.5469L66.6458 30.9755C69.9069 32.3502 73.4436 32.4418 76.7506 31.2504L82.8594 28.6386V19.4742L76.7506 22.086V22.1318Z" fill="#0F58CE" />
    <path d="M76.7502 3.8033C73.4432 5.04049 69.9066 4.94885 66.6455 3.52836L60.9501 1.09979C57.5052 -0.366515 53.693 -0.366515 50.2023 1.09979L43.8638 3.8033C40.5568 5.04049 37.0201 4.94885 33.759 3.52836L28.1095 1.09979C25.3996 -0.04576 22.4141 -0.320693 19.5664 0.366639L27.0531 7.83564L30.4979 11.2723L33.8509 12.6928C37.112 14.0674 40.6486 14.1591 43.9557 12.9677L50.2941 10.2642C53.7849 8.7979 57.5512 8.7979 61.0419 10.2642L66.7373 12.6928C69.9984 14.0674 73.5351 14.1591 76.8421 12.9677L82.9509 10.3559V1.19144L76.8421 3.8033H76.7502Z" fill="#0F58CE" />
    <path d="M13.8788 2.70076L8.71484 7.85254L13.8788 13.0043L19.0428 7.85254L13.8788 2.70076Z" fill="black" />
    <path d="M22.6381 11.4068L17.4741 16.5586L22.6381 21.7104L27.8021 16.5586L22.6381 11.4068Z" fill="black" />
    <path d="M5.15228 11.3931L-0.0117188 16.5449L5.15228 21.6967L10.3163 16.5449L5.15228 11.3931Z" fill="black" />
    <path d="M13.8709 16.5415L2.29639 46.5092C8.08367 44.3097 12.2174 47.6547 13.8709 50.0833C15.5245 47.6547 19.6582 44.3097 25.4455 46.5092L13.8709 16.5415Z" fill="black" />
</svg>
