<?xml version="1.0" encoding="UTF-8"?>
<svg width="104px" height="104px" viewBox="0 0 104 104" version="1.1" xmlns="http://www.w3.org/2000/svg" xmlns:xlink="http://www.w3.org/1999/xlink">
    <title>menu01</title>
    <defs>
        <rect id="path-1" x="0" y="0" width="80" height="80" rx="40"></rect>
        <filter x="-22.5%" y="-21.2%" width="147.5%" height="147.5%" filterUnits="objectBoundingBox" id="filter-2">
            <feOffset dx="1" dy="2" in="SourceAlpha" result="shadowOffsetOuter1"></feOffset>
            <feGaussianBlur stdDeviation="6" in="shadowOffsetOuter1" result="shadowBlurOuter1"></feGaussianBlur>
            <feColorMatrix values="0 0 0 0 0   0 0 0 0 0   0 0 0 0 0  0 0 0 0.145241477 0" type="matrix" in="shadowBlurOuter1"></feColorMatrix>
        </filter>
        <polygon id="path-3" points="7.9780237e-14 1.59560474e-13 24.3157895 1.59560474e-13 24.3157895 21.0852713 7.9780237e-14 21.0852713"></polygon>
    </defs>
    <g id="Symbols" stroke="none" stroke-width="1" fill="none" fill-rule="evenodd">
        <g id="Menu" transform="translate(-13.000000, -7.000000)">
            <g id="menu01" transform="translate(24.000000, 17.000000)">
                <g id="Rectangle">
                    <use fill="black" fill-opacity="1" filter="url(#filter-2)" xlink:href="#path-1"></use>
                    <use fill="#FFFFFF" fill-rule="evenodd" xlink:href="#path-1"></use>
                </g>
                <g id="Group-141" transform="translate(8.420965, 18.245614)">
                    <path d="M31.3321979,21.1177829 C27.2348363,21.0734319 21.6821687,22.6205656 17.7459914,23.9259228 C14.1228904,25.1276252 10.9477773,26.4346719 9.93395443,26.957423 L9.75021434,25.1503498 C11.175615,24.5844303 26.4677742,18.5907021 33.2194409,19.0904751 C39.7863537,19.5769851 50.6374939,22.4263503 52.2674163,22.8617509 L51.7494805,24.6114634 C50.9906973,24.4104897 48.1313637,23.6669126 44.5943459,22.9236734 C40.7884341,22.1239183 35.3981336,21.1615427 31.3321979,21.1177829 M14.6995386,20.3050182 C19.0159522,18.666479 25.6207958,16.6874927 32.5739429,16.5644925 C42.3722314,16.3886089 54.179158,20.5922441 57.1738257,21.7241675 L53.1440466,22.3975432 L52.542055,22.4981567 C51.7244749,22.2774997 40.1500323,19.1802754 33.2506133,18.6692668 C26.2542133,18.1503172 10.8284941,24.2628218 9.54856488,24.7758579 L6.68762618,24.0892191 L6.67546132,24.0860934 C7.57675923,23.4982941 10.5163471,21.8928704 14.6995386,20.3050182 M58.1799783,21.8007892 C58.1799783,21.7989307 58.1799783,21.7970721 58.1799783,21.7952136 C58.1792852,21.7801765 58.1765819,21.7654773 58.1726959,21.7512005 C58.1717667,21.7475679 58.170584,21.7441043 58.1694857,21.7406407 C58.1653463,21.7278845 58.1602776,21.7155507 58.1538573,21.7038927 C58.152928,21.7022031 58.1522522,21.7004291 58.1512384,21.6987395 C58.1437199,21.6858144 58.1344273,21.6739874 58.1242899,21.6629208 C58.1231072,21.6615691 58.1223469,21.659964 58.1211642,21.6586969 C58.1197281,21.6571763 58.1178696,21.656247 58.116349,21.6548109 C58.106634,21.6453493 58.0961587,21.6365636 58.0845851,21.6289605 C58.0830645,21.6280313 58.0817974,21.6267641 58.0801923,21.6258348 C58.0702239,21.6196679 58.0596641,21.6141768 58.0484285,21.609615 C58.01337,21.5954227 54.4908825,20.1757665 49.616068,18.8001235 C45.11338,17.5295714 38.5011869,16.0397139 32.5664244,16.1421015 C25.4206669,16.2685653 18.646698,18.3290731 14.2223213,20.0353638 C11.555429,21.0638014 9.54450993,22.0331887 8.32717907,22.6653391 C7.50275632,23.0934746 6.97763984,23.4002994 6.68221957,23.5823499 C6.37666192,23.7706518 6.20990196,23.8889213 6.11815863,23.9745822 C6.10092508,23.9806647 6.0841984,23.9886056 6.06949919,24.0002636 C6.02818935,24.0329567 6.00445098,24.0829677 6.00535394,24.1356821 L6.04635216,26.5570808 C6.04761934,26.6342939 6.10117852,26.7007782 6.17636411,26.7186031 L9.77074255,27.5688762 C9.78358323,27.5719174 9.79667735,27.573438 9.80960252,27.573438 C9.85015205,27.573438 9.88985681,27.5588233 9.92102926,27.5315368 C9.95676354,27.5001954 9.97619353,27.4553375 9.97729174,27.4084521 C11.1531438,26.7145481 23.8856136,21.4628764 31.3276361,21.5401739 C35.3585978,21.5835113 40.7184017,22.5409872 44.5050525,23.3365184 C48.6131429,24.1996321 51.8065033,25.0637596 51.8382671,25.0724609 C51.8585418,25.077952 51.8788166,25.0793036 51.8987535,25.0787968 C51.9274761,25.0805708 51.9621966,25.0815001 52.0040133,25.0815001 C52.9427351,25.0815001 57.0299593,24.6513371 57.3242814,24.5042605 C57.4096043,24.461599 57.6690369,24.331925 58.176075,21.8476746 C58.1765819,21.8454782 58.176244,21.8432817 58.1765819,21.8411698 C58.1773422,21.8368614 58.1786094,21.8328064 58.1790318,21.828498 C58.1799783,21.8192054 58.1799783,21.8099973 58.1799783,21.8007892" id="Fill-1" fill="#00385B"></path>
                    <path d="M30.6584336,11.9779683 C25.6977892,11.9243246 18.9769571,13.7971218 14.2121332,15.377371 C9.82636299,16.8319167 5.98294283,18.4141089 4.75572802,19.0468506 L4.53329692,16.8594566 C6.25876415,16.1744228 24.7694583,8.91935058 32.9429775,9.52396106 C40.8900107,10.1126896 54.0215555,13.5604984 56.0007107,14.089163 L55.3737135,16.2072004 C54.4517184,15.9628894 50.9903932,15.0630276 46.7124172,14.1640951 C42.1053141,13.1960594 35.5803024,12.0309361 30.6584336,11.9779683 M10.5244908,10.9941352 C15.749552,9.01075599 23.7447377,6.61520769 32.1615542,6.46618815 C39.2794338,6.33980876 47.2304375,8.13513946 52.6461659,9.66301217 C56.9698446,10.8827084 60.4093745,12.1307893 61.9415556,12.7118304 L56.333048,13.6489471 C55.3429635,13.381827 41.3323385,9.63276898 32.9807393,9.01413512 C29.3434459,8.7441428 23.3938997,9.91281421 15.2982694,12.4863581 C9.68621366,14.2702842 4.94225589,16.1457847 4.28940836,16.406231 L0.826309052,15.5751345 L0.811271933,15.5712485 C1.9022234,14.8596886 5.46061412,12.9164366 10.5244908,10.9941352 M63.1578947,12.7982516 C63.157028,12.7799198 63.1537333,12.7620949 63.149087,12.7446924 C63.1479888,12.7404685 63.1465527,12.7363291 63.145201,12.7321896 C63.1402168,12.7165612 63.1339654,12.7016085 63.1261089,12.6873317 C63.1250107,12.6853887 63.1242504,12.6833612 63.1231522,12.6814182 C63.1139441,12.6657053 63.1027085,12.651344 63.0903747,12.637912 C63.0889385,12.6363069 63.0880937,12.6344484 63.0866576,12.6329278 C63.084968,12.6311537 63.0827716,12.6300555 63.0809976,12.6283659 C63.0686638,12.6162855 63.0554007,12.6051344 63.0405325,12.5955884 C63.0254109,12.5858734 63.0124013,12.5791151 62.9986313,12.5735396 C62.9562233,12.5563905 58.6922706,10.837766 52.791215,9.17261622 C47.3406815,7.63452165 39.3362876,5.82651922 32.152515,5.95501056 C23.5025387,6.10808506 15.3025778,8.6023039 9.94682891,10.6677114 C6.71849451,11.9127511 4.28425519,13.0861533 2.81061748,13.8513568 C1.81267651,14.3696306 1.17697806,14.7409967 0.819466318,14.9613159 C0.449620761,15.1893225 0.247802342,15.3325131 0.13671351,15.4361678 C0.115847394,15.4435175 0.0956571046,15.453148 0.0777477263,15.4672558 C0.0277366322,15.5067916 -0.000985955595,15.5673625 2.58648816e-05,15.6311435 L0.0497009641,18.5621991 C0.0513060499,18.6557165 0.116100829,18.7363087 0.20708385,18.7578507 L4.55804904,19.7872175 C4.5736775,19.7908501 4.58947493,19.7927086 4.60518787,19.7927086 C4.65426971,19.7927086 4.7023378,19.7750527 4.74001508,19.7419372 C4.7833524,19.703922 4.80692181,19.649518 4.80818899,19.5925797 C6.2395876,18.7497407 21.6550005,12.3933476 30.6529425,12.4893148 C35.5324033,12.5417758 42.0205824,13.7008167 46.6042851,14.6638681 C51.5770943,15.7086945 55.4427322,16.7547036 55.4811698,16.7651789 C55.4868298,16.7666995 55.4924054,16.766784 55.4979809,16.7678822 C55.5042323,16.7690649 55.5109061,16.7702476 55.5182557,16.7712613 C55.5245071,16.7719371 55.5307585,16.7731198 55.5370944,16.7733733 C55.5846556,16.7786109 55.6478453,16.7815677 55.7309718,16.7815677 C56.1986431,16.7815677 57.2280945,16.6985256 58.8046266,16.5335397 C59.7193566,16.4377414 61.8737196,16.2015403 62.1220855,16.0773574 C62.2471977,16.0148435 62.4185195,15.9290981 62.8180169,14.3343187 C63.0026863,13.5969085 63.1517058,12.8688754 63.153142,12.8616102 C63.1536488,12.8590759 63.1533109,12.8565415 63.1538178,12.8539227 C63.1546626,12.8487696 63.1561832,12.8437853 63.1567745,12.8384632 C63.1578947,12.8269742 63.1578947,12.8155696 63.1578947,12.8042495 C63.1578947,12.8023065 63.1578947,12.8002791 63.1578947,12.7982516 Z" id="Fill-3" fill="#00385B"></path>
                    <path d="M46.6245091,15.395348 C46.6245091,15.395348 46.4610438,15.4070905 45.7005711,16.0124612 C44.9400983,16.617832 44.5854588,17.8024698 44.5779403,17.8829775 C44.5779403,17.8829775 45.0894558,17.9197255 46.1063199,18.1091257 C47.1230995,18.2984413 49.974999,19.2279549 49.974999,19.2279549 L50.1552755,18.4599636 C50.335552,17.6919723 49.5863148,16.9230517 49.459682,16.7783406 C49.3330492,16.6336294 49.0202264,16.5494047 49.3692903,16.036622 C49.7182698,15.5238393 50.4742652,14.6995011 50.2377262,13.8120576 C50.0011028,12.9246141 49.62433,12.4636165 48.6165051,12.3837002 C47.9933939,12.3341959 47.3145271,12.8524697 47.090153,13.0383217 C46.8658634,13.2242583 46.6708877,13.9691025 46.6849111,14.4218212 C46.69885,14.8746244 46.6245091,15.395348 46.6245091,15.395348" id="Fill-5" fill="#00385B"></path>
                    <path d="M48.0090477,13.138986 C48.0090477,13.138986 48.4249339,14.2451435 48.8169127,14.5781566 C49.208976,14.9111696 49.5511972,14.6698999 49.5780613,14.7852971 C49.6316205,15.0160916 49.2861046,16.0935265 48.8834815,16.3755147 C48.4808584,16.6575874 47.5189052,16.3565916 47.3377839,16.1220801 C47.1912142,15.9322576 46.7495622,15.4607003 47.0759015,14.5883784 C47.4022408,13.7160565 48.0090477,13.138986 48.0090477,13.138986" id="Fill-7" fill="#FEFEFE"></path>
                    <path d="M47.9944499,14.9772992 C47.9780611,15.152338 47.8771096,15.286067 47.7689776,15.2759296 C47.6608455,15.2657922 47.5864202,15.1156745 47.6028934,14.9405511 C47.6192822,14.7655123 47.7202336,14.6317833 47.8283657,14.6419207 C47.9364978,14.6520581 48.0108386,14.8022603 47.9944499,14.9772992" id="Fill-9" fill="#020303"></path>
                    <path d="M49.0409911,15.451602 C49.0246024,15.6266408 48.9236509,15.7603698 48.8155188,15.7502325 C48.7073867,15.7400951 48.6329614,15.5899773 48.6494347,15.414854 C48.6658235,15.2398152 48.7667749,15.1060862 48.874907,15.1162236 C48.9830391,15.1263609 49.0573799,15.2765632 49.0409911,15.451602" id="Fill-11" fill="#020303"></path>
                    <path d="M47.3241576,16.7560468 C47.3241576,16.7560468 47.4185197,16.9529655 47.5269053,17.0007801 C47.6352908,17.0485948 47.9218409,17.0195343 47.9218409,17.0195343 C47.9455792,17.0300096 47.9494652,17.0620268 47.928937,17.0778243 L46.778175,17.9651833 L47.3241576,16.7560468 Z" id="Fill-13" fill="#FEFEFE"></path>
                    <path d="M36.1946363,13.7225107 C36.1946363,13.7225107 36.0347191,13.7584139 35.3728324,14.4702272 C34.7109457,15.1820405 34.5365827,16.4062986 34.5411445,16.4870598 C34.5411445,16.4870598 35.0524911,16.4472705 36.0861663,16.4831738 C37.1198416,16.519077 40.0782681,17.0136968 40.0782681,17.0136968 L40.1422181,16.2274582 C40.2061681,15.4411352 39.3508263,14.7923426 39.2040877,14.6680752 C39.0573491,14.5438077 38.7354027,14.5071442 39.0042968,13.9480675 C39.2731064,13.3890752 39.8979916,12.4614201 39.5319476,11.619088 C39.1659036,10.7766714 38.7247584,10.3769205 37.7161732,10.4478822 C37.0926396,10.4917264 36.4985044,11.1052071 36.304289,11.322485 C36.1101581,11.5396785 36.0282143,12.3052199 36.1094823,12.7508424 C36.1906659,13.1964649 36.1946363,13.7225107 36.1946363,13.7225107" id="Fill-15" fill="#00385B"></path>
                    <path d="M37.227923,11.2852048 C37.227923,11.2852048 37.8038109,12.3171905 38.24107,12.5881121 C38.6782447,12.8590337 38.9807611,12.5695269 39.0245208,12.6796864 C39.1118713,12.8998366 38.9304966,14.0167229 38.5743365,14.355565 C38.2181764,14.6943225 37.222094,14.5399809 37.0081107,14.3349523 C36.8349304,14.1690371 36.3280612,13.768526 36.5209249,12.8573441 C36.7137042,11.9461622 37.227923,11.2852048 37.227923,11.2852048" id="Fill-17" fill="#FEFEFE"></path>
                    <path d="M37.4870936,13.1052116 C37.4968931,13.2807573 37.4169767,13.4280028 37.3085912,13.4340852 C37.2001212,13.4401676 37.1042384,13.3027216 37.094439,13.1271759 C37.084555,12.9516302 37.1645559,12.8043847 37.2729414,12.7983023 C37.3814114,12.7922198 37.4772942,12.9296659 37.4870936,13.1052116" id="Fill-19" fill="#020303"></path>
                    <path d="M38.5925754,13.4184736 C38.6023748,13.5940193 38.5224585,13.7412648 38.4140729,13.7473473 C38.3056029,13.7534297 38.2097202,13.6159837 38.1999207,13.440438 C38.1900367,13.2648923 38.2700376,13.1176468 38.3784231,13.1115643 C38.4868931,13.1054819 38.5827759,13.2429279 38.5925754,13.4184736" id="Fill-21" fill="#020303"></path>
                    <path d="M37.0890239,14.9639094 C37.0890239,14.9639094 37.2116863,15.1446082 37.3259853,15.1756962 C37.4402843,15.2068687 37.7193158,15.1354846 37.7193158,15.1354846 C37.7443213,15.1423273 37.7529381,15.1734153 37.7349442,15.192085 L36.7290623,16.2407974 L37.0890239,14.9639094 Z" id="Fill-23" fill="#FEFEFE"></path>
                    <path d="M27.9617965,13.8700772 C27.9617965,13.8700772 27.8088065,13.9287895 27.2570794,14.7290515 C26.7054367,15.5293135 26.7104209,16.7659899 26.7266407,16.8451459 C26.7266407,16.8451459 27.2267517,16.7316072 28.2547669,16.6173082 C29.2826976,16.5029248 32.2816737,16.5633267 32.2816737,16.5633267 L32.2309023,15.7761588 C32.1801309,14.9889065 31.2398041,14.4709706 31.0765922,14.3692589 C30.9132958,14.2676316 30.5894909,14.2779379 30.7744137,13.6859147 C30.9593365,13.093807 31.4431431,12.0853063 30.9588296,11.3049811 C30.4745161,10.5245715 29.9800652,10.1929946 28.9924305,10.4094278 C28.3818221,10.5432412 27.8828939,11.2363848 27.7223008,11.4795131 C27.5616233,11.7225569 27.591613,12.4918998 27.7365776,12.9210491 C27.8816267,13.3501984 27.9617965,13.8700772 27.9617965,13.8700772" id="Fill-25" fill="#00385B"></path>
                    <path d="M28.6307371,11.3086982 C28.6307371,11.3086982 29.3501535,12.2462372 29.8220487,12.4509279 C30.2939439,12.6556186 30.551349,12.3253088 30.6104837,12.4279499 C30.7288377,12.6331474 30.7114352,13.7644794 30.4081584,14.1513896 C30.1048817,14.5382153 29.0969723,14.5298519 28.8555336,14.3581078 C28.6600511,14.2190566 28.1004675,13.8962654 28.1591798,12.9667518 C28.2178077,12.0372382 28.6307371,11.3086982 28.6307371,11.3086982" id="Fill-27" fill="#FEFEFE"></path>
                    <path d="M29.1510806,13.0718849 C29.1862235,13.244136 29.1285249,13.4014344 29.0220824,13.4231453 C28.9157243,13.4449407 28.8009185,13.3228697 28.7657755,13.1506186 C28.7305481,12.9782831 28.7883312,12.8209847 28.8946893,12.7992738 C29.0011318,12.7775629 29.1159377,12.8996339 29.1510806,13.0718849" id="Fill-29" fill="#020303"></path>
                    <path d="M30.2903029,13.2215381 C30.3254458,13.3937891 30.2677472,13.5510875 30.1613047,13.5727984 C30.0549466,13.5945938 29.9401408,13.4725228 29.9049978,13.3002717 C29.8697704,13.1279362 29.9275535,12.9706378 30.0339116,12.9489269 C30.1403541,12.927216 30.25516,13.049287 30.2903029,13.2215381" id="Fill-31" fill="#020303"></path>
                    <path d="M29.0267371,14.9686655 C29.0267371,14.9686655 29.1743205,15.1296809 29.2919142,15.1438733 C29.4095079,15.1581501 29.6752763,15.0470613 29.6752763,15.0470613 C29.7009576,15.050187 29.7139673,15.0796698 29.6989302,15.1007894 L28.8557533,16.2842445 L29.0267371,14.9686655 Z" id="Fill-33" fill="#FEFEFE"></path>
                    <path d="M19.0481046,15.6033587 C19.0481046,15.6033587 18.9158118,15.7000862 18.5927671,16.6168436 C18.2697225,17.5335166 18.5981737,18.7257574 18.6344994,18.7979862 C18.6344994,18.7979862 19.0874715,18.5575613 20.0497626,18.1781697 C21.0119693,17.7987781 23.9221588,17.0724345 23.9221588,17.0724345 L23.6672036,16.3259007 C23.4122484,15.5793668 22.3691116,15.3255099 22.1849491,15.2700922 C22.0007867,15.2146745 21.6910051,15.309459 21.7145745,14.689558 C21.7380595,14.0697414 21.941145,12.9698353 21.2694589,12.3433449 C20.5977727,11.7169391 20.0337963,11.5262718 19.1373136,11.9936052 C18.5829677,12.2825206 18.2828166,13.0821068 18.1914112,13.3587729 C18.0999213,13.6353545 18.3302089,14.3700614 18.5824608,14.7463273 C18.8346282,15.1225932 19.0481046,15.6033587 19.0481046,15.6033587" id="Fill-35" fill="#00385B"></path>
                    <path d="M19.0234877,12.956192 C19.0234877,12.956192 19.9632232,13.6728206 20.4722043,13.746908 C20.9811855,13.8209954 21.1432147,13.4348455 21.227186,13.51831 C21.3951287,13.6854078 21.6742446,14.7819349 21.482817,15.2346536 C21.2913049,15.6874567 20.316342,15.9431722 20.0384088,15.8405312 C19.8133588,15.7574891 19.1888115,15.5923342 19.0021992,14.6798852 C18.8155868,13.7674362 19.0234877,12.956192 19.0234877,12.956192" id="Fill-37" fill="#FEFEFE"></path>
                    <path d="M19.9870883,14.5217758 C20.0661599,14.6788208 20.0515451,14.8457497 19.9545642,14.8945781 C19.8574987,14.9434065 19.714815,14.8556337 19.6357434,14.6985887 C19.5567563,14.5414592 19.5712866,14.3746148 19.668352,14.3257864 C19.765333,14.276958 19.9080167,14.3647308 19.9870883,14.5217758" id="Fill-39" fill="#020303"></path>
                    <path d="M21.1257699,14.3681015 C21.2048415,14.5251465 21.1902268,14.6920754 21.0932458,14.7409038 C20.9961804,14.7897322 20.8534967,14.7019594 20.7744251,14.5449144 C20.695438,14.3877849 20.7099682,14.2209405 20.8070337,14.1721121 C20.9040146,14.1232837 21.0466983,14.2110566 21.1257699,14.3681015" id="Fill-41" fill="#020303"></path>
                    <path d="M20.3634133,16.3850016 C20.3634133,16.3850016 20.5479982,16.5017505 20.6651694,16.4847704 C20.7824252,16.4677058 21.0098405,16.2909774 21.0098405,16.2909774 C21.0354374,16.2872604 21.0557121,16.3122659 21.0467575,16.3365956 L20.542676,17.6994824 L20.3634133,16.3850016 Z" id="Fill-43" fill="#FEFEFE"></path>
                    <path d="M10.7823183,18.6618327 C10.7823183,18.6618327 10.6564458,18.7668391 10.3923669,19.7021818 C10.1282881,20.6376089 10.5319249,21.8065337 10.5727279,21.8763127 C10.5727279,21.8763127 11.0095647,21.6075031 11.9456676,21.1677096 C12.881855,20.7279161 15.7400059,19.8178324 15.7400059,19.8178324 L15.4379964,19.089039 C15.1360713,18.3602456 14.0789111,18.1732953 13.8916229,18.1297046 C13.7043347,18.0861138 13.4011425,18.2003283 13.3851761,17.5802583 C13.3692942,16.9601884 13.501925,15.8495535 12.7918012,15.2670763 C12.0816775,14.6846836 11.5066344,14.5303419 10.6416621,15.0536844 C10.1068306,15.3773203 9.85821127,16.1943935 9.78454628,16.4762972 C9.71088129,16.7581165 9.98737844,17.4766881 10.2630308,17.8361428 C10.5386832,18.1955975 10.7823183,18.6618327 10.7823183,18.6618327" id="Fill-45" fill="#00385B"></path>
                    <path d="M10.5893447,16.0215933 C10.5893447,16.0215933 11.5727555,16.6769752 12.0854537,16.7185385 C12.5981519,16.7601017 12.7351755,16.3644059 12.8243,16.4424637 C13.002549,16.5984949 13.3509371,17.6750006 13.1886545,18.1390394 C13.0263718,18.6030781 12.0695718,18.9202938 11.7856405,18.8355621 C11.5558598,18.7669659 10.9220199,18.6418536 10.6777934,17.7430901 C10.4334825,16.844411 10.5893447,16.0215933 10.5893447,16.0215933" id="Fill-47" fill="#FEFEFE"></path>
                    <path d="M11.6505852,17.5227118 C11.7394563,17.6744346 11.7355703,17.8419549 11.6417995,17.8967813 C11.5481132,17.9516921 11.4001074,17.8732118 11.3112363,17.721489 C11.2223652,17.5697662 11.2262512,17.4022459 11.320022,17.3473351 C11.4137084,17.2925087 11.5617142,17.3709889 11.6505852,17.5227118" id="Fill-49" fill="#020303"></path>
                    <path d="M12.7771949,17.29691 C12.866066,17.4486329 12.86218,17.6161531 12.7684092,17.671064 C12.6747229,17.7258903 12.5267171,17.6474101 12.437846,17.4956872 C12.348975,17.3439644 12.352861,17.1764441 12.4466318,17.1215333 C12.5403181,17.0667069 12.6883239,17.1451872 12.7771949,17.29691" id="Fill-51" fill="#020303"></path>
                    <path d="M12.1446898,19.3582203 C12.1446898,19.3582203 12.3362863,19.4630578 12.4521904,19.4385591 C12.5680945,19.4140604 12.7838518,19.2232242 12.7838518,19.2232242 C12.8091953,19.217902 12.8309907,19.2416404 12.8235566,19.266477 L12.4071635,20.6586777 L12.1446898,19.3582203 Z" id="Fill-53" fill="#FEFEFE"></path>
                    <path d="M45.7416021,4.85077067 C45.7416021,4.85077067 45.5781368,4.86251314 44.8176641,5.46788392 C44.0571913,6.0732547 43.7025518,7.25789249 43.6950333,7.33840021 C43.6950333,7.33840021 44.2065488,7.37514823 45.2234129,7.56454835 C46.2401925,7.753864 49.092092,8.68337763 49.092092,8.68337763 L49.2723685,7.91538632 C49.452645,7.147395 48.7034078,6.37847443 48.576775,6.23376328 C48.4501422,6.08905212 48.1373194,6.00482735 48.4863833,5.49204468 C48.8353628,4.97926201 49.5913582,4.15492374 49.3548192,3.26748026 C49.1181958,2.38003677 48.741423,1.91903924 47.7335981,1.83912286 C47.1104869,1.78961863 46.4316201,2.30789239 46.207246,2.49374443 C45.9829564,2.67968094 45.7879807,3.42452523 45.802004,3.8772439 C45.815943,4.33004705 45.7416021,4.85077067 45.7416021,4.85077067" id="Fill-55" fill="#00385B"></path>
                    <path d="M47.1261407,2.59440865 C47.1261407,2.59440865 47.5420269,3.70056619 47.9340057,4.03357926 C48.326069,4.36659232 48.6682902,4.12532258 48.6951543,4.2407198 C48.7487135,4.47151424 48.4031976,5.5489492 48.0005745,5.83093743 C47.5979514,6.11301014 46.6359982,5.81201431 46.4548769,5.57750283 C46.3083072,5.38768032 45.8666552,4.91612301 46.1929945,4.04380112 C46.5193338,3.17147923 47.1261407,2.59440865 47.1261407,2.59440865" id="Fill-57" fill="#FEFEFE"></path>
                    <path d="M47.1115344,4.43272185 C47.0951456,4.60776068 46.9941942,4.74148967 46.8860621,4.73135229 C46.77793,4.7212149 46.7035047,4.57109714 46.719978,4.39597384 C46.7363667,4.22093501 46.8373182,4.08720602 46.9454503,4.0973434 C47.0535824,4.10748079 47.1279232,4.25768302 47.1115344,4.43272185" id="Fill-59" fill="#020303"></path>
                    <path d="M48.1580757,4.90703315 C48.1416869,5.08207198 48.0407355,5.21580097 47.9326034,5.20566359 C47.8244713,5.1955262 47.750046,5.04540844 47.7665192,4.87028514 C47.782908,4.69524631 47.8838595,4.56151732 47.9919915,4.5716547 C48.1001236,4.58179208 48.1744645,4.73199432 48.1580757,4.90703315" id="Fill-61" fill="#020303"></path>
                    <path d="M46.4412506,6.21146948 C46.4412506,6.21146948 46.5356127,6.40838816 46.6439983,6.45620282 C46.7523838,6.50401748 47.0389338,6.47495698 47.0389338,6.47495698 C47.0626722,6.48543228 47.0665582,6.51744952 47.04603,6.53324694 L45.895268,7.42060595 L46.4412506,6.21146948 Z" id="Fill-63" fill="#FEFEFE"></path>
                    <path d="M53.9702012,6.84914472 C53.9702012,6.84914472 53.8067358,6.86088719 53.0462631,7.46625797 C52.2857903,8.07162875 51.9311509,9.25626654 51.9236323,9.33677426 C51.9236323,9.33677426 52.4351478,9.37352228 53.4520119,9.5629224 C54.4687915,9.75223805 57.320691,10.6817517 57.320691,10.6817517 L57.5009675,9.91376036 C57.681244,9.14576905 56.9320068,8.37684848 56.805374,8.23213732 C56.6787412,8.08742617 56.3659184,8.0032014 56.7149823,7.49041873 C57.0639618,6.97763606 57.8199572,6.15329779 57.5834182,5.2658543 C57.3467948,4.37841082 56.970022,3.91741328 55.9621971,3.83749691 C55.3390859,3.78799268 54.6602191,4.30626644 54.435845,4.49211848 C54.2115554,4.67805499 54.0165797,5.42289928 54.0306031,5.87561795 C54.044542,6.3284211 53.9702012,6.84914472 53.9702012,6.84914472" id="Fill-65" fill="#00385B"></path>
                    <path d="M55.3547397,4.5927827 C55.3547397,4.5927827 55.7706259,5.69894024 56.1626047,6.0319533 C56.5546681,6.36496637 56.8968892,6.12369663 56.9237533,6.23909385 C56.9773125,6.46988829 56.6317967,7.54732325 56.2291736,7.82931148 C55.8265505,8.11138419 54.8645972,7.81038836 54.6834759,7.57587688 C54.5369063,7.38605436 54.0952542,6.91449706 54.4215935,6.04217517 C54.7479328,5.16985328 55.3547397,4.5927827 55.3547397,4.5927827" id="Fill-67" fill="#FEFEFE"></path>
                    <path d="M55.3401419,6.4310959 C55.3237531,6.60613473 55.2228017,6.73986372 55.1146696,6.72972634 C55.0065375,6.71958895 54.9321122,6.56947119 54.9485854,6.39434789 C54.9649742,6.21930906 55.0659256,6.08558007 55.1740577,6.09571745 C55.2821898,6.10585483 55.3565307,6.25605707 55.3401419,6.4310959" id="Fill-69" fill="#020303"></path>
                    <path d="M56.3866832,6.9054072 C56.3702944,7.08044603 56.2693429,7.21417502 56.1612108,7.20403764 C56.0530788,7.19390025 55.9786535,7.04378249 55.9951267,6.86865918 C56.0115155,6.69362035 56.1124669,6.55989136 56.220599,6.57002875 C56.3287311,6.58016613 56.4030719,6.73036837 56.3866832,6.9054072" id="Fill-71" fill="#020303"></path>
                    <path d="M54.6698496,8.20984353 C54.6698496,8.20984353 54.7642118,8.40676221 54.8725973,8.45457687 C54.9809828,8.50239153 55.2675329,8.47333103 55.2675329,8.47333103 C55.2912712,8.48380633 55.2951572,8.51582357 55.274629,8.53162099 L54.123867,9.41898 L54.6698496,8.20984353 Z" id="Fill-73" fill="#FEFEFE"></path>
                    <path d="M36.1946363,3.37797774 C36.1946363,3.37797774 36.0347191,3.41388098 35.3728324,4.12569429 C34.7109457,4.83750759 34.5365827,6.06176566 34.5411445,6.14252682 C34.5411445,6.14252682 35.0524911,6.10273759 36.0861663,6.13864082 C37.1198416,6.17454406 40.0782681,6.66916392 40.0782681,6.66916392 L40.1422181,5.88292531 C40.2061681,5.09660223 39.3508263,4.44780966 39.2040877,4.32354223 C39.0573491,4.1992748 38.7354027,4.16261126 39.0042968,3.60353453 C39.2731064,3.04454229 39.8979916,2.11688718 39.5319476,1.27455505 C39.1659036,0.432138446 38.7247584,0.0323876062 37.7161732,0.103349294 C37.0926396,0.147193479 36.4985044,0.760758642 36.304289,0.977952093 C36.1101581,1.19514554 36.0282143,1.96068699 36.1094823,2.40630949 C36.1906659,2.85193199 36.1946363,3.37797774 36.1946363,3.37797774" id="Fill-75" fill="#00385B"></path>
                    <path d="M37.227923,0.940671864 C37.227923,0.940671864 37.8038109,1.97265755 38.24107,2.24357913 C38.6782447,2.51450072 38.9807611,2.22499393 39.0245208,2.3351535 C39.1118713,2.55530369 38.9304966,3.67218997 38.5743365,4.01103202 C38.2181764,4.3497896 37.222094,4.19544793 37.0081107,3.99041934 C36.8349304,3.82450416 36.3280612,3.42399302 36.5209249,2.51281116 C36.7137042,1.6016293 37.227923,0.940671864 37.227923,0.940671864" id="Fill-77" fill="#FEFEFE"></path>
                    <path d="M37.4870936,2.76067864 C37.4968931,2.93622434 37.4169767,3.08346984 37.3085912,3.08955227 C37.2001212,3.0956347 37.1042384,2.95818867 37.094439,2.78264297 C37.084555,2.60709728 37.1645559,2.45985177 37.2729414,2.45376934 C37.3814114,2.44768691 37.4772942,2.58513294 37.4870936,2.76067864" id="Fill-79" fill="#020303"></path>
                    <path d="M38.5925754,3.0739407 C38.6023748,3.2494864 38.5224585,3.3967319 38.4140729,3.40281433 C38.3056029,3.40889676 38.2097202,3.27145073 38.1999207,3.09590503 C38.1900367,2.92035933 38.2700376,2.77311383 38.3784231,2.7670314 C38.4868931,2.76094897 38.5827759,2.898395 38.5925754,3.0739407" id="Fill-81" fill="#020303"></path>
                    <path d="M37.0890239,4.61938488 C37.0890239,4.61938488 37.2116863,4.80008375 37.3259853,4.83117173 C37.4402843,4.86234418 37.7193158,4.79096011 37.7193158,4.79096011 C37.7443213,4.79780284 37.7529381,4.82889082 37.7349442,4.8475605 L36.7290623,5.89627287 L37.0890239,4.61938488 Z" id="Fill-83" fill="#FEFEFE"></path>
                    <path d="M27.9617965,3.52554426 C27.9617965,3.52554426 27.8088065,3.58425661 27.2570794,4.38451859 C26.7054367,5.18478058 26.7104209,6.42145694 26.7266407,6.50061301 C26.7266407,6.50061301 27.2267517,6.38707431 28.2547669,6.27277531 C29.2826976,6.15839183 32.2816737,6.21879374 32.2816737,6.21879374 L32.2309023,5.43162588 C32.1801309,4.64437353 31.2398041,4.12643769 31.0765922,4.02472594 C30.9132958,3.92309867 30.5894909,3.93340501 30.7744137,3.34129731 C30.9593365,2.74927408 31.4431431,1.74077334 30.9588296,0.960363732 C30.4745161,0.180038603 29.9800652,-0.15153833 28.9924305,0.0648948173 C28.3818221,0.198708285 27.8828939,0.891851912 27.7223008,1.13498017 C27.5616233,1.37802395 27.591613,2.14736691 27.7365776,2.57651617 C27.8816267,3.00566542 27.9617965,3.52554426 27.9617965,3.52554426" id="Fill-85" fill="#00385B"></path>
                    <path d="M28.6307371,0.964173699 C28.6307371,0.964173699 29.3501535,1.90171276 29.8220487,2.10640343 C30.2939439,2.31109411 30.551349,1.98078435 30.6104837,2.08342536 C30.7288377,2.28862291 30.7114352,3.41995496 30.4081584,3.80686511 C30.1048817,4.19369079 29.0969723,4.18532745 28.8555336,4.01358327 C28.6600511,3.87453215 28.1004675,3.55174095 28.1591798,2.62222732 C28.2178077,1.69271369 28.6307371,0.964173699 28.6307371,0.964173699" id="Fill-87" fill="#FEFEFE"></path>
                    <path d="M29.1510806,2.72736044 C29.1862235,2.89961149 29.1285249,3.0569099 29.0220824,3.07862079 C28.9157243,3.10041617 28.8009185,2.97834517 28.7657755,2.80609412 C28.7305481,2.63375859 28.7883312,2.47646019 28.8946893,2.45474929 C29.0011318,2.43303839 29.1159377,2.55510939 29.1510806,2.72736044" id="Fill-89" fill="#020303"></path>
                    <path d="M30.2903029,2.87700512 C30.3254458,3.04925617 30.2677472,3.20655458 30.1613047,3.22826548 C30.0549466,3.25006085 29.9401408,3.12798985 29.9049978,2.9557388 C29.8697704,2.78340328 29.9275535,2.62610487 30.0339116,2.60439397 C30.1403541,2.58268308 30.25516,2.70475407 30.2903029,2.87700512" id="Fill-91" fill="#020303"></path>
                    <path d="M29.0267371,4.62414101 C29.0267371,4.62414101 29.1743205,4.78515645 29.2919142,4.79934879 C29.4095079,4.81354113 29.6752763,4.70253677 29.6752763,4.70253677 C29.7009576,4.70566247 29.7139673,4.73514536 29.6989302,4.75626491 L28.8557533,5.93972001 L29.0267371,4.62414101 Z" id="Fill-93" fill="#FEFEFE"></path>
                    <path d="M19.0481046,5.25882572 C19.0481046,5.25882572 18.9158118,5.35555326 18.5927671,6.27231068 C18.2697225,7.18898362 18.5981737,8.38122445 18.6344994,8.45345331 C18.6344994,8.45345331 19.0874715,8.21302836 20.0497626,7.83363676 C21.0119693,7.45424517 23.9221588,6.72790161 23.9221588,6.72790161 L23.6672036,5.98136776 C23.4122484,5.23483391 22.3691116,4.98097692 22.1849491,4.92555922 C22.0007867,4.87014152 21.6910051,4.96492606 21.7145745,4.34502503 C21.7380595,3.72520848 21.941145,2.62530233 21.2694589,1.998812 C20.5977727,1.37240615 20.0337963,1.18173885 19.1373136,1.64907225 C18.5829677,1.9379877 18.2828166,2.73757385 18.1914112,3.01423996 C18.0999213,3.29082158 18.3302089,4.02552848 18.5824608,4.40179438 C18.8346282,4.77806029 19.0481046,5.25882572 19.0481046,5.25882572" id="Fill-95" fill="#00385B"></path>
                    <path d="M19.0234877,2.6116591 C19.0234877,2.6116591 19.9632232,3.32828766 20.4722043,3.40237505 C20.9811855,3.47646243 21.1432147,3.09031258 21.227186,3.17377704 C21.3951287,3.34087492 21.6742446,4.43740195 21.482817,4.89012062 C21.2913049,5.34292377 20.316342,5.59863928 20.0384088,5.49599826 C19.8133588,5.41295619 19.1888115,5.24780131 19.0021992,4.33535228 C18.8155868,3.42290325 19.0234877,2.6116591 19.0234877,2.6116591" id="Fill-97" fill="#FEFEFE"></path>
                    <path d="M19.9870883,4.17724288 C20.0661599,4.33428786 20.0515451,4.50121678 19.9545642,4.55004518 C19.8574987,4.59887358 19.714815,4.51110073 19.6357434,4.35405575 C19.5567563,4.1969263 19.5712866,4.03008186 19.668352,3.98125346 C19.765333,3.93242506 19.9080167,4.02019791 19.9870883,4.17724288" id="Fill-99" fill="#020303"></path>
                    <path d="M21.1257699,4.02357704 C21.2048415,4.18062201 21.1902268,4.34755093 21.0932458,4.39637933 C20.9961804,4.44520773 20.8534967,4.35743488 20.7744251,4.20038991 C20.695438,4.04326046 20.7099682,3.87641601 20.8070337,3.82758761 C20.9040146,3.77875922 21.0466983,3.86653206 21.1257699,4.02357704" id="Fill-101" fill="#020303"></path>
                    <path d="M20.3634133,6.04046871 C20.3634133,6.04046871 20.5479982,6.15721758 20.6651694,6.14023746 C20.7824252,6.12317286 21.0098405,5.94644447 21.0098405,5.94644447 C21.0354374,5.94272743 21.0557121,5.96773298 21.0467575,5.9920627 L20.542676,7.35494949 L20.3634133,6.04046871 Z" id="Fill-103" fill="#FEFEFE"></path>
                    <path d="M9.77896228,8.14361262 C9.77896228,8.14361262 9.65308976,8.24861902 9.38901091,9.18396165 C9.12493205,10.1193887 9.52856889,11.2883136 9.56937186,11.3580926 C9.56937186,11.3580926 10.0062086,11.089283 10.9423116,10.6494895 C11.878499,10.2096959 14.7366499,9.2996123 14.7366499,9.2996123 L14.4346403,8.57081887 C14.1327152,7.84202545 13.0755551,7.65507519 12.8882669,7.61148444 C12.7009787,7.56789369 12.3977865,7.68210821 12.3818201,7.06203823 C12.3659382,6.44196825 12.498569,5.33133336 11.7884452,4.74885617 C11.0783215,4.16646346 10.5032784,4.01212179 9.63830607,4.53546424 C9.10347459,4.85910022 8.85485525,5.67617337 8.78119026,5.95807712 C8.70752527,6.23989639 8.98402242,6.95846796 9.25967478,7.3179227 C9.53532715,7.67737744 9.77896228,8.14361262 9.77896228,8.14361262" id="Fill-105" fill="#00385B"></path>
                    <path d="M9.58598872,5.50337321 C9.58598872,5.50337321 10.5693994,6.15875508 11.0820976,6.20031836 C11.5947958,6.24188163 11.7318195,5.84618574 11.820944,5.9242436 C11.999193,6.08027483 12.3475811,7.15678053 12.1852984,7.62081928 C12.0230158,8.08485803 11.0662157,8.40207367 10.7822845,8.31734204 C10.5525038,8.24874574 9.91866387,8.12363352 9.6744374,7.22486996 C9.43012645,6.32619087 9.58598872,5.50337321 9.58598872,5.50337321" id="Fill-107" fill="#FEFEFE"></path>
                    <path d="M10.6472377,7.00449168 C10.7361087,7.15621453 10.7322227,7.3237348 10.6384519,7.37856115 C10.5447656,7.43347198 10.3967598,7.35499173 10.3078887,7.20326888 C10.2190177,7.05154604 10.2229037,6.88402577 10.3166745,6.82911494 C10.4103608,6.77428859 10.5583666,6.85276883 10.6472377,7.00449168" id="Fill-109" fill="#020303"></path>
                    <path d="M11.7738389,6.7786899 C11.86271,6.93041275 11.858824,7.09793302 11.7650532,7.15284385 C11.6713669,7.2076702 11.5233611,7.12918995 11.43449,6.9774671 C11.3456189,6.82574426 11.3495049,6.65822399 11.4432757,6.60331316 C11.5369621,6.54848681 11.6849679,6.62696706 11.7738389,6.7786899" id="Fill-111" fill="#020303"></path>
                    <path d="M11.1413338,8.84000021 C11.1413338,8.84000021 11.3329303,8.94483765 11.4488344,8.92033898 C11.5647385,8.8958403 11.7804958,8.70500405 11.7804958,8.70500405 C11.8058393,8.69968192 11.8276346,8.72342029 11.8202006,8.74825688 L11.4038075,10.1404576 L11.1413338,8.84000021 Z" id="Fill-113" fill="#FEFEFE"></path>
                    <path d="M2.33854485,11.1192896 C2.33854485,11.1192896 2.21267234,11.224296 1.94859348,12.1596386 C1.68451463,13.0950657 2.08815147,14.2639906 2.12895444,14.3337696 C2.12895444,14.3337696 2.56579121,14.06496 3.50189414,13.6251664 C4.43808155,13.1853729 7.29623247,12.2752893 7.29623247,12.2752893 L6.99422291,11.5464959 C6.69229782,10.8177024 5.63513763,10.6307522 5.44784946,10.5871614 C5.2605613,10.5435707 4.95736904,10.6577852 4.94140266,10.0377152 C4.92552076,9.41764524 5.05815153,8.30701035 4.34802779,7.72453317 C3.63790404,7.14214046 3.06286094,6.98779879 2.19788865,7.51114123 C1.66305717,7.83477722 1.41443783,8.65185036 1.34077284,8.93375411 C1.26710785,9.21557339 1.543605,9.93414495 1.81925736,10.2935997 C2.09490973,10.6530544 2.33854485,11.1192896 2.33854485,11.1192896" id="Fill-115" fill="#00385B"></path>
                    <path d="M2.1455713,8.47905021 C2.1455713,8.47905021 3.12898202,9.13443208 3.64168022,9.17599535 C4.15437841,9.21755863 4.29140205,8.82186274 4.38052655,8.8999206 C4.55877555,9.05595183 4.90716364,10.1324575 4.74488102,10.5964963 C4.5825984,11.060535 3.62579831,11.3777507 3.34186709,11.293019 C3.11208638,11.2244227 2.47824645,11.0993105 2.23401998,10.200547 C1.98970902,9.30186787 2.1455713,8.47905021 2.1455713,8.47905021" id="Fill-117" fill="#FEFEFE"></path>
                    <path d="M3.20682024,9.98016868 C3.2956913,10.1318915 3.2918053,10.2994118 3.1980345,10.3542381 C3.10434818,10.409149 2.95634237,10.3306687 2.86747131,10.1789459 C2.77860024,10.027223 2.78248624,9.85970276 2.87625704,9.80479193 C2.96994336,9.74996558 3.11794917,9.82844583 3.20682024,9.98016868" id="Fill-119" fill="#020303"></path>
                    <path d="M4.3334215,9.7543669 C4.42229257,9.90608974 4.41840657,10.07361 4.32463577,10.1285208 C4.23094945,10.1833472 4.08294364,10.1048669 3.99407258,9.9531441 C3.90520151,9.80142125 3.90908751,9.63390098 4.00285831,9.57899015 C4.09654463,9.5241638 4.24455044,9.60264405 4.3334215,9.7543669" id="Fill-121" fill="#020303"></path>
                    <path d="M3.70091633,11.8156772 C3.70091633,11.8156772 3.89251289,11.9205146 4.00841698,11.896016 C4.12432107,11.8715173 4.34007839,11.680681 4.34007839,11.680681 C4.36542185,11.6753589 4.38721722,11.6990973 4.37978314,11.7239339 L3.9633901,13.1161346 L3.70091633,11.8156772 Z" id="Fill-123" fill="#FEFEFE"></path>
                </g>
                <g id="Group-141-Copy" transform="translate(9.122720, 37.894737)">
                    <path d="M31.3321979,21.1177829 C27.2348363,21.0734319 21.6821687,22.6205656 17.7459914,23.9259228 C14.1228904,25.1276252 10.9477773,26.4346719 9.93395443,26.957423 L9.75021434,25.1503498 C11.175615,24.5844303 26.4677742,18.5907021 33.2194409,19.0904751 C39.7863537,19.5769851 50.6374939,22.4263503 52.2674163,22.8617509 L51.7494805,24.6114634 C50.9906973,24.4104897 48.1313637,23.6669126 44.5943459,22.9236734 C40.7884341,22.1239183 35.3981336,21.1615427 31.3321979,21.1177829 M14.6995386,20.3050182 C19.0159522,18.666479 25.6207958,16.6874927 32.5739429,16.5644925 C42.3722314,16.3886089 54.179158,20.5922441 57.1738257,21.7241675 L53.1440466,22.3975432 L52.542055,22.4981567 C51.7244749,22.2774997 40.1500323,19.1802754 33.2506133,18.6692668 C26.2542133,18.1503172 10.8284941,24.2628218 9.54856488,24.7758579 L6.68762618,24.0892191 L6.67546132,24.0860934 C7.57675923,23.4982941 10.5163471,21.8928704 14.6995386,20.3050182 M58.1799783,21.8007892 C58.1799783,21.7989307 58.1799783,21.7970721 58.1799783,21.7952136 C58.1792852,21.7801765 58.1765819,21.7654773 58.1726959,21.7512005 C58.1717667,21.7475679 58.170584,21.7441043 58.1694857,21.7406407 C58.1653463,21.7278845 58.1602776,21.7155507 58.1538573,21.7038927 C58.152928,21.7022031 58.1522522,21.7004291 58.1512384,21.6987395 C58.1437199,21.6858144 58.1344273,21.6739874 58.1242899,21.6629208 C58.1231072,21.6615691 58.1223469,21.659964 58.1211642,21.6586969 C58.1197281,21.6571763 58.1178696,21.656247 58.116349,21.6548109 C58.106634,21.6453493 58.0961587,21.6365636 58.0845851,21.6289605 C58.0830645,21.6280313 58.0817974,21.6267641 58.0801923,21.6258348 C58.0702239,21.6196679 58.0596641,21.6141768 58.0484285,21.609615 C58.01337,21.5954227 54.4908825,20.1757665 49.616068,18.8001235 C45.11338,17.5295714 38.5011869,16.0397139 32.5664244,16.1421015 C25.4206669,16.2685653 18.646698,18.3290731 14.2223213,20.0353638 C11.555429,21.0638014 9.54450993,22.0331887 8.32717907,22.6653391 C7.50275632,23.0934746 6.97763984,23.4002994 6.68221957,23.5823499 C6.37666192,23.7706518 6.20990196,23.8889213 6.11815863,23.9745822 C6.10092508,23.9806647 6.0841984,23.9886056 6.06949919,24.0002636 C6.02818935,24.0329567 6.00445098,24.0829677 6.00535394,24.1356821 L6.04635216,26.5570808 C6.04761934,26.6342939 6.10117852,26.7007782 6.17636411,26.7186031 L9.77074255,27.5688762 C9.78358323,27.5719174 9.79667735,27.573438 9.80960252,27.573438 C9.85015205,27.573438 9.88985681,27.5588233 9.92102926,27.5315368 C9.95676354,27.5001954 9.97619353,27.4553375 9.97729174,27.4084521 C11.1531438,26.7145481 23.8856136,21.4628764 31.3276361,21.5401739 C35.3585978,21.5835113 40.7184017,22.5409872 44.5050525,23.3365184 C48.6131429,24.1996321 51.8065033,25.0637596 51.8382671,25.0724609 C51.8585418,25.077952 51.8788166,25.0793036 51.8987535,25.0787968 C51.9274761,25.0805708 51.9621966,25.0815001 52.0040133,25.0815001 C52.9427351,25.0815001 57.0299593,24.6513371 57.3242814,24.5042605 C57.4096043,24.461599 57.6690369,24.331925 58.176075,21.8476746 C58.1765819,21.8454782 58.176244,21.8432817 58.1765819,21.8411698 C58.1773422,21.8368614 58.1786094,21.8328064 58.1790318,21.828498 C58.1799783,21.8192054 58.1799783,21.8099973 58.1799783,21.8007892" id="Fill-1" fill="#00385B"></path>
                    <path d="M30.6584336,11.9779683 C25.6977892,11.9243246 18.9769571,13.7971218 14.2121332,15.377371 C9.82636299,16.8319167 5.98294283,18.4141089 4.75572802,19.0468506 L4.53329692,16.8594566 C6.25876415,16.1744228 24.7694583,8.91935058 32.9429775,9.52396106 C40.8900107,10.1126896 54.0215555,13.5604984 56.0007107,14.089163 L55.3737135,16.2072004 C54.4517184,15.9628894 50.9903932,15.0630276 46.7124172,14.1640951 C42.1053141,13.1960594 35.5803024,12.0309361 30.6584336,11.9779683 M10.5244908,10.9941352 C15.749552,9.01075599 23.7447377,6.61520769 32.1615542,6.46618815 C39.2794338,6.33980876 47.2304375,8.13513946 52.6461659,9.66301217 C56.9698446,10.8827084 60.4093745,12.1307893 61.9415556,12.7118304 L56.333048,13.6489471 C55.3429635,13.381827 41.3323385,9.63276898 32.9807393,9.01413512 C29.3434459,8.7441428 23.3938997,9.91281421 15.2982694,12.4863581 C9.68621366,14.2702842 4.94225589,16.1457847 4.28940836,16.406231 L0.826309052,15.5751345 L0.811271933,15.5712485 C1.9022234,14.8596886 5.46061412,12.9164366 10.5244908,10.9941352 M63.1578947,12.7982516 C63.157028,12.7799198 63.1537333,12.7620949 63.149087,12.7446924 C63.1479888,12.7404685 63.1465527,12.7363291 63.145201,12.7321896 C63.1402168,12.7165612 63.1339654,12.7016085 63.1261089,12.6873317 C63.1250107,12.6853887 63.1242504,12.6833612 63.1231522,12.6814182 C63.1139441,12.6657053 63.1027085,12.651344 63.0903747,12.637912 C63.0889385,12.6363069 63.0880937,12.6344484 63.0866576,12.6329278 C63.084968,12.6311537 63.0827716,12.6300555 63.0809976,12.6283659 C63.0686638,12.6162855 63.0554007,12.6051344 63.0405325,12.5955884 C63.0254109,12.5858734 63.0124013,12.5791151 62.9986313,12.5735396 C62.9562233,12.5563905 58.6922706,10.837766 52.791215,9.17261622 C47.3406815,7.63452165 39.3362876,5.82651922 32.152515,5.95501056 C23.5025387,6.10808506 15.3025778,8.6023039 9.94682891,10.6677114 C6.71849451,11.9127511 4.28425519,13.0861533 2.81061748,13.8513568 C1.81267651,14.3696306 1.17697806,14.7409967 0.819466318,14.9613159 C0.449620761,15.1893225 0.247802342,15.3325131 0.13671351,15.4361678 C0.115847394,15.4435175 0.0956571046,15.453148 0.0777477263,15.4672558 C0.0277366322,15.5067916 -0.000985955595,15.5673625 2.58648816e-05,15.6311435 L0.0497009641,18.5621991 C0.0513060499,18.6557165 0.116100829,18.7363087 0.20708385,18.7578507 L4.55804904,19.7872175 C4.5736775,19.7908501 4.58947493,19.7927086 4.60518787,19.7927086 C4.65426971,19.7927086 4.7023378,19.7750527 4.74001508,19.7419372 C4.7833524,19.703922 4.80692181,19.649518 4.80818899,19.5925797 C6.2395876,18.7497407 21.6550005,12.3933476 30.6529425,12.4893148 C35.5324033,12.5417758 42.0205824,13.7008167 46.6042851,14.6638681 C51.5770943,15.7086945 55.4427322,16.7547036 55.4811698,16.7651789 C55.4868298,16.7666995 55.4924054,16.766784 55.4979809,16.7678822 C55.5042323,16.7690649 55.5109061,16.7702476 55.5182557,16.7712613 C55.5245071,16.7719371 55.5307585,16.7731198 55.5370944,16.7733733 C55.5846556,16.7786109 55.6478453,16.7815677 55.7309718,16.7815677 C56.1986431,16.7815677 57.2280945,16.6985256 58.8046266,16.5335397 C59.7193566,16.4377414 61.8737196,16.2015403 62.1220855,16.0773574 C62.2471977,16.0148435 62.4185195,15.9290981 62.8180169,14.3343187 C63.0026863,13.5969085 63.1517058,12.8688754 63.153142,12.8616102 C63.1536488,12.8590759 63.1533109,12.8565415 63.1538178,12.8539227 C63.1546626,12.8487696 63.1561832,12.8437853 63.1567745,12.8384632 C63.1578947,12.8269742 63.1578947,12.8155696 63.1578947,12.8042495 C63.1578947,12.8023065 63.1578947,12.8002791 63.1578947,12.7982516 Z" id="Fill-3" fill="#00385B"></path>
                    <path d="M46.6245091,15.395348 C46.6245091,15.395348 46.4610438,15.4070905 45.7005711,16.0124612 C44.9400983,16.617832 44.5854588,17.8024698 44.5779403,17.8829775 C44.5779403,17.8829775 45.0894558,17.9197255 46.1063199,18.1091257 C47.1230995,18.2984413 49.974999,19.2279549 49.974999,19.2279549 L50.1552755,18.4599636 C50.335552,17.6919723 49.5863148,16.9230517 49.459682,16.7783406 C49.3330492,16.6336294 49.0202264,16.5494047 49.3692903,16.036622 C49.7182698,15.5238393 50.4742652,14.6995011 50.2377262,13.8120576 C50.0011028,12.9246141 49.62433,12.4636165 48.6165051,12.3837002 C47.9933939,12.3341959 47.3145271,12.8524697 47.090153,13.0383217 C46.8658634,13.2242583 46.6708877,13.9691025 46.6849111,14.4218212 C46.69885,14.8746244 46.6245091,15.395348 46.6245091,15.395348" id="Fill-5" fill="#00385B"></path>
                    <path d="M48.0090477,13.138986 C48.0090477,13.138986 48.4249339,14.2451435 48.8169127,14.5781566 C49.208976,14.9111696 49.5511972,14.6698999 49.5780613,14.7852971 C49.6316205,15.0160916 49.2861046,16.0935265 48.8834815,16.3755147 C48.4808584,16.6575874 47.5189052,16.3565916 47.3377839,16.1220801 C47.1912142,15.9322576 46.7495622,15.4607003 47.0759015,14.5883784 C47.4022408,13.7160565 48.0090477,13.138986 48.0090477,13.138986" id="Fill-7" fill="#FEFEFE"></path>
                    <path d="M47.9944499,14.9772992 C47.9780611,15.152338 47.8771096,15.286067 47.7689776,15.2759296 C47.6608455,15.2657922 47.5864202,15.1156745 47.6028934,14.9405511 C47.6192822,14.7655123 47.7202336,14.6317833 47.8283657,14.6419207 C47.9364978,14.6520581 48.0108386,14.8022603 47.9944499,14.9772992" id="Fill-9" fill="#020303"></path>
                    <path d="M49.0409911,15.451602 C49.0246024,15.6266408 48.9236509,15.7603698 48.8155188,15.7502325 C48.7073867,15.7400951 48.6329614,15.5899773 48.6494347,15.414854 C48.6658235,15.2398152 48.7667749,15.1060862 48.874907,15.1162236 C48.9830391,15.1263609 49.0573799,15.2765632 49.0409911,15.451602" id="Fill-11" fill="#020303"></path>
                    <path d="M47.3241576,16.7560468 C47.3241576,16.7560468 47.4185197,16.9529655 47.5269053,17.0007801 C47.6352908,17.0485948 47.9218409,17.0195343 47.9218409,17.0195343 C47.9455792,17.0300096 47.9494652,17.0620268 47.928937,17.0778243 L46.778175,17.9651833 L47.3241576,16.7560468 Z" id="Fill-13" fill="#FEFEFE"></path>
                    <path d="M36.1946363,13.7225107 C36.1946363,13.7225107 36.0347191,13.7584139 35.3728324,14.4702272 C34.7109457,15.1820405 34.5365827,16.4062986 34.5411445,16.4870598 C34.5411445,16.4870598 35.0524911,16.4472705 36.0861663,16.4831738 C37.1198416,16.519077 40.0782681,17.0136968 40.0782681,17.0136968 L40.1422181,16.2274582 C40.2061681,15.4411352 39.3508263,14.7923426 39.2040877,14.6680752 C39.0573491,14.5438077 38.7354027,14.5071442 39.0042968,13.9480675 C39.2731064,13.3890752 39.8979916,12.4614201 39.5319476,11.619088 C39.1659036,10.7766714 38.7247584,10.3769205 37.7161732,10.4478822 C37.0926396,10.4917264 36.4985044,11.1052071 36.304289,11.322485 C36.1101581,11.5396785 36.0282143,12.3052199 36.1094823,12.7508424 C36.1906659,13.1964649 36.1946363,13.7225107 36.1946363,13.7225107" id="Fill-15" fill="#00385B"></path>
                    <path d="M37.227923,11.2852048 C37.227923,11.2852048 37.8038109,12.3171905 38.24107,12.5881121 C38.6782447,12.8590337 38.9807611,12.5695269 39.0245208,12.6796864 C39.1118713,12.8998366 38.9304966,14.0167229 38.5743365,14.355565 C38.2181764,14.6943225 37.222094,14.5399809 37.0081107,14.3349523 C36.8349304,14.1690371 36.3280612,13.768526 36.5209249,12.8573441 C36.7137042,11.9461622 37.227923,11.2852048 37.227923,11.2852048" id="Fill-17" fill="#FEFEFE"></path>
                    <path d="M37.4870936,13.1052116 C37.4968931,13.2807573 37.4169767,13.4280028 37.3085912,13.4340852 C37.2001212,13.4401676 37.1042384,13.3027216 37.094439,13.1271759 C37.084555,12.9516302 37.1645559,12.8043847 37.2729414,12.7983023 C37.3814114,12.7922198 37.4772942,12.9296659 37.4870936,13.1052116" id="Fill-19" fill="#020303"></path>
                    <path d="M38.5925754,13.4184736 C38.6023748,13.5940193 38.5224585,13.7412648 38.4140729,13.7473473 C38.3056029,13.7534297 38.2097202,13.6159837 38.1999207,13.440438 C38.1900367,13.2648923 38.2700376,13.1176468 38.3784231,13.1115643 C38.4868931,13.1054819 38.5827759,13.2429279 38.5925754,13.4184736" id="Fill-21" fill="#020303"></path>
                    <path d="M37.0890239,14.9639094 C37.0890239,14.9639094 37.2116863,15.1446082 37.3259853,15.1756962 C37.4402843,15.2068687 37.7193158,15.1354846 37.7193158,15.1354846 C37.7443213,15.1423273 37.7529381,15.1734153 37.7349442,15.192085 L36.7290623,16.2407974 L37.0890239,14.9639094 Z" id="Fill-23" fill="#FEFEFE"></path>
                    <path d="M27.9617965,13.8700772 C27.9617965,13.8700772 27.8088065,13.9287895 27.2570794,14.7290515 C26.7054367,15.5293135 26.7104209,16.7659899 26.7266407,16.8451459 C26.7266407,16.8451459 27.2267517,16.7316072 28.2547669,16.6173082 C29.2826976,16.5029248 32.2816737,16.5633267 32.2816737,16.5633267 L32.2309023,15.7761588 C32.1801309,14.9889065 31.2398041,14.4709706 31.0765922,14.3692589 C30.9132958,14.2676316 30.5894909,14.2779379 30.7744137,13.6859147 C30.9593365,13.093807 31.4431431,12.0853063 30.9588296,11.3049811 C30.4745161,10.5245715 29.9800652,10.1929946 28.9924305,10.4094278 C28.3818221,10.5432412 27.8828939,11.2363848 27.7223008,11.4795131 C27.5616233,11.7225569 27.591613,12.4918998 27.7365776,12.9210491 C27.8816267,13.3501984 27.9617965,13.8700772 27.9617965,13.8700772" id="Fill-25" fill="#00385B"></path>
                    <path d="M28.6307371,11.3086982 C28.6307371,11.3086982 29.3501535,12.2462372 29.8220487,12.4509279 C30.2939439,12.6556186 30.551349,12.3253088 30.6104837,12.4279499 C30.7288377,12.6331474 30.7114352,13.7644794 30.4081584,14.1513896 C30.1048817,14.5382153 29.0969723,14.5298519 28.8555336,14.3581078 C28.6600511,14.2190566 28.1004675,13.8962654 28.1591798,12.9667518 C28.2178077,12.0372382 28.6307371,11.3086982 28.6307371,11.3086982" id="Fill-27" fill="#FEFEFE"></path>
                    <path d="M29.1510806,13.0718849 C29.1862235,13.244136 29.1285249,13.4014344 29.0220824,13.4231453 C28.9157243,13.4449407 28.8009185,13.3228697 28.7657755,13.1506186 C28.7305481,12.9782831 28.7883312,12.8209847 28.8946893,12.7992738 C29.0011318,12.7775629 29.1159377,12.8996339 29.1510806,13.0718849" id="Fill-29" fill="#020303"></path>
                    <path d="M30.2903029,13.2215381 C30.3254458,13.3937891 30.2677472,13.5510875 30.1613047,13.5727984 C30.0549466,13.5945938 29.9401408,13.4725228 29.9049978,13.3002717 C29.8697704,13.1279362 29.9275535,12.9706378 30.0339116,12.9489269 C30.1403541,12.927216 30.25516,13.049287 30.2903029,13.2215381" id="Fill-31" fill="#020303"></path>
                    <path d="M29.0267371,14.9686655 C29.0267371,14.9686655 29.1743205,15.1296809 29.2919142,15.1438733 C29.4095079,15.1581501 29.6752763,15.0470613 29.6752763,15.0470613 C29.7009576,15.050187 29.7139673,15.0796698 29.6989302,15.1007894 L28.8557533,16.2842445 L29.0267371,14.9686655 Z" id="Fill-33" fill="#FEFEFE"></path>
                    <path d="M19.0481046,15.6033587 C19.0481046,15.6033587 18.9158118,15.7000862 18.5927671,16.6168436 C18.2697225,17.5335166 18.5981737,18.7257574 18.6344994,18.7979862 C18.6344994,18.7979862 19.0874715,18.5575613 20.0497626,18.1781697 C21.0119693,17.7987781 23.9221588,17.0724345 23.9221588,17.0724345 L23.6672036,16.3259007 C23.4122484,15.5793668 22.3691116,15.3255099 22.1849491,15.2700922 C22.0007867,15.2146745 21.6910051,15.309459 21.7145745,14.689558 C21.7380595,14.0697414 21.941145,12.9698353 21.2694589,12.3433449 C20.5977727,11.7169391 20.0337963,11.5262718 19.1373136,11.9936052 C18.5829677,12.2825206 18.2828166,13.0821068 18.1914112,13.3587729 C18.0999213,13.6353545 18.3302089,14.3700614 18.5824608,14.7463273 C18.8346282,15.1225932 19.0481046,15.6033587 19.0481046,15.6033587" id="Fill-35" fill="#00385B"></path>
                    <path d="M19.0234877,12.956192 C19.0234877,12.956192 19.9632232,13.6728206 20.4722043,13.746908 C20.9811855,13.8209954 21.1432147,13.4348455 21.227186,13.51831 C21.3951287,13.6854078 21.6742446,14.7819349 21.482817,15.2346536 C21.2913049,15.6874567 20.316342,15.9431722 20.0384088,15.8405312 C19.8133588,15.7574891 19.1888115,15.5923342 19.0021992,14.6798852 C18.8155868,13.7674362 19.0234877,12.956192 19.0234877,12.956192" id="Fill-37" fill="#FEFEFE"></path>
                    <path d="M19.9870883,14.5217758 C20.0661599,14.6788208 20.0515451,14.8457497 19.9545642,14.8945781 C19.8574987,14.9434065 19.714815,14.8556337 19.6357434,14.6985887 C19.5567563,14.5414592 19.5712866,14.3746148 19.668352,14.3257864 C19.765333,14.276958 19.9080167,14.3647308 19.9870883,14.5217758" id="Fill-39" fill="#020303"></path>
                    <path d="M21.1257699,14.3681015 C21.2048415,14.5251465 21.1902268,14.6920754 21.0932458,14.7409038 C20.9961804,14.7897322 20.8534967,14.7019594 20.7744251,14.5449144 C20.695438,14.3877849 20.7099682,14.2209405 20.8070337,14.1721121 C20.9040146,14.1232837 21.0466983,14.2110566 21.1257699,14.3681015" id="Fill-41" fill="#020303"></path>
                    <path d="M20.3634133,16.3850016 C20.3634133,16.3850016 20.5479982,16.5017505 20.6651694,16.4847704 C20.7824252,16.4677058 21.0098405,16.2909774 21.0098405,16.2909774 C21.0354374,16.2872604 21.0557121,16.3122659 21.0467575,16.3365956 L20.542676,17.6994824 L20.3634133,16.3850016 Z" id="Fill-43" fill="#FEFEFE"></path>
                    <path d="M10.7823183,18.6618327 C10.7823183,18.6618327 10.6564458,18.7668391 10.3923669,19.7021818 C10.1282881,20.6376089 10.5319249,21.8065337 10.5727279,21.8763127 C10.5727279,21.8763127 11.0095647,21.6075031 11.9456676,21.1677096 C12.881855,20.7279161 15.7400059,19.8178324 15.7400059,19.8178324 L15.4379964,19.089039 C15.1360713,18.3602456 14.0789111,18.1732953 13.8916229,18.1297046 C13.7043347,18.0861138 13.4011425,18.2003283 13.3851761,17.5802583 C13.3692942,16.9601884 13.501925,15.8495535 12.7918012,15.2670763 C12.0816775,14.6846836 11.5066344,14.5303419 10.6416621,15.0536844 C10.1068306,15.3773203 9.85821127,16.1943935 9.78454628,16.4762972 C9.71088129,16.7581165 9.98737844,17.4766881 10.2630308,17.8361428 C10.5386832,18.1955975 10.7823183,18.6618327 10.7823183,18.6618327" id="Fill-45" fill="#00385B"></path>
                    <path d="M10.5893447,16.0215933 C10.5893447,16.0215933 11.5727555,16.6769752 12.0854537,16.7185385 C12.5981519,16.7601017 12.7351755,16.3644059 12.8243,16.4424637 C13.002549,16.5984949 13.3509371,17.6750006 13.1886545,18.1390394 C13.0263718,18.6030781 12.0695718,18.9202938 11.7856405,18.8355621 C11.5558598,18.7669659 10.9220199,18.6418536 10.6777934,17.7430901 C10.4334825,16.844411 10.5893447,16.0215933 10.5893447,16.0215933" id="Fill-47" fill="#FEFEFE"></path>
                    <path d="M11.6505852,17.5227118 C11.7394563,17.6744346 11.7355703,17.8419549 11.6417995,17.8967813 C11.5481132,17.9516921 11.4001074,17.8732118 11.3112363,17.721489 C11.2223652,17.5697662 11.2262512,17.4022459 11.320022,17.3473351 C11.4137084,17.2925087 11.5617142,17.3709889 11.6505852,17.5227118" id="Fill-49" fill="#020303"></path>
                    <path d="M12.7771949,17.29691 C12.866066,17.4486329 12.86218,17.6161531 12.7684092,17.671064 C12.6747229,17.7258903 12.5267171,17.6474101 12.437846,17.4956872 C12.348975,17.3439644 12.352861,17.1764441 12.4466318,17.1215333 C12.5403181,17.0667069 12.6883239,17.1451872 12.7771949,17.29691" id="Fill-51" fill="#020303"></path>
                    <path d="M12.1446898,19.3582203 C12.1446898,19.3582203 12.3362863,19.4630578 12.4521904,19.4385591 C12.5680945,19.4140604 12.7838518,19.2232242 12.7838518,19.2232242 C12.8091953,19.217902 12.8309907,19.2416404 12.8235566,19.266477 L12.4071635,20.6586777 L12.1446898,19.3582203 Z" id="Fill-53" fill="#FEFEFE"></path>
                    <path d="M45.7416021,4.85077067 C45.7416021,4.85077067 45.5781368,4.86251314 44.8176641,5.46788392 C44.0571913,6.0732547 43.7025518,7.25789249 43.6950333,7.33840021 C43.6950333,7.33840021 44.2065488,7.37514823 45.2234129,7.56454835 C46.2401925,7.753864 49.092092,8.68337763 49.092092,8.68337763 L49.2723685,7.91538632 C49.452645,7.147395 48.7034078,6.37847443 48.576775,6.23376328 C48.4501422,6.08905212 48.1373194,6.00482735 48.4863833,5.49204468 C48.8353628,4.97926201 49.5913582,4.15492374 49.3548192,3.26748026 C49.1181958,2.38003677 48.741423,1.91903924 47.7335981,1.83912286 C47.1104869,1.78961863 46.4316201,2.30789239 46.207246,2.49374443 C45.9829564,2.67968094 45.7879807,3.42452523 45.802004,3.8772439 C45.815943,4.33004705 45.7416021,4.85077067 45.7416021,4.85077067" id="Fill-55" fill="#00385B"></path>
                    <path d="M47.1261407,2.59440865 C47.1261407,2.59440865 47.5420269,3.70056619 47.9340057,4.03357926 C48.326069,4.36659232 48.6682902,4.12532258 48.6951543,4.2407198 C48.7487135,4.47151424 48.4031976,5.5489492 48.0005745,5.83093743 C47.5979514,6.11301014 46.6359982,5.81201431 46.4548769,5.57750283 C46.3083072,5.38768032 45.8666552,4.91612301 46.1929945,4.04380112 C46.5193338,3.17147923 47.1261407,2.59440865 47.1261407,2.59440865" id="Fill-57" fill="#FEFEFE"></path>
                    <path d="M47.1115344,4.43272185 C47.0951456,4.60776068 46.9941942,4.74148967 46.8860621,4.73135229 C46.77793,4.7212149 46.7035047,4.57109714 46.719978,4.39597384 C46.7363667,4.22093501 46.8373182,4.08720602 46.9454503,4.0973434 C47.0535824,4.10748079 47.1279232,4.25768302 47.1115344,4.43272185" id="Fill-59" fill="#020303"></path>
                    <path d="M48.1580757,4.90703315 C48.1416869,5.08207198 48.0407355,5.21580097 47.9326034,5.20566359 C47.8244713,5.1955262 47.750046,5.04540844 47.7665192,4.87028514 C47.782908,4.69524631 47.8838595,4.56151732 47.9919915,4.5716547 C48.1001236,4.58179208 48.1744645,4.73199432 48.1580757,4.90703315" id="Fill-61" fill="#020303"></path>
                    <path d="M46.4412506,6.21146948 C46.4412506,6.21146948 46.5356127,6.40838816 46.6439983,6.45620282 C46.7523838,6.50401748 47.0389338,6.47495698 47.0389338,6.47495698 C47.0626722,6.48543228 47.0665582,6.51744952 47.04603,6.53324694 L45.895268,7.42060595 L46.4412506,6.21146948 Z" id="Fill-63" fill="#FEFEFE"></path>
                    <path d="M53.9702012,6.84914472 C53.9702012,6.84914472 53.8067358,6.86088719 53.0462631,7.46625797 C52.2857903,8.07162875 51.9311509,9.25626654 51.9236323,9.33677426 C51.9236323,9.33677426 52.4351478,9.37352228 53.4520119,9.5629224 C54.4687915,9.75223805 57.320691,10.6817517 57.320691,10.6817517 L57.5009675,9.91376036 C57.681244,9.14576905 56.9320068,8.37684848 56.805374,8.23213732 C56.6787412,8.08742617 56.3659184,8.0032014 56.7149823,7.49041873 C57.0639618,6.97763606 57.8199572,6.15329779 57.5834182,5.2658543 C57.3467948,4.37841082 56.970022,3.91741328 55.9621971,3.83749691 C55.3390859,3.78799268 54.6602191,4.30626644 54.435845,4.49211848 C54.2115554,4.67805499 54.0165797,5.42289928 54.0306031,5.87561795 C54.044542,6.3284211 53.9702012,6.84914472 53.9702012,6.84914472" id="Fill-65" fill="#00385B"></path>
                    <path d="M55.3547397,4.5927827 C55.3547397,4.5927827 55.7706259,5.69894024 56.1626047,6.0319533 C56.5546681,6.36496637 56.8968892,6.12369663 56.9237533,6.23909385 C56.9773125,6.46988829 56.6317967,7.54732325 56.2291736,7.82931148 C55.8265505,8.11138419 54.8645972,7.81038836 54.6834759,7.57587688 C54.5369063,7.38605436 54.0952542,6.91449706 54.4215935,6.04217517 C54.7479328,5.16985328 55.3547397,4.5927827 55.3547397,4.5927827" id="Fill-67" fill="#FEFEFE"></path>
                    <path d="M55.3401419,6.4310959 C55.3237531,6.60613473 55.2228017,6.73986372 55.1146696,6.72972634 C55.0065375,6.71958895 54.9321122,6.56947119 54.9485854,6.39434789 C54.9649742,6.21930906 55.0659256,6.08558007 55.1740577,6.09571745 C55.2821898,6.10585483 55.3565307,6.25605707 55.3401419,6.4310959" id="Fill-69" fill="#020303"></path>
                    <path d="M56.3866832,6.9054072 C56.3702944,7.08044603 56.2693429,7.21417502 56.1612108,7.20403764 C56.0530788,7.19390025 55.9786535,7.04378249 55.9951267,6.86865918 C56.0115155,6.69362035 56.1124669,6.55989136 56.220599,6.57002875 C56.3287311,6.58016613 56.4030719,6.73036837 56.3866832,6.9054072" id="Fill-71" fill="#020303"></path>
                    <path d="M54.6698496,8.20984353 C54.6698496,8.20984353 54.7642118,8.40676221 54.8725973,8.45457687 C54.9809828,8.50239153 55.2675329,8.47333103 55.2675329,8.47333103 C55.2912712,8.48380633 55.2951572,8.51582357 55.274629,8.53162099 L54.123867,9.41898 L54.6698496,8.20984353 Z" id="Fill-73" fill="#FEFEFE"></path>
                    <path d="M36.1946363,3.37797774 C36.1946363,3.37797774 36.0347191,3.41388098 35.3728324,4.12569429 C34.7109457,4.83750759 34.5365827,6.06176566 34.5411445,6.14252682 C34.5411445,6.14252682 35.0524911,6.10273759 36.0861663,6.13864082 C37.1198416,6.17454406 40.0782681,6.66916392 40.0782681,6.66916392 L40.1422181,5.88292531 C40.2061681,5.09660223 39.3508263,4.44780966 39.2040877,4.32354223 C39.0573491,4.1992748 38.7354027,4.16261126 39.0042968,3.60353453 C39.2731064,3.04454229 39.8979916,2.11688718 39.5319476,1.27455505 C39.1659036,0.432138446 38.7247584,0.0323876062 37.7161732,0.103349294 C37.0926396,0.147193479 36.4985044,0.760758642 36.304289,0.977952093 C36.1101581,1.19514554 36.0282143,1.96068699 36.1094823,2.40630949 C36.1906659,2.85193199 36.1946363,3.37797774 36.1946363,3.37797774" id="Fill-75" fill="#00385B"></path>
                    <path d="M37.227923,0.940671864 C37.227923,0.940671864 37.8038109,1.97265755 38.24107,2.24357913 C38.6782447,2.51450072 38.9807611,2.22499393 39.0245208,2.3351535 C39.1118713,2.55530369 38.9304966,3.67218997 38.5743365,4.01103202 C38.2181764,4.3497896 37.222094,4.19544793 37.0081107,3.99041934 C36.8349304,3.82450416 36.3280612,3.42399302 36.5209249,2.51281116 C36.7137042,1.6016293 37.227923,0.940671864 37.227923,0.940671864" id="Fill-77" fill="#FEFEFE"></path>
                    <path d="M37.4870936,2.76067864 C37.4968931,2.93622434 37.4169767,3.08346984 37.3085912,3.08955227 C37.2001212,3.0956347 37.1042384,2.95818867 37.094439,2.78264297 C37.084555,2.60709728 37.1645559,2.45985177 37.2729414,2.45376934 C37.3814114,2.44768691 37.4772942,2.58513294 37.4870936,2.76067864" id="Fill-79" fill="#020303"></path>
                    <path d="M38.5925754,3.0739407 C38.6023748,3.2494864 38.5224585,3.3967319 38.4140729,3.40281433 C38.3056029,3.40889676 38.2097202,3.27145073 38.1999207,3.09590503 C38.1900367,2.92035933 38.2700376,2.77311383 38.3784231,2.7670314 C38.4868931,2.76094897 38.5827759,2.898395 38.5925754,3.0739407" id="Fill-81" fill="#020303"></path>
                    <path d="M37.0890239,4.61938488 C37.0890239,4.61938488 37.2116863,4.80008375 37.3259853,4.83117173 C37.4402843,4.86234418 37.7193158,4.79096011 37.7193158,4.79096011 C37.7443213,4.79780284 37.7529381,4.82889082 37.7349442,4.8475605 L36.7290623,5.89627287 L37.0890239,4.61938488 Z" id="Fill-83" fill="#FEFEFE"></path>
                    <path d="M27.9617965,3.52554426 C27.9617965,3.52554426 27.8088065,3.58425661 27.2570794,4.38451859 C26.7054367,5.18478058 26.7104209,6.42145694 26.7266407,6.50061301 C26.7266407,6.50061301 27.2267517,6.38707431 28.2547669,6.27277531 C29.2826976,6.15839183 32.2816737,6.21879374 32.2816737,6.21879374 L32.2309023,5.43162588 C32.1801309,4.64437353 31.2398041,4.12643769 31.0765922,4.02472594 C30.9132958,3.92309867 30.5894909,3.93340501 30.7744137,3.34129731 C30.9593365,2.74927408 31.4431431,1.74077334 30.9588296,0.960363732 C30.4745161,0.180038603 29.9800652,-0.15153833 28.9924305,0.0648948173 C28.3818221,0.198708285 27.8828939,0.891851912 27.7223008,1.13498017 C27.5616233,1.37802395 27.591613,2.14736691 27.7365776,2.57651617 C27.8816267,3.00566542 27.9617965,3.52554426 27.9617965,3.52554426" id="Fill-85" fill="#00385B"></path>
                    <path d="M28.6307371,0.964173699 C28.6307371,0.964173699 29.3501535,1.90171276 29.8220487,2.10640343 C30.2939439,2.31109411 30.551349,1.98078435 30.6104837,2.08342536 C30.7288377,2.28862291 30.7114352,3.41995496 30.4081584,3.80686511 C30.1048817,4.19369079 29.0969723,4.18532745 28.8555336,4.01358327 C28.6600511,3.87453215 28.1004675,3.55174095 28.1591798,2.62222732 C28.2178077,1.69271369 28.6307371,0.964173699 28.6307371,0.964173699" id="Fill-87" fill="#FEFEFE"></path>
                    <path d="M29.1510806,2.72736044 C29.1862235,2.89961149 29.1285249,3.0569099 29.0220824,3.07862079 C28.9157243,3.10041617 28.8009185,2.97834517 28.7657755,2.80609412 C28.7305481,2.63375859 28.7883312,2.47646019 28.8946893,2.45474929 C29.0011318,2.43303839 29.1159377,2.55510939 29.1510806,2.72736044" id="Fill-89" fill="#020303"></path>
                    <path d="M30.2903029,2.87700512 C30.3254458,3.04925617 30.2677472,3.20655458 30.1613047,3.22826548 C30.0549466,3.25006085 29.9401408,3.12798985 29.9049978,2.9557388 C29.8697704,2.78340328 29.9275535,2.62610487 30.0339116,2.60439397 C30.1403541,2.58268308 30.25516,2.70475407 30.2903029,2.87700512" id="Fill-91" fill="#020303"></path>
                    <path d="M29.0267371,4.62414101 C29.0267371,4.62414101 29.1743205,4.78515645 29.2919142,4.79934879 C29.4095079,4.81354113 29.6752763,4.70253677 29.6752763,4.70253677 C29.7009576,4.70566247 29.7139673,4.73514536 29.6989302,4.75626491 L28.8557533,5.93972001 L29.0267371,4.62414101 Z" id="Fill-93" fill="#FEFEFE"></path>
                    <path d="M19.0481046,5.25882572 C19.0481046,5.25882572 18.9158118,5.35555326 18.5927671,6.27231068 C18.2697225,7.18898362 18.5981737,8.38122445 18.6344994,8.45345331 C18.6344994,8.45345331 19.0874715,8.21302836 20.0497626,7.83363676 C21.0119693,7.45424517 23.9221588,6.72790161 23.9221588,6.72790161 L23.6672036,5.98136776 C23.4122484,5.23483391 22.3691116,4.98097692 22.1849491,4.92555922 C22.0007867,4.87014152 21.6910051,4.96492606 21.7145745,4.34502503 C21.7380595,3.72520848 21.941145,2.62530233 21.2694589,1.998812 C20.5977727,1.37240615 20.0337963,1.18173885 19.1373136,1.64907225 C18.5829677,1.9379877 18.2828166,2.73757385 18.1914112,3.01423996 C18.0999213,3.29082158 18.3302089,4.02552848 18.5824608,4.40179438 C18.8346282,4.77806029 19.0481046,5.25882572 19.0481046,5.25882572" id="Fill-95" fill="#00385B"></path>
                    <path d="M19.0234877,2.6116591 C19.0234877,2.6116591 19.9632232,3.32828766 20.4722043,3.40237505 C20.9811855,3.47646243 21.1432147,3.09031258 21.227186,3.17377704 C21.3951287,3.34087492 21.6742446,4.43740195 21.482817,4.89012062 C21.2913049,5.34292377 20.316342,5.59863928 20.0384088,5.49599826 C19.8133588,5.41295619 19.1888115,5.24780131 19.0021992,4.33535228 C18.8155868,3.42290325 19.0234877,2.6116591 19.0234877,2.6116591" id="Fill-97" fill="#FEFEFE"></path>
                    <path d="M19.9870883,4.17724288 C20.0661599,4.33428786 20.0515451,4.50121678 19.9545642,4.55004518 C19.8574987,4.59887358 19.714815,4.51110073 19.6357434,4.35405575 C19.5567563,4.1969263 19.5712866,4.03008186 19.668352,3.98125346 C19.765333,3.93242506 19.9080167,4.02019791 19.9870883,4.17724288" id="Fill-99" fill="#020303"></path>
                    <path d="M21.1257699,4.02357704 C21.2048415,4.18062201 21.1902268,4.34755093 21.0932458,4.39637933 C20.9961804,4.44520773 20.8534967,4.35743488 20.7744251,4.20038991 C20.695438,4.04326046 20.7099682,3.87641601 20.8070337,3.82758761 C20.9040146,3.77875922 21.0466983,3.86653206 21.1257699,4.02357704" id="Fill-101" fill="#020303"></path>
                    <path d="M20.3634133,6.04046871 C20.3634133,6.04046871 20.5479982,6.15721758 20.6651694,6.14023746 C20.7824252,6.12317286 21.0098405,5.94644447 21.0098405,5.94644447 C21.0354374,5.94272743 21.0557121,5.96773298 21.0467575,5.9920627 L20.542676,7.35494949 L20.3634133,6.04046871 Z" id="Fill-103" fill="#FEFEFE"></path>
                    <path d="M9.77896228,8.14361262 C9.77896228,8.14361262 9.65308976,8.24861902 9.38901091,9.18396165 C9.12493205,10.1193887 9.52856889,11.2883136 9.56937186,11.3580926 C9.56937186,11.3580926 10.0062086,11.089283 10.9423116,10.6494895 C11.878499,10.2096959 14.7366499,9.2996123 14.7366499,9.2996123 L14.4346403,8.57081887 C14.1327152,7.84202545 13.0755551,7.65507519 12.8882669,7.61148444 C12.7009787,7.56789369 12.3977865,7.68210821 12.3818201,7.06203823 C12.3659382,6.44196825 12.498569,5.33133336 11.7884452,4.74885617 C11.0783215,4.16646346 10.5032784,4.01212179 9.63830607,4.53546424 C9.10347459,4.85910022 8.85485525,5.67617337 8.78119026,5.95807712 C8.70752527,6.23989639 8.98402242,6.95846796 9.25967478,7.3179227 C9.53532715,7.67737744 9.77896228,8.14361262 9.77896228,8.14361262" id="Fill-105" fill="#00385B"></path>
                    <path d="M9.58598872,5.50337321 C9.58598872,5.50337321 10.5693994,6.15875508 11.0820976,6.20031836 C11.5947958,6.24188163 11.7318195,5.84618574 11.820944,5.9242436 C11.999193,6.08027483 12.3475811,7.15678053 12.1852984,7.62081928 C12.0230158,8.08485803 11.0662157,8.40207367 10.7822845,8.31734204 C10.5525038,8.24874574 9.91866387,8.12363352 9.6744374,7.22486996 C9.43012645,6.32619087 9.58598872,5.50337321 9.58598872,5.50337321" id="Fill-107" fill="#FEFEFE"></path>
                    <path d="M10.6472377,7.00449168 C10.7361087,7.15621453 10.7322227,7.3237348 10.6384519,7.37856115 C10.5447656,7.43347198 10.3967598,7.35499173 10.3078887,7.20326888 C10.2190177,7.05154604 10.2229037,6.88402577 10.3166745,6.82911494 C10.4103608,6.77428859 10.5583666,6.85276883 10.6472377,7.00449168" id="Fill-109" fill="#020303"></path>
                    <path d="M11.7738389,6.7786899 C11.86271,6.93041275 11.858824,7.09793302 11.7650532,7.15284385 C11.6713669,7.2076702 11.5233611,7.12918995 11.43449,6.9774671 C11.3456189,6.82574426 11.3495049,6.65822399 11.4432757,6.60331316 C11.5369621,6.54848681 11.6849679,6.62696706 11.7738389,6.7786899" id="Fill-111" fill="#020303"></path>
                    <path d="M11.1413338,8.84000021 C11.1413338,8.84000021 11.3329303,8.94483765 11.4488344,8.92033898 C11.5647385,8.8958403 11.7804958,8.70500405 11.7804958,8.70500405 C11.8058393,8.69968192 11.8276346,8.72342029 11.8202006,8.74825688 L11.4038075,10.1404576 L11.1413338,8.84000021 Z" id="Fill-113" fill="#FEFEFE"></path>
                    <path d="M2.33854485,11.1192896 C2.33854485,11.1192896 2.21267234,11.224296 1.94859348,12.1596386 C1.68451463,13.0950657 2.08815147,14.2639906 2.12895444,14.3337696 C2.12895444,14.3337696 2.56579121,14.06496 3.50189414,13.6251664 C4.43808155,13.1853729 7.29623247,12.2752893 7.29623247,12.2752893 L6.99422291,11.5464959 C6.69229782,10.8177024 5.63513763,10.6307522 5.44784946,10.5871614 C5.2605613,10.5435707 4.95736904,10.6577852 4.94140266,10.0377152 C4.92552076,9.41764524 5.05815153,8.30701035 4.34802779,7.72453317 C3.63790404,7.14214046 3.06286094,6.98779879 2.19788865,7.51114123 C1.66305717,7.83477722 1.41443783,8.65185036 1.34077284,8.93375411 C1.26710785,9.21557339 1.543605,9.93414495 1.81925736,10.2935997 C2.09490973,10.6530544 2.33854485,11.1192896 2.33854485,11.1192896" id="Fill-115" fill="#00385B"></path>
                    <path d="M2.1455713,8.47905021 C2.1455713,8.47905021 3.12898202,9.13443208 3.64168022,9.17599535 C4.15437841,9.21755863 4.29140205,8.82186274 4.38052655,8.8999206 C4.55877555,9.05595183 4.90716364,10.1324575 4.74488102,10.5964963 C4.5825984,11.060535 3.62579831,11.3777507 3.34186709,11.293019 C3.11208638,11.2244227 2.47824645,11.0993105 2.23401998,10.200547 C1.98970902,9.30186787 2.1455713,8.47905021 2.1455713,8.47905021" id="Fill-117" fill="#FEFEFE"></path>
                    <path d="M3.20682024,9.98016868 C3.2956913,10.1318915 3.2918053,10.2994118 3.1980345,10.3542381 C3.10434818,10.409149 2.95634237,10.3306687 2.86747131,10.1789459 C2.77860024,10.027223 2.78248624,9.85970276 2.87625704,9.80479193 C2.96994336,9.74996558 3.11794917,9.82844583 3.20682024,9.98016868" id="Fill-119" fill="#020303"></path>
                    <path d="M4.3334215,9.7543669 C4.42229257,9.90608974 4.41840657,10.07361 4.32463577,10.1285208 C4.23094945,10.1833472 4.08294364,10.1048669 3.99407258,9.9531441 C3.90520151,9.80142125 3.90908751,9.63390098 4.00285831,9.57899015 C4.09654463,9.5241638 4.24455044,9.60264405 4.3334215,9.7543669" id="Fill-121" fill="#020303"></path>
                    <path d="M3.70091633,11.8156772 C3.70091633,11.8156772 3.89251289,11.9205146 4.00841698,11.896016 C4.12432107,11.8715173 4.34007839,11.680681 4.34007839,11.680681 C4.36542185,11.6753589 4.38721722,11.6990973 4.37978314,11.7239339 L3.9633901,13.1161346 L3.70091633,11.8156772 Z" id="Fill-123" fill="#FEFEFE"></path>
                </g>
                <g id="Group-3" transform="translate(28.298246, 18.261934) rotate(25.000000) translate(-28.298246, -18.261934) translate(16.140351, 7.719298)">
                    <mask id="mask-4" fill="white">
                        <use xlink:href="#path-3"></use>
                    </mask>
                    <g id="Clip-2"></g>
                    <path d="M7.60328816,8.22744245 C7.71238033,8.33197764 7.87601859,8.38424524 7.98511077,8.38424524 C8.14874903,8.38424524 8.31238729,8.33197764 8.47602555,8.17517485 C8.6942099,7.96610446 8.6942099,7.60023128 8.47602555,7.3388933 L4.38506903,3.20975313 C4.27597685,3.10521794 4.11233859,3.05295034 3.94870033,3.05295034 C3.78506207,3.05295034 3.62142381,3.10521794 3.51233163,3.20975313 C3.34869337,3.36655592 3.13050902,3.57562631 2.96687076,3.7324291 C2.85777859,3.8369643 2.8032325,3.99376709 2.8032325,4.15056988 C2.8032325,4.30737267 2.91232468,4.46417546 3.02141685,4.56871066 L7.60328816,8.22744245 Z M7.38510381,13.1928642 C7.27601164,12.8792586 6.94873511,12.7224558 6.62145859,12.826991 L0.948665545,14.4472865 C0.785027284,14.4995541 0.67593511,14.6040893 0.566842936,14.7608921 C0.512296849,14.9176949 0.457750762,15.0744977 0.512296849,15.2313005 C0.621389023,15.4926384 0.67593511,15.7017088 0.785027284,15.9107792 C0.839573371,16.067582 0.948665545,16.1721172 1.11230381,16.2243848 C1.16684989,16.2766524 1.27594207,16.2766524 1.33048815,16.2766524 C1.43958033,16.2766524 1.49412642,16.2766524 1.60321859,16.2243848 L7.05782729,13.9246105 C7.33055772,13.8200753 7.49419598,13.4542022 7.38510381,13.1928642 L7.38510381,13.1928642 Z M10.0578621,6.39807655 C10.1669542,6.65941454 10.3851386,6.81621733 10.657869,6.81621733 L10.8215073,6.81621733 C11.1487838,6.71168213 11.3124221,6.45034415 11.257876,6.13673857 L10.003316,0.491838088 C9.9487699,0.335035297 9.89422381,0.178232506 9.73058555,0.125964909 C9.62149338,0.0214297148 9.40330903,0.0214297148 9.23967077,0.0214297148 C8.96694033,0.0736973118 8.74875599,0.125964909 8.47602555,0.230500103 C8.31238729,0.2827677 8.20329512,0.387302894 8.09420294,0.544105685 C8.03965685,0.700908476 7.98511077,0.857711267 8.03965685,1.01451406 L10.0578621,6.39807655 Z M6.45782033,10.9976251 L6.45782033,10.9976251 L6.56691251,10.9976251 C6.83964294,10.9976251 7.11237338,10.7885547 7.16691946,10.5272167 C7.22146555,10.2136111 7.05782729,9.90000555 6.73055077,9.84773796 L0.948665545,8.38424524 C0.785027284,8.33197764 0.621389023,8.38424524 0.457750762,8.43651284 C0.294112501,8.54104803 0.185020327,8.64558322 0.185020327,8.80238602 C0.13047424,9.063724 0.0759281531,9.27279439 0.0213820661,9.53413237 C-0.0331640209,9.69093517 0.0213820661,9.84773796 0.13047424,10.0045407 C0.239566414,10.1090759 0.403204675,10.2136111 0.566842936,10.2136111 L6.45782033,10.9976251 Z M13.5488116,6.76394973 L13.5488116,6.76394973 C13.6033577,6.76394973 13.6033577,6.76394973 13.5488116,6.76394973 C13.6033577,6.76394973 13.6579038,6.81621733 13.7124499,6.81621733 C13.9851803,6.81621733 14.2033647,6.65941454 14.3124569,6.39807655 L16.3306621,1.01451406 C16.3852082,0.857711267 16.3852082,0.700908476 16.3306621,0.544105685 C16.276116,0.387302894 16.1124777,0.2827677 15.9488395,0.230500103 C15.676109,0.178232506 15.4579247,0.0736973118 15.1851943,0.0214297148 C15.021556,-0.0308378822 14.8579177,0.0214297148 14.6942795,0.0736973118 C14.5306412,0.178232506 14.4760951,0.2827677 14.421549,0.439570491 L13.1124429,5.97993578 C13.0578969,6.39807655 13.2760812,6.71168213 13.5488116,6.76394973 L13.5488116,6.76394973 Z" id="Fill-1" fill="#F8A531" mask="url(#mask-4)"></path>
                </g>
            </g>
        </g>
    </g>
</svg>