<?xml version="1.0" encoding="UTF-8"?>
<svg xmlns="http://www.w3.org/2000/svg" version="1.1" viewBox="0 0 595.28 595.28">
  <defs>
    <style>
      .cls-1 {
        fill: #fff;
      }

      .cls-2 {
        fill: #b7c0df;
      }

      .cls-3 {
        fill: #004b93;
      }
    </style>
  </defs>
  <!-- Generator: Adobe Illustrator 28.7.1, SVG Export Plug-In . SVG Version: 1.2.0 Build 142)  -->
  <g>
    <g id="Calque_3">
      <polygon class="cls-3" points="181.41 478.6 217 478.6 199.2 434.31 181.41 478.6"/>
      <path class="cls-1" d="M284.2,152.58l3.19-8.81,12.13-33.48c3.21-8.87-7.37-8.35-7.37-8.35h-56.77c-11.26-.99-14.64,10.64-14.64,10.64l-11.54,31.22-3.12,8.43-32.96,89.16s48.22-5.94,81.59-7.42l29.5-81.4Z"/>
      <path class="cls-1" d="M303.57,81.93l45.33,123.49c29.15-19.76,35.53-50.77,38.29-63.06.06-.23.48-2.33.5-2.57.97-8.54,9.2-8.54,9.2-8.54h10.61l-18-49.33-15.42-42.25c-3.94-10.8-13.66-10.03-13.66-10.03h-66.07c-11.5,0-6.48,9.54-6.48,9.54l15.69,42.75Z"/>
      <path class="cls-2" d="M62.24,335.97l32.19-.21,29-.16c34.49-75.65,107.92-78.99,170.22-86.78,60.75-7.59,147.6-27.43,168.74-109.76h-56.31s-7.41-.31-9.14,7.39c-.06.23-.38,1.47-.43,1.71-1.58,8.49-13.37,47.58-40.07,65.75l-6.1,4.05c-29.7,18-67.58,18.1-103.42,23.09-2.52.35-50.84,5.54-50.84,5.54-55.4,5.6-79.23,20.5-79.23,20.5-37.59,19.71-52.94,51.48-57.59,59.84-4.65,8.37,2.98,9.06,2.98,9.06Z"/>
      <path class="cls-1" d="M305.89,254.38c-101.79,9.98-143.21,32.47-166.59,71.67l-1.17,2.07c-13.26,21.86-24.78,66.6-24.78,66.6-2.46,8.43,4.7,9.14,4.7,9.14l64.21-.02s10.52,1.06,12.72-11.4c0,0,10.64-39.23,26.15-65.05,15.46-25.73,41.44-52.12,76.57-57.43,86.38-13.06,201.4-6.95,237.07-122.66,3.21-8.87-7.37-8.34-7.37-8.34h-46.65s-8.5,0-8.5,0c0,0-13.12,100.4-166.38,115.43Z"/>
      <path class="cls-1" d="M444.96,253.83c-21.57,8.02-57.42,13.43-69.38,15.09l-1.71.19c-.78.13-1.56.27-2.35.4l43.64,127.49s2.62,8.31,10.44,7.95h69.91s9.5-.03,4.32-11.74l-47.2-135.71c-1.87-5.5-7.68-3.67-7.68-3.67Z"/>
      <polygon class="cls-1" points="261.83 531.65 266.52 524.98 261.97 524.98 258.88 531.65 261.83 531.65"/>
      <polygon class="cls-1" points="70.56 422.28 57.76 422.28 57.76 511.63 107.94 511.63 107.94 500.36 70.56 500.36 70.56 422.28"/>
      <polygon class="cls-1" points="114.85 453.64 125.86 453.64 137.12 422.28 122.79 422.28 114.85 453.64"/>
      <path class="cls-1" d="M244.13,511.63l-37.76-89.35h-13.44l-38.15,89.35h13.44l9.09-22.53h43.78l9.09,22.53h13.95ZM181.41,478.6l17.79-44.29,17.79,44.29h-35.59Z"/>
      <rect class="cls-1" x="266.53" y="422.28" width="12.8" height="89.35"/>
      <path class="cls-1" d="M327.07,501.9c-6.53,0-14.21-2.56-18.56-4.35l-1.28,11.91c5.89,1.92,12.03,3.71,18.3,3.71,17.92,0,32.64-7.55,32.64-26.62,0-29.44-38.4-25.47-38.4-42.62,0-9.35,8.45-11.91,15.62-11.91,6.66,0,10.24,1.15,16.77,3.71l1.79-11.78c-6.14-2.18-13.18-3.2-19.07-3.2-16.13,0-28.67,8.45-28.67,24.32,0,27.78,38.4,22.27,38.4,42.24,0,10.5-10.24,14.59-17.54,14.59Z"/>
      <polygon class="cls-1" points="397.73 438.15 397.99 438.15 438.44 511.63 454.82 511.63 454.82 422.28 442.02 422.28 442.02 494.22 441.76 494.22 402.34 422.28 384.93 422.28 384.93 511.63 397.73 511.63 397.73 438.15"/>
      <polygon class="cls-1" points="487.58 511.63 537.63 511.63 537.63 500.36 500.38 500.36 500.38 470.92 534.31 470.92 534.31 459.66 500.38 459.66 500.38 433.54 537.63 433.54 537.63 422.28 487.58 422.28 487.58 511.63"/>
      <path class="cls-3" d="M0,0v595.28h595.28V0H0ZM107.94,500.36v11.27h-50.18v-89.35h12.8v78.08h37.38ZM114.85,453.64l7.94-31.36h14.34l-11.26,31.36h-11.01ZM154.79,511.63l38.15-89.35h13.44l37.76,89.35h-13.95l-9.09-22.53h-43.78l-9.09,22.53h-13.44ZM266.53,511.63v-89.35h12.8v89.35h-12.8ZM358.18,486.54c0,19.07-14.72,26.62-32.64,26.62-6.27,0-12.42-1.79-18.3-3.71l1.28-11.91c4.35,1.79,12.03,4.35,18.56,4.35,7.3,0,17.54-4.1,17.54-14.59,0-19.97-38.4-14.46-38.4-42.24,0-15.87,12.54-24.32,28.67-24.32,5.89,0,12.93,1.02,19.07,3.2l-1.79,11.78c-6.53-2.56-10.11-3.71-16.77-3.71-7.17,0-15.62,2.56-15.62,11.91,0,17.15,38.4,13.18,38.4,42.62ZM425.6,404.96c-7.82.37-10.44-7.95-10.44-7.95l-43.64-127.49c.79-.13,1.57-.27,2.35-.4l1.71-.19c11.96-1.66,47.81-7.07,69.38-15.09,0,0,5.81-1.82,7.68,3.67l47.2,135.71c5.18,11.71-4.32,11.74-4.32,11.74h-69.91ZM454.82,422.28v89.35h-16.38l-40.45-73.48h-.26v73.48h-12.8v-89.35h17.41l39.43,71.94h.26v-71.94h12.8ZM537.63,433.54h-37.25v26.11h33.92v11.26h-33.92v29.44h37.25v11.27h-50.05v-89.35h50.05v11.27ZM480.77,138.95h46.65s10.58-.52,7.37,8.35c-35.67,115.71-150.69,109.59-237.07,122.66-35.13,5.31-61.12,31.7-76.57,57.43-15.51,25.81-26.15,65.05-26.15,65.05-2.2,12.46-12.72,11.4-12.72,11.4l-64.21.02s-7.17-.71-4.7-9.14c0,0,11.52-44.75,24.78-66.6l1.17-2.07c23.38-39.2,64.8-61.68,166.59-71.67,153.26-15.03,166.38-115.43,166.38-115.43h8.5ZM294.35,29.64h66.07s9.71-.77,13.66,10.03l15.42,42.25,18,49.33h-10.61s-8.23,0-9.2,8.54c-.03.24-.45,2.34-.5,2.57-2.76,12.29-9.14,43.29-38.29,63.06l-45.33-123.49-15.69-42.75s-5.02-9.54,6.48-9.54ZM206.08,152.25l3.12-8.43,11.54-31.22s3.39-11.63,14.64-10.64h56.77s10.58-.52,7.37,8.35l-12.13,33.48-3.19,8.81-29.5,81.4c-33.38,1.48-81.59,7.42-81.59,7.42l32.96-89.16ZM59.26,326.91c4.65-8.37,20-40.13,57.59-59.84,0,0,23.83-14.9,79.23-20.5,0,0,48.33-5.19,50.84-5.54,35.84-4.99,73.72-5.09,103.42-23.09l6.1-4.05c26.7-18.17,38.49-57.25,40.07-65.75.05-.24.38-1.47.43-1.71,1.73-7.7,9.14-7.39,9.14-7.39h56.31c-21.15,82.33-107.99,102.17-168.74,109.76-62.3,7.79-135.73,11.13-170.22,86.78l-29,.16-32.19.21s-7.64-.69-2.98-9.06Z"/>
      <path class="cls-1" d="M57.76,562.4h11.31v-4.39h-6.71v-19.79h-4.6v24.18h0ZM89.42,562.4h13.2v-4.52h-8.63v-6.36h8.63v-4.42h-8.63v-4.37h8.63v-4.5h-13.2v24.18h0ZM150.02,562.4h5.53c3.13,0,5.33-.2,6.6-.59,1.27-.39,2.45-1.11,3.54-2.14,1.09-1.03,1.94-2.33,2.56-3.89.62-1.56.93-3.27.93-5.14,0-2.62-.55-4.91-1.66-6.87-1.11-1.96-2.51-3.38-4.22-4.25-1.71-.87-4.32-1.31-7.83-1.31h-5.45v24.18h0ZM156.15,542.65c2.86,0,4.94.64,6.23,1.91,1.44,1.42,2.15,3.41,2.15,5.97,0,1.67-.3,3.07-.9,4.21-.6,1.14-1.38,1.95-2.33,2.44-.95.48-2.47.72-4.58.72h-2.14v-15.26h1.56ZM190.42,562.4h13.2v-4.52h-8.63v-6.36h8.63v-4.42h-8.63v-4.37h8.63v-4.5h-13.2v24.18h0ZM193.91,536.34h3.22l6.02-6.44h-5.31l-3.93,6.44h0ZM224.73,562.4h4.6v-10.24c2.35,0,3.96-.13,4.85-.38,1.51-.44,2.71-1.22,3.59-2.33.88-1.12,1.32-2.52,1.32-4.21,0-1.52-.34-2.83-1.01-3.92-.67-1.09-1.59-1.88-2.76-2.37-1.17-.49-3.07-.73-5.71-.73h-4.88v24.18h0ZM229.34,542.7h1.3c1.43,0,2.4.16,2.93.48.72.43,1.08,1.11,1.08,2.05,0,.54-.13,1-.39,1.38-.26.38-.61.65-1.06.82-.45.16-1.25.25-2.4.25h-1.46v-4.96h0ZM258.49,562.4h4.78l1.97-4.98h9.87l1.89,4.98h4.78l-9.3-24.18h-4.67l-9.33,24.18h0ZM273.4,552.93h-6.47l3.24-8.3,3.23,8.3h0ZM302.49,562.4h4.6v-10.24h.42l5.44,10.24h5.03l-5.73-10.75c1.53-.55,2.68-1.36,3.44-2.42.76-1.07,1.14-2.4,1.14-3.99s-.34-2.82-1.03-3.93c-.69-1.11-1.6-1.9-2.73-2.37-1.13-.48-3.03-.72-5.7-.72h-4.88v24.18h0ZM307.09,542.7h1.26c1.22,0,2.06.09,2.52.26.46.17.82.45,1.1.84.27.39.41.85.41,1.38,0,.89-.28,1.53-.83,1.91-.55.38-1.56.58-3.02.58h-1.44v-4.96h0ZM336.16,542.75h4.29v19.64h4.67v-19.64h4.41v-4.54h-13.36v4.54h0ZM369.53,562.4h13.2v-4.52h-8.63v-6.36h8.63v-4.42h-8.63v-4.37h8.63v-4.5h-13.2v24.18h0ZM402.01,562.4h4.49l2.65-15.27,5.09,15.27h4.06l5.14-15.27,2.59,15.27h4.45l-4.06-24.18h-4.48l-5.66,16.87-5.61-16.87h-4.48l-4.19,24.18h0ZM451,562.4h13.2v-4.52h-8.63v-6.36h8.63v-4.42h-8.63v-4.37h8.63v-4.5h-13.2v24.18h0ZM485.34,562.4h4.6v-15.86l10.33,15.86h4.43v-24.18h-4.6v15.91l-10.35-15.91h-4.42v24.18h0ZM524.68,542.75h4.29v19.64h4.67v-19.64h4.41v-4.54h-13.36v4.54h0Z"/>
    </g>
  </g>
</svg>