<?xml version="1.0" encoding="utf-8"?>
<!-- Generator: Adobe Illustrator 26.3.0, SVG Export Plug-In . SVG Version: 6.00 Build 0)  -->
<svg version="1.1" id="Calque_1" xmlns="http://www.w3.org/2000/svg" xmlns:xlink="http://www.w3.org/1999/xlink" x="0px" y="0px"
	 viewBox="0 0 279.5 375" style="enable-background:new 0 0 279.5 375;" xml:space="preserve">
<style type="text/css">
	.st0{fill:#0381A2;}
	.st1{fill:#FFFFFF;}
	.st2{fill:#722278;}
	.st3{fill:#313483;}
	.st4{fill:#00A2E2;}
	.st5{fill:#A5BF00;}
	.st6{fill:#FFD600;}
	.st7{fill:#E77400;}
	.st8{fill:#DB3943;}
	.st9{fill:#B2D8E2;}
</style>
<path class="st0" d="M279.5,52v260.3c0,9.2-7.5,16.7-16.7,16.7H109.2l-62,46l-1.1-46H16.7C7.5,329,0,321.5,0,312.3V17.7
	C0,6.5,9-1.3,20,0.2l242.8,35.1C272,35.2,279.5,42.7,279.5,52z"/>
<g>
	<path class="st1" d="M30.4,286.2c-1,0.2-2.1,0.3-3.1,0.3c-2.4,0-5.6-1.2-5.6-6v-2.9c0-5,3.2-6,5.6-6c1,0,2.1,0.1,3.1,0.3
		c0.2,0.1,0.4,0.2,0.4,0.5v1.3c0,0.2-0.1,0.4-0.3,0.4h-0.1l0,0c-0.7-0.1-2-0.2-3.1-0.2c-1.6,0-2.9,0.9-2.9,3.7v2.9
		c0,2.7,1.2,3.7,2.9,3.7c1,0,2.4-0.1,3.1-0.2l0,0c0.2,0,0.4,0.1,0.4,0.3v0.1v1.3C30.8,286.1,30.6,286.2,30.4,286.2z"/>
	<path class="st1" d="M37.9,286.6c-3.2,0-5.6-1.8-5.6-6.1v-2.7c0-4.3,2.4-6.1,5.6-6.1s5.6,1.8,5.6,6.1v2.7
		C43.5,284.8,41.1,286.6,37.9,286.6z M40.8,277.8c0-2.6-0.9-3.8-2.9-3.8s-2.8,1.2-2.8,3.8v2.7c0,2.6,0.9,3.8,2.8,3.8
		s2.9-1.2,2.9-3.8V277.8z"/>
	<path class="st1" d="M56.3,286.4h-2c-0.5,0.1-1-0.2-1.2-0.7l-4.4-9.6c-0.1-0.1-0.1-0.2-0.2-0.2s-0.1,0-0.1,0.2v9.9
		c0,0.2-0.1,0.4-0.3,0.4l0,0h-1.7c-0.2,0-0.4-0.2-0.4-0.4l0,0v-13.5c0-0.4,0.3-0.8,0.8-0.8l0,0H49c0.4,0,0.6,0.1,0.9,0.6l4.6,10.1
		c0,0.1,0.1,0.2,0.2,0.2s0.1-0.1,0.1-0.2V272c0-0.2,0.1-0.4,0.3-0.4l0,0h1.7c0.2,0,0.4,0.1,0.4,0.3l0,0v13.5
		C57.1,286.1,56.8,286.4,56.3,286.4L56.3,286.4z"/>
	<path class="st1" d="M63.8,286.6c-1.2,0-2.3-0.1-3.5-0.4c-0.2,0-0.4-0.2-0.4-0.4v-1.4c0-0.2,0.2-0.4,0.4-0.4l0,0
		c0.8,0.1,2.8,0.2,3.5,0.2c1.8,0,2.3-0.6,2.3-1.8c0-0.8-0.4-1.2-1.7-1.9l-2.6-1.5c-1.8-1.1-2.3-2.2-2.3-3.6c0-2.2,1.3-3.7,4.9-3.7
		c1.3,0,2.5,0.1,3.8,0.4c0.2,0,0.3,0.2,0.4,0.4v1.5c0,0.2-0.1,0.3-0.3,0.4l0,0l0,0c-1.3-0.1-2.6-0.2-3.9-0.2c-1.5,0-2.1,0.5-2.1,1.4
		c0,0.6,0.3,1,1.6,1.8l2.4,1.3c2.2,1.2,2.7,2.5,2.7,4C68.9,284.5,67.7,286.6,63.8,286.6z"/>
	<path class="st1" d="M79.6,286.3c-1.2,0.2-2.5,0.3-3.7,0.3c-2.6,0-4.6-0.7-4.6-4v-6.9c0-3.4,2-4,4.6-4c1.3,0,2.5,0.1,3.7,0.3
		c0.3,0,0.4,0.1,0.4,0.4v1.3c0,0.2-0.2,0.4-0.4,0.4l0,0h-4c-1.1,0-1.6,0.4-1.6,1.7v2.1h5.3c0.2,0,0.4,0.2,0.4,0.4v1.4
		c0,0.2-0.2,0.4-0.4,0.4H74v2.5c0,1.3,0.4,1.7,1.6,1.7h4c0.2,0,0.4,0.2,0.4,0.4l0,0v1.3C80,286.2,79.9,286.2,79.6,286.3z"/>
	<path class="st1" d="M85,286.4h-1.9c-0.2,0-0.4-0.2-0.4-0.4l0,0v-13.9c0-0.2,0.2-0.4,0.4-0.4l0,0H85c0.2,0,0.4,0.1,0.4,0.3l0,0v14
		C85.4,286.3,85.2,286.4,85,286.4L85,286.4z"/>
	<path class="st1" d="M96.3,286.3c-1.1,0.2-2.2,0.3-3.3,0.3c-2.6,0-4.6-0.7-4.6-4v-10.4c0-0.2,0.2-0.4,0.4-0.4l0,0h2
		c0.2,0,0.4,0.2,0.4,0.4l0,0v10.4c0,1.3,0.4,1.7,1.5,1.7h3.6c0.2,0,0.4,0.2,0.4,0.4l0,0v1.3C96.7,286.2,96.6,286.2,96.3,286.3z"/>
	<path class="st1" d="M107.8,286.6c-1.3,0-2.6-0.1-3.9-0.2c-0.3,0-0.5-0.3-0.5-0.5c0,0,0,0,0-0.1v-13.3c0-0.3,0.2-0.6,0.5-0.6
		c0,0,0,0,0.1,0c1.3-0.1,2.6-0.2,3.9-0.2c3.9,0,6.2,2.1,6.2,6v2.9C114,284.5,111.8,286.6,107.8,286.6z M111.3,277.7
		c0-3-1.5-3.7-3.5-3.7c-0.7,0-1.2,0-1.7,0.1v10.2c0.4,0,0.9,0,1.7,0c2,0,3.5-0.8,3.5-3.7V277.7z"/>
	<path class="st1" d="M124.9,286.3c-1.2,0.2-2.5,0.3-3.7,0.3c-2.6,0-4.6-0.7-4.6-4v-6.9c0-3.4,2-4,4.6-4c1.3,0,2.5,0.1,3.7,0.3
		c0.3,0,0.4,0.1,0.4,0.4v1.3c0,0.2-0.2,0.4-0.4,0.4l0,0h-4c-1.1,0-1.6,0.4-1.6,1.7v2.1h5.3c0.2,0,0.4,0.2,0.4,0.4v1.4
		c0,0.2-0.2,0.4-0.4,0.4h-5.4v2.5c0,1.3,0.4,1.7,1.6,1.7h4c0.2,0,0.4,0.2,0.4,0.4l0,0v1.3C125.3,286.2,125.2,286.2,124.9,286.3z
		 M124,268.1l-2.3,2.4c-0.1,0.2-0.3,0.3-0.5,0.3h-1.7c-0.1,0-0.2-0.1-0.2-0.1c0-0.1,0-0.1,0.1-0.2l1.9-2.4c0.2-0.2,0.2-0.3,0.5-0.3
		h2.1c0.1,0,0.2,0.1,0.2,0.1C124.1,268,124,268.1,124,268.1L124,268.1z"/>
	<path class="st1" d="M132.4,281c-0.5,0-1.3-0.1-1.8-0.1v5.1c0,0.2-0.2,0.4-0.4,0.4l0,0h-2c-0.2,0-0.4-0.2-0.4-0.4l0,0v-13.6
		c0-0.4,0.2-0.5,0.6-0.6c1.3-0.2,2.6-0.3,3.9-0.2c3,0,5.7,1.1,5.7,4.5v0.2C138.1,279.8,135.5,281,132.4,281z M135.4,276.2
		c0-1.7-1-2.3-2.9-2.3c-0.4,0-1.4,0-1.8,0.1v4.7c0.3,0,1.4,0.1,1.8,0.1c2.1,0,2.9-0.8,2.9-2.4V276.2z"/>
	<path class="st1" d="M149.7,286.4h-2.1c-0.2,0-0.3-0.1-0.4-0.3l-0.9-3.7h-4.5l-0.9,3.7c0,0.2-0.2,0.3-0.4,0.3h-2.1
		c-0.2,0-0.3-0.1-0.4-0.3l0,0V286l3.2-12.4c0.5-1.5,2.1-2.4,3.6-1.9c0.9,0.3,1.6,1,1.9,1.9L150,286v0.1
		C150,286.3,149.9,286.4,149.7,286.4z M144.4,274.2c-0.1-0.2-0.1-0.3-0.3-0.3s-0.2,0.1-0.3,0.3l-1.4,5.9h3.5L144.4,274.2z"/>
	<path class="st1" d="M162.3,286.4h-2.4c-0.2,0-0.3-0.2-0.4-0.4l-2.8-5.3h-0.3c-0.5,0-1.3-0.1-1.8-0.1v5.3c0,0.2-0.1,0.4-0.3,0.4
		l0,0h-2c-0.2,0-0.4-0.2-0.4-0.4l0,0v-13.5c0-0.4,0.2-0.5,0.6-0.6c1.3-0.2,2.6-0.3,3.9-0.2c3,0,5.7,1.1,5.7,4.5v0.1
		c0.1,1.8-1,3.4-2.7,4l3.1,5.8c0,0.1,0,0.1,0,0.2C162.5,286.3,162.5,286.4,162.3,286.4L162.3,286.4z M159.3,276.1
		c0-1.5-1-2.1-2.9-2.1c-0.4,0-1.4,0-1.8,0.1v4.4c0.3,0,1.4,0.1,1.8,0.1c2,0,2.9-0.5,2.9-2.3V276.1z"/>
	<path class="st1" d="M173.1,274.1h-3.4v12c0,0.2-0.2,0.4-0.4,0.4l0,0h-2c-0.2,0-0.4-0.2-0.4-0.4l0,0v-12h-3.4
		c-0.2,0-0.4-0.1-0.4-0.3l0,0v-1.6c0-0.2,0.2-0.4,0.4-0.4l0,0h9.6c0.2,0,0.4,0.1,0.4,0.4l0,0v1.6
		C173.5,273.9,173.3,274.1,173.1,274.1z"/>
	<path class="st1" d="M183.3,286.3c-1.2,0.2-2.5,0.3-3.7,0.3c-2.6,0-4.6-0.7-4.6-4v-6.9c0-3.4,2-4,4.6-4c1.3,0,2.5,0.1,3.7,0.3
		c0.3,0,0.4,0.1,0.4,0.4v1.3c0,0.2-0.2,0.4-0.4,0.4l0,0h-4c-1.1,0-1.6,0.4-1.6,1.7v2.1h5.3c0.2,0,0.4,0.2,0.4,0.4v1.4
		c0,0.2-0.2,0.4-0.4,0.4h-5.3v2.5c0,1.3,0.4,1.7,1.6,1.7h4c0.2,0,0.4,0.2,0.4,0.4l0,0v1.3C183.7,286.2,183.6,286.2,183.3,286.3z"/>
	<path class="st1" d="M198.7,286.4h-2c-0.2,0-0.3-0.2-0.3-0.4v-9.2c0-0.1,0-0.2-0.1-0.2s-0.1,0.1-0.1,0.1l-1.9,3.8
		c-0.1,0.2-0.4,0.3-0.6,0.3h-2c-0.3,0-0.5-0.1-0.6-0.3l-1.9-3.8c0-0.1-0.1-0.1-0.1-0.1s-0.1,0.1-0.1,0.2v9.2c0,0.2-0.1,0.4-0.3,0.4
		h-2c-0.2,0-0.3-0.1-0.3-0.3l0,0v-13.6c0-0.4,0.4-0.8,0.8-0.8h1.6c0.3,0,0.6,0.2,0.7,0.5l3,6c0.1,0.2,0.1,0.3,0.2,0.3
		s0.1-0.1,0.2-0.3l3-6c0.1-0.3,0.4-0.5,0.7-0.5h1.6c0.4,0,0.8,0.3,0.8,0.8l0,0v13.6C199,286.3,198.9,286.4,198.7,286.4L198.7,286.4z
		"/>
	<path class="st1" d="M210.2,286.3c-1.2,0.2-2.5,0.3-3.7,0.3c-2.6,0-4.6-0.7-4.6-4v-6.9c0-3.4,2-4,4.6-4c1.3,0,2.5,0.1,3.7,0.3
		c0.3,0,0.4,0.1,0.4,0.4v1.3c0,0.2-0.2,0.4-0.4,0.4l0,0h-4c-1.1,0-1.6,0.4-1.6,1.7v2.1h5.3c0.2,0,0.4,0.2,0.4,0.4v1.4
		c0,0.2-0.2,0.4-0.4,0.4h-5.3v2.5c0,1.3,0.4,1.7,1.6,1.7h4c0.2,0,0.4,0.2,0.4,0.4l0,0v1.3C210.6,286.2,210.5,286.2,210.2,286.3z"/>
	<path class="st1" d="M223.6,286.4h-2c-0.5,0.1-1-0.2-1.2-0.7l-4.4-9.6c-0.1-0.1-0.1-0.2-0.2-0.2s-0.1,0-0.1,0.2v9.9
		c0,0.2-0.2,0.4-0.4,0.4l0,0h-1.7c-0.2,0-0.4-0.2-0.4-0.4l0,0v-13.5c0-0.4,0.3-0.8,0.8-0.8h2.1c0.4,0,0.6,0.1,0.9,0.6l4.6,10.1
		c0,0.1,0.1,0.2,0.2,0.2s0.1-0.1,0.1-0.2V272c0-0.2,0.2-0.4,0.3-0.4l0,0h1.7c0.2,0,0.4,0.1,0.4,0.3l0,0v13.5
		C224.4,286.1,224,286.4,223.6,286.4z"/>
	<path class="st1" d="M235.8,274.1h-3.4v12c0,0.2-0.2,0.4-0.4,0.4l0,0h-2c-0.2,0-0.4-0.2-0.4-0.4l0,0v-12h-3.4
		c-0.2,0-0.4-0.1-0.4-0.3l0,0v-1.6c0-0.2,0.2-0.4,0.4-0.4l0,0h9.6c0.2,0,0.4,0.1,0.4,0.4l0,0v1.6C236.2,273.9,236,274.1,235.8,274.1
		L235.8,274.1z"/>
	<path class="st1" d="M247.2,286.4h-2.1c-0.2,0-0.3-0.1-0.4-0.3l-0.9-3.7h-4.5l-0.9,3.7c0,0.2-0.2,0.3-0.4,0.3h-2.1
		c-0.2,0-0.3-0.1-0.3-0.3l0,0V286l3.2-12.4c0.5-1.5,2.1-2.3,3.6-1.9c0.9,0.3,1.6,1,1.9,1.9l3.2,12.4v0.1
		C247.5,286.3,247.4,286.4,247.2,286.4z M241.9,274.2c-0.1-0.2-0.1-0.3-0.3-0.3s-0.3,0.1-0.3,0.3l-1.4,5.9h3.5L241.9,274.2z"/>
	<path class="st1" d="M256.9,286.3c-1.1,0.2-2.2,0.3-3.3,0.3c-2.6,0-4.6-0.7-4.6-4v-10.4c0-0.2,0.2-0.4,0.4-0.4l0,0h1.9
		c0.2,0,0.4,0.2,0.4,0.4l0,0v10.4c0,1.3,0.4,1.7,1.5,1.7h3.6c0.2,0,0.4,0.2,0.4,0.4l0,0v1.3C257.3,286.2,257.2,286.2,256.9,286.3z"
		/>
	<path class="st1" d="M37.4,311.1h-2.7c-0.3,0-0.5-0.3-0.5-0.5v-8.4h-7.7v8.3c0,0.3-0.2,0.5-0.5,0.5h-2.7c-0.3,0-0.5-0.3-0.5-0.5
		v-19.2c0-0.3,0.2-0.5,0.5-0.5l0,0H26c0.3,0,0.5,0.2,0.5,0.5l0,0v7.5h7.7v-7.5c0-0.3,0.2-0.5,0.5-0.5l0,0h2.7c0.3,0,0.5,0.2,0.5,0.5
		l0,0v19.2C38,310.9,37.7,311.1,37.4,311.1L37.4,311.1z"/>
	<path class="st1" d="M55.2,311.1h-2.9c-0.3,0-0.5-0.2-0.5-0.5l-1.2-5.2h-6.3l-1.2,5.2c0,0.3-0.3,0.4-0.5,0.5h-2.9
		c-0.3,0-0.5-0.2-0.5-0.4l0,0v-0.1l4.5-17.1c0.4-1.8,2-3,3.8-2.8c1.8-0.2,3.4,1,3.8,2.8l4.5,17.1v0.1
		C55.7,310.9,55.5,311.1,55.2,311.1z M47.9,294.3c-0.1-0.3-0.2-0.4-0.4-0.4s-0.4,0.1-0.4,0.4l-2,8.1h4.8L47.9,294.3z"/>
	<path class="st1" d="M63.7,311.3c-4.4,0-7.5-1.9-7.5-7.7v-12.2c0-0.3,0.2-0.5,0.5-0.5l0,0h2.7c0.3,0,0.5,0.2,0.5,0.5l0,0v12.2
		c0,3.1,0.8,4.6,3.7,4.6c2.9,0,3.7-1.5,3.7-4.6v-12.2c0-0.3,0.2-0.5,0.5-0.5l0,0h2.7c0.3,0,0.5,0.2,0.5,0.5l0,0v12.2
		C71.2,309.4,68.1,311.3,63.7,311.3z"/>
	<path class="st1" d="M86.3,294h-4.8v16.5c0,0.3-0.2,0.5-0.5,0.5h-2.7c-0.3,0-0.5-0.2-0.6-0.5V294H73c-0.3,0-0.5-0.2-0.5-0.5l0,0
		v-2.1c0-0.3,0.2-0.5,0.5-0.5l0,0h13.3c0.3,0,0.5,0.2,0.5,0.5l0,0v2.1C86.8,293.8,86.6,294.1,86.3,294
		C86.3,294.1,86.3,294.1,86.3,294z"/>
	<path class="st1" d="M99,311c-1.7,0.3-3.4,0.4-5.2,0.4c-3.5,0-6.3-1-6.3-5.6v-9.5c0-4.6,2.8-5.6,6.3-5.6c1.7,0,3.5,0.1,5.2,0.4
		c0.4,0.1,0.5,0.2,0.5,0.6v1.8c0,0.3-0.2,0.5-0.5,0.5l0,0h-5.6c-1.6,0-2.2,0.5-2.2,2.4v3h7.4c0.3,0,0.5,0.2,0.6,0.5v2
		c0,0.3-0.3,0.5-0.6,0.5h-7.4v3.5c0,1.8,0.6,2.3,2.2,2.3H99c0.3,0,0.5,0.3,0.5,0.5v1.7C99.6,310.8,99.4,310.9,99,311z"/>
	<path class="st1" d="M106.9,304.1h-5.3c-0.3,0-0.5-0.2-0.5-0.5l0,0v-1.7c0-0.3,0.2-0.5,0.5-0.5l0,0h5.3c0.3,0,0.5,0.2,0.5,0.5l0,0
		v1.7C107.4,303.9,107.2,304.1,106.9,304.1L106.9,304.1z"/>
	<path class="st1" d="M121.9,310.9c-2,0.3-3.9,0.5-5.9,0.5c-2.9,0-7.3-1.9-7.3-8.4v-3.9c0-6.5,4.1-8.4,7.4-8.4c2,0,3.9,0.2,5.9,0.5
		c0.3,0.1,0.5,0.2,0.5,0.6v1.8c0,0.4-0.1,0.6-0.6,0.6h-0.1c-1.2-0.1-3.1-0.2-5.8-0.2c-1.8,0-3.6,1.3-3.6,5.1v3.9
		c0,3.9,1.9,5.1,3.5,5.1c1,0,1.8,0,2.7-0.1v-7c0-0.3,0.2-0.5,0.5-0.5l0,0h2.7c0.3,0,0.5,0.2,0.6,0.5v9.2
		C122.5,310.6,122.2,310.9,121.9,310.9z"/>
	<path class="st1" d="M139.7,311.1h-2.8c-0.3,0-0.5-0.2-0.5-0.5l-1.3-5.2h-6.3l-1.3,5.2c0,0.3-0.3,0.5-0.5,0.5h-2.9
		c-0.3,0-0.5-0.2-0.5-0.4l0,0v-0.1l4.5-17.1c0.7-2.1,3-3.2,5.1-2.5c1.2,0.4,2.1,1.3,2.5,2.5l4.5,17.1v0.1
		C140.2,310.9,140,311.1,139.7,311.1C139.8,311.1,139.8,311.1,139.7,311.1z M132.4,294.3c-0.1-0.3-0.2-0.4-0.4-0.4s-0.4,0.1-0.4,0.4
		l-2,8.1h4.8L132.4,294.3z"/>
	<path class="st1" d="M155.8,311.1h-3.3c-0.3,0-0.4-0.3-0.6-0.5l-3.9-7.3h-0.4c-0.7,0-1.8-0.1-2.4-0.1v7.4c0,0.3-0.2,0.5-0.5,0.5
		l0,0H142c-0.3,0-0.6-0.2-0.6-0.5v-18.8c0-0.5,0.3-0.7,0.9-0.8c1.8-0.2,3.6-0.4,5.4-0.4c4.2,0,7.8,1.5,7.8,6.2v0.2
		c0.2,2.5-1.3,4.7-3.7,5.6l4.3,8c0,0.1,0.1,0.1,0.1,0.2C156.1,311,156,311.1,155.8,311.1L155.8,311.1z M151.7,296.8
		c0-2-1.4-2.9-4.1-2.9c-0.6,0-1.9,0.1-2.4,0.1v6.1c0.4,0,2,0.1,2.4,0.1c2.8,0,4.1-0.8,4.1-3.2V296.8z"/>
	<path class="st1" d="M164.5,311.3c-4.5,0-7.8-2.5-7.8-8.5v-3.7c0-6,3.3-8.5,7.8-8.5s7.8,2.5,7.8,8.5v3.7
		C172.3,308.8,169,311.3,164.5,311.3z M168.5,299.2c0-3.6-1.3-5.2-4-5.2s-3.9,1.6-3.9,5.2v3.7c0,3.6,1.3,5.2,3.9,5.2s4-1.6,4-5.2
		V299.2z"/>
	<path class="st1" d="M188.7,311.1H186c-0.7,0.1-1.4-0.3-1.7-1l-6-13.3c-0.1-0.2-0.2-0.2-0.2-0.2s-0.1,0-0.1,0.2v13.7
		c0,0.3-0.2,0.5-0.5,0.5l0,0h-2.3c-0.3,0-0.6-0.2-0.6-0.5V292c0-0.6,0.5-1.1,1.1-1.1h3c0.6,0,0.9,0.2,1.2,0.9l6.4,14
		c0.1,0.1,0.1,0.2,0.2,0.2s0.1-0.1,0.1-0.2v-14.3c0-0.3,0.2-0.5,0.5-0.5l0,0h2.3c0.3,0,0.5,0.2,0.5,0.5l0,0V310
		C189.9,310.6,189.4,311.1,188.7,311.1C188.8,311.1,188.7,311.1,188.7,311.1z"/>
	<path class="st1" d="M206.8,311.1H204c-0.7,0.1-1.4-0.3-1.7-1l-6-13.3c-0.1-0.2-0.2-0.2-0.2-0.2s-0.1,0-0.1,0.2v13.7
		c0,0.3-0.2,0.5-0.5,0.5l0,0h-2.3c-0.3,0-0.6-0.2-0.6-0.5V292c0-0.6,0.5-1.1,1.1-1.1h3c0.6,0,0.9,0.2,1.2,0.9l6.4,14
		c0.1,0.1,0.1,0.2,0.2,0.2s0.1-0.1,0.1-0.2v-14.3c0-0.3,0.2-0.5,0.5-0.5l0,0h2.3c0.3,0,0.5,0.2,0.5,0.5l0,0V310
		C207.9,310.6,207.4,311.1,206.8,311.1C206.8,311.1,206.8,311.1,206.8,311.1z"/>
	<path class="st1" d="M222,311c-1.7,0.3-3.4,0.4-5.2,0.4c-3.6,0-6.3-1-6.3-5.6v-9.5c0-4.6,2.8-5.6,6.3-5.6c1.7,0,3.5,0.1,5.2,0.4
		c0.4,0.1,0.6,0.2,0.6,0.6v1.8c0,0.3-0.3,0.5-0.6,0.5h-5.6c-1.6,0-2.1,0.5-2.1,2.4v3h7.4c0.3,0,0.5,0.2,0.5,0.5l0,0v2
		c0,0.3-0.2,0.5-0.5,0.5l0,0h-7.4v3.5c0,1.8,0.6,2.3,2.1,2.3h5.6c0.3,0,0.6,0.2,0.6,0.5v1.7C222.6,310.8,222.4,310.9,222,311z"/>
	<rect x="22.7" y="251.6" class="st2" width="30" height="10.4"/>
	<rect x="57" y="251.6" class="st3" width="29.9" height="10.4"/>
	<rect x="91.3" y="251.6" class="st4" width="30" height="10.4"/>
	<rect x="125.6" y="251.6" class="st5" width="30" height="10.4"/>
	<rect x="159.9" y="251.6" class="st6" width="29.9" height="10.4"/>
	<rect x="194.2" y="251.6" class="st7" width="29.9" height="10.4"/>
	<rect x="228.5" y="251.6" class="st8" width="29.9" height="10.4"/>
	<path class="st9" d="M227.6,311.1h-2.4c-0.3,0-0.6-0.2-0.6-0.5v-3.1c0-0.3,0.2-0.5,0.5-0.5l0,0h2.4c0.3,0,0.5,0.2,0.5,0.5l0,0v3.1
		C228.1,310.9,227.9,311.1,227.6,311.1z"/>
	<path class="st9" d="M242.1,293.9h-5.6c-1.6,0-2.1,0.5-2.1,2.4v3h7.4c0.3,0,0.5,0.2,0.6,0.5v2c0,0.3-0.3,0.5-0.6,0.5h-7.4v8.3
		c0,0.3-0.2,0.5-0.6,0.5h-2.7c-0.3,0-0.5-0.3-0.5-0.5v-14.4c0-4.6,2.8-5.6,6.3-5.6c1.7,0,3.5,0.1,5.2,0.4c0.4,0.1,0.6,0.2,0.6,0.6
		v1.8C242.6,293.7,242.4,293.9,242.1,293.9L242.1,293.9z"/>
	<path class="st9" d="M259.3,311.1H256c-0.3,0-0.4-0.3-0.5-0.5l-3.9-7.3h-0.4c-0.7,0-1.8-0.1-2.4-0.1v7.4c0,0.3-0.2,0.5-0.5,0.5l0,0
		h-2.7c-0.3,0-0.6-0.2-0.6-0.5v-18.8c0-0.5,0.3-0.7,0.9-0.8c1.8-0.2,3.6-0.4,5.3-0.4c4.2,0,7.8,1.5,7.8,6.2v0.2
		c0.2,2.5-1.3,4.7-3.7,5.6l4.3,8c0,0.1,0.1,0.1,0.1,0.2C259.6,311,259.5,311.1,259.3,311.1L259.3,311.1z M255.2,296.8
		c0-2-1.4-2.9-4.1-2.9c-0.6,0-1.9,0.1-2.4,0.1v6.1c0.4,0,2,0.1,2.4,0.1c2.8,0,4.1-0.8,4.1-3.2V296.8z"/>
</g>
<g>
	<path class="st1" d="M205.9,58.7c-10.8,1.3-25.4,4.2-40.9,7.7c8.3-22.8,18.8-51.3,20.1-54.1c1.6-3.6,2-7.3,1.3-9.1
		c-12.7,14.2-25.9,39.6-38.2,67.2c-8.6,2.1-17.2,4.2-25.3,6.3c5.9-17.6,10.5-33.3,13.2-43.5c0,0-3.1-3-4.6-4.4
		c-1.2-1.1-2.9-1.6-4.5-1.2c-2.2,0.5-4.2,1.4-6,2.7c-1.2,2.1-2,4.3-2.5,6.6c-3.9,16.4-7.8,30.9-11.8,44c-18.9,5-32.4,8.8-32.4,8.8
		c-3.6-4.6-18.7-9.9-18-3.3s0.7,7.5,0.9,10.4c0.2,3.3,6.4,8.4,22.5,6.2c3.9-0.6,11.6-2.3,21.5-4.7c-11.2,33.5-22.9,58.5-35.1,87.5
		c18.9-13.7,37.2-54.2,50.8-91.5c7.5-2,15.7-4.3,24-6.8c-7.3,17.3-14.1,34.7-20,50.2c-3.5,7.9-3.6,13.9-2.5,17.2
		c1,2.9,2.2,6.1,9,9.6c1.8-10.1,23.7-58.6,31.5-80.5c0.3-0.8,0.6-1.6,0.9-2.4c14.9-4.8,29.3-9.9,40.9-14.9L205.9,58.7z"/>
	<path class="st1" d="M202.5,133.3c4.9-8.8,7.7-22.6,6.7-36.2s-6.9-18.9-12.7-19.9s-26.8-2.6-54.1,63s-13.7,88.5,6.5,89.9
		c5.8,0.1,15.1-1.2,21.7-10.5c-3.8,10.6-4.9,19.5-0.8,26.5c4.9-5.1,8.1-4.9,9.8-8.4s20.6-74.9,20.6-74.9c2-0.2,3.8-2.5,5-4.8
		s6-9.9,6-9.9c-17.6,2.7-43.1,9.6-44.3,11.1s-3.8,7.5-3.5,10.9s7.6,2.8,11.8,2s12.4-5.3,12.4-5.3c-6.5,18.1-17.9,55.7-37.5,54.2
		s-5-45.6,6.3-72.8s28.9-55.8,35.1-54.5C202,95.9,191.5,129.4,202.5,133.3z"/>
</g>
</svg>
