<svg id="_--LOGO" data-name="--LOGO" xmlns="http://www.w3.org/2000/svg"  viewBox="0 0 177 66">
  <path id="Coeur" d="M0,4.681,20.289,0V7.571c-.024.041-2.143,2.186-2.381,2.555-.314.061-1.217.244-1.217.244L12.807,16.6a15.386,15.386,0,0,0,3.117.6c-.99.138-2.374.341-2.374.341A4.483,4.483,0,0,0,10.2,19.254l-.492.533L7.587,22.21A4.128,4.128,0,0,0,6.38,25.126c0,.152.006.323.015.5l.3,2.244.121.655a3.274,3.274,0,0,1,.053.463c0,.293-.147.415-.664.853a8.359,8.359,0,0,0-3.133,6.948c0,4.7,1.131,10.115,9.278,17.789l.381.358s3.334-2.8,4.072-3.426c.574.743,3.287,4.108,3.489,4.369v5.442L0,66Zm22.332,48c-1.145-.311-4.8-3.643-4.839-3.676l-3.679,2.3c-4.149-4.378-6.791-7.922-8.079-10.837a9.347,9.347,0,0,1-.887-5.12c.015-.2.03-.4.037-.582a5.3,5.3,0,0,1,1.426-3.088A7.739,7.739,0,0,1,8.4,29.941c.978-.49.982-.814.9-1.39-.023-.165-.061-.356-.1-.578a16.093,16.093,0,0,1-.311-2.287,4.977,4.977,0,0,1,.232-1.975,8.112,8.112,0,0,1,1.336-2.284l.029-.038c1.37-1.773,1.617-2.092,3.566-2.662a15.913,15.913,0,0,1,4.033-.424c.669,0,1.122.024,1.126.025l-.243-2.958-3.112-.087,2.289-3.757,1.306-.167L19.7,10.7a20.567,20.567,0,0,1,3.527-2.047,14.167,14.167,0,0,0-.415,2.781c.151.015.323.022.511.022a23.673,23.673,0,0,0,4.483-.68L25.772,14.3l-2.784.825a.037.037,0,0,1,0,.01c0,.246-.012,1.124-.088,2.114a.927.927,0,0,1-.587.816,2.243,2.243,0,0,1-.888.169c.566.018,1.279.089,2.1.169,1.233.121,2.768.272,4.53.321.246.007.489.01.723.01a10.459,10.459,0,0,0,3.545-.41l-2.47,3.019a13.815,13.815,0,0,1-4.834.963c-.765,0-1.539-.068-2.435-.148-.295-.026-.6-.053-.92-.079-1.3-.1-2.591-.154-3.836-.154a28.087,28.087,0,0,0-3.2.154c-.906.108-1.406.219-1.628.521a.873.873,0,0,0-.1.705c.069.407.107.761.143,1.1a12.009,12.009,0,0,0,.184,1.274c.17.863.228,1.727-.492,2.212s-1.522,1.035-1.555,1.059a5.851,5.851,0,0,0-2.617,4.333c-.264,2.766,1.283,5.824,2.627,7.9a29.332,29.332,0,0,0,3.012,3.887c-2.928-4.168-4.182-7.722-3.73-10.564a6.5,6.5,0,0,1,2.387-4.053l.041-.035a33.139,33.139,0,0,1,4.169-2.864,2.221,2.221,0,0,1,1.146-.4c.7,0,1.465.493,3.038,1.953l.095.093c.1.1.193.187.273.282L24.791,26.9a12.488,12.488,0,0,1,3.4,2.561l3.157-2.477a12.24,12.24,0,0,1,3.344,4,8.376,8.376,0,0,1,.866,4.062,11.75,11.75,0,0,1-1.6,5.2,23.285,23.285,0,0,1-3.331,4.474,36.809,36.809,0,0,1-5.562,4.851c.344.256.54.4.542.406l-3.27,2.694Zm-5.18-11.122a39.989,39.989,0,0,0,7.431,7.651c4.573-4.384,6.926-8.511,6.993-12.264a8.594,8.594,0,0,0-2.5-6.233,5.621,5.621,0,0,1,.3,4.72,12.791,12.791,0,0,1-2.707,4.25,28.169,28.169,0,0,1-5,4.252l-.243-.5c3.168-2.9,4.629-5.684,4.342-8.281-.362-3.287-3.434-5.2-4.046-5.554a3.026,3.026,0,0,1,.833,2.438,2.35,2.35,0,0,1-.386,1.005l-3.441,2.541c.207-2.541-.808-3.852-1.7-4.5a4.517,4.517,0,0,0-2-.815C13.416,33.474,14.128,37.273,17.152,41.561Zm7.2-14.985-.474-.038c-.756-.059-1.5-.089-2.2-.089a15.707,15.707,0,0,0-2.635.177c-.135.011-.263.016-.381.016-.617,0-1.006-.143-1.187-.437-.243-.394-.11-1.07.42-2.129A2.248,2.248,0,0,1,19.151,22.9a6.5,6.5,0,0,1,2.309-.287c.714,0,1.578.035,2.579.077l.171.007a36.551,36.551,0,0,1,4.807.492,13.806,13.806,0,0,0,2.237.239,20.319,20.319,0,0,0,3.113-.244l-2.293,2.7a12.521,12.521,0,0,1-4.683.861C26.442,26.746,25.475,26.667,24.356,26.576Z" fill="#ED1B24"/>
  <path id="Vendee" d="M74.718,35.257V7.8a57,57,0,0,1,7.794-.6c5.125,0,8.823,1.127,11.305,3.447,2.646,2.384,3.988,5.777,3.988,10.086,0,4.467-1.389,8.218-4.018,10.847-2.678,2.632-6.958,4.024-12.376,4.024A44.584,44.584,0,0,1,74.718,35.257ZM78.677,10.73v21.5a23.781,23.781,0,0,0,3.427.149h.1c3.644,0,6.5-.992,8.472-2.95,2-1.988,3.009-4.873,3.009-8.574.022-3.263-.869-5.828-2.648-7.621-1.879-1.89-4.691-2.848-8.36-2.848A19.452,19.452,0,0,0,78.677,10.73Zm43.168,24.633V7.409h15.31v3.35H125.81v8.356H136.5v3.308H125.81v9.59h11.959v3.35Zm-20.319,0V7.409H116.84v3.35H105.488v8.356h10.695v3.308H105.488v9.59H117.45v3.35Zm-35.716,0L56.991,21.278A84.221,84.221,0,0,1,52.1,12.561c.182,3.292.222,6.5.222,10.828V35.363H48.608V7.409H52.82l8.861,14.042A74.837,74.837,0,0,1,66.344,29.9c-.291-3.592-.371-6.916-.371-10.722V7.409H69.7V35.363Zm-37.312,0V7.409H43.813v3.35H32.465v8.356H43.158v3.308H32.465v9.59H44.426v3.35Zm-17.912,0L0,3.085H4.882L9.9,18.931c1.218,3.964,2.374,7.813,3.282,11.461.813-3.246,1.967-6.975,3.528-11.414L22.151,3.085h4.792L15.4,35.363ZM106.781,5.186,110.918,0h4.888l-5.682,5.186Z" transform="translate(39.232 2.794)"/>
  <path id="Le_departement" data-name="Le departement" d="M21.7,15.534,23.875,3.092a15.686,15.686,0,0,1,2.891-.265A5.305,5.305,0,0,1,31.1,4.487,5,5,0,0,1,32.218,7.9a9.477,9.477,0,0,1-.614,3.342,7.147,7.147,0,0,1-1.737,2.691A7.494,7.494,0,0,1,24.537,15.7,20.632,20.632,0,0,1,21.7,15.534ZM25.13,4.241,23.353,14.309a10.811,10.811,0,0,0,1.515.094,5.287,5.287,0,0,0,4.2-1.678,7.142,7.142,0,0,0,1.6-4.77c0-2.552-1.319-3.846-3.919-3.846A8.241,8.241,0,0,0,25.13,4.241Zm38.5,11.369H62.186L64.4,3.092a11.814,11.814,0,0,1,2.56-.265,3.952,3.952,0,0,1,2.8.924,2.771,2.771,0,0,1,.871,2.093,3.715,3.715,0,0,1-.838,2.362,4.063,4.063,0,0,1-1.948,1.315l-.018.038c.771.278,1.211,1.134,1.305,2.545a22.8,22.8,0,0,0,.366,3.506H68c-.07-.263-.192-1.613-.28-3.072-.085-1.709-.654-2.47-1.845-2.47H64.589l-.957,5.543h0Zm2-11.406-.818,4.657H66.1a2.853,2.853,0,0,0,3.013-2.81c0-1.276-.8-1.979-2.264-1.979A4.632,4.632,0,0,0,65.635,4.2ZM51.947,15.61H50.432L56.493,2.9H58.2l1.619,12.706h-1.48l-.47-4.016H53.81l-1.863,4.016h0ZM56.722,5.143c-.2.5-.4,1.011-.631,1.511l-1.741,3.7h3.414l-.471-3.677c-.02-.258-.046-.557-.072-.873-.043-.5-.087-1.017-.118-1.464H57.05C56.94,4.6,56.829,4.877,56.722,5.143Zm70.924,10.466L129.631,4.26H126.2l.243-1.357h8.325l-.243,1.357h-3.449l-1.984,11.349Zm-6.965,0L118,8.426A26.246,26.246,0,0,1,116.92,4.77l-.053.019c-.121,1.187-.314,2.451-.61,4.185l-1.167,6.636h-1.359L115.961,2.9h1.586l2.681,7.2a26.889,26.889,0,0,1,1.028,3.545l.035-.019a32.277,32.277,0,0,1,.5-3.978L122.98,2.9h1.359L122.11,15.609Zm-16.005,0L106.905,2.9H112.9l-.243,1.338h-4.528l-.714,4.072h4.266l-.243,1.321h-4.268l-.8,4.637h4.808l-.245,1.338Zm-4.612,0,.836-6.862c.157-1.207.417-3.073.627-4.3h-.052c-.54,1.282-1.2,2.79-1.83,4.091l-3.5,6.994h-1.1l-.871-6.843C94,7.22,93.88,5.75,93.811,4.449h-.052c-.243,1.169-.61,3.091-.888,4.3l-1.6,6.862H89.909L92.958,2.9H94.8l.923,7.3c.122,1.075.243,2.225.278,3.186h.052c.367-.962.872-2.093,1.376-3.149L101.056,2.9h1.9l-1.5,12.706Zm-18.9,0L83.4,2.9H89.39l-.245,1.338H84.617L83.9,8.313H88.17l-.243,1.321H83.659l-.8,4.637h4.806l-.243,1.338Zm-7.086,0L76.067,4.26H72.636L72.88,2.9h8.325L80.96,4.26H77.513L75.527,15.609Zm-29.8,0H42.856L45.068,3.092a11.933,11.933,0,0,1,2.542-.265,3.969,3.969,0,0,1,2.874.981,3.023,3.023,0,0,1,.853,2.281,4.483,4.483,0,0,1-1.411,3.3,5.282,5.282,0,0,1-3.552,1.225,7.685,7.685,0,0,1-1.2-.094l-.888,5.089h0ZM46.27,4.223,45.4,9.2a4.849,4.849,0,0,0,1.167.114A3.075,3.075,0,0,0,49.874,6.2c0-1.361-.829-2.111-2.334-2.111A5.026,5.026,0,0,0,46.27,4.223ZM40.052,15.609H33.8L36.03,2.9h5.991l-.243,1.338H37.25l-.714,4.072H40.8l-.243,1.32H36.291l-.8,4.637H40.3l-.245,1.338h0Zm-31.484,0L10.8,2.9h5.991l-.243,1.338H12.017L11.3,8.313h4.266l-.243,1.321H11.058l-.8,4.637h4.808l-.245,1.338ZM0,15.609,2.229,2.9H3.675l-2,11.349H6.41l-.243,1.357ZM39.549,2.224H38.277L40.053,0h1.864L39.549,2.224Z" transform="translate(41.741 45.765)"/>
</svg>
