<?xml version="1.0" encoding="UTF-8"?>
<svg id="Calque_1" data-name="Calque 1" xmlns="http://www.w3.org/2000/svg" viewBox="0 0 449.3 87.56">
  <defs>
    <style>
      .cls-1, .cls-2 {
        fill: none;
      }

      .cls-3 {
        fill: #0798d6;
      }

      .cls-4 {
        fill: #aa1412;
      }

      .cls-5 {
        fill: #0079a3;
      }

      .cls-6 {
        fill: #8e0000;
      }

      .cls-2 {
        stroke: #fff;
        stroke-miterlimit: 10;
        stroke-width: .48px;
      }

      .cls-7 {
        fill: #fff;
      }

      .cls-8 {
        fill: #378b29;
      }
    </style>
  </defs>
  <g>
    <path class="cls-4" d="M321.5,84.03h1.47l.93-.21,1.66-.68,5.2-.72,4.33-2.47.95-1.13v-5.66h-15.1v10.31c0,.31.25.56.56.56Z"/>
    <g>
      <rect class="cls-4" x="320.1" y="68.98" width="16.78" height="4.19" rx=".56" ry=".56"/>
      <path class="cls-8" d="M333.03,64.57c-.58-.45-1.36-.47-2.03-.21-.29.11-.54.27-.76.47-.24.21-.45.47-.64.74-.27.37-.51.77-.72,1.18-.16.32-.33.67-.39,1.03v.15-.15c-.06-.36-.23-.71-.39-1.03-.21-.41-.45-.81-.72-1.18-.19-.27-.4-.52-.64-.74-.22-.2-.47-.36-.76-.47-.67-.26-1.45-.23-2.03.21-.56.43-.76,1.12-.71,1.8,0,.06.01.12.02.17.24,1.88,2.64,2.44,2.64,2.44h5.18s2.4-.56,2.64-2.44c0-.06.01-.11.02-.17.05-.68-.15-1.37-.71-1.8ZM326.51,67.84c-.3-.17-.57-.38-.84-.6-.09-.07-.17-.14-.24-.23-.07-.09-.11-.2-.11-.31.01-.28.28-.33.49-.25.03.01.06.02.09.04.28.15.5.39.72.61.32.33.64.66.86,1.07-.34-.03-.67-.16-.97-.33ZM331.55,67c-.07.09-.15.16-.24.23-.27.22-.54.43-.84.6-.3.17-.63.3-.97.33.22-.4.54-.74.86-1.07.22-.23.44-.46.72-.61.03-.01.06-.03.09-.04.21-.07.48-.03.49.25,0,.11-.04.22-.11.31Z"/>
    </g>
    <rect class="cls-8" x="326.87" y="68.98" width="3.06" height="13.8"/>
    <rect class="cls-6" x="320.94" y="73.16" width="5.92" height=".56"/>
    <rect class="cls-6" x="329.92" y="73.16" width="6.12" height=".56"/>
  </g>
  <g>
    <g>
      <path class="cls-7" d="M136.31,44.45c1.46-.84,2.98-2.4,2.98-4.55,0-4.15-4.08-5.25-9.21-5.25h-10.88v20.89h11.1c5.92,0,9.81-1.63,9.81-6.3,0-2.26-1.33-4.2-3.8-4.79h0ZM126.66,39.52h2.63c1.58,0,3.04.03,3.04,1.65,0,1.22-1.08,1.83-2.57,1.83h-3.1v-3.48h0ZM129.92,50.66h-3.26v-3.85h2.38c2.37,0,4.11.11,4.11,1.94,0,1.57-1.39,1.91-3.23,1.91h0Z"/>
      <path class="cls-7" d="M153.65,34.09c-7.09,0-11.93,4.27-11.93,10.83,0,7.11,4.78,11.17,11.93,11.17,6.74,0,11.96-4.01,11.96-11.11,0-5.52-3.83-10.89-11.96-10.89ZM153.65,50.98c-3.58,0-4.46-3.34-4.46-6s1.01-5.78,4.4-5.78c3.29-.08,4.55,2.93,4.55,5.78,0,3.45-1.26,6-4.49,6h0Z"/>
      <path class="cls-7" d="M168.01,34.65h7.47v12.51c0,2.06.44,3.83,3.51,3.83,2.69,0,3.48-1.57,3.48-3.83v-12.51h7.46v11.81c0,6.7-3.38,9.63-10.94,9.63-7.06,0-10.98-2.47-10.98-9.66,0,0,0-11.78,0-11.78Z"/>
      <path class="cls-7" d="M207.52,42.63c-.22-2.18-1.71-3.42-4.05-3.42-2.63,0-4.21,2.06-4.21,6.09,0,2.93.7,5.69,4.49,5.69,2.4,0,3.54-1.54,3.83-3.54h7.18c-.66,5.4-4.87,8.65-10.88,8.65-7.53,0-12.09-4.24-12.09-11.03s5-10.97,11.36-10.97c6.96,0,10.85,3.17,11.45,8.53h-7.09.01Z"/>
    </g>
    <polygon class="cls-7" points="216.85 55.54 216.85 34.65 224.32 34.65 224.32 41.7 231.37 41.7 231.37 34.65 238.84 34.65 238.84 55.54 231.37 55.54 231.37 47.44 224.32 47.44 224.32 55.54 216.85 55.54"/>
    <polygon class="cls-7" points="242.38 55.54 242.38 34.65 260.95 34.65 260.95 39.52 249.84 39.52 249.84 42.51 259.24 42.51 259.24 47.38 249.84 47.38 249.84 50.67 261.39 50.67 261.39 55.54 242.38 55.54"/>
    <g>
      <path class="cls-7" d="M275.85,40.71c-.12-.73-.54-1.16-1.07-1.42-.54-.26-1.2-.38-1.93-.38-1.64,0-2.37.44-2.37,1.19,0,3.13,13.1,1.19,13.1,8.79,0,4.85-4.4,7.2-10.66,7.2s-9.94-3.22-10.09-6.99h7.15c.16.76.6,1.31,1.23,1.66.6.35,1.39.52,2.12.52,1.87,0,3.1-.55,3.1-1.54,0-3.16-13.1-.99-13.1-8.97,0-4.44,4.18-6.67,9.87-6.67,6.33,0,9.21,2.96,9.74,6.62h-7.09Z"/>
      <path class="cls-7" d="M127.87,63.67h-9.08v20.89h8.91c6.63,0,10.97-3.02,10.97-10.88,0-6.88-4.14-10.01-10.8-10.01ZM129.61,79.14c-.71.38-1.58.55-2.6.55h-1.44v-11.15h1.29c3.62,0,5.03,1.17,5.03,5.51,0,2.68-.79,4.31-2.28,5.09h0Z"/>
      <path class="cls-7" d="M140.88,63.67h6.78v12.51c0,2.06.4,3.83,3.19,3.83,2.44,0,3.16-1.57,3.16-3.83v-12.51h6.78v11.81c0,6.71-3.07,9.63-9.94,9.63-6.41,0-9.97-2.47-9.97-9.66v-11.78Z"/>
      <path class="cls-7" d="M192.29,80.27c0-4.21-1.33-4.73-3.51-5.55,2.41-.66,3.47-2.69,3.47-5.1,0-4.07-2.26-5.95-9.16-5.95h-9.77v20.89h6.78v-7.28h2.07c3.16,0,3.62.9,3.62,3.62,0,1.86.17,3.2.35,3.66h6.86v-.64c-.8,0-.71-.93-.71-3.65ZM182.77,72.69h-2.67v-4.15h3.16c1.58,0,2.73.7,2.73,2.18s-1.12,1.97-3.22,1.97Z"/>
    </g>
    <polygon class="cls-7" points="195.5 84.56 195.5 63.67 202.28 63.67 202.28 70.72 208.69 70.72 208.69 63.67 215.47 63.67 215.47 84.56 208.69 84.56 208.69 76.47 202.28 76.47 202.28 84.56 195.5 84.56"/>
    <path class="cls-7" d="M231.44,57.46h-4.71l-3.48,4.29h4.23l1.61-2.2,1.61,2.2h4.25l-3.51-4.29ZM229,63.11c-6.43,0-10.83,4.27-10.83,10.83,0,7.11,4.34,11.17,10.83,11.17,6.12,0,10.86-4,10.86-11.11,0-5.52-3.47-10.89-10.86-10.89ZM229,80c-3.24,0-4.05-3.33-4.05-6s.92-5.78,3.99-5.78c2.99-.08,4.14,2.93,4.14,5.78,0,3.45-1.15,6-4.08,6Z"/>
    <polygon class="cls-7" points="256.3 75.07 256.04 70.31 256.04 63.67 262.53 63.67 262.53 84.56 256.18 84.56 248.8 73.19 249.05 77.94 249.05 84.56 242.56 84.56 242.56 63.67 248.91 63.67 256.3 75.07"/>
    <polygon class="cls-7" points="266.29 84.56 266.29 63.67 283.16 63.67 283.16 68.54 273.07 68.54 273.07 71.53 281.61 71.53 281.61 76.41 273.07 76.41 273.07 79.69 283.56 79.69 283.56 84.56 266.29 84.56"/>
    <path class="cls-7" d="M127.64,7.81c-1.31-.96-2.78-1.06-4.34-1.06h-4.8v14.2h4.8c1.86,0,3.69-.28,4.98-1.74,1.29-1.42,1.7-3.51,1.7-5.38s-.49-4.65-2.34-6.02ZM126.31,19.15c-1.08.57-2.11.65-3.3.65h-3.18V7.89h3.18c1.17,0,2.38.08,3.22.53,1.97,1.07,2.42,3.34,2.42,5.41,0,1.93-.47,4.36-2.34,5.32Z"/>
    <path class="cls-7" d="M140.93,2.9l-2.17,2.75h1l2.67-2.75h-1.5ZM136.83,19.8v-5.64h7.24v-1.14h-7.24v-5.13h8.02v-1.14h-9.35v14.2h9.55v-1.15h-8.22Z"/>
    <path class="cls-7" d="M155.41,6.75h-5.13v14.2h1.32v-6.27h3.01c2.6,0,5.39-.79,5.39-3.97,0-2.13-.94-3.96-4.59-3.96ZM154.65,13.53h-3.05v-5.64h3.44c2.5,0,3.63.95,3.63,2.72,0,2.41-1.54,2.92-4.02,2.92Z"/>
    <path class="cls-7" d="M169.46,6.75h-1.5l-5.52,14.2h1.37l1.65-4.46h6.41l1.62,4.46h1.36l-5.39-14.2h0ZM165.91,15.35l2.76-7.46,2.75,7.46h-5.51Z"/>
    <path class="cls-7" d="M189.43,17.79c-.04-1.5-.13-3.27-1.79-3.84,1.62-.73,2.28-1.68,2.28-3.47,0-2.63-1.7-3.73-4.78-3.73h-5.51v14.2h1.33v-6.45h4.18c1.33,0,2.48.2,2.79,1.73.22,1.09.08,3.75.63,4.72h1.46v-.14c-.35-.28-.53-.87-.59-3.02h0ZM185.1,13.36h-4.14v-5.47h4.22c1.77,0,3.41.51,3.41,2.64,0,2-1.52,2.83-3.49,2.83Z"/>
    <polygon class="cls-7" points="193.96 6.75 204.19 6.75 204.19 7.89 199.74 7.89 199.74 20.95 198.41 20.95 198.41 7.89 193.96 7.89 193.96 6.75"/>
    <polygon class="cls-7" points="208.99 20.95 208.99 6.75 218.34 6.75 218.34 7.89 210.32 7.89 210.32 13.02 217.56 13.02 217.56 14.17 210.32 14.17 210.32 19.81 218.54 19.81 218.54 20.95 208.99 20.95"/>
    <polygon class="cls-7" points="223.77 20.95 223.77 6.75 225.8 6.75 230.41 19.27 230.45 19.27 234.98 6.75 236.99 6.75 236.99 20.95 235.66 20.95 235.66 8.29 235.62 8.29 231.01 20.95 229.76 20.95 225.14 8.29 225.1 8.29 225.1 20.95 223.77 20.95"/>
    <polygon class="cls-7" points="243 20.95 243 6.75 252.35 6.75 252.35 7.89 244.32 7.89 244.32 13.02 251.57 13.02 251.57 14.17 244.32 14.17 244.32 19.81 252.54 19.81 252.54 20.95 243 20.95"/>
    <polygon class="cls-7" points="259.16 8.56 259.12 8.56 259.12 20.95 257.79 20.95 257.79 6.75 259.3 6.75 267.42 19.15 267.46 19.15 267.46 6.75 268.78 6.75 268.78 20.95 267.24 20.95 259.16 8.56"/>
    <polygon class="cls-7" points="273.56 6.75 283.79 6.75 283.79 7.89 279.34 7.89 279.34 20.95 278.01 20.95 278.01 7.89 273.56 7.89 273.56 6.75"/>
    <g>
      <path class="cls-7" d="M347.08,77.29c0,1.98,2.5,6.12,2.97,6.4l.48.28c-.29-.21.03-.69.01-1.62s-.99-3.84-1.81-4.99-1.55-2.2-1.27-3.37c.28-1.17-.38-3.38-.9-4.4-.85-1.66-.91-2.93-.8-4.77.11-1.84,3.19-6.39,4.03-7.43.84-1.03,3.39-2.46,4.16-2.65s3.92-.18,4.66-.36c.74-.19,2.46-2.17,2.8-2.76.34-.59,2.06-3.62,2.72-4.1.66-.48,3.82.31,4.39.25s2.91-2.61,3.61-3.27c2.58-2.43,5.07-4.12,5.07-4.12,0,0-1.59.35-2.74,1.11-.98.66-4.91,4.02-5.86,4.99-.74.76-2-1.08-3.93-.97-1.94.11-4.27,4.65-5.1,5.56-.83.91-3.01,1.7-4.12,1.85-1.11.16-3.05.22-5.58.56-2.53.35-6.95,6.34-6.95,6.34,0,0,1.04-2.98,1.3-6.17.27-3.19-.6-5.98-1.04-7-.45-1.02-1.03-3.37-.69-5.27.34-1.9,1.04-2.63,1.53-3.07s4.61-2.24,6.46-3.22c1.85-.98,3.22-2.9,3.22-2.9,1.21-1.18.85-7.06,1.16-8.39.24-1.03,1.43-2.32,3.45-4,.92-.76-.46-5.39-.46-5.39,0,0-.06,2.68,0,3.8.07,1.12-.95,1.6-2.02,2.26-1.07.65-1.59,2.2-2.1,3.33-.52,1.13-.32,4.2-.65,6.07s-3.22,2.86-4.08,3.49c-.86.62-3.89,3.11-5.73,3.73s-2.71.32-2.91.1-.76-2.97-1.08-4.53c-.46-2.28-1.48-1.65-2.22-1.8-.74-.16-3.11-2.09-4.04-3.18-.93-1.08-2.15-3.73-2.32-4.81s-.52-7.05-.52-7.05c0,0-.26,2.1-.36,4.57-.1,2.46.13,5.36,1.09,7,.95,1.64,3.86,3.95,5.72,4.91,1.86.96,1.65,2.05,1.63,3.25-.01,1.2-.18,3.35.07,4.79s1.91,5.8,2.58,7.83c.67,2.03.14,4.66.14,4.66-.35,1.13-.62,1.2-.62,1.2,0,0-.26-1.59-.45-2.41-.19-.81-.92-.54-.92-.54-.65-.04-.66-2.08-.45-2.76.2-.67.2-1.6-.24-3.17s-5.21-2.95-6.33-3.27-5.7-1.67-5.7-1.67c0,0-1.5-2.59-1.99-3.67s-1.29-2.76-1.6-2.94c-.3-.18-2.34-.75-3.12-.92-.77-.18-6,.03-6.82-.33-.83-.36-3.07-4.59-3.07-4.59,0,0,0,.71.87,2.84s2.1,2.76,2.8,2.98c.7.22,3.78-.14,5.47-.15,1.68,0,2.85.96,3.81,2.06s2.13,4.68,2.13,4.68c0,0-1.16-.27-2.22-.36-1.06-.09-2.91-.31-4.82.12-1.92.43-5.98,3.34-7.17,4.2-1.18.87-5.01,6.51-5.01,6.51,0,0,1.43-1.21,2.08-1.92.65-.72,2.14-1.98,2.77-2.61.63-.63,4.56-3.89,5.25-4.26.69-.36,3.4-1.27,3.4-1.27.98-.27,4.1-.11,4.98.07s3.63,1.26,4.37,1.58,3.85,1.61,4.21,1.81,1.92,2.28,2.83,3.57c.9,1.3,1.16,2.95,1.07,3.64-.08.69,2.19,6.33,1.58,7.56-.61,1.23-.81,5.94-.52,7.57s1.7,7.56,1.19,8.64c-.51,1.09-2.79,5.31-4.02,6.65-1.26,1.38-7.89,1.01-9.32,1.91-1.35.86-5.3.97-7.25,1.52-2.73.77-4.89.33-4.89.33,0,0,7.67-1.75,8.57-1.8.9-.04,1.76.2,2.06-.32.3-.53,3.03-.57,3.4-.67.31-.08.95-.19,1.52-.07,0,0,.77-.43.79-.44.07-.08.4.08.86-.58.77-1.11.7-.6,1.65-.9.94-.3,2.15-.36,2.42-.7.27-.35.43-1.13.53-2.1s.1-1.47.27-2.73c.17-1.27,2.53-7.07,2.53-7.07,0,0,.37,3.93.4,4.47.09,1.89-.27,1.56-.97,3.38-.27.7-1.19,1.76-1.32,3.01-.12,1.24-.67,1.39-1.12,1.71-.45.32-.45.91-1.57,1.16s-1.61.54-2.16.92c-.47.32-.81.63-.99.76-.8.25-1.51.65-1.52.65.05-.38.03.13,0,.22-.17.47-1.19.52-1.7.66-.5.15-.87,1.11-1.08,1.53-.22.42-2.79.56-2.79.56,0,0,1.68.39,2.61.41.92.02,1.67-1.5,2.43-1.88.76-.39,2.57-.51,3.5-.79.93-.29,3,.07,3.93.37.94.3,2.14.26,3.67.29s3.99-.28,4.5-.31c.52-.03,2.68.65,3.25.73s1.67-.74,1.93-.84c.26-.1,2.65.39,4.1.58,1.45.18,4.14-.15,3.54-.16-.89-.02-2.91-.33-2.91-.33,0,0,1.69-.82,3.24-.38,1.36.39,3.84.68,4.99.77s8.34-.28,8.34-.28c0,0-1.82-.31-4.51-.28-3.02.04-5.06-.44-5.06-.44,0,0-1.1-.23-3.16-.83s-4,.59-4.58.68c-.57.1-2.17-.21-2.45-.42,0,0-2.11-.62-2.63-1.26-.52-.65-.96-1.06-1.4-1.85-.45-.79-.79-3.18-.98-4.32s-1.46-.94-1.78-1.39.44-1.73.07-3.05-1.9-3.99-1.8-4.44c.1-.45.81-.8,1.67-2.01,1.02-1.44,1.18-1.91.9-2.43-.37-.69-.93-1.21-1.25-1.39-.32-.17-2.81.34-2.81-.76,0-.61.97-3.61.74-4.13-.22-.52-.22-1.02-.22-1.02l-.47-1.4c-.06-.13-.05-.16-.05-.16l.05.16c.06.15.2.41.52.9.6.95.72.75.87,1.67s.65,2.21.74,2.68c.1.47,1.07.2,1.96,1.19,0,0,.69,1.37.79,1.99.1.62,0,1.32-.22,1.84s-1.54,2.58-1.61,3.26l3.46,9.25h.06Z"/>
      <path class="cls-7" d="M356.92,13.36c-.32-1.15-.19-4.23.86-5.76.72-1.06.41-1.84.77-2.26.16.53.65,1.38.64,2.65-.02,2.18-1.53,4.44-2.27,5.37h0Z"/>
      <path class="cls-7" d="M358.14,14.7c1.16-.25,3.82-.98,6.36-.42,1.49.33,2.58,1.14,3.19,1.38-.53.12-1.45.09-2.83.17-2.38.13-5.39-.63-6.72-1.13h0Z"/>
      <path class="cls-7" d="M356.12,14.65c-.9-.59-3.28-2.27-3.82-4.04-.37-1.21-.6-2.08-.72-2.62.42.26,1.19.52,2.02,1.4,1.44,1.52,2.23,4.11,2.52,5.26h0Z"/>
      <path class="cls-7" d="M360.19,13.52c-.79.67-1.74.84-2.11.39-.38-.45-.04-1.35.75-2.02.79-.67,1.74-.84,2.12-.39s.04,1.35-.76,2.02h0Z"/>
      <path class="cls-7" d="M346.53,17.08c.99.22,3.3,0,4.82,2.28.67,1.01,1.34,1.62,1.66,2.04-.45-.09-1.2-.27-2.26-.57-1.54-.45-3.52-2.85-4.22-3.76h0Z"/>
      <path class="cls-7" d="M358.41,18.89c1.09-.27,4.11-.88,5.9-.04,1.23.57,2.07,1.01,2.58,1.3-.5.13-1.57-.42-2.76-.2-1.76.3-4.6-.46-5.71-1.05h0Z"/>
      <path class="cls-7" d="M334.3,22.67c-.84.1-1.56-.18-1.61-.62s.58-.88,1.42-.98c.84-.1,1.56.18,1.61.62s-.58.88-1.42.98h0Z"/>
      <path class="cls-7" d="M330.16,19.41c.76-1,2.95-3.66,5.1-4.25,1.48-.4,2.53-.65,3.17-.77-.34.46-.92,1.13-2.03,2-1.82,1.42-4.85,2.72-6.24,3.03h0Z"/>
      <path class="cls-7" d="M329.07,15.25c-.24-.99-.66-3.29-.18-5.45.28-1.24.78-2.02,1-2.52.12.45.38,1.15.51,2.29.27,2.41-.86,4.58-1.32,5.67h-.01Z"/>
      <path class="cls-7" d="M333.21,11.94c-.63.52-1.38.64-1.66.29-.29-.36-.02-1.06.61-1.58.63-.51,1.37-.64,1.66-.29.29.36.02,1.06-.61,1.58h0Z"/>
      <path class="cls-7" d="M329.89,22.25c.84.16,3.11.68,4.06,1.81.65.78,1.09,1.35,1.34,1.71-.39-.07-1.02-.2-1.92-.42-1.31-.34-1.95-2.03-3.49-3.1h.01Z"/>
      <path class="cls-7" d="M321.95,8.8c.97.67,3.5,2.25,4.45,5.22.44,1.39,1.02,1.71,1.25,2.31-.45-.3-1.19-.81-2.21-1.59-1.49-1.16-2.98-4.64-3.49-5.94h0Z"/>
      <path class="cls-7" d="M324.99,17.65c-.7-.47-1.06-1.18-.79-1.57.27-.4,1.06-.34,1.76.13s1.06,1.18.79,1.58-1.05.34-1.76-.14h0Z"/>
      <path class="cls-7" d="M319.92,20.75c.86-.57,2.71-2.2,5.56-1.5,1.18.29,1.75-.41,2.3-.36-.39.27-1.05.7-2.02,1.27-1.43.82-4.65.68-5.84.59h0Z"/>
      <path class="cls-7" d="M356.27,17.2c-.73.29-2.72.99-3.79.42-.74-.39-1.24-.7-1.54-.9.33-.14.89-.35,1.67-.61,1.16-.36,3,.67,3.66,1.09h0Z"/>
      <path class="cls-7" d="M303.84,27.27c-1.02-.15-1.79-.74-1.7-1.32.08-.58.98-.93,2.01-.78,1.02.15,1.79.74,1.7,1.32-.08.58-.98.93-2.01.78h0Z"/>
      <path class="cls-7" d="M352.22,15.41c-.82-.2-1.4-.71-1.3-1.14.11-.43.85-.62,1.68-.43.82.2,1.4.71,1.3,1.14-.11.43-.85.62-1.68.43h0Z"/>
      <path class="cls-7" d="M360.1,28.37c-.86-.72-3.15-2.49-3.31-4.58-.12-1.51-.2-2.16-.22-2.71.4.32,1.2.68,1.91,1.69,1.14,1.63,1.56,4.41,1.62,5.6h0Z"/>
      <path class="cls-7" d="M362.93,23.56c-.75-.04-2.78-.25-3.56-1.18-.54-.64-.89-1.11-1.1-1.41.35.02.92.06,1.72.16,1.16.16,2.48,1.81,2.94,2.44h0Z"/>
      <path class="cls-7" d="M360.77,25.72c-.57-.62-.77-1.37-.44-1.67s1.06-.04,1.63.59c.57.62.76,1.37.43,1.67-.33.3-1.05.04-1.62-.59h0Z"/>
      <path class="cls-7" d="M330,15.76c.66-.81,2.54-2.95,4.34-3.39,1.23-.31,2.11-.48,2.65-.57-.3.38-.64,1.07-1.57,1.82-1.67,1.34-3.05.92-5.42,2.14h0Z"/>
      <path class="cls-7" d="M351.99,23.57c-.59.54-1.4,1.96-3.43,1.75-.83-.09-1.4-.25-1.76-.35.27-.25.72-.66,1.38-1.19.97-.77,3.05-.39,3.81-.21h0Z"/>
      <path class="cls-7" d="M350.75,23.02c-.83-.17-1.43-.66-1.34-1.09.09-.44.83-.65,1.66-.48.83.17,1.43.66,1.34,1.09s-.83.65-1.66.48h0Z"/>
      <path class="cls-7" d="M373.26,43.23c1.03.19,3.4-.01,5.05,2.19.75,1,1.43,1.62,1.77,2.05-.47-.08-1.25-.24-2.34-.51-1.6-.41-3.72-2.82-4.48-3.73h0Z"/>
      <path class="cls-7" d="M373.95,46.84c-.49-.65-.59-1.4-.22-1.68.37-.27,1.06.02,1.55.67s.59,1.4.22,1.68-1.06-.02-1.55-.67h0Z"/>
      <path class="cls-7" d="M372.64,43.88c.2.92.64,3.44-.25,4.6-.61.81-1.08,1.34-1.38,1.66-.1-.43-.12-1.15-.39-2.11-.6-2.15,1.39-3.44,2.02-4.15h0Z"/>
      <path class="cls-7" d="M374.37,40.43c-.49-.75-1.76-2.85-1.71-4.47.03-1.11.08-1.89.13-2.37.23.34,1.07,1,1.56,1.84.7,1.24.09,3.96.01,4.99h0Z"/>
      <path class="cls-7" d="M373.11,40.94c-.73.29-2.72.99-3.79.42-.74-.39-1.24-.7-1.54-.9.34-.14.89-.35,1.68-.61,1.16-.36,3,.67,3.66,1.09h0Z"/>
      <path class="cls-7" d="M368.76,38.69c-.82-.2-1.4-.71-1.3-1.14.11-.43.85-.62,1.68-.43.82.2,1.4.71,1.3,1.14-.11.43-.86.62-1.68.43h0Z"/>
      <path class="cls-7" d="M381.32,41.04c-.83.18-1.57-.03-1.66-.46-.1-.43.49-.93,1.32-1.11.82-.18,1.57.03,1.67.46.09.43-.5.93-1.32,1.11h-.01Z"/>
      <path class="cls-7" d="M376.52,40.26c.62-1.16,2.69-3.75,4.53-5.01,1.26-.86,2.47-.85,3.11-1.03-.28.54-.36.89-1.38,1.96-2.43,2.55-4.88,3.67-6.25,4.08h0Z"/>
      <path class="cls-7" d="M376.83,41.14c.96-.05,2.83-.56,4.33,1.62.58.84,1.41.65,1.68,1.01-.45.03-1.17.07-2.18.06-1.48-.02-3.22-1.94-3.83-2.68h0Z"/>
      <path class="cls-7" d="M303.92,21.07c.76.55,2.87.77,3.19,3.68.13,1.09.47,1.85.56,2.32-.35-.25-.92-.67-1.71-1.3-1.14-.94-1.83-3.68-2.04-4.7h0Z"/>
      <path class="cls-7" d="M309.88,25.12c-.3.76-.89,1.23-1.31,1.06-.43-.17-.53-.92-.23-1.67.3-.76.89-1.23,1.31-1.06.43.17.53.92.23,1.67h0Z"/>
      <path class="cls-7" d="M308.68,27.14c.58-.47,2.16-2.12,3.51-1.75.82.22,1.54-.02,1.93,0-.26.22-.71.58-1.36,1.05-.96.69-3.24.72-4.08.7h0Z"/>
      <path class="cls-7" d="M304.53,28.03c.4-.23,1.5-.81,2.18-.57.46.17.78.3.98.4-.18.11-.61.13-.92.5-.91,1.05-1.81-.14-2.23-.33h0Z"/>
      <path class="cls-7" d="M316.69,31.96c.56-.64,2.06-2.89,3.44-2.3.83.36,1.55.05,1.94.09-.25.3-.68.78-1.31,1.43-.93.93-3.22.85-4.07.78h0Z"/>
      <path class="cls-7" d="M317.42,30c-.15.71-.6,1.22-1.01,1.13-.4-.08-.61-.73-.45-1.45.15-.71.61-1.22,1.01-1.14.4.09.6.74.45,1.45h0Z"/>
      <path class="cls-7" d="M313.13,28.54c.62.31,2.42.3,2.48,2.27.02.73.26,1.23.3,1.54-.29-.14-.75-.39-1.38-.76-.91-.56-1.29-2.38-1.4-3.06h0Z"/>
      <path class="cls-7" d="M304,36.02c.72-.53,1.47-2.27,4.37-1.99,1.08.11,1.9-.04,2.38-.03-.33.25-.88.65-1.69,1.19-1.2.78-4.02.84-5.06.83h0Z"/>
      <path class="cls-7" d="M307.9,32.02c.46-.04,1.7-.09,2.21.41.35.35.58.61.72.77-.21.02-.6-.15-1.05.05-1.26.56-1.57-.89-1.88-1.24h0Z"/>
      <path class="cls-7" d="M311.27,33.84c.62.31,2.42.3,2.48,2.27.02.73.26,1.23.3,1.54-.29-.14-.75-.39-1.38-.76-.91-.56-1.29-2.38-1.4-3.06h0Z"/>
      <path class="cls-7" d="M311.04,36.51c-.15.71-.6,1.22-1.01,1.13-.4-.09-.61-.73-.45-1.45.15-.71.6-1.22,1.01-1.14.41.09.61.73.45,1.45h0Z"/>
      <path class="cls-7" d="M362.83,45.58c-.97-.23-3.61-.97-4.91-2.28-.89-.9-1.5-1.56-1.86-1.97.45.1,1.6,0,2.64.31,1.53.47,3.33,3.06,4.12,3.94h0Z"/>
      <path class="cls-7" d="M361.43,42.3c-.15-.83.09-1.57.53-1.64.44-.08.91.53,1.06,1.37.15.83-.09,1.57-.52,1.64-.44.08-.91-.53-1.06-1.36h-.01Z"/>
      <path class="cls-7" d="M366.43,40.77c-.1.78-.46,2.86-1.49,3.52-.7.45-1.22.74-1.54.91.04-.36.13-.95.29-1.76.25-1.19,2.05-2.29,2.74-2.66h0Z"/>
      <path class="cls-7" d="M353.87,32.02c.77.35,3.36,1.16,3.18,2.65-.11.9.39,1.5.46,1.89-.36-.16-.94-.43-1.74-.85-1.15-.63-1.73-2.85-1.91-3.68h.01Z"/>
      <path class="cls-7" d="M354.75,31.63c.54-.43,1.27-2.08,3.09-1.32.68.29,1.23.27,1.53.37-.25.2-.66.52-1.26.94-.88.6-2.7.19-3.37,0h.01Z"/>
      <path class="cls-7" d="M358.12,32.53c.65.32,1.04.88.86,1.25-.18.37-.86.41-1.52.1-.65-.32-1.04-.88-.86-1.25.18-.37.86-.41,1.51-.1h0Z"/>
      <path class="cls-7" d="M337.34,25.99c.34.6,1.84,1.6.79,3.27-.39.62-.47,1.16-.62,1.45-.16-.27-.4-.74-.72-1.4-.44-.97.26-2.69.55-3.32h0Z"/>
      <path class="cls-7" d="M340.44,29.05c-.5.53-1.15.73-1.45.45-.3-.29-.14-.95.36-1.48s1.15-.73,1.45-.45c.3.28.14.94-.36,1.47h0Z"/>
      <path class="cls-7" d="M338.3,30.64c.72-.45,2.83-2.15,3.97-1.18.69.59,1.46.51,1.82.66-.33.21-.88.55-1.67.98-1.16.61-3.33-.14-4.12-.46h0Z"/>
      <path class="cls-7" d="M351.43,16.11c-1.08-.13-3.52-.58-5.24-1.97-.99-.8-1.41-1.64-1.74-2.08.5.05,1.35-.16,2.47.36,2.11.99,3.78,2.76,4.51,3.69h0Z"/>
      <path class="cls-7" d="M348.52,7.95c.66.53,2.97,1.96,2.42,3.36-.33.84,0,1.54-.03,1.94-.31-.24-.81-.65-1.47-1.26-.96-.9-.97-3.19-.93-4.04h0Z"/>
      <path class="cls-7" d="M346.1,11.1c-.53-.66-.67-1.42-.32-1.7s1.06.04,1.58.7c.53.66.67,1.42.32,1.7-.35.28-1.05-.04-1.58-.7h0Z"/>
      <path class="cls-7" d="M376.27,39.65c-.39-.68-1.36-2.57-.94-3.71.29-.79.53-1.33.68-1.66.18.31.47.83.84,1.59.52,1.1-.26,3.07-.58,3.79h0Z"/>
      <path class="cls-7" d="M318.06,15.38c.83-.2,3.37-1.15,4.14.14.47.78,1.23.95,1.52,1.21-.38.1-1.01.24-1.9.39-1.3.21-3.11-1.19-3.76-1.74h0Z"/>
      <path class="cls-7" d="M308.54,30.54c-.98.34-3.38.96-5.46.58-1.26-.23-2.05-.69-2.56-.9.45-.16,1.08-.62,2.28-.71,2.59-.2,4.63.6,5.74,1.02h0Z"/>
      <path class="cls-7" d="M310.31,23.82c.27-1.16,1.85-3.81,3.5-4.66,1.13-.59,1.24-1.42,1.75-1.62-.12.54-.33,1.42-.69,2.64-.55,1.77-3.45,3.18-4.56,3.65h0Z"/>
      <path class="cls-7" d="M308.94,17.79c.17.58,1.15,1.51.19,3.18-.35.62-.47,1.15-.61,1.44-.08-.26-.21-.71-.36-1.35-.21-.93.49-2.65.78-3.27h0Z"/>
      <path class="cls-7" d="M326.51,10.47c-.63-.46-2.28-1.79-2.36-3-.06-.83-.06-1.42-.05-1.79.3.21.77.57,1.4,1.1.92.79,1.01,2.9,1,3.69h0Z"/>
      <path class="cls-7" d="M324.43,37.75c-.21-.75-.69-2.81-.01-3.82.47-.69.83-1.16,1.06-1.44.11.35.26.92.43,1.73.23,1.19-.99,2.91-1.48,3.52h0Z"/>
      <path class="cls-7" d="M365.69,53.75c-.73.3-2.71,1.02-3.79.46-.74-.38-1.25-.69-1.56-.89.34-.14.88-.36,1.67-.62,1.15-.37,3,.64,3.67,1.05h0Z"/>
      <path class="cls-7" d="M359.81,58.35c-.38-.76-.37-1.53.03-1.73.4-.2,1.03.25,1.41,1s.37,1.53-.03,1.73c-.4.2-1.03-.25-1.41-1h0Z"/>
      <path class="cls-7" d="M359.22,54.53c.84.11,3.11.49,3.83,1.6.5.76.81,1.31.99,1.67-.39-.04-.57-.21-1.46-.38-1.29-.27-2.95-2.14-3.36-2.88h0Z"/>
      <path class="cls-7" d="M358.64,54.94c.15.85.75,2.37-.81,4.45-.6.8-.37,1.49-.62,1.85-.07-.39-.18-1.04-.29-1.95-.14-1.35,1.19-3.55,1.72-4.34h0Z"/>
      <path class="cls-7" d="M348.54,52.53c.32-.79,1.04-3.4,2.53-3.28.9.07,1.48-.45,1.87-.53-.14.37-.4.96-.79,1.77-.59,1.18-2.78,1.84-3.61,2.04h0Z"/>
      <path class="cls-7" d="M348.61,50.44c.08.73-.18,1.35-.6,1.4-.41.04-.81-.5-.89-1.23-.08-.73.18-1.35.59-1.4s.81.51.89,1.23h.01Z"/>
      <path class="cls-7" d="M344.08,50.42c.68.1,2.39-.49,3.07,1.37.25.69.63,1.08.77,1.37-.32-.04-.83-.13-1.55-.28-1.04-.24-1.98-1.84-2.3-2.46h0Z"/>
      <path class="cls-7" d="M318.8,41.84s-1.94,2.67-2.99,2.6c-.86-.06-1.5.35-1.88.41.2-.29.54-.76,1.05-1.4.77-.93,2.99-1.45,3.82-1.61h0Z"/>
      <path class="cls-7" d="M300.85,58.42c.2-.92.52-3.6,1.69-4.96.8-.93,1.7-1.42,2.06-1.8-.09.42-.24,1.12-.51,2.13-.41,1.47-2.46,3.79-3.24,4.63h0Z"/>
      <path class="cls-7" d="M301.74,52.36c-.78.23-1.52.05-1.64-.39-.13-.44.4-.98,1.18-1.21.78-.23,1.52-.05,1.64.39.13.44-.4.98-1.18,1.21h0Z"/>
      <path class="cls-7" d="M299.11,47.24c.76.2,3.18.51,3.52,1.91.2.84.81,1.31,1,1.66-.35-.08-.93-.24-1.73-.49-1.17-.39-2.37-2.33-2.79-3.07h0Z"/>
      <path class="cls-7" d="M298.04,44.65c1.18-.26,4.4-.83,6.06.25,1.14.73,1.91,1.29,2.38,1.66-.54.13-1.52-.57-2.79-.37-1.87.26-4.63-.77-5.64-1.53h0Z"/>
      <path class="cls-7" d="M309.46,56.18c-.52-.86-2.25-3.44-1.84-5.1.34-1.37.07-2.16.11-2.7.24.39.63,1.05,1.15,2.01.75,1.42.65,4.62.58,5.8h0Z"/>
      <path class="cls-7" d="M313.42,49.29c-.78.17-2.9.55-3.85-.22-.65-.52-1.09-.92-1.34-1.18.36-.08.95-.21,1.79-.34,1.22-.17,2.83,1.2,3.4,1.74h0Z"/>
      <path class="cls-7" d="M310.38,51.35c-.43-.47-.58-1.04-.33-1.26.25-.23.8-.03,1.23.45.43.47.58,1.04.33,1.26-.25.23-.8.02-1.23-.45h0Z"/>
      <path class="cls-7" d="M305.19,42.93c.4.61.44,1.29.09,1.51s-.95-.09-1.34-.7c-.4-.61-.44-1.29-.09-1.51s.95.09,1.34.7h0Z"/>
      <path class="cls-7" d="M306.69,45.97c-.02-.59-.69-1.68.58-3.11.47-.53.71-1.02.9-1.27.01.27.02.72,0,1.37-.03.95-1.08,2.46-1.49,3.01h.01Z"/>
      <path class="cls-7" d="M302.37,47.01c.39-.17,1.46-.59,2.14-.37.46.15.79.28.98.36-.18.08.29.11-.01.4-.85.81-2.68-.22-3.11-.39h0Z"/>
      <path class="cls-7" d="M318.55,43.97c0-.73.31-1.33.73-1.33s.75.58.76,1.31c0-.07-.3,1.32-.73,1.33-.41,0-.75-.58-.77-1.31h0Z"/>
      <path class="cls-7" d="M323.1,44.1c-.57-.23-1.96-.06-2.6-1.88-.23-.68-.57-1.11-.69-1.4.26.1.69.29,1.29.58.87.44,1.71,2.09,2,2.71h0Z"/>
      <path class="cls-7" d="M314.06,27.34c.63-.9,2.43-3.28,4.23-3.69,1.24-.29,2.12-.44,2.67-.52-.28.42-.5,1.29-1.49,2.02-2.06,1.52-3.06.91-5.4,2.19h-.01Z"/>
      <path class="cls-7" d="M300.75,34.34c.44-.42.81-1.71,2.73-1.64.71.03,1.24-.11,1.56-.12-.2.2-.53.51-1.03.94-.73.62-2.58.79-3.26.83h0Z"/>
      <path class="cls-7" d="M351.21,45.58c1.23-.37,4.59-1.21,6.23-.11,1.13.75,1.9,1.34,2.35,1.72-.56.18-1.53-.55-2.85-.24-1.94.42-4.72-.58-5.72-1.37h-.01Z"/>
      <path class="cls-7" d="M365.74,48.31c.78.67,2.86,2.58,3.3,4.37.31,1.23.48,2.11.58,2.65-.37-.3-.98-.76-1.76-1.59-1.56-1.66-.92-3.05-2.11-5.43h0Z"/>
      <path class="cls-7" d="M314.36,11.29c1.13-.16,3.69-.55,5.89.58,1.21.62,1.93,1.25,2.41,1.6-.52.08-1.51-.59-2.73-.5-1.79.13-4.53-.95-5.57-1.68h0Z"/>
      <path class="cls-7" d="M319.23,9.8c-.45-.72-.47-1.51-.07-1.76.41-.25,1.1.13,1.54.85.45.72.47,1.51.07,1.76-.41.25-1.1-.13-1.54-.85h0Z"/>
      <path class="cls-7" d="M297.77,27.27c.61-.17,2.27-.58,3.09-.03.56.37.94.66,1.17.85-.28.08-.76-.27-1.42-.13-.96.2-2.34-.3-2.84-.69h0Z"/>
      <path class="cls-7" d="M321.16,27.23c.88-.34,2.52-1.26,5.11-1,1.23.12,2.08.27,2.6.36-.4.16-1.07.42-2.05.75-1.44.48-4.52.07-5.65-.11h-.01Z"/>
      <path class="cls-7" d="M327.13,37.65c-.65.33-1.33.3-1.52-.07-.18-.37.19-.93.84-1.26s1.33-.3,1.51.07c.19.37-.19.93-.84,1.26h0Z"/>
      <path class="cls-7" d="M303.71,24.35c-.92-.23-3.01-1.51-3.66-2.84-.45-.91-1.11-1-1.26-1.42.43.1,1.12.28,2.09.58,1.4.46,2.48,2.79,2.84,3.67h0Z"/>
      <path class="cls-7" d="M363.38,41.87c-.05-.78-.11-2.89.76-3.74.6-.58,1.04-.97,1.33-1.19.03.36.06.95.07,1.78,0,1.21-1.56,2.65-2.16,3.15h0Z"/>
      <path class="cls-7" d="M365.18,30.4c.97.42,3.54,1.66,4.02,3.23.33,1.08.52,1.85.61,2.34-.45-.19-.92-.71-1.91-1.23-1.45-.76-2.49-3.3-2.72-4.33h0Z"/>
      <path class="cls-7" d="M370.66,33.63c-.06-.78-.13-2.9.74-3.76.59-.59,1.04-.98,1.33-1.21.03.36.07.95.08,1.79,0,1.22-1.54,2.67-2.15,3.18h0Z"/>
      <path class="cls-7" d="M368.42,31.2c-.17-.79.05-1.52.5-1.61.45-.1.95.46,1.12,1.26.17.79-.05,1.52-.5,1.61-.45.1-.95-.47-1.13-1.26h.01Z"/>
      <path class="cls-7" d="M375.04,53.72c-.58-.71-2.34-2.57-2.08-3.97.18-.96.63-1.74.75-2.15.27.32.34.98.91,1.77.81,1.16.66,3.46.43,4.35h-.01Z"/>
      <path class="cls-7" d="M321.88,2.95c.11.57.86,1.43,0,3.12-.32.63-.45,1.16-.58,1.45-.05-.26-.13-.69-.22-1.31-.12-.91.54-2.63.81-3.26h-.01Z"/>
      <path class="cls-7" d="M377.65,30.33c.3.62,1.76,1.69.62,3.3-.42.6-.53,1.14-.69,1.42-.15-.28-.37-.76-.65-1.43-.4-.99.39-2.68.71-3.29h.01Z"/>
      <path class="cls-7" d="M368.04,17.69c-.65.23-1.1,1.58-3.35.25-.63-.37-1.07-.65-1.33-.84.3-.11.79-.28,1.49-.48,1.03-.29,2.62.68,3.19,1.07h0Z"/>
      <path class="cls-7" d="M367.53,24.56c-.77-.18-2.25.25-3.97-1.78-.64-.75-1.26-1.21-1.56-1.53.35.08.95.23,1.78.47,1.23.37,3.09,2.16,3.75,2.84h0Z"/>
      <path class="cls-7" d="M366.91,22.19c-.84-.02-1.52-.4-1.5-.84.01-.45.7-.79,1.55-.77.84.02,1.52.4,1.51.85-.01.44-.71.78-1.55.76h-.01Z"/>
      <path class="cls-7" d="M327.69,35.43c1.23-.35,4.56-1.16,6.21-.06,1.13.76,1.89,1.33,2.35,1.71-.56.17-1.53-.55-2.85-.26-1.93.4-4.71-.6-5.71-1.39h0Z"/>
      <path class="cls-7" d="M333.55,32.29c.6.35,2.4.44,2.34,2.41-.02.74.19,1.24.21,1.56-.28-.16-.73-.43-1.33-.84-.88-.61-1.15-2.45-1.22-3.14h0Z"/>
      <path class="cls-7" d="M305.82,39.09c1.17-.25,4.24.07,5.7,1.2,1.01.78,1.81.53,2.21.91-.54.12-1.43.29-2.68.48-1.84.24-4.34-1.79-5.23-2.6h0Z"/>
      <path class="cls-7" d="M352.59,37.21c1.27-.05,4.71-.06,6.05,1.39.92.99,1.53,1.74,1.89,2.21-.59.04-1.36-.9-2.71-.92-1.97-.07-4.44-1.69-5.23-2.69h0Z"/>
      <path class="cls-7" d="M361.27,34.84c.3.62,1.76,1.69.62,3.3-.42.6-.53,1.14-.69,1.42-.15-.28-.37-.76-.65-1.43-.4-.99.39-2.68.71-3.29h.01Z"/>
      <path class="cls-7" d="M362.61,32.81c.69.05,2.35-.65,3.16,1.15.3.67.71,1.04.87,1.31-.32-.02-.84-.07-1.56-.17-1.06-.16-2.11-1.7-2.47-2.29h0Z"/>
      <path class="cls-7" d="M342.28,7.13c.97-.43,3.53-1.79,5.39-1.41,1.28.26,2.31.75,2.86.9-.44.21-1.33.2-2.4.61-1.59.59-4.67.2-5.85-.11h0Z"/>
      <path class="cls-7" d="M339.48,7.17c-.9-.5-2.91-1.68-4.12-3.62-.67-1.08-.89-1.97-1.09-2.48.42.22,1.13.5,2.05,1.2,1.38,1.05,2.7,3.8,3.16,4.9h0Z"/>
      <path class="cls-7" d="M342.86,6.05c-.7.77-1.61,1.07-2.04.67-.43-.39-.22-1.33.48-2.1.7-.77,1.61-1.07,2.04-.67.43.39.22,1.33-.48,2.1h0Z"/>
      <path class="cls-7" d="M340.1,9.59c-.68.38-1.8,1.14-3.7.92-.83-.09-1.33-.53-1.65-.69.31-.18.83-.47,1.58-.83,1.1-.51,3.06.27,3.77.59h0Z"/>
      <path class="cls-7" d="M337.42,8.5c-.79-.21-1.32-.74-1.2-1.19.12-.44.85-.63,1.63-.42.79.21,1.33.74,1.21,1.18-.12.45-.85.63-1.64.42h0Z"/>
      <path class="cls-7" d="M338.08,13.72c-.75-.71-1.02-1.64-.62-2.06.4-.42,1.34-.18,2.08.53.75.72,1.02,1.64.62,2.06-.4.42-1.34.18-2.08-.53h0Z"/>
      <path class="cls-7" d="M342.5,8.93c.18.85,1.33,2.14.07,4.75-.47.97-.65,1.79-.83,2.23-.09-.39-.22-1.04-.37-1.98-.21-1.39.74-4.03,1.12-5h0Z"/>
      <path class="cls-7" d="M344.25,15.49c-.68.44-1.44.49-1.69.1-.25-.39.1-1.06.78-1.5s1.44-.49,1.69-.1c.25.39-.1,1.05-.78,1.5h0Z"/>
      <path class="cls-7" d="M340.54.61c.3.62,1.76,1.69.62,3.3-.42.6-.53,1.14-.69,1.42-.15-.28-.37-.76-.65-1.43-.4-.99.39-2.68.71-3.29h.01Z"/>
      <path class="cls-7" d="M341.1,22.48c.94-.39,3.42-1.6,5.24-1.24,1.25.25,2.26.7,2.79.84-.43.18-1.29.17-2.33.54-1.54.52-4.54.15-5.69-.14h-.01Z"/>
      <path class="cls-7" d="M340.14,23.92c-.72-.56-2.62-2.17-2.89-3.69-.19-1.05-.28-1.79-.33-2.25.34.25.88.69,1.62,1.34,1.07.96,1.49,3.61,1.6,4.6h0Z"/>
      <path class="cls-7" d="M343.13,20.91c-.58.64-1.35.89-1.71.56-.36-.33-.18-1.11.4-1.75s1.35-.89,1.71-.56c.36.33.18,1.11-.4,1.75h0Z"/>
      <path class="cls-7" d="M339.99,16.57c.25.52,1.47,1.41.52,2.76-.35.5-.44.95-.57,1.19-.12-.24-.31-.63-.54-1.2-.33-.83.32-2.24.59-2.75h0Z"/>
      <path class="cls-7" d="M347.93,31.87c.05-.85-.11-3.47,1.27-4.3.83-.5,1.19-1.29,1.51-1.6-.02.39-.07,1.04-.17,1.96-.17,1.35-1.93,3.26-2.61,3.94h0Z"/>
      <path class="cls-7" d="M346.96,29.96c.41.6.47,1.28.13,1.51s-.95-.06-1.36-.66c-.41-.6-.47-1.28-.13-1.51s.95.06,1.36.66h0Z"/>
      <path class="cls-7" d="M342.96,32.08c.65-.23,1.88-1.56,3.35-.24.55.49,1.07.65,1.33.84-.3.11-.79.28-1.5.48-1.03.28-2.62-.69-3.19-1.08h.01Z"/>
      <path class="cls-7" d="M326.31,25.07c-.7-.47-1.06-1.18-.79-1.57.27-.4,1.06-.34,1.76.13s1.06,1.18.79,1.58-1.05.34-1.76-.14h0Z"/>
      <path class="cls-7" d="M328.54,27.44c.03.69.93,2.25-.76,3.27-.63.38-.94.83-1.2,1.02-.02-.32-.03-.84-.02-1.57.04-1.07,1.44-2.29,1.98-2.72h0Z"/>
      <path class="cls-7" d="M321.12,35.7c-.53.44-1.22,2.11-3.06,1.39-.68-.27-1.23-.24-1.54-.32.24-.21.65-.54,1.24-.98.87-.62,2.69-.26,3.36-.09h0Z"/>
      <path class="cls-7" d="M352.93,41.65c-.8-.46-2.65-.45-3.74-3.28-.4-1.05-.91-1.76-1.11-2.22.36.2.97.56,1.81,1.1,1.23.81,2.57,3.42,3.04,4.4h0Z"/>
      <path class="cls-7" d="M347.13,39.46c-.03-.73.27-1.33.69-1.35.41-.02.77.56.8,1.29s-.27,1.34-.69,1.35c-.41.02-.77-.56-.8-1.29h0Z"/>
      <path class="cls-7" d="M347.45,36.77c-.27.7-.86,2.92-2.24,3.23-.82.18-1.34.74-1.69.92.12-.32.34-.85.68-1.59.51-1.07,2.5-2.18,3.25-2.56h0Z"/>
    </g>
    <rect class="cls-7" x="164.66" y="70.32" width="2.42" height="7.34"/>
    <rect class="cls-7" x="286.61" y="41.62" width="2.42" height="7.34"/>
    <path class="cls-7" d="M14.19,4.05v83.08h82.44V4.05H14.19ZM95.02,85.24H15.87V5.98h79.15v79.26Z"/>
    <g>
      <path class="cls-3" d="M22.97,36.62c-13.11,1.55-19.67,3.81-19.67,3.81,0,0-.16,2.55-.66,6.04,0,0,8.78-2.15,14.04-2.78l5.32-2.52.96-4.55h.01Z"/>
      <path class="cls-7" d="M13.12,49.73c-7.55,1.45-11.59,2.6-11.59,2.6h-.01c.63-3.14,1.13-5.86,1.13-5.86,0,0,8.76-2.16,14.03-2.79l-3.57,6.04h.01Z"/>
      <path class="cls-4" d="M13.12,49.73l.11,6.1s-10.22,2.16-13.23,3.12c0,0,.87-2.97,1.53-6.62,0,0,4.05-1.14,11.6-2.6h-.01Z"/>
      <path class="cls-7" d="M20.19,45.56c0-1.76.13-3.48.38-5.17-4.04,1.73-6.24,2.79-6.73,3.26-.27.26-.37.3-.38.78-.03.87,4.08,1.22,6.73,1.36v-.22h0Z"/>
      <circle class="cls-2" cx="55.69" cy="45.56" r="35.5"/>
      <path class="cls-3" d="M20.19,45.74c-.53-.01-.98-.03-1.36-.06-4.03-.29-5.18-.51-5.41-1.47l-.62,5.78c.23.96,1.37,1.18,5.41,1.47.62.04,1.46.08,2.49.11-.32-1.9-.5-3.84-.51-5.83h0Z"/>
      <path class="cls-7" d="M20.71,51.57c-1.03-.03-1.87-.07-2.49-.11-4.03-.29-5.18-.51-5.4-1.47l-.62,5.78c.23.96,1.37,1.18,5.4,1.47,1.01.07,2.6.16,4.65.24-.68-1.9-1.19-3.88-1.54-5.91h0Z"/>
      <path class="cls-4" d="M22.25,57.48c-2.06-.08-3.64-.17-4.65-.24-4.03-.29-5.18-.51-5.4-1.47l-.62,5.78c.23.96,1.37,1.18,5.41,1.47,1.52.11,4.34.34,8.11.52-1.13-1.91-2.08-3.94-2.84-6.06h0Z"/>
      <path class="cls-7" d="M91.4,44.24c-.02-.63-.06-1.26-.11-1.88-.18-2.02-.53-3.99-1.03-5.89-2.09-7.97-6.86-14.86-13.29-19.64-.04-.03-.07-.05-.1-.07l-.02-.02-.09-.06c-.08-.07-.17-.13-.25-.18-5.88-4.24-13.08-6.73-20.86-6.73-16.74,0-30.82,11.55-34.71,27.1h0c-.31,1.2-.55,2.42-.72,3.67-.07.52-.14,1.04-.19,1.57-.1,1.13-.16,2.28-.16,3.44v.21c0,1.98.18,3.91.51,5.8.34,2.03.86,4.01,1.53,5.91.75,2.11,1.69,4.14,2.81,6.05,6.2,10.64,17.74,17.81,30.93,17.81,8.93,0,17.1-3.28,23.37-8.71h.01c5.2-4.5,9.09-10.46,11.02-17.23.04-.11.07-.22.09-.33.59-2.11.98-4.29,1.17-6.53.08-.98.12-1.98.12-2.98,0-.44-.01-.88-.03-1.31ZM89.35,48.68c-.14,1.59-.4,3.15-.76,4.67-1.31,5.54-3.99,10.54-7.65,14.66q-2.44,2.75-.01.01c-6.2,6.98-15.24,11.38-25.28,11.38-18.67,0-33.85-15.19-33.85-33.85,0-1.89.16-3.75.46-5.56,0,0,0-.03.01-.04.16-.96.35-1.89.59-2.81,0-.01,0-.03.01-.04,3.76-14.59,17.03-25.4,32.78-25.4,7.61,0,14.64,2.53,20.3,6.78,0,0,.01,0,.02.02.02,0,.05.03.08.05.01,0,.02.02.03.03.03.02.06.04.09.07,8.1,6.19,13.33,15.94,13.33,26.9,0,1.05-.05,2.09-.15,3.12h0Z"/>
      <path class="cls-2" d="M91.4,44.24c-.02-.63-.06-1.26-.11-1.88-.18-2.02-.53-3.99-1.03-5.89-2.09-7.97-6.86-14.86-13.29-19.64-.04-.03-.07-.05-.1-.07l-.02-.02-.09-.06c-.08-.07-.17-.13-.25-.18-5.88-4.24-13.08-6.73-20.86-6.73-16.74,0-30.82,11.55-34.71,27.1h0c-.31,1.2-.55,2.42-.72,3.67-.07.52-.14,1.04-.19,1.57-.1,1.13-.16,2.28-.16,3.44v.21c0,1.98.18,3.91.51,5.8.34,2.03.86,4.01,1.53,5.91.75,2.11,1.69,4.14,2.81,6.05,6.2,10.64,17.74,17.81,30.93,17.81,8.93,0,17.1-3.28,23.37-8.71h.01c5.2-4.5,9.09-10.46,11.02-17.23.04-.11.07-.22.09-.33.59-2.11.98-4.29,1.17-6.53.08-.98.12-1.98.12-2.98,0-.44-.01-.88-.03-1.31ZM89.35,48.68c-.14,1.59-.4,3.15-.76,4.67-1.31,5.54-3.99,10.54-7.65,14.66q-2.44,2.75-.01.01c-6.2,6.98-15.24,11.38-25.28,11.38-18.67,0-33.85-15.19-33.85-33.85,0-1.89.16-3.75.46-5.56,0,0,0-.03.01-.04.16-.96.35-1.89.59-2.81,0-.01,0-.03.01-.04,3.76-14.59,17.03-25.4,32.78-25.4,7.61,0,14.64,2.53,20.3,6.78,0,0,.01,0,.02.02.02,0,.05.03.08.05.01,0,.02.02.03.03.03.02.06.04.09.07,8.1,6.19,13.33,15.94,13.33,26.9,0,1.05-.05,2.09-.15,3.12h0Z"/>
      <path class="cls-7" d="M45.99,20.69c-.6,9.47-1.05,27.48,0,45.84l-9.04,2.23c-.63-10.48-1.43-27.25,0-44.98l9.04-3.09Z"/>
      <path class="cls-7" d="M81.66,51.76s-5.49,13.28-27.65,23.46l-1.56-9.54c12.24-5.78,18.34-14.2,18.34-14.2-3.86-1.94-13-3.69-18.84-3.6l-.03-8.18c9.5-3.55,13.96-10.16,13.96-10.16-2.79-1.55-10.53-2.09-15.57-.69l.11-8.92c8.46-1.4,20.51.92,23.49,2.74,0,0,1.77,8.85,1.74,9.04,0,0-3.9,5.5-9.05,8.71,0,0,7.7,1.04,13.72,4.36,0,0,1.24,6.94,1.34,6.98h0Z"/>
      <path class="cls-7" d="M109.53,30.34h-.02v.02h.02v-.02Z"/>
      <path class="cls-3" d="M90.03,36.54c.5,1.91.84,3.87,1.01,5.89,5.37-1.56,10.51-3.2,15.26-4.82,1.09-2.91,2.13-5.29,3.19-7.25-5.91,2.06-12.52,4.21-19.47,6.18h0Z"/>
      <path class="cls-7" d="M91.05,42.43c.09,1.03.15,2.07.15,3.13s-.05,2.05-.14,3.05c4.5-1.31,8.84-2.69,12.91-4.06.21-.73.39-1.43.63-2.2.37-1.15,1.33-3.67,1.72-4.75-4.75,1.62-9.9,3.26-15.26,4.82h0Z"/>
      <polyline class="cls-1" points="102.31 51.27 102.32 51.26 102.32 51.26 102.31 51.27"/>
      <path class="cls-4" d="M91.05,48.61c-.19,2.24-.59,4.42-1.18,6.53,4.32-1.26,8.5-2.57,12.44-3.88.29-1.46.84-4.09,1.64-6.7-4.07,1.37-8.41,2.74-12.91,4.06h0Z"/>
    </g>
  </g>
  <g>
    <path class="cls-6" d="M159.46,27.99s1.59.34,3.45,1.31c1.86.97,4,1.66,4,1.66l1.17-1.52c-.54-.34-1.33-.88-2.21-1.66-1.54-1.37-2.21-2.46-3.02-3.51-.59-.76-3.64-4.7-8.34-6.03-1.19-.34-2.21-.43-2.85-.46"/>
    <path class="cls-4" d="M159.37,28.21s.7,2.3.73,3.68c.03,1.38-15.08,6.27-16.99,5.46-.67-3.19.58-5.92,1.45-9.96.87-4.05,2.2-9.59,7.3-9.59s7.51,10.42,7.51,10.42Z"/>
    <path class="cls-7" d="M142.21,34.12c-.09.08-.18.17-.25.27-.5.67-.36,1.62-.14,2.36.27.95.37,2,.87,2.87.58,1,1.93,1.29,2.84.51.13-.11.25-.24.4-.32.22-.12.49-.1.74-.15.41-.07.78-.29,1.13-.51.57-.35,1.17-.83,1.8-1.06.44-.16.94-.2,1.39-.34,1.3-.39,2.67-.6,4.02-.7,1.89-.16,3.7.23,5.54-.22.55-.13.77-.28.86-.85.12-.77.72-1.66.45-2.96-.27-1.3-.09-1.84-.73-2.57-.52-.59-.78-.35-2.36-.36-1.58,0-3.67-.97-7.21.03-1.92.54-3.8,1.22-5.6,2.06-.62.29-1.21.63-1.82.93-.6.29-1.4.52-1.92.99Z"/>
    <path class="cls-7" d="M167.39,23.98c2.04-.56,4.06-.95,5.56.56,1.5,1.5,1,3.34,0,5.23s-2.17,2.06-3.73,2.11c-1.56.06-3.23-.45-4.01-2.5-.78-2.06-.06-4.79,2.17-5.4Z"/>
  </g>
  <g>
    <path class="cls-8" d="M27.63,0s1.05,4.09,4,3.53c0,0-1.45,4.08,2,4.55,0,0-3.13,2.74-1.19,5.18,0,0-2.39.2-3.14,1.77-1.6.8-1.79.92-1.79.92,0,0-.5-1.65-2.96-1.87,0,0,1.67-2.24-2.17-4.56,0,0,4.06-2.05,1.03-5.47,0,0,3.26.37,4.22-4.04Z"/>
    <path class="cls-8" d="M10.24,16.08s4.18-.6,3.94-3.6c0,0,3.9,1.89,4.74-1.49,0,0,2.39,3.41,5.02,1.75,0,0-.06,2.4,1.42,3.31.62,1.68.72,1.88.72,1.88,0,0-1.69.31-2.18,2.74,0,0-2.05-1.91-4.77,1.66,0,0-1.59-4.26-5.33-1.62,0,0,.73-3.2-3.55-4.64Z"/>
    <circle class="cls-4" cx="31.19" cy="17.99" r="2.44"/>
    <circle class="cls-4" cx="27.83" cy="21.01" r="2.44"/>
    <circle class="cls-4" cx="27.67" cy="16.84" r="2.44"/>
  </g>
  <g>
    <path class="cls-3" d="M346.44,72.35h13.74v14.7c0,.28-.23.51-.51.51h-12.73c-.28,0-.51-.23-.51-.51v-14.7Z"/>
    <rect class="cls-3" x="345.67" y="68.55" width="15.27" height="3.81" rx=".51" ry=".51"/>
    <path class="cls-4" d="M357.44,64.53c-.53-.41-1.24-.43-1.85-.19-.27.1-.49.25-.69.43-.22.19-.41.43-.58.67-.24.34-.46.7-.65,1.07-.15.29-.3.61-.36.94v.13-.13c-.06-.33-.21-.64-.36-.94-.19-.37-.41-.73-.65-1.07-.18-.24-.36-.48-.58-.67-.2-.18-.43-.33-.69-.43-.61-.23-1.32-.21-1.85.19-.51.39-.69,1.02-.64,1.64,0,.05,0,.1.02.16.21,1.71,2.4,2.22,2.4,2.22h4.71s2.19-.51,2.4-2.22c0-.05.01-.1.02-.16.05-.62-.13-1.25-.64-1.64ZM351.51,67.51c-.27-.16-.52-.35-.76-.55-.08-.06-.16-.13-.22-.21-.06-.08-.1-.18-.1-.28,0-.26.25-.3.44-.23.03,0,.05.02.08.03.25.14.46.35.66.56.29.3.58.6.78.97-.31-.03-.61-.14-.89-.3ZM356.09,66.75c-.06.08-.14.15-.22.21-.24.2-.49.39-.76.55-.27.15-.57.27-.89.3.2-.37.49-.67.78-.97.2-.21.4-.42.66-.56.02-.01.05-.03.08-.03.19-.07.44-.03.44.23,0,.1-.04.2-.1.28Z"/>
    <rect class="cls-4" x="351.83" y="68.55" width="2.78" height="19.01"/>
    <rect class="cls-5" x="354.61" y="72.36" width="5.57" height=".58"/>
    <rect class="cls-5" x="346.45" y="72.36" width="5.38" height=".58"/>
  </g>
</svg>