<?xml version="1.0" encoding="UTF-8"?>
<svg xmlns="http://www.w3.org/2000/svg" xmlns:xlink="http://www.w3.org/1999/xlink" width="130px" height="88px" viewBox="0 0 130 88" version="1.1">
<defs>
<clipPath id="clip1">
  <path d="M 120 61 L 129.949219 61 L 129.949219 73 L 120 73 Z M 120 61 "/>
</clipPath>
<clipPath id="clip2">
  <path d="M 61 12 L 86 12 L 86 35 L 61 35 Z M 61 12 "/>
</clipPath>
<clipPath id="clip3">
  <path d="M 73.324219 12.777344 C 66.816406 12.777344 61.5625 17.546875 61.59375 23.417969 C 61.621094 29.289062 66.910156 34.042969 73.414062 34.027344 C 79.917969 34.007812 85.175781 29.257812 85.144531 23.386719 C 85.117188 17.515625 79.832031 12.777344 73.332031 12.777344 "/>
</clipPath>
<radialGradient id="radial0" gradientUnits="userSpaceOnUse" cx="1.3" cy="-10.52" fx="1.3" fy="-10.52" r="1.57" gradientTransform="matrix(12.133333,0.0313425,0.895396,-12.616548,60.045394,-117.146086)">
<stop offset="0" style="stop-color:rgb(90.980392%,29.803922%,1.960784%);stop-opacity:1;"/>
<stop offset="0.06" style="stop-color:rgb(90.980392%,29.803922%,1.960784%);stop-opacity:1;"/>
<stop offset="0.38" style="stop-color:rgb(81.960784%,0%,2.745098%);stop-opacity:1;"/>
<stop offset="0.65" style="stop-color:rgb(68.627451%,2.352941%,0%);stop-opacity:1;"/>
<stop offset="1" style="stop-color:rgb(49.411765%,2.352941%,0%);stop-opacity:1;"/>
</radialGradient>
<clipPath id="clip4">
  <path d="M 0.0507812 57 L 6 57 L 6 73 L 0.0507812 73 Z M 0.0507812 57 "/>
</clipPath>
</defs>
<g id="surface1">
<path style=" stroke:none;fill-rule:nonzero;fill:rgb(9.411765%,9.019608%,8.627451%);fill-opacity:1;" d="M 19.351562 71.644531 C 18.476562 71.550781 18.289062 71.550781 18.289062 69.914062 L 18.289062 55.175781 C 17.070312 55.207031 15.855469 55.335938 14.65625 55.554688 L 14.726562 56.078125 L 15.078125 56.027344 C 15.125 56.027344 15.289062 56.003906 15.40625 56.003906 C 16.253906 56.003906 16.253906 57.09375 16.253906 58.964844 L 16.253906 69.917969 C 16.253906 71.554688 16.042969 71.554688 15.21875 71.648438 L 14.65625 71.722656 L 14.65625 72.242188 L 19.902344 72.242188 L 19.902344 71.722656 Z M 19.351562 71.644531 "/>
<path style=" stroke:none;fill-rule:nonzero;fill:rgb(9.411765%,9.019608%,8.627451%);fill-opacity:1;" d="M 26.480469 61.929688 C 28.269531 61.929688 28.855469 63.351562 29.183594 64.824219 C 27.445312 65.390625 25.667969 65.839844 23.867188 66.171875 C 23.867188 64.441406 24.480469 61.933594 26.480469 61.933594 M 30.933594 70.722656 C 30.132812 71.210938 29.214844 71.472656 28.277344 71.480469 C 25.097656 71.480469 23.96875 68.683594 23.878906 67.214844 C 25.902344 66.734375 28.628906 66.007812 31.3125 64.679688 C 31.007812 63.398438 30.324219 61.101562 27.171875 61.101562 C 24.464844 61.101562 21.710938 63.230469 21.710938 67.238281 C 21.710938 70.613281 24.132812 72.59375 27.101562 72.59375 C 29.242188 72.59375 30.84375 71.628906 31.21875 71.265625 Z M 30.933594 70.722656 "/>
<path style=" stroke:none;fill-rule:nonzero;fill:rgb(9.411765%,9.019608%,8.627451%);fill-opacity:1;" d="M 60.289062 59.015625 C 59.933594 58.136719 59.675781 57.257812 58.898438 57.191406 L 58.214844 57.117188 L 58.214844 56.597656 L 64.078125 56.597656 L 64.078125 57.117188 L 63.347656 57.191406 C 62.972656 57.234375 62.289062 57.308594 62.289062 57.78125 C 62.359375 58.105469 62.460938 58.421875 62.59375 58.730469 L 66.664062 69.300781 C 67.207031 67.878906 70.902344 58.660156 70.902344 57.921875 C 70.902344 57.441406 70.425781 57.332031 69.984375 57.257812 L 68.925781 57.117188 L 68.925781 56.597656 L 74.011719 56.597656 L 74.011719 57.117188 L 73.398438 57.257812 C 73.128906 57.3125 72.886719 57.445312 72.691406 57.640625 C 72.175781 58.160156 71.417969 60.4375 70.832031 61.574219 L 69.242188 65.460938 C 67.898438 68.730469 66.722656 71.621094 66.511719 72.238281 C 66.261719 72.390625 65.992188 72.511719 65.710938 72.59375 Z M 60.289062 59.015625 "/>
<path style=" stroke:none;fill-rule:nonzero;fill:rgb(9.411765%,9.019608%,8.627451%);fill-opacity:1;" d="M 94.378906 66.785156 L 94.378906 70.789062 C 93.972656 71.378906 93.304688 71.738281 92.589844 71.753906 C 91.25 71.753906 90.398438 70.949219 90.398438 69.597656 C 90.398438 67.371094 92.707031 66.777344 94.050781 66.777344 Z M 98.144531 71.664062 C 98.015625 71.734375 97.867188 71.769531 97.722656 71.761719 C 96.425781 71.761719 96.425781 69.984375 96.425781 68.324219 L 96.425781 64.9375 C 96.425781 62.527344 95.859375 61.101562 93.179688 61.101562 C 90.683594 61.101562 89.175781 62.6875 88.472656 63.636719 C 88.609375 63.992188 88.816406 64.316406 89.082031 64.585938 L 89.273438 64.585938 C 89.71875 63.707031 90.308594 62.214844 92.191406 62.214844 C 93.957031 62.214844 94.378906 63.566406 94.378906 65.128906 L 94.378906 65.671875 C 92.308594 66.292969 88.234375 67.214844 88.234375 70.296875 C 88.234375 71.597656 89.414062 72.59375 91.15625 72.59375 C 92.992188 72.59375 93.863281 72.097656 94.613281 71.597656 C 94.851562 72.097656 95.273438 72.59375 96.472656 72.59375 C 97.121094 72.613281 97.753906 72.402344 98.261719 72.003906 Z M 98.144531 71.664062 "/>
<g clip-path="url(#clip1)" clip-rule="nonzero">
<path style=" stroke:none;fill-rule:nonzero;fill:rgb(9.411765%,9.019608%,8.627451%);fill-opacity:1;" d="M 125.125 61.929688 C 126.914062 61.929688 127.5 63.351562 127.828125 64.824219 C 126.089844 65.390625 124.3125 65.839844 122.511719 66.171875 C 122.511719 64.441406 123.121094 61.933594 125.125 61.933594 M 129.574219 70.722656 C 128.769531 71.210938 127.851562 71.472656 126.914062 71.480469 C 123.738281 71.480469 122.605469 68.683594 122.515625 67.214844 C 124.539062 66.734375 127.265625 66.007812 129.949219 64.679688 C 129.644531 63.398438 128.960938 61.101562 125.808594 61.101562 C 123.105469 61.101562 120.347656 63.230469 120.347656 67.238281 C 120.347656 70.613281 122.773438 72.59375 125.738281 72.59375 C 127.878906 72.59375 129.480469 71.628906 129.859375 71.265625 Z M 129.574219 70.722656 "/>
</g>
<g clip-path="url(#clip2)" clip-rule="nonzero">
<g clip-path="url(#clip3)" clip-rule="nonzero">
<path style=" stroke:none;fill-rule:nonzero;fill:url(#radial0);" d="M 61.566406 12.722656 L 86.675781 12.785156 L 85.164062 34.109375 L 60.054688 34.046875 Z M 61.566406 12.722656 "/>
</g>
</g>
<path style=" stroke:none;fill-rule:nonzero;fill:rgb(9.411765%,9.019608%,8.627451%);fill-opacity:1;" d="M 83.824219 41.976562 C 80.097656 40.324219 59.882812 31.488281 38.058594 24.375 L 38.503906 34.40625 C 61.121094 41.773438 82.074219 51.007812 84.824219 52.246094 Z M 83.824219 41.976562 "/>
<path style=" stroke:none;fill-rule:nonzero;fill:rgb(9.411765%,9.019608%,8.627451%);fill-opacity:1;" d="M 79.730469 0 C 56.316406 1.824219 38.550781 6.734375 37.292969 7.089844 L 37.71875 16.757812 C 40.175781 16.109375 58.1875 11.511719 80.679688 9.742188 Z M 79.730469 0 "/>
<path style=" stroke:none;fill-rule:nonzero;fill:rgb(9.411765%,9.019608%,8.627451%);fill-opacity:1;" d="M 52.539062 68.773438 C 53.199219 67.878906 54.316406 66.578125 54.316406 63.839844 C 54.316406 60.894531 52.253906 59.136719 50.566406 59.136719 C 49.734375 59.136719 49.046875 59.453125 48.355469 59.710938 L 48.355469 59.96875 C 49.875 60.347656 52.601562 61.847656 52.601562 65.398438 C 52.582031 66.347656 52.28125 67.273438 51.738281 68.050781 C 49.53125 66.289062 45.953125 63.058594 44.203125 61.039062 C 44.320312 60.921875 48.511719 58.410156 48.511719 55.554688 C 48.511719 53.9375 47.390625 52.726562 45.617188 52.726562 C 45.1875 52.753906 44.761719 52.820312 44.34375 52.914062 C 46.105469 53.917969 46.277344 54.921875 46.277344 54.921875 C 46.433594 55.347656 46.511719 55.796875 46.503906 56.246094 C 46.503906 58.417969 44.605469 59.699219 43.667969 60.285156 L 43.601562 60.328125 C 42.960938 59.441406 42.589844 58.386719 42.53125 57.292969 C 42.53125 57.292969 41.144531 59.523438 41.777344 61.507812 L 41.742188 61.53125 C 40.367188 62.457031 37.390625 64.269531 37.390625 67.355469 C 37.390625 70.589844 40.546875 72.636719 43.925781 72.636719 C 48.023438 72.636719 49.859375 71.1875 51.058594 70.332031 C 52.464844 71.394531 54.128906 72.722656 54.726562 73.734375 L 55.101562 73.734375 C 55.101562 71.972656 54.355469 70.296875 52.550781 68.769531 M 45.816406 71.28125 C 42.320312 71.28125 40.027344 69.203125 40.027344 66.171875 C 40.027344 63.980469 41.203125 63 42.207031 62.394531 C 44.871094 65.527344 47.738281 67.671875 50.257812 69.664062 C 49.78125 70.210938 48.253906 71.28125 45.816406 71.28125 "/>
<g clip-path="url(#clip4)" clip-rule="nonzero">
<path style=" stroke:none;fill-rule:nonzero;fill:rgb(9.411765%,9.019608%,8.627451%);fill-opacity:1;" d="M 4.921875 57.847656 L 5.769531 57.777344 L 5.769531 57.253906 L 0.0507812 57.253906 L 0.0507812 57.777344 L 0.898438 57.847656 C 1.816406 57.941406 1.816406 58.0625 1.816406 60.953125 L 1.816406 68.542969 C 1.816406 69.214844 1.816406 69.730469 1.816406 70.136719 L 1.816406 72.238281 L 5.769531 72.238281 L 5.769531 71.71875 L 4.921875 71.644531 C 4.003906 71.550781 4.003906 71.433594 4.003906 68.542969 L 4.003906 60.953125 C 4.003906 58.058594 4.003906 57.941406 4.921875 57.847656 "/>
</g>
<path style=" stroke:none;fill-rule:nonzero;fill:rgb(9.411765%,9.019608%,8.627451%);fill-opacity:1;" d="M 12.382812 71.644531 C 11.511719 71.550781 11.324219 71.550781 11.324219 69.914062 L 11.324219 55.175781 C 10.097656 55.207031 8.878906 55.332031 7.675781 55.554688 L 7.746094 56.078125 L 8.097656 56.027344 C 8.144531 56.027344 8.3125 56.003906 8.429688 56.003906 C 9.277344 56.003906 9.277344 57.09375 9.277344 58.964844 L 9.277344 69.917969 C 9.277344 70.140625 9.277344 70.328125 9.261719 70.492188 L 9.261719 72.242188 L 12.921875 72.242188 L 12.921875 71.722656 Z M 12.382812 71.644531 "/>
<path style=" stroke:none;fill-rule:nonzero;fill:rgb(9.411765%,9.019608%,8.627451%);fill-opacity:1;" d="M 76.257812 60 C 76.609375 60 76.945312 59.859375 77.191406 59.613281 C 77.4375 59.363281 77.578125 59.023438 77.578125 58.671875 C 77.605469 58.179688 77.363281 57.710938 76.941406 57.457031 C 76.523438 57.199219 75.996094 57.199219 75.578125 57.457031 C 75.160156 57.710938 74.914062 58.179688 74.945312 58.671875 C 74.941406 59.023438 75.082031 59.363281 75.328125 59.613281 C 75.574219 59.859375 75.910156 60 76.261719 60 "/>
<path style=" stroke:none;fill-rule:nonzero;fill:rgb(9.411765%,9.019608%,8.627451%);fill-opacity:1;" d="M 78.589844 71.644531 C 77.71875 71.550781 77.53125 71.503906 77.53125 69.914062 L 77.53125 61.101562 C 76.707031 61.101562 74.566406 61.714844 73.882812 61.929688 L 73.976562 62.496094 L 74.492188 62.355469 C 74.542969 62.355469 74.707031 62.332031 74.824219 62.332031 C 75.484375 62.332031 75.484375 62.996094 75.484375 65.316406 L 75.484375 69.917969 C 75.484375 70.125 75.484375 70.304688 75.46875 70.460938 L 75.46875 72.242188 L 79.132812 72.242188 L 79.132812 71.722656 Z M 78.589844 71.644531 "/>
<path style=" stroke:none;fill-rule:nonzero;fill:rgb(9.411765%,9.019608%,8.627451%);fill-opacity:1;" d="M 85.761719 71.644531 C 84.890625 71.550781 84.703125 71.550781 84.703125 69.914062 L 84.703125 55.175781 C 83.476562 55.207031 82.257812 55.332031 81.054688 55.554688 L 81.125 56.078125 L 81.480469 56.027344 C 81.523438 56.027344 81.691406 56.003906 81.808594 56.003906 C 82.65625 56.003906 82.65625 57.09375 82.65625 58.964844 L 82.65625 69.917969 C 82.65625 70.132812 82.65625 70.316406 82.644531 70.480469 L 82.644531 72.242188 L 86.304688 72.242188 L 86.304688 71.722656 Z M 85.761719 71.644531 "/>
<path style=" stroke:none;fill-rule:nonzero;fill:rgb(9.411765%,9.019608%,8.627451%);fill-opacity:1;" d="M 101.847656 60 C 102.199219 60 102.535156 59.859375 102.78125 59.613281 C 103.027344 59.363281 103.167969 59.023438 103.164062 58.671875 C 103.195312 58.179688 102.949219 57.710938 102.53125 57.457031 C 102.113281 57.199219 101.585938 57.199219 101.167969 57.457031 C 100.746094 57.710938 100.503906 58.179688 100.53125 58.671875 C 100.53125 59.023438 100.671875 59.363281 100.917969 59.613281 C 101.167969 59.859375 101.5 60 101.851562 60 "/>
<path style=" stroke:none;fill-rule:nonzero;fill:rgb(9.411765%,9.019608%,8.627451%);fill-opacity:1;" d="M 104.179688 71.644531 C 103.308594 71.550781 103.121094 71.503906 103.121094 69.914062 L 103.121094 61.101562 C 102.296875 61.101562 100.152344 61.714844 99.472656 61.929688 L 99.566406 62.496094 L 100.082031 62.355469 C 100.132812 62.355469 100.296875 62.332031 100.414062 62.332031 C 101.070312 62.332031 101.070312 62.996094 101.070312 65.316406 L 101.070312 69.917969 C 101.070312 70.097656 101.070312 70.257812 101.070312 70.398438 L 101.070312 72.246094 L 104.730469 72.246094 L 104.730469 71.726562 Z M 104.179688 71.644531 "/>
<path style=" stroke:none;fill-rule:nonzero;fill:rgb(9.411765%,9.019608%,8.627451%);fill-opacity:1;" d="M 118.320312 71.644531 C 117.449219 71.550781 117.261719 71.433594 117.261719 69.914062 L 117.261719 66.386719 C 117.261719 63.660156 117.261719 61.101562 113.589844 61.101562 C 112.25 61.132812 110.972656 61.664062 110 62.59375 L 110 61.101562 C 109.175781 61.101562 107.035156 61.714844 106.351562 61.929688 L 106.441406 62.496094 L 106.960938 62.355469 C 107.011719 62.355469 107.171875 62.332031 107.289062 62.332031 C 107.953125 62.332031 107.953125 62.996094 107.953125 65.316406 L 107.953125 69.917969 C 107.953125 70.070312 107.953125 70.203125 107.953125 70.328125 L 107.953125 72.242188 L 111.59375 72.242188 L 111.59375 71.722656 L 111.050781 71.648438 C 110.179688 71.554688 109.992188 71.433594 109.992188 69.917969 L 109.992188 63.496094 C 110.550781 62.703125 111.449219 62.226562 112.417969 62.214844 C 115.214844 62.214844 115.214844 64.511719 115.214844 66.738281 L 115.214844 69.917969 C 115.214844 70.121094 115.214844 70.300781 115.214844 70.457031 L 115.214844 72.242188 L 118.878906 72.242188 L 118.878906 71.722656 Z M 118.320312 71.644531 "/>
<path style=" stroke:none;fill-rule:nonzero;fill:rgb(9.411765%,9.019608%,8.627451%);fill-opacity:1;" d="M 41.886719 55.003906 L 43.046875 53.539062 L 43.824219 55.003906 L 42.667969 56.472656 Z M 41.886719 55.003906 "/>
<path style=" stroke:none;fill-rule:nonzero;fill:rgb(9.411765%,9.019608%,8.627451%);fill-opacity:1;" d="M 40.128906 56.867188 L 41.289062 55.402344 L 42.066406 56.867188 L 40.910156 58.335938 Z M 40.128906 56.867188 "/>
<path style=" stroke:none;fill-rule:nonzero;fill:rgb(9.411765%,9.019608%,8.627451%);fill-opacity:1;" d="M 43.179688 56.878906 L 44.339844 55.414062 L 45.117188 56.878906 L 43.960938 58.347656 Z M 43.179688 56.878906 "/>
<path style=" stroke:none;fill-rule:nonzero;fill:rgb(9.411765%,9.019608%,8.627451%);fill-opacity:1;" d="M 9.4375 88 L 9.4375 81.019531 L 10.441406 81.019531 L 10.441406 87.191406 L 13.105469 87.191406 L 13.105469 88 Z M 9.4375 88 "/>
<path style=" stroke:none;fill-rule:nonzero;fill:rgb(9.411765%,9.019608%,8.627451%);fill-opacity:1;" d="M 16.9375 88 L 16.9375 81.019531 L 20.765625 81.019531 L 20.765625 81.828125 L 17.941406 81.828125 L 17.941406 83.960938 L 20.625 83.960938 L 20.625 84.773438 L 17.941406 84.773438 L 17.941406 87.191406 L 20.855469 87.191406 L 20.855469 88 Z M 16.9375 88 "/>
<path style=" stroke:none;fill-rule:nonzero;fill:rgb(9.411765%,9.019608%,8.627451%);fill-opacity:1;" d="M 32.792969 88 L 31.015625 88 L 31.015625 81.007812 L 32.792969 81.007812 C 35.066406 81.007812 35.714844 82.394531 35.714844 84.480469 C 35.714844 86.605469 35.066406 87.992188 32.792969 87.992188 M 33.625 81.988281 C 33.300781 81.859375 32.953125 81.804688 32.601562 81.816406 L 32.019531 81.816406 L 32.019531 87.179688 L 32.609375 87.179688 C 32.980469 87.195312 33.347656 87.125 33.6875 86.976562 C 34.53125 86.535156 34.613281 85.339844 34.613281 84.5 C 34.613281 83.660156 34.539062 82.402344 33.625 81.988281 "/>
<path style=" stroke:none;fill-rule:nonzero;fill:rgb(9.411765%,9.019608%,8.627451%);fill-opacity:1;" d="M 40.011719 88 L 40.011719 81.007812 L 43.84375 81.007812 L 43.84375 81.816406 L 41.015625 81.816406 L 41.015625 83.953125 L 43.699219 83.953125 L 43.699219 84.761719 L 41.015625 84.761719 L 41.015625 87.171875 L 43.929688 87.171875 L 43.929688 88 Z M 42.332031 80.175781 L 41.5 80.175781 L 41.960938 78.488281 L 43.175781 78.488281 Z M 42.332031 80.175781 "/>
<path style=" stroke:none;fill-rule:nonzero;fill:rgb(9.411765%,9.019608%,8.627451%);fill-opacity:1;" d="M 49.976562 84.964844 L 49.082031 84.964844 L 49.082031 88 L 48.078125 88 L 48.078125 81.007812 L 49.753906 81.007812 C 51.128906 81.007812 52.183594 81.382812 52.183594 82.992188 C 52.183594 84.335938 51.207031 84.953125 49.984375 84.953125 M 49.800781 81.820312 L 49.082031 81.820312 L 49.082031 84.148438 L 49.800781 84.148438 C 50.566406 84.148438 51.078125 83.816406 51.078125 82.996094 C 51.078125 82.101562 50.613281 81.820312 49.800781 81.820312 "/>
<path style=" stroke:none;fill-rule:nonzero;fill:rgb(9.411765%,9.019608%,8.627451%);fill-opacity:1;" d="M 60.144531 88 L 59.460938 86.007812 L 56.972656 86.007812 L 56.3125 88 L 55.234375 88 L 57.597656 81.007812 L 58.832031 81.007812 L 61.203125 88 Z M 58.226562 81.949219 L 58.207031 81.949219 L 57.203125 85.195312 L 59.1875 85.195312 Z M 58.226562 81.949219 "/>
<path style=" stroke:none;fill-rule:nonzero;fill:rgb(9.411765%,9.019608%,8.627451%);fill-opacity:1;" d="M 68.484375 88 L 68.0625 86.453125 C 67.824219 85.589844 67.734375 84.992188 66.695312 84.992188 L 66.128906 84.992188 L 66.128906 88 L 65.125 88 L 65.125 81.007812 L 67.132812 81.007812 C 68.320312 81.007812 69.164062 81.554688 69.164062 82.839844 C 69.164062 83.78125 68.671875 84.289062 67.796875 84.488281 L 67.796875 84.507812 C 68.703125 84.703125 68.820312 85.246094 68.996094 86.046875 L 69.40625 87.992188 Z M 66.9375 81.828125 L 66.128906 81.828125 L 66.128906 84.1875 L 66.714844 84.1875 C 67.496094 84.1875 68.148438 83.851562 68.148438 82.980469 C 68.148438 82.160156 67.707031 81.835938 66.933594 81.835938 "/>
<path style=" stroke:none;fill-rule:nonzero;fill:rgb(9.411765%,9.019608%,8.627451%);fill-opacity:1;" d="M 75.496094 81.828125 L 75.496094 88 L 74.492188 88 L 74.492188 81.828125 L 72.761719 81.828125 L 72.761719 81.019531 L 77.222656 81.019531 L 77.222656 81.828125 Z M 75.496094 81.828125 "/>
<path style=" stroke:none;fill-rule:nonzero;fill:rgb(9.411765%,9.019608%,8.627451%);fill-opacity:1;" d="M 81.066406 88 L 81.066406 81.019531 L 84.894531 81.019531 L 84.894531 81.828125 L 82.074219 81.828125 L 82.074219 83.960938 L 84.753906 83.960938 L 84.753906 84.773438 L 82.074219 84.773438 L 82.074219 87.191406 L 84.984375 87.191406 L 84.984375 88 Z M 81.066406 88 "/>
<path style=" stroke:none;fill-rule:nonzero;fill:rgb(9.411765%,9.019608%,8.627451%);fill-opacity:1;" d="M 95 88 L 95 82.210938 L 94.980469 82.210938 L 92.992188 88 L 92.035156 88 L 90.046875 82.210938 L 90.027344 82.210938 L 90.027344 88 L 89.121094 88 L 89.121094 81.019531 L 90.539062 81.019531 L 92.507812 86.734375 L 92.527344 86.734375 L 94.5 81.019531 L 95.90625 81.019531 L 95.90625 88 Z M 95 88 "/>
<path style=" stroke:none;fill-rule:nonzero;fill:rgb(9.411765%,9.019608%,8.627451%);fill-opacity:1;" d="M 100.542969 88 L 100.542969 81.019531 L 104.371094 81.019531 L 104.371094 81.828125 L 101.550781 81.828125 L 101.550781 83.960938 L 104.230469 83.960938 L 104.230469 84.773438 L 101.550781 84.773438 L 101.550781 87.191406 L 104.460938 87.191406 L 104.460938 88 Z M 100.542969 88 "/>
<path style=" stroke:none;fill-rule:nonzero;fill:rgb(9.411765%,9.019608%,8.627451%);fill-opacity:1;" d="M 112.335938 88 L 109.535156 82.402344 L 109.511719 82.402344 L 109.511719 88 L 108.609375 88 L 108.609375 81.019531 L 109.863281 81.019531 L 112.597656 86.484375 L 112.617188 86.484375 L 112.617188 81.019531 L 113.523438 81.019531 L 113.523438 88 Z M 112.335938 88 "/>
<path style=" stroke:none;fill-rule:nonzero;fill:rgb(9.411765%,9.019608%,8.627451%);fill-opacity:1;" d="M 120.085938 81.828125 L 120.085938 88 L 119.085938 88 L 119.085938 81.828125 L 117.355469 81.828125 L 117.355469 81.019531 L 121.816406 81.019531 L 121.816406 81.828125 Z M 120.085938 81.828125 "/>
</g>
</svg>
