<svg id="Component_24_1" data-name="Component 24 – 1" xmlns="http://www.w3.org/2000/svg" width="389.438" height="88.574" viewBox="0 0 389.438 88.574">
  <g id="Group_575" data-name="Group 575" transform="translate(55.947 0.574)">
    <path id="Path_942" data-name="Path 942" d="M24.882-43.036V-29.58c-1.914-1.856-4.582-2.726-8.062-2.726-8.294,0-15.312,6.206-15.312,16.414S8.526.58,16.82.58c3.944,0,6.786-1.044,8.7-3.19V0H37.99V-43.036ZM19.952-9.628c-2.9,0-5.162-2.146-5.162-6.264S17.052-22.1,19.952-22.1s5.162,2.088,5.162,6.206S22.852-9.628,19.952-9.628ZM59.1.58C69.89.58,77.546-6.264,77.546-15.892S69.89-32.306,59.1-32.306c-10.73,0-18.444,6.786-18.444,16.414S48.372.58,59.1.58Zm0-10.208c-2.9,0-5.162-2.146-5.162-6.264S56.2-22.1,59.1-22.1s5.162,2.088,5.162,6.206S62-9.628,59.1-9.628ZM92.684-28.3v-3.422H80.214V0H93.322V-14.094c0-5.046,2.784-6.844,6.728-6.844a18.165,18.165,0,0,1,2.9.232v-11.6C98.542-32.306,95-30.972,92.684-28.3ZM126.9-43.036V-29.58c-1.914-1.856-4.582-2.726-8.062-2.726-8.294,0-15.312,6.206-15.312,16.414S110.548.58,118.842.58c3.944,0,6.786-1.044,8.7-3.19V0h12.47V-43.036Zm-4.93,33.408c-2.9,0-5.162-2.146-5.162-6.264s2.262-6.206,5.162-6.206,5.162,2.088,5.162,6.206S124.874-9.628,121.974-9.628ZM161.124.58c10.788,0,18.444-6.844,18.444-16.472s-7.656-16.414-18.444-16.414c-10.73,0-18.444,6.786-18.444,16.414S150.394.58,161.124.58Zm0-10.208c-2.9,0-5.162-2.146-5.162-6.264s2.262-6.206,5.162-6.206,5.162,2.088,5.162,6.206S164.024-9.628,161.124-9.628Zm44.08-22.1v3.6c-1.972-2.842-5.046-4.176-9.4-4.176-8.062,0-15.254,5.858-15.254,15.254A14.92,14.92,0,0,0,195.808-1.74c3.886,0,6.786-1.1,8.758-3.364v.58c0,4.234-2.146,6.612-7.54,6.612a18.274,18.274,0,0,1-10.15-3.132l-4.408,8.932c3.944,2.61,9.628,3.944,15.892,3.944,12.122,0,19.314-5.858,19.314-18.154v-25.4Zm-5.916,19.778c-3.074,0-5.452-2.03-5.452-5.1s2.378-5.046,5.452-5.046,5.394,1.972,5.394,5.046S202.362-11.948,199.288-11.948Zm44.776-20.358a13.214,13.214,0,0,0-9.57,3.712v-3.132h-12.47V0h13.108V-14.906c0-4.7,2.262-6.38,4.93-6.38,2.378,0,3.886,1.508,3.886,5.452V0h13.108V-18.1C257.056-28.072,251.372-32.306,244.064-32.306Zm51.562,16.414c0-10.73-8.062-16.414-17.458-16.414-10.266,0-17.98,6.786-17.98,16.414,0,9.454,7.54,16.472,19.2,16.472,6.322,0,10.788-1.74,13.862-5.1l-6.844-6.9a9.692,9.692,0,0,1-6.612,2.32c-3.248,0-5.452-1.276-6.38-3.712h22.04C295.51-13.746,295.626-14.964,295.626-15.892Zm-17.342-7.482a4.924,4.924,0,0,1,5.1,4.234H273.18A4.885,4.885,0,0,1,278.284-23.374Z" transform="translate(0.053 56)" fill="#fff"/>
    <path id="Path_944" data-name="Path 944" d="M2.751.168A2,2,0,0,0,4.788-1.89,1.958,1.958,0,0,0,2.751-3.906,1.958,1.958,0,0,0,.714-1.89,2,2,0,0,0,2.751.168ZM18.039-11.97V-14.7H6.93V0h3.4V-5.355h6.8v-2.73h-6.8V-11.97ZM33.054,0l-3.3-4.725a4.779,4.779,0,0,0,3.024-4.641c0-3.3-2.457-5.334-6.384-5.334H20.034V0h3.4V-4.1h3.129L29.4,0ZM29.337-9.366c0,1.6-1.05,2.562-3.129,2.562H23.436v-5.124h2.772C28.287-11.928,29.337-10.983,29.337-9.366Z" transform="translate(300.436 48.145)" fill="#cbd05d"/>
  </g>
  <g id="Group_576" data-name="Group 576" transform="translate(537.947 0.574)">
    <path id="Path_943" data-name="Path 943" d="M-142.928,0h7.456V-1.024h-6.272V-11.2h-1.184Zm10.208-1.024v-4.16h5.792V-6.192h-5.792v-3.984h6.5V-11.2h-7.68V0h7.92V-1.024ZM-119.808,0h4.56c3.584,0,6-2.3,6-5.6s-2.416-5.6-6-5.6h-4.56Zm1.184-1.024v-9.152h3.312c2.976,0,4.9,1.888,4.9,4.576s-1.92,4.576-4.9,4.576Zm18.16-13.072h-1.52l-2.192,1.984h1.12Zm-5.344,13.072v-4.16h5.792V-6.192h-5.792v-3.984h6.5V-11.2h-7.68V0h7.92V-1.024ZM-92.5-11.2h-4.192V0H-95.5V-3.536H-92.5c2.848,0,4.576-1.44,4.576-3.824C-87.92-9.76-89.648-11.2-92.5-11.2Zm-.032,6.624H-95.5v-5.6h2.976c2.24,0,3.424,1.024,3.424,2.816C-89.1-5.6-90.288-4.576-92.528-4.576ZM-77.952,0H-76.7l-5.12-11.2h-1.168L-88.112,0h1.232l1.344-2.992h6.24ZM-85.1-3.952l2.688-6.016,2.688,6.016ZM-66.3,0-69.04-3.84a3.472,3.472,0,0,0,2.56-3.52c0-2.4-1.728-3.84-4.576-3.84h-4.192V0h1.184V-3.552h3.008a7.973,7.973,0,0,0,.9-.048L-67.6,0Zm-4.784-4.56h-2.976v-5.616h2.976c2.24,0,3.424,1.024,3.424,2.816C-67.664-5.6-68.848-4.56-71.088-4.56ZM-62.064,0h1.184V-10.176h3.936V-11.2H-66v1.024h3.936Zm7.792-1.024v-4.16h5.792V-6.192h-5.792v-3.984h6.5V-11.2h-7.68V0h7.92V-1.024ZM-34.5-11.2l-4.816,8.3-4.864-8.3h-.976V0h1.136V-8.912l4.4,7.488h.56l4.4-7.536V0h1.136V-11.2Zm5.408,10.176v-4.16H-23.3V-6.192h-5.792v-3.984h6.5V-11.2h-7.68V0h7.92V-1.024ZM-11.776-11.2v9.088L-18.992-11.2h-.976V0h1.184V-9.088L-11.584,0h.976V-11.2ZM-5.184,0H-4V-10.176H-.064V-11.2H-9.12v1.024h3.936Z" transform="translate(-305.947 75)" fill="#cbd05d"/>
  </g>
  <g id="Group_577" data-name="Group 577" transform="translate(-146.58 -137.395)">
    <path id="Path_308" data-name="Path 308" d="M149.6,1525.948v-8.341h3.266q4.142,0,4.141,3.943,0,4.4-4.141,4.4Zm3.266-1.341q2.6,0,2.6-3.056a2.3,2.3,0,0,0-2.6-2.6h-1.721v5.658Z" transform="translate(-2.883 -1316.677)" fill="#fff"/>
    <path id="Path_309" data-name="Path 309" d="M329.527,1568.459q0-3.08,3.033-3.08t3.033,3.08q0,3.074-3.033,3.074T329.527,1568.459Zm3.033,1.9q1.487,0,1.487-1.919,0-1.872-1.487-1.872t-1.487,1.872Q331.073,1570.355,332.56,1570.354Z" transform="translate(-174.525 -1362.249)" fill="#fff"/>
    <path id="Path_310" data-name="Path 310" d="M486.651,1571.879v-6.125h1.2l.193.782a2.429,2.429,0,0,1,1.7-.782V1567a2.086,2.086,0,0,0-1.546.717v4.159Z" transform="translate(-324.416 -1362.607)" fill="#fff"/>
    <path id="Path_311" data-name="Path 311" d="M572.194,1525.581a10.825,10.825,0,0,1-2.747.367q-2.969,0-2.969-3.185,0-2.94,2.9-2.94a3.072,3.072,0,0,1,1.266.292v-2.508h1.546Zm-1.546-4.158a2.138,2.138,0,0,0-1.2-.315q-1.441,0-1.441,1.616,0,1.919,1.5,1.919a3.781,3.781,0,0,0,1.143-.169Z" transform="translate(-400.569 -1316.677)" fill="#fff"/>
    <path id="Path_312" data-name="Path 312" d="M716,1568.459q0-3.08,3.033-3.08t3.033,3.08q0,3.074-3.033,3.074T716,1568.459Zm3.033,1.9q1.488,0,1.487-1.919,0-1.872-1.487-1.872t-1.487,1.872Q717.544,1570.355,719.031,1570.354Z" transform="translate(-543.206 -1362.249)" fill="#fff"/>
    <path id="Path_313" data-name="Path 313" d="M872.542,1571.412q0,2.683-3.225,2.683a6.343,6.343,0,0,1-2.007-.292v-1.225a6.486,6.486,0,0,0,2.018.292q1.668,0,1.668-1.4a3.759,3.759,0,0,1-1.482.291q-2.73,0-2.73-2.981,0-3.027,3.179-3.027a16.141,16.141,0,0,1,2.578.251Zm-1.546-4.27a3.257,3.257,0,0,0-1.079-.14q-1.6,0-1.6,1.767,0,1.709,1.383,1.709a2.9,2.9,0,0,0,1.3-.315Z" transform="translate(-687.052 -1362.607)" fill="#fff"/>
    <path id="Path_314" data-name="Path 314" d="M1023.523,1571.879v-6.125h1.2l.192.9a2.74,2.74,0,0,1,2.007-.9q2.176,0,2.176,2.263v3.861h-1.545v-3.861a.9.9,0,0,0-1.009-1.015,2.278,2.278,0,0,0-1.47.6v4.276Z" transform="translate(-836.575 -1362.607)" fill="#fff"/>
    <path id="Path_315" data-name="Path 315" d="M1172.749,1565.754q2.789,0,2.788,2.847a5.514,5.514,0,0,1-.053.758h-4.066q0,1.295,1.9,1.3a9.993,9.993,0,0,0,1.855-.175v1.225a9.468,9.468,0,0,1-1.972.175q-3.331,0-3.331-3.132Q1169.873,1565.755,1172.749,1565.754Zm-1.33,2.531h2.613v-.046a1.129,1.129,0,0,0-1.283-1.272Q1171.524,1566.968,1171.419,1568.285Z" transform="translate(-976.188 -1362.607)" fill="#fff"/>
    <path id="Path_316" data-name="Path 316" d="M146.58,1772.275v-5.248h2.364q1.617,0,1.617,1.479,0,1.6-2.212,1.941l-.14-.866q1.329-.239,1.329-1.046a.579.579,0,0,0-.657-.653h-1.322v4.393Z" transform="translate(0 -1554.615)" fill="#fff"/>
    <path id="Path_317" data-name="Path 317" d="M300,1738.125v.837h-2.644v1.321h2.518v.87h-2.53v1.376h2.707v.844h-3.667v-5.248Zm-1.894-1.395h1.178l-.883.951h-.827Z" transform="translate(-142.907 -1525.713)" fill="#fff"/>
    <path id="Path_318" data-name="Path 318" d="M444.985,1772.268v-5.241h2.4q1.617,0,1.617,1.406,0,.95-1.259,1.574l1.673,2.268h-1.233l-1.606-2.286v-.444q1.4-.238,1.4-1.083,0-.579-.657-.58h-1.34v4.386Z" transform="translate(-284.668 -1554.615)" fill="#fff"/>
    <path id="Path_319" data-name="Path 319" d="M601.545,1767.027v5.248h-.979v-5.248Z" transform="translate(-433.088 -1554.615)" fill="#fff"/>
    <path id="Path_320" data-name="Path 320" d="M695.564,1771.27a4.006,4.006,0,0,1-1.6.279q-2.8,0-2.8-2.734,0-2.588,2.844-2.588a4.387,4.387,0,0,1,1.551.257v.881a3.7,3.7,0,0,0-1.477-.294q-1.9,0-1.9,1.744,0,1.89,1.795,1.89a2.432,2.432,0,0,0,.606-.088v-1.526h.979Z" transform="translate(-519.52 -1553.852)" fill="#fff"/>
    <path id="Path_321" data-name="Path 321" d="M851.96,1768.9a2.631,2.631,0,1,1,5.262,0,2.326,2.326,0,0,1-2.611,2.653Q852.078,1771.548,851.96,1768.9Zm2.651,1.809q1.6,0,1.6-1.831,0-1.8-1.6-1.8-1.636,0-1.636,1.8Q852.976,1770.7,854.612,1770.7Z" transform="translate(-672.909 -1553.852)" fill="#fff"/>
    <path id="Path_322" data-name="Path 322" d="M1035.628,1772.268v-5.241h2.4q1.618,0,1.617,1.406,0,.95-1.259,1.574l1.673,2.268h-1.233l-1.607-2.286v-.444q1.4-.238,1.4-1.083,0-.579-.657-.58h-1.34v4.386Z" transform="translate(-848.122 -1554.615)" fill="#fff"/>
    <path id="Path_323" data-name="Path 323" d="M1191.211,1772.275v-5.248h2.068q2.622,0,2.622,2.481,0,2.767-2.622,2.767Zm2.068-.844q1.643,0,1.643-1.923a1.45,1.45,0,0,0-1.643-1.637h-1.09v3.559Z" transform="translate(-996.543 -1554.615)" fill="#fff"/>
    <path id="Path_324" data-name="Path 324" d="M200.408,157.1s38.545,2.947,41.06,35.912a34.88,34.88,0,0,1-.064,6.64c-.044.43.285,1.058.227,1.493,0,0,2.232-1.736,1.52-10.826-.522-6.7-1.487-18.255-8.568-30.422,0,0,8.184-9.549,4.658-22.5,0,0-5.794,22.043-15.114,21.134C224.127,158.529,199.474,154.938,200.408,157.1Z" transform="translate(-51.325 0)" fill="#fff"/>
    <path id="Path_325" data-name="Path 325" d="M392.732,1010.039s6.591-7.727-1.364-5.569c0,0-10.962,6.01-18.436,23.63C372.931,1028.1,384.113,1017.376,392.732,1010.039Z" transform="translate(-215.931 -826.798)" fill="#fff"/>
    <path id="Path_326" data-name="Path 326" d="M602.294,370.313c-.657,1.7-3.114,2.334-5.487,1.416s-3.758-3.034-3.1-4.734,3.106-2.327,5.477-1.41S602.951,368.613,602.294,370.313Z" transform="translate(-426.387 -217.284)" fill="#fff"/>
    <path id="Path_327" data-name="Path 327" d="M309.708,681.623c6.524,1.4,14.187,3,20.357,6.651,8.218,4.155,11.457,12.156,11.837,20.347a24.527,24.527,0,0,0-.632-7.785c-3.655-14.506-19.033-18.1-31.549-21.2Z" transform="translate(-155.619 -517.282)" fill="#fff"/>
    <path id="Path_328" data-name="Path 328" d="M276.408,715.731c12.491,2.491,28.448,5.552,32.7,20.019a28.346,28.346,0,0,1,.992,7.118c-.365-8.343-5.734-16.766-13.644-19.936a76.414,76.414,0,0,0-20.04-5.249Z" transform="translate(-123.852 -551.713)" fill="#fff"/>
    <g id="Group_287" data-name="Group 287" transform="translate(146.617 220.451)">
      <path id="Path_329" data-name="Path 329" d="M387.932,1981.51h-.569v1.871h.569q.858,0,.859-1.011A.759.759,0,0,0,387.932,1981.51Z" transform="translate(-376.316 -1979.676)" fill="#fff"/>
      <path id="Path_330" data-name="Path 330" d="M147.391,1941.662v5.518h52.7v-5.518Zm15.56.589h.623l-.467.514h-.438Zm-12.319,3.56h-1.607v-2.759h.511v2.315h1.1Zm3.583,0H152.3v-2.759h1.889v.44h-1.381v.695h1.316v.457H152.8v.724h1.414Zm4.791,0h-1.08v-2.759h1.08q1.37,0,1.37,1.3Q160.376,1945.811,159.007,1945.811Zm4.9,0H162v-2.759h1.889v.44H162.5v.695h1.316v.457H162.5v.724h1.414Zm2.582-.961-.073-.455q.694-.126.694-.55a.3.3,0,0,0-.343-.343h-.691v2.309h-.511v-2.759H166.8q.845,0,.845.778Q167.649,1944.672,166.493,1944.85Zm4.515.961-.314-.753h-.916l.176-.444h.556l-.434-1.036-.909,2.232h-.525l1.171-2.759h.55l1.2,2.759Zm3.743,0-.839-1.2v-.234q.733-.125.733-.569,0-.3-.343-.3h-.7v2.3h-.521v-2.755h1.254q.845,0,.845.739,0,.5-.658.827l.874,1.192Zm3.874-2.315h-.791v2.315h-.511V1943.5h-.791v-.444h2.093Zm3.391,2.315H180.1v-2.759h1.888v.44h-1.381v.695h1.316v.457H180.6v.724h1.414Zm4.551,0h-.473v-1.922l-.748,1.922h-.436l-.764-1.922v1.922h-.472v-2.759h.531l.935,2.093.916-2.093h.511Zm3.68,0h-1.916v-2.759h1.889v.44h-1.381v.695h1.316v.457h-1.322v.724h1.414Zm4.117,0h-.511l-1.456-2.052v2.052H191.9v-2.759h.511l1.457,2.01v-2.01h.492Zm3.568-2.315h-.791v2.315h-.511V1943.5h-.791v-.444h2.093Z" transform="translate(-147.391 -1941.662)" fill="#fff"/>
    </g>
  </g>
</svg>
