<svg width="100" height="56" viewBox="0 0 100 56" fill="none" xmlns="http://www.w3.org/2000/svg">
<path d="M26.056 37.9639C26.056 35.4746 24.3963 34.9711 22.9566 34.9711H18.9275C17.4872 34.9711 15.8275 35.4746 15.8275 37.9639V39.7728C15.8275 42.2621 17.4872 42.7649 18.9275 42.7649H22.9566C24.3963 42.7649 26.056 42.2621 26.056 39.7728V37.9639ZM23.3666 39.2265C23.3666 40.3077 22.8767 40.634 21.5844 40.634H20.2985C19.0056 40.634 18.5164 40.3077 18.5164 39.2265V38.512C18.5164 37.4303 19.0056 37.1045 20.2985 37.1045H21.5844C22.8767 37.1045 23.3666 37.4303 23.3666 38.512V39.2265Z" fill="#020202"/>
<path d="M28.1139 42.7636H30.9351V34.9699H28.1139V42.7636Z" fill="#020202"/>
<path d="M28.1139 33.8744H30.9351V31.7001H28.1139V33.8744Z" fill="#020202"/>
<path d="M27.3893 21.889H30.4599L32.8576 27.4605L35.2514 21.8877H38.3226L34.6203 29.682H31.0936L27.3893 21.889Z" fill="#020202"/>
<path d="M50.9727 29.682H53.7934V18.6171H50.9727V29.682Z" fill="#020202"/>
<path d="M38.4272 40.8833C39.4214 40.8833 39.8413 40.7894 39.8413 40.2936C39.8413 39.7889 39.4202 39.7391 38.426 39.7391L36.2208 39.736C33.9832 39.736 33.1308 39.2666 33.1308 37.3317C33.1308 35.3679 34.4949 34.9716 36.2471 34.9716H42.0558V36.8516H36.8382C35.9834 36.8516 35.6235 36.9354 35.6235 37.3651C35.6235 37.7954 35.9834 37.9006 36.8382 37.9006L39.0609 37.9044C42.114 37.9044 42.3401 38.8967 42.3401 40.245C42.3401 42.2448 41.6222 42.7633 38.7166 42.7633H33.1352L33.1371 40.8833H38.4272Z" fill="#020202"/>
<path d="M48.6262 40.9807C47.4283 40.9807 46.8584 40.7634 46.8584 39.9638V39.7137H53.8419V38.4397C53.8419 35.8181 52.5834 34.9707 49.526 34.9707H47.517C45.4194 34.9707 43.9803 35.5932 43.9803 38.4523V39.1775C43.9803 42.4084 45.9886 42.7631 47.892 42.7631H53.7944V40.9807H48.6262ZM46.8584 38.1071C46.8584 37.1456 47.0071 36.7493 48.9561 36.7493C50.6851 36.7493 51.055 37.1292 51.055 38.1071H46.8584Z" fill="#020202"/>
<path d="M3.10059 34.9711C1.66027 34.9711 0 35.4745 0 37.9638V39.7733C0 42.262 1.66027 42.7648 3.10059 42.7648H7.12912C8.56881 42.7648 10.2291 42.262 10.2291 39.7733V31.698H7.40717V36.4826H7.37717C7.20159 35.2975 6.01186 34.9711 4.85023 34.9711H3.10059ZM7.53902 39.2264C7.53902 40.3076 7.04975 40.634 5.7569 40.634H4.47155C3.1787 40.634 2.68881 40.3076 2.68881 39.2264V38.512C2.68881 37.4302 3.1787 37.1044 4.47155 37.1044H5.7569C7.04975 37.1044 7.53902 37.4302 7.53902 38.512V39.2264Z" fill="#020202"/>
<path d="M44.1542 28.0228H43.0338C41.9315 28.0228 41.5497 27.8307 41.5497 27.3411C41.5497 26.7193 41.7997 26.3948 42.9894 26.3948H44.2385C45.7963 26.3948 45.9575 26.6601 45.9575 27.2233C45.9575 27.8704 45.5195 28.0228 44.1542 28.0228ZM45.8988 29.6817C47.6172 29.6975 48.7188 29.3119 48.7188 27.5339V24.5998C48.7188 22.8224 47.6909 21.89 45.7526 21.89H39.4389V23.6718H44.576C45.6789 23.6718 45.8988 23.9338 45.8988 24.6741V25.4019C45.3552 24.8386 44.5029 24.7945 42.9601 24.7945C40.2275 24.7945 38.8172 24.9129 38.8172 26.9719V27.5339C38.8172 29.3119 39.9188 29.6975 41.6372 29.6817H45.8988Z" fill="#020202"/>
<path d="M16.9551 31.6999V31.7415L13.4714 35.8286H11.6374L13.0078 33.1591C13.3921 32.4112 13.8501 31.6999 15.043 31.6999H16.9551Z" fill="#020202"/>
<path d="M0.000366211 54.1379H0.856449V46.566H0.000366211V54.1379Z" fill="#020202"/>
<path d="M2.66144 52.0359C2.66144 54.0022 3.93618 54.2221 5.05156 54.2221H6.60685C8.20151 54.2221 9.16757 53.8567 9.16757 52.6319V52.5279H8.31088C8.26089 53.3432 7.82285 53.49 6.74745 53.49H5.5702C4.07551 53.49 3.5175 53.1762 3.5175 51.9621V51.6282H9.16757V51.0328C9.16757 49.1288 8.06155 48.7205 6.52687 48.7205H5.15216C3.93616 48.7205 2.66144 48.9392 2.66144 50.8747V52.0359ZM8.31088 50.8961H3.5175C3.59749 49.682 3.91618 49.452 5.27214 49.452H6.52687C7.92158 49.452 8.31088 49.9964 8.31088 50.5401V50.8961Z" fill="#020202"/>
<path d="M19.902 46.5665H19.0453V49.5151H19.0247C18.8454 48.9613 18.3774 48.72 17.4007 48.72H16.0947C14.0327 48.72 13.4047 49.3268 13.4047 51.0323V51.9736C13.4047 53.814 14.4907 54.2216 16.046 54.2216H17.2413C18.138 54.2216 18.8354 53.9394 19.0847 53.291H19.1047V54.1384H19.902V46.5665ZM14.2614 50.917C14.2614 49.6828 14.8493 49.4515 16.026 49.4515H17.1807C18.3367 49.4515 19.0453 49.6626 19.0453 50.9378V51.9515C19.0453 52.9256 18.6367 53.4901 17.3607 53.4901H15.966C14.5713 53.4901 14.2614 52.9987 14.2614 51.9629V50.917Z" fill="#020202"/>
<path d="M21.5857 52.0359C21.5857 54.0022 22.8611 54.2221 23.9771 54.2221H25.5311C27.1264 54.2221 28.0931 53.8567 28.0931 52.6319V52.5279H27.2358C27.1858 53.3432 26.7471 53.49 25.6705 53.49H24.4951C22.9998 53.49 22.4418 53.1762 22.4418 51.9621V51.6282H28.0931V51.0328C28.0931 49.1288 26.9865 48.7205 25.4512 48.7205H24.0764C22.8611 48.7205 21.5857 48.9392 21.5857 50.8747V52.0359ZM23.9871 47.9884H24.6545L26.4878 46.0535H25.4611L23.9871 47.9884ZM27.2358 50.8961H22.4418C22.5218 49.682 22.8405 49.452 24.1964 49.452H25.4512C26.8459 49.452 27.2358 49.9964 27.2358 50.5401V50.8961Z" fill="#020202"/>
<path d="M29.7368 56.0001H30.5934V53.427H30.6141C30.7928 53.982 31.2014 54.2221 32.1087 54.2221H33.7421C35.5074 54.2221 36.2341 53.6368 36.2341 51.9117V50.9685C36.2341 49.1288 35.0987 48.7205 33.8827 48.7205H32.2581C31.5008 48.7205 30.8034 49.0028 30.5541 49.6511H30.5341V48.8037H29.7368V56.0001ZM35.3774 52.0257C35.3774 53.2594 34.7788 53.4906 33.7828 53.4906H32.2581C31.3514 53.4906 30.5934 53.2808 30.5934 52.0049V50.99C30.5934 50.0701 31.0227 49.452 32.1481 49.452H33.8515C35.0581 49.452 35.3774 49.9441 35.3774 50.9792V52.0257Z" fill="#020202"/>
<path d="M43.1692 54.1383H44.0259V50.5615C44.0259 48.9713 42.9499 48.7205 41.3565 48.7205H39.9999C38.4652 48.7205 37.8778 49.1175 37.8778 50.0909V50.3517H38.7351V50.164C38.7351 49.7242 38.9439 49.452 40.0199 49.452H41.2759C42.5906 49.452 43.1692 49.5781 43.1692 50.5395V51.5438H43.1498C42.8499 51.0322 42.4512 50.9062 41.3359 50.9062H39.9605C38.4652 50.9062 37.6479 51.053 37.6479 52.2664V52.623C37.6479 53.6261 37.9878 54.2221 39.2825 54.2221H41.3359C42.6518 54.2221 42.9205 54.086 43.1498 53.6047H43.1692V54.1383ZM43.1692 52.7056C43.1692 53.3747 42.5712 53.49 41.0172 53.49H39.8812C38.7039 53.49 38.5058 53.2392 38.5058 52.6426V52.4756C38.5058 51.8059 38.8151 51.6395 39.9212 51.6395H41.2359C42.5512 51.6395 43.1692 51.7334 43.1692 52.4649V52.7056Z" fill="#020202"/>
<path d="M45.9094 48.8039H46.7067V49.5775H46.7261C47.0448 48.887 47.6934 48.7207 48.2814 48.7207H48.8519C50.4565 48.7207 50.9846 49.2644 50.9846 50.5711V51.21H50.1872V50.9794C50.1872 49.662 49.9285 49.4522 48.4039 49.4522H48.1114C47.2047 49.4522 46.7661 50.0589 46.7661 50.7494V54.1391H45.9094V48.8039Z" fill="#020202"/>
<path d="M52.7582 49.5362H51.6422V48.8041H52.7582V47.5384H53.6142V48.8041H57.0129V49.5362H53.6142V52.1925C53.6142 53.1861 53.9429 53.4898 54.8802 53.4898H55.1495C56.2855 53.4898 56.4643 53.2384 56.4643 52.1201V51.7219H57.1622V52.3072C57.1622 53.3751 57.0623 54.2225 55.2095 54.2225H54.7409C53.1369 54.2225 52.7582 53.4072 52.7582 52.5384V49.5362Z" fill="#020202"/>
<path d="M58.2785 52.0358C58.2785 54.0028 59.5539 54.222 60.6699 54.222H62.2246C63.8192 54.222 64.7865 53.8566 64.7865 52.6318V52.5279H63.9286C63.8786 53.3431 63.4399 53.4899 62.3645 53.4899H61.1879C59.6932 53.4899 59.1352 53.1762 59.1352 51.9627V51.6281H64.7865V51.0328C64.7865 49.1288 63.6793 48.7205 62.1452 48.7205H60.7699C59.5539 48.7205 58.2785 48.9391 58.2785 50.8753V52.0358ZM63.9286 50.896H59.1352C59.2152 49.6819 59.5345 49.452 60.8892 49.452H62.1452C63.5399 49.452 63.9286 49.9963 63.9286 50.54V50.896Z" fill="#020202"/>
<path d="M66.4301 48.8039H67.2268V49.4326H67.2468C67.6054 48.8782 68.0935 48.7207 68.9508 48.7207H70.3361C71.1122 48.7207 71.7114 49.0439 71.9801 49.7036C72.2988 48.9828 72.9862 48.7207 73.8635 48.7207H74.9008C76.2748 48.7207 77.1216 49.3482 77.1216 50.5617V54.1391H76.2655V50.6663C76.2655 50.0482 76.0062 49.4522 74.6408 49.4522H74.0328C72.4882 49.4522 72.2788 50.1225 72.2788 50.9794V54.1391H71.4215V50.9063C71.4215 49.8711 71.1122 49.4522 69.7481 49.4522H68.8908C67.7948 49.4522 67.2861 49.9329 67.2861 50.7916V54.1391H66.4301V48.8039Z" fill="#020202"/>
<path d="M78.8057 52.0358C78.8057 54.0028 80.0811 54.222 81.1971 54.222H82.7511C84.3464 54.222 85.3131 53.8566 85.3131 52.6318V52.5279H84.4552C84.4058 53.3431 83.9671 53.4899 82.8917 53.4899H81.7164C80.2198 53.4899 79.6624 53.1762 79.6624 51.9627V51.6281H85.3131V51.0328C85.3131 49.1288 84.2065 48.7205 82.6712 48.7205H81.2971C80.0811 48.7205 78.8057 48.9391 78.8057 50.8753V52.0358ZM84.4552 50.896H79.6624C79.7424 49.6819 80.0605 49.452 81.4164 49.452H82.6712C84.0671 49.452 84.4552 49.9963 84.4552 50.54V50.896Z" fill="#020202"/>
<path d="M86.9567 48.8039H87.7534V49.725H87.774C88.0921 48.8984 88.7601 48.7207 89.8267 48.7207H91.1121C92.7167 48.7207 93.2241 49.5675 93.2241 50.5302V54.1391H92.3674V50.7494C92.3674 49.965 92.1587 49.4522 90.4935 49.4522H90.2741C88.2721 49.4522 87.8134 49.8497 87.8134 51.1054V54.1391H86.9567V48.8039Z" fill="#020202"/>
<path d="M95.596 49.5362H94.4793V48.8041H95.596V47.5383H96.4539V48.8041H99.8507V49.5362H96.4539V52.1931C96.4539 53.1861 96.7813 53.4897 97.718 53.4897H97.9873C99.124 53.4897 99.3027 53.2383 99.3027 52.12V51.7219H100V52.3071C100 53.3751 99.9013 54.2225 98.0467 54.2225H97.5787C95.9746 54.2225 95.596 53.4072 95.596 52.5384V49.5362Z" fill="#020202"/>
<path d="M40.2132 0L46.8106 15.4677H58.3281V42.7644H81.8175L99.9993 0H91.0312C83.6221 0 79.0475 3.0173 76.5761 10.019L70.0494 28.5266L60.044 0H40.2132Z" fill="#EE3C2B"/>
</svg>
