<?xml version="1.0" encoding="UTF-8"?>
<svg xmlns="http://www.w3.org/2000/svg" width="200" height="50" viewBox="0 0 200 50" fill="none">
  <path d="M9.14664 18.4929C10.8533 18.4929 12.2222 19.0618 13.2533 20.1996C14.2844 21.3196 14.8 22.8662 14.8 24.8395V33.5329H10.2666V25.4529C10.2666 24.4573 10.0089 23.684 9.4933 23.1329C8.97775 22.5818 8.28442 22.3062 7.41331 22.3062C6.5422 22.3062 5.84887 22.5818 5.33332 23.1329C4.81776 23.684 4.55998 24.4573 4.55998 25.4529V33.5329H0V13.7996H4.55998V20.6529C5.0222 19.9951 5.65331 19.4707 6.45331 19.0796C7.25331 18.6885 8.15108 18.4929 9.14664 18.4929Z" fill="#231B4B"></path>
  <path d="M17.062 26.0662C17.062 24.5373 17.3465 23.1951 17.9154 22.0396C18.502 20.884 19.2931 19.9951 20.2887 19.3729C21.2842 18.7507 22.3953 18.4396 23.622 18.4396C24.6709 18.4396 25.5864 18.6529 26.3687 19.0796C27.1687 19.5062 27.782 20.0662 28.2087 20.7596V18.6529H32.7686V33.5329H28.2087V31.4262C27.7642 32.1195 27.142 32.6795 26.342 33.1062C25.5598 33.5329 24.6442 33.7462 23.5953 33.7462C22.3864 33.7462 21.2842 33.4351 20.2887 32.8129C19.2931 32.1729 18.502 31.2751 17.9154 30.1195C17.3465 28.9462 17.062 27.5951 17.062 26.0662ZM28.2087 26.0929C28.2087 24.9551 27.8887 24.0573 27.2487 23.3996C26.6264 22.7418 25.862 22.4129 24.9553 22.4129C24.0487 22.4129 23.2753 22.7418 22.6353 23.3996C22.0131 24.0395 21.702 24.9284 21.702 26.0662C21.702 27.204 22.0131 28.1106 22.6353 28.7862C23.2753 29.444 24.0487 29.7729 24.9553 29.7729C25.862 29.7729 26.6264 29.444 27.2487 28.7862C27.8887 28.1284 28.2087 27.2306 28.2087 26.0929Z" fill="#231B4B"></path>
  <path d="M50.7609 18.6529V33.5329H46.2009V31.5062C45.7387 32.164 45.1076 32.6973 44.3076 33.1062C43.5253 33.4973 42.6542 33.6929 41.6942 33.6929C40.5565 33.6929 39.552 33.444 38.6809 32.9462C37.8098 32.4306 37.1342 31.6929 36.6542 30.7329C36.1743 29.7729 35.9343 28.644 35.9343 27.3462V18.6529H40.4676V26.7329C40.4676 27.7284 40.7253 28.5018 41.2409 29.0529C41.7565 29.604 42.4498 29.8795 43.3209 29.8795C44.2098 29.8795 44.912 29.604 45.4276 29.0529C45.9431 28.5018 46.2009 27.7284 46.2009 26.7329V18.6529H50.7609Z" fill="#231B4B"></path>
  <path d="M62.3296 29.6662V33.5329H60.0096C58.3563 33.5329 57.0674 33.1329 56.1429 32.3329C55.2185 31.5151 54.7563 30.1906 54.7563 28.3595V22.4396H52.9429V18.6529H54.7563V15.0262H59.3162V18.6529H62.3029V22.4396H59.3162V28.4129C59.3162 28.8573 59.4229 29.1773 59.6362 29.3729C59.8496 29.5684 60.2051 29.6662 60.7029 29.6662H62.3296Z" fill="#231B4B"></path>
  <path d="M78.8962 25.8529C78.8962 26.2795 78.8695 26.724 78.8162 27.1862H68.4962C68.5673 28.1106 68.8607 28.8218 69.3762 29.3195C69.9095 29.7995 70.5584 30.0395 71.3229 30.0395C72.4607 30.0395 73.2518 29.5595 73.6962 28.5995H78.5495C78.3006 29.5773 77.8473 30.4573 77.1895 31.2395C76.5495 32.0217 75.7406 32.6351 74.7629 33.0795C73.7851 33.524 72.6918 33.7462 71.4829 33.7462C70.0251 33.7462 68.7273 33.4351 67.5896 32.8129C66.4518 32.1906 65.5629 31.3017 64.9229 30.1462C64.2829 28.9906 63.9629 27.6395 63.9629 26.0929C63.9629 24.5462 64.274 23.1951 64.8962 22.0396C65.5362 20.884 66.4251 19.9951 67.5629 19.3729C68.7007 18.7507 70.0073 18.4396 71.4829 18.4396C72.9229 18.4396 74.2029 18.7418 75.3229 19.3462C76.4429 19.9507 77.314 20.8129 77.9362 21.9329C78.5762 23.0529 78.8962 24.3595 78.8962 25.8529ZM74.2295 24.6529C74.2295 23.8707 73.9629 23.2484 73.4295 22.7862C72.8962 22.324 72.2295 22.0929 71.4295 22.0929C70.6651 22.0929 70.0162 22.3151 69.4829 22.7596C68.9673 23.204 68.6473 23.8351 68.5229 24.6529H74.2295Z" fill="#231B4B"></path>
  <path d="M77.7775 24.9107H88.8886V27.1329H77.7775V24.9107Z" fill="#231B4B"></path>
  <path d="M90.3286 29.7818L93.5552 19.1685H98.4086L93.1286 34.0484H87.5019L82.2219 19.1685H87.1019L90.3286 29.7818Z" fill="#231B4B"></path>
  <path d="M102.621 17.6218C101.821 17.6218 101.163 17.3907 100.648 16.9285C100.15 16.4485 99.9013 15.8618 99.9013 15.1685C99.9013 14.4574 100.15 13.8707 100.648 13.4085C101.163 12.9285 101.821 12.6885 102.621 12.6885C103.403 12.6885 104.043 12.9285 104.541 13.4085C105.057 13.8707 105.315 14.4574 105.315 15.1685C105.315 15.8618 105.057 16.4485 104.541 16.9285C104.043 17.3907 103.403 17.6218 102.621 17.6218ZM104.888 19.1685V34.0484H100.328V19.1685H104.888Z" fill="#231B4B"></path>
  <path d="M122.219 26.3684C122.219 26.7951 122.192 27.2395 122.139 27.7018H111.819C111.89 28.6262 112.184 29.3373 112.699 29.8351C113.232 30.3151 113.881 30.5551 114.646 30.5551C115.784 30.5551 116.575 30.0751 117.019 29.1151H121.872C121.624 30.0929 121.17 30.9729 120.512 31.7551C119.872 32.5373 119.064 33.1506 118.086 33.5951C117.108 34.0395 116.015 34.2617 114.806 34.2617C113.348 34.2617 112.05 33.9506 110.912 33.3284C109.775 32.7062 108.886 31.8173 108.246 30.6617C107.606 29.5062 107.286 28.1551 107.286 26.6084C107.286 25.0618 107.597 23.7107 108.219 22.5551C108.859 21.3996 109.748 20.5107 110.886 19.8885C112.024 19.2662 113.33 18.9551 114.806 18.9551C116.246 18.9551 117.526 19.2573 118.646 19.8618C119.766 20.4662 120.637 21.3284 121.259 22.4484C121.899 23.5684 122.219 24.8751 122.219 26.3684ZM117.552 25.1684C117.552 24.3862 117.286 23.764 116.752 23.3018C116.219 22.8396 115.552 22.6084 114.752 22.6084C113.988 22.6084 113.339 22.8307 112.806 23.2751C112.29 23.7196 111.97 24.3507 111.846 25.1684H117.552Z" fill="#231B4B"></path>
  <path d="M133.691 19.0085C135.434 19.0085 136.82 19.5773 137.851 20.7151C138.9 21.8351 139.425 23.3818 139.425 25.3551V34.0484H134.891V25.9684C134.891 24.9729 134.634 24.1995 134.118 23.6484C133.602 23.0973 132.909 22.8218 132.038 22.8218C131.167 22.8218 130.474 23.0973 129.958 23.6484C129.442 24.1995 129.185 24.9729 129.185 25.9684V34.0484H124.625V19.1685H129.185V21.1418C129.647 20.484 130.269 19.9685 131.051 19.5951C131.834 19.204 132.714 19.0085 133.691 19.0085Z" fill="#231B4B"></path>
  <path d="M151.66 19.0085C153.402 19.0085 154.789 19.5773 155.82 20.7151C156.869 21.8351 157.393 23.3818 157.393 25.3551V34.0484H152.86V25.9684C152.86 24.9729 152.602 24.1995 152.087 23.6484C151.571 23.0973 150.878 22.8218 150.007 22.8218C149.136 22.8218 148.442 23.0973 147.927 23.6484C147.411 24.1995 147.153 24.9729 147.153 25.9684V34.0484H142.593V19.1685H147.153V21.1418C147.616 20.484 148.238 19.9685 149.02 19.5951C149.802 19.204 150.682 19.0085 151.66 19.0085Z" fill="#231B4B"></path>
  <path d="M174.589 26.3684C174.589 26.7951 174.562 27.2395 174.509 27.7018H164.189C164.26 28.6262 164.553 29.3373 165.069 29.8351C165.602 30.3151 166.251 30.5551 167.015 30.5551C168.153 30.5551 168.944 30.0751 169.389 29.1151H174.242C173.993 30.0929 173.54 30.9729 172.882 31.7551C172.242 32.5373 171.433 33.1506 170.455 33.5951C169.478 34.0395 168.384 34.2617 167.175 34.2617C165.718 34.2617 164.42 33.9506 163.282 33.3284C162.144 32.7062 161.255 31.8173 160.615 30.6617C159.975 29.5062 159.655 28.1551 159.655 26.6084C159.655 25.0618 159.967 23.7107 160.589 22.5551C161.229 21.3996 162.118 20.5107 163.255 19.8885C164.393 19.2662 165.7 18.9551 167.175 18.9551C168.615 18.9551 169.895 19.2573 171.015 19.8618C172.135 20.4662 173.006 21.3284 173.629 22.4484C174.269 23.5684 174.589 24.8751 174.589 26.3684ZM169.922 25.1684C169.922 24.3862 169.655 23.764 169.122 23.3018C168.589 22.8396 167.922 22.6084 167.122 22.6084C166.358 22.6084 165.709 22.8307 165.175 23.2751C164.66 23.7196 164.34 24.3507 164.215 25.1684H169.922Z" fill="#231B4B"></path>
  <path d="M199.999 26.1995C199.999 32.336 195.025 37.3106 188.888 37.3106C182.752 37.3106 177.777 32.336 177.777 26.1995C177.777 20.0631 182.752 15.0885 188.888 15.0885C195.025 15.0885 199.999 20.0631 199.999 26.1995Z" fill="#5338CA"></path>
  <path d="M188.864 25.1408H187.49V30.644H186.403V25.1408H185.555V24.2682H186.403V23.8145C186.403 23.1009 186.59 22.5812 186.965 22.2554C187.347 21.9219 187.956 21.7551 188.792 21.7551V22.6394C188.314 22.6394 187.976 22.7324 187.777 22.9186C187.586 23.097 187.49 23.3956 187.49 23.8145V24.2682H188.864V25.1408Z" fill="white"></path>
  <path d="M191.218 25.3037C191.41 24.9391 191.68 24.656 192.031 24.4544C192.389 24.2527 192.823 24.1519 193.333 24.1519V25.2455H193.046C191.828 25.2455 191.218 25.8893 191.218 27.1769V30.644H190.131V24.2682H191.218V25.3037Z" fill="white"></path>
</svg>
