<svg xmlns="http://www.w3.org/2000/svg" width="284" height="112" viewBox="0 0 284 112">
  <g transform="translate(-528 -503)">
    <!-- <path d="M0,0,264-20A20,20,0,0,1,284,0V92H0Z" transform="translate(528 523)" fill="#fff" opacity="0.5"/> -->
    <g transform="translate(478.72 471.334)">
      <g transform="translate(73.28 71.34)">
        <path d="M41.95,50.12h2.661v8.03h4.138v1.984h-6.8Z" transform="translate(-11.107 -5.817)" fill="#d74120"/>
        <path d="M49.48,50.12h7.076v1.892h-4.4v2.061H56.31v1.908H52.157v2.261H56.71v1.892H49.48Z" transform="translate(-7.053 -5.817)" fill="#d74120"/>
        <path d="M65.247,58.15h1.031c2,0,3.123-1.031,3.123-3.03a2.782,2.782,0,0,0-3.123-3.03H65.247ZM62.57,50.12h3.646c3.492,0,5.922,1.092,5.922,4.969s-2.507,5.046-5.922,5.046H62.57V50.12Z" transform="translate(-0.007 -5.817)" fill="#d74120"/>
        <path d="M75.533,48.43h2.692l-1.861,2.061h-1.8Zm-3.323,2.6h7.061v1.892h-4.4v2.061h4.153v1.892H74.871v2.261h4.553v1.892H72.21V51.014Z" transform="translate(5.182 -6.726)" fill="#d74120"/>
        <path d="M83.032,54.74h.692c.923,0,1.646-.338,1.646-1.384S84.632,52,83.724,52h-.692v2.723Zm-2.677-4.63H83.54c3.061,0,4.492,1.031,4.492,3.292,0,2.031-1.477,3.23-3.984,3.23H83.017V60.14H80.34V50.125Z" transform="translate(9.559 -5.822)" fill="#d74120"/>
        <path d="M92.985,52.181h-.031L91.662,56.1h2.507l-1.184-3.923ZM91.354,50.12h3.277l3.861,10.014H95.569L94.831,58H91.062l-.785,2.138H87.57l3.8-10.014Z" transform="translate(13.451 -5.817)" fill="#d74120"/>
        <path d="M100.417,54.284h.708c.861,0,1.954-.031,1.954-1.169,0-.938-.938-1.108-1.954-1.108h-.708ZM97.74,50.115h4.769c1.784,0,3.23.8,3.23,2.523a2.33,2.33,0,0,1-1.923,2.523v.031c.861.231.923.985,1.415,2.215l.985,2.723h-2.784l-.569-1.815c-.554-1.723-.892-2.154-1.877-2.154h-.554v3.953H97.755V50.1Z" transform="translate(18.925 -5.828)" fill="#d74120"/>
        <path d="M108.457,52.1H105.98V50.12h7.615V52.1h-2.461v8.03h-2.677Z" transform="translate(23.361 -5.817)" fill="#d74120"/>
        <path d="M114.02,50.12h7.061v1.892H116.7v2.061h4.153v1.908H116.7v2.261h4.553v1.892h-7.23Z" transform="translate(27.689 -5.817)" fill="#d74120"/>
        <path d="M122.2,50.12h4.2l2.123,6.661h.031l2.231-6.661h4.046V60.134h-2.615l.046-7.692h-.031l-2.554,7.692h-2.461l-2.431-7.692h-.031l.046,7.692h-2.6Z" transform="translate(32.092 -5.817)" fill="#d74120"/>
        <path d="M134.05,50.12h7.061v1.892h-4.4v2.061h4.153v1.908h-4.153v2.261h4.553v1.892H134.05Z" transform="translate(38.471 -5.817)" fill="#d74120"/>
        <path d="M142.26,50.12h3.4l3.384,6.8h.031l-.046-6.8h2.446V60.134h-3.323l-3.492-6.845h-.031l.077,6.845H142.26Z" transform="translate(42.891 -5.817)" fill="#d74120"/>
        <path d="M153.867,52.1H151.39V50.12H159V52.1h-2.477v8.03h-2.661Z" transform="translate(47.805 -5.817)" fill="#d74120"/>
        <path d="M38.114,21.4a16.67,16.67,0,0,0-11.691,4.969A16.041,16.041,0,0,0,21.9,37.6a14.971,14.971,0,0,0,4.923,11.6,17.16,17.16,0,0,0,11.553,4.538h8.707V46.382H38.544c-5.523,0-8.676-3.184-8.676-8.722s3.277-8.891,8.553-8.891h8.661V21.415H38.129Z" transform="translate(-21.9 -21.277)" fill="#d74120"/>
        <path d="M85,42.61H75.759l4.123-12.183h1.077L85.019,42.61Zm4.107,11.276h7.938L84.773,21.32H76.082L63.56,53.886h7.892l2.338-5.892H86.881l2.2,5.892Z" transform="translate(0.526 -21.32)" fill="#d74120"/>
        <g transform="translate(31.166 0)">
          <path d="M97.2,36.534H95.665V26.689H97.2c1.692,0,6.8,0,6.8,4.907s-5.123,4.923-6.8,4.923M95.665,40.81h1.046L97,41.1l7.661,11.014c1.631,2.138,4.846,2.907,7.092,2.907a6.5,6.5,0,0,0,2.938-.569L103.849,40.18l1.108-.2c4.169-.738,6.861-4.23,6.861-8.907,0-6.2-4.046-9.753-11.107-9.753H88.22V53.886h7.445V40.826Z" transform="translate(-17.366 -21.32)" fill="#d74120"/>
          <path d="M63.712,53.886h7.445V21.32H67.434a3.726,3.726,0,0,0-3.723,3.723v9.384H49.605V21.335H42.16V53.9h3.723a3.716,3.716,0,0,0,3.723-3.723V40H63.712V53.9Z" transform="translate(-42.16 -21.32)" fill="#d74120"/>
          <path d="M154.727,53.886h3.723a3.716,3.716,0,0,0,3.723-3.723V27.412h7.292V21.32H147.42v6.092h7.292V53.886Z" transform="translate(14.502 -21.32)" fill="#d74120"/>
          <path d="M148.071,53.886h7.8V21.32h-3.723a3.716,3.716,0,0,0-3.723,3.723V42.072h-1.031l-.292-.262L131.149,21.32h-7.8V53.886h3.723a3.726,3.726,0,0,0,3.723-3.723V33.088h1.015l.292.262,15.968,20.536Z" transform="translate(1.545 -21.32)" fill="#d74120"/>
          <path d="M107.68,21.32V50.163a3.716,3.716,0,0,0,3.723,3.723h14.214V47.794H115.125v-7.23h9.953V34.473h-9.953V27.427h10.491V21.335H107.68Z" transform="translate(-6.89 -21.32)" fill="#d74120"/>
          <path d="M164.72,21.32V50.163a3.716,3.716,0,0,0,3.723,3.723h14.214V47.794H172.165v-7.23h9.953V34.473h-9.953V27.427h10.491V21.335H164.72Z" transform="translate(23.815 -21.32)" fill="#d74120"/>
        </g>
      </g>
    </g>
  </g>
</svg>
