<?xml version="1.0" encoding="UTF-8"?><svg id="a" xmlns="http://www.w3.org/2000/svg" viewBox="0 0 850.39 296.41"><defs><style>.b{fill:#003594;}</style></defs><g><path class="b" d="M147.15,127.37l-9.89,23.32c3.24,.78,6.59,1.21,10,1.21s6.72-.43,9.95-1.2l-9.85-23.33h-.21Z"/><path class="b" d="M147.29,68.59c-43.9,0-79.61,35.72-79.61,79.62s35.71,79.61,79.61,79.61,79.62-35.72,79.62-79.61-35.72-79.62-79.62-79.62Zm29.8,89.8l10.54,23.35h-17.32l-7.28-17.24c-5.08,1.45-10.38,2.23-15.78,2.23s-10.74-.79-15.84-2.25l-7.32,17.26h-17.22l10.52-23.37c-8.19-4.92-15.2-11.83-20.18-20.3l12.78-7.52c3.4,5.79,8.07,10.61,13.53,14.19l16.23-36.06h14.92l16.29,36.09c5.51-3.61,10.22-8.48,13.63-14.33l12.81,7.48c-4.99,8.55-12.05,15.51-20.29,20.47Z"/></g><g><g><path class="b" d="M263.27,189.54h5.62v20.74h13.36v4.96h-18.98v-25.7Z"/><path class="b" d="M288.63,189.54h19.42v4.92h-13.8v5.4h12.48v4.66h-12.48v5.8h13.77v4.92h-19.38v-25.7Z"/><path class="b" d="M327.22,189.54h10.54c7.82,0,12.99,4.44,12.99,12.85s-4.99,12.85-13.07,12.85h-10.46v-25.7Zm10.35,20.78c4.99,0,7.57-2.35,7.57-7.93s-2.57-7.93-7.57-7.93h-4.73v15.86h4.73Z"/><path class="b" d="M357.27,189.54h19.42v4.92h-13.8v5.4h12.48v4.66h-12.48v5.8h13.76v4.92h-19.38v-25.7Zm10.72-7.27h5.62l-4.99,5.07h-4.34l3.71-5.07Z"/><path class="b" d="M383.58,189.54h13.51c5.47,0,9.51,3.3,9.51,8.41s-3.93,8.4-9.51,8.4h-7.89v8.89h-5.61v-25.7Zm13.18,11.9c2.49,0,4.22-1.32,4.22-3.52,0-2.31-1.39-3.45-4.22-3.45h-7.57v6.98h7.57Z"/><path class="b" d="M427.58,211.27h-12.89l-1.69,3.96h-6.06l11.57-25.7h5.25l11.6,25.7h-6.09l-1.69-3.96Zm-2.05-4.92l-4.34-10.24h-.07l-4.33,10.24h8.74Z"/><path class="b" d="M456.83,205.73l6.28,9.51h-6.39l-5.95-9.29h-4.55v9.29h-5.62v-25.7h13.55c5.62,0,9.18,3.23,9.18,8.19,0,4.11-2.38,7.05-6.5,7.93v.07Zm-3.23-4.73c2.6,0,4.11-1.17,4.11-3.34s-1.36-3.19-4.19-3.19h-7.3v6.54h7.38Z"/><path class="b" d="M476.48,194.5h-9.14v-4.96h23.9v4.96h-9.14v20.74h-5.62v-20.74Z"/><path class="b" d="M497.61,189.54h19.42v4.92h-13.8v5.4h12.48v4.66h-12.48v5.8h13.76v4.92h-19.38v-25.7Z"/><path class="b" d="M523.92,189.54h6.5l9.14,17.92h.08l9.21-17.92h6.46v25.7h-5.58v-16.85h-.08l-8.88,16.85h-2.28l-8.88-16.85h-.08v16.85h-5.61v-25.7Z"/><path class="b" d="M563.33,189.54h19.42v4.92h-13.8v5.4h12.48v4.66h-12.48v5.8h13.76v4.92h-19.38v-25.7Z"/><path class="b" d="M589.64,189.54h6.13l12.04,17.8h.08v-17.8h5.61v25.7h-6.09l-12.08-17.84h-.08v17.84h-5.61v-25.7Z"/><path class="b" d="M628.97,194.5h-9.14v-4.96h23.9v4.96h-9.14v20.74h-5.62v-20.74Z"/></g><g><path class="b" d="M319.32,144.45h-36.59l-4.8,11.26h-17.2l32.84-72.97h14.9l32.94,72.97h-17.3l-4.79-11.26Zm-5.84-13.97l-12.3-29.08h-.2l-12.3,29.08h24.81Z"/><path class="b" d="M327.86,82.74h18.04l23.24,52.64h.21l23.14-52.64h18.14l-33.46,72.97h-15.95l-33.36-72.97Z"/><path class="b" d="M416.77,82.74h55.14v13.97h-39.2v15.32h35.44v13.24h-35.44v16.47h39.09v13.97h-55.04V82.74Z"/><path class="b" d="M506.72,126.84l-30.33-44.09h18.24l20.01,30.85h.2l20.01-30.85h18.25l-30.44,44.09v28.87h-15.95v-28.87Z"/><path class="b" d="M603.65,128.71l17.82,27h-18.14l-16.89-26.37h-12.92v26.37h-15.95V82.74h38.46c15.95,0,26.06,9.17,26.06,23.25,0,11.67-6.78,20.01-18.45,22.52v.21Zm-9.17-13.45c7.4,0,11.67-3.34,11.67-9.49s-3.86-9.07-11.89-9.07h-20.74v18.56h20.95Z"/><path class="b" d="M666.92,81.18c21.89-.31,38.68,16.26,38.36,38.05,.32,21.79-16.47,38.36-38.36,38.05-21.89,.31-38.67-16.26-38.36-38.05-.31-21.79,16.47-38.36,38.36-38.05Zm0,13.97c-13.24,0-22.41,9.8-22.41,24.08s9.17,24.08,22.41,24.08,22.41-9.8,22.41-24.08-9.18-24.08-22.41-24.08Z"/><path class="b" d="M714.96,82.74h17.41l34.19,50.55h.21v-50.55h15.95v72.97h-17.3l-34.3-50.66h-.2v50.66h-15.95V82.74Z"/></g></g></svg>