<?xml version="1.0" encoding="utf-8"?>
<!DOCTYPE svg PUBLIC "-//W3C//DTD SVG 1.1//EN" "http://www.w3.org/Graphics/SVG/1.1/DTD/svg11.dtd">
<svg xmlns="http://www.w3.org/2000/svg" xmlns:xlink="http://www.w3.org/1999/xlink" version="1.1" id="Calque_1" x="0px" y="0px" width="148" height="29" viewBox="0 0 397 78.973" enable-background="new 0 0 397 78.973" xml:space="preserve">
<g>
	<path fill="#FFFFFF" d="M344.683,73.132c-10.863-1.408-27.28-3.537-44.177-3.984c-9.834-0.262-21.961,0.749-27.754,1.597   l-1.273,6.45c3.317-0.688,20.506-2.248,28.118-2.197c7.611,0.05,14.907,0.367,19.39,0.644s26.029,2.998,43.134,0.522   c2.599-0.376,5.111-0.839,7.524-1.36c-1.122,0.036-2.257,0.058-3.411,0.058c-4.239,0-8.701-0.243-13.41-0.727   C350.809,73.928,348.105,73.577,344.683,73.132"/>
	<path fill="#FFFFFF" d="M275.327,58.814c7.305-1.566,19.714-2.093,40.369-0.32l4.927-25.806c1.17-7.354,6.472-10.231,6.528-10.288   c0.057-0.055,0.096-0.128,0.109-0.204l3.92-21.887C331.212,0.137,331.108,0,330.95,0h-7.862c-0.158,0-0.311,0.137-0.342,0.309   l-0.675,3.771h-5.361l0.675-3.771C317.416,0.137,317.312,0,317.153,0h-7.851c-0.288,0-0.355,0.328-0.355,0.328l-0.69,3.787h-5.362   l0.697-3.788c0,0,0.061-0.327-0.22-0.327h-7.86c-0.164,0-0.317,0.137-0.349,0.309l-0.695,3.771h-5.366l0.674-3.771   C289.807,0.137,289.701,0,289.539,0h-7.841c-0.162,0-0.317,0.137-0.35,0.309l-3.919,21.887c-0.013,0.076,0,0.149,0.038,0.204   c0.038,0.057,3.771,5.73,2.954,10.288L275.327,58.814z"/>
	<path fill="#FFFFFF" d="M397,65.647c-4.007,1.144-8.773,1.979-13.919,2.345c-3.541,0.251-6.932,0.254-10.045,0.048   c-0.821-0.014-1.656-0.035-2.513-0.071c-8.399-0.354-42.126-5.314-45.221-5.723c-11.653-1.535-25.464-2.109-29.741-2.096   c-2.342,0.008-8.2,0.109-10.154,0.212c-5.072,0.267-10.74,1.36-10.74,1.36l-1.295,6.289c6.462-0.879,18.042-1.787,27.207-1.545   c17.038,0.451,33.54,2.592,44.46,4.008c3.402,0.441,6.089,0.789,8.067,0.992c14.351,1.474,26.372,0.91,36.488-2.477   C393.007,67.751,395.418,66.553,397,65.647"/>
	<path fill="#FFFFFF" d="M341.462,21.318c-3.802-0.013-7.937,1.569-11.309,20.15c-1.056,5.815-3.139,18.257-3.139,18.257   l3.593,0.461c0,0,1.862-11.923,2.827-17.155c1.944-10.538,4.28-18.252,7.814-18.167l7.123-0.004L352.747,0h-15.416l-0.611,3.534   h12.087l-3.104,17.774L341.462,21.318z"/>
	<polygon fill="#FFFFFF" points="17.498,73.602 17.498,78.973 3.956,78.973 3.956,54.559 9.241,54.559 9.241,73.602  "/>
	<polygon fill="#FFFFFF" points="34.341,73.602 34.341,78.973 19.808,78.973 19.808,54.559 34.176,54.559 34.176,59.93    25.093,59.93 25.093,63.976 33.35,63.976 33.35,69.278 25.093,69.278 25.093,73.602  "/>
	<path fill="#FFFFFF" d="M66.047,66.766c0,6.906-4.855,12.207-11.23,12.207h-9.248V54.559h9.248   C61.192,54.559,66.047,59.86,66.047,66.766 M60.96,66.766c0-4.186-2.51-6.836-6.143-6.836h-3.963v13.672h3.963   C58.45,73.602,60.96,70.952,60.96,66.766"/>
	<path fill="#FFFFFF" d="M83.55,73.603v5.37H69.018V54.559h14.368v5.371h-9.083v4.047h8.257v5.301h-8.257v4.325H83.55z    M78.001,52.466h-4.756l2.642-4.883h5.945L78.001,52.466z"/>
	<path fill="#FFFFFF" d="M103.367,62.93c0,4.639-3.535,8.369-8.093,8.369h-3.468v7.674h-5.285V54.559h8.753   C99.832,54.559,103.367,58.291,103.367,62.93 M98.082,62.93c0-1.778-1.189-3.14-2.808-3.14h-3.468v6.278h3.468   C96.893,66.069,98.082,64.708,98.082,62.93"/>
	<path fill="#FFFFFF" d="M117.237,75.137h-8.587l-1.156,3.836h-5.78l7.86-24.414h6.739l7.86,24.414h-5.779L117.237,75.137z    M115.652,69.906l-2.708-8.964l-2.709,8.964H115.652z"/>
	<path fill="#FFFFFF" d="M133.948,70.952h-2.51v8.021h-5.285V54.559h9.248c4.393,0,7.927,3.731,7.927,8.371   c0,2.999-1.717,5.72-4.261,7.08l4.922,8.963h-5.681L133.948,70.952z M131.438,66.069h3.963c1.454,0,2.642-1.36,2.642-3.139   s-1.188-3.14-2.642-3.14h-3.963V66.069z"/>
	<polygon fill="#FFFFFF" points="161.493,59.93 155.548,59.93 155.548,78.973 150.263,78.973 150.263,59.93 144.318,59.93    144.318,54.559 161.493,54.559  "/>
	<polygon fill="#FFFFFF" points="178.335,73.602 178.335,78.973 163.802,78.973 163.802,54.559 178.17,54.559 178.17,59.93    169.087,59.93 169.087,63.976 177.344,63.976 177.344,69.278 169.087,69.278 169.087,73.602  "/>
	<polygon fill="#FFFFFF" points="204.428,78.973 199.143,78.973 199.143,64.778 193.164,75.137 192.571,75.137 186.591,64.778    186.591,78.973 181.306,78.973 181.306,54.559 186.591,54.559 192.867,65.406 199.143,54.559 204.428,54.559  "/>
	<polygon fill="#FFFFFF" points="222.921,73.602 222.921,78.973 208.388,78.973 208.388,54.559 222.756,54.559 222.756,59.93    213.672,59.93 213.672,63.976 221.93,63.976 221.93,69.278 213.672,69.278 213.672,73.602  "/>
	<polygon fill="#FFFFFF" points="244.058,54.559 244.058,78.973 240.095,78.973 231.177,65.72 231.177,78.973 225.892,78.973    225.892,54.559 229.855,54.559 238.773,67.813 238.773,54.559  "/>
	<polygon fill="#FFFFFF" points="263.544,59.93 257.599,59.93 257.599,78.973 252.314,78.973 252.314,59.93 246.369,59.93    246.369,54.559 263.544,54.559  "/>
	<polygon fill="#FFFFFF" points="29.339,11.296 19.183,11.296 19.183,43.826 10.156,43.826 10.156,11.296 0,11.296 0,2.122    29.339,2.122  "/>
	<path fill="#FFFFFF" d="M29.339,22.974c0-12.273,9.196-21.687,20.537-21.687c11.341,0,20.537,9.414,20.537,21.687   S61.217,44.66,49.875,44.66C38.535,44.66,29.339,35.247,29.339,22.974 M61.386,22.974c0-7.447-5.078-12.393-11.51-12.393   c-6.432,0-11.51,4.946-11.51,12.393c0,7.447,5.078,12.392,11.51,12.392C56.308,35.366,61.386,30.42,61.386,22.974"/>
	<path fill="#FFFFFF" d="M74.927,30.361V2.122h9.027v27.405c0,3.158,1.411,5.838,6.206,5.838c4.796,0,6.206-2.68,6.206-5.838V2.122   h9.028v28.239c0,8.937-6.545,14.299-15.234,14.299S74.927,39.298,74.927,30.361"/>
	<path fill="#FFFFFF" d="M125.197,30.122h-4.289v13.703h-9.027V2.121h15.798c7.503,0,13.541,6.375,13.541,14.299   c0,5.124-2.934,9.77-7.278,12.094l8.406,15.311h-9.704L125.197,30.122z M120.908,21.782h6.771c2.482,0,4.514-2.324,4.514-5.362   c0-3.038-2.032-5.362-4.514-5.362h-6.771V21.782z"/>
	<path fill="#FFFFFF" d="M169.711,37.271h-14.669l-1.975,6.554h-9.874l13.429-41.704h11.509l13.428,41.704h-9.873L169.711,37.271z    M167.003,28.335l-4.626-15.312l-4.627,15.312H167.003z"/>
	<rect x="184.945" y="2.122" fill="#FFFFFF" width="9.027" height="41.704"/>
	<polygon fill="#FFFFFF" points="231.773,2.122 231.773,43.826 225.002,43.826 209.77,21.187 209.77,43.826 200.742,43.826    200.742,2.122 207.512,2.122 222.746,24.761 222.746,2.122  "/>
	<polygon fill="#FFFFFF" points="263.368,34.651 263.368,43.826 238.543,43.826 238.543,2.122 263.086,2.122 263.086,11.297    247.57,11.297 247.57,18.207 261.675,18.207 261.675,27.263 247.57,27.263 247.57,34.651  "/>
</g>
</svg>
