<?xml version="1.0" encoding="UTF-8"?>
<svg xmlns="http://www.w3.org/2000/svg" id="Logo-Gard-Header" width="138" height="138" viewBox="0 0 138 138">
  <defs>
    <clipPath id="clip-path">
      <path id="Rectangle_1848" transform="translate(.092)" fill="none" d="M0 0h138v138H0z"></path>
    </clipPath>
  </defs>
  <g id="Groupe_12692" transform="translate(-.092)">
    <path id="Rectangle_1846" transform="translate(.092)" fill="#fab529" d="M0 0h138v138H0z"></path>
    <g id="Groupe_8763">
      <g id="Groupe_8762" clip-path="url(#clip-path)" fill="#fff">
        <path id="Tracé_17670" d="M182.081 223.924a11.753 11.753 0 0 0-11.645 11.831v1.909h1.633v-1.231h.962v-1.347h-.942a9.988 9.988 0 0 1 19.973 0h-.995v1.347h1.016v1.231h1.637v-1.963a11.75 11.75 0 0 0-11.642-11.777" transform="translate(-77.111 -99.391)"></path>
        <path id="Tracé_17671" d="M215.453 237.664v-1.231h1.013v-1.347h-.992a10.125 10.125 0 0 1 9.987-9.849 9.888 9.888 0 0 1 7.715 3.732v-2.042a11.469 11.469 0 0 0-7.72-3 11.751 11.751 0 0 0-11.642 11.773v1.962Z" transform="translate(-96.364 -99.391)"></path>
        <path id="Tracé_17672" d="M138.686 223.924a11.753 11.753 0 0 0-11.645 11.831v1.909h1.634v-1.231h1.015v-1.347h-.99a9.988 9.988 0 0 1 19.973 0h-1.046v1.347h1.067v1.231h1.64v-1.909a11.753 11.753 0 0 0-11.645-11.831" transform="translate(-57.849 -99.391)"></path>
        <path id="Tracé_17673" d="m62.551 193.4 2.8.81.655 2.884 2.785 2.347 2.137 4.108 7.125 1.974 3.864 4.188 4.93 1.5 2.479 2.1-.135 2.423 2.185.785.626 2.27h4.373v-1.909a12.456 12.456 0 0 1 24.549-3.181 12.422 12.422 0 0 1 24.128-.023 12.526 12.526 0 0 1 12.062-9.45 12.284 12.284 0 0 1 7.719 2.729v-5.976h-17.724v-5.949c0-.088.012-.173.014-.261h1v-1.348h-.86a9.881 9.881 0 0 1 9.856-7.949 10.175 10.175 0 0 1 7.715 3.47v-1.682a11.456 11.456 0 0 0-7.719-3 11.736 11.736 0 0 0-11.623 11.405h.908v1.207h-.925v1.269h.925v1.207h-2.692v-1.207h.925v-1.269h-.925v-1.207h.908a11.625 11.625 0 0 0-23.247 0h.909v1.207h-.929v1.269h.929v1.207h-2.691v-1.207h.918v-1.269h-.918v-1.207h.9a11.626 11.626 0 0 0-23.247 0h.9v1.207h-.919v1.269h.919v1.207h-2.7v-1.207h.933v-1.269h-.933v-1.207h.912a11.626 11.626 0 0 0-23.248 0h.915v1.206h-.936v1.269h.936v1.206h-2.692v-1.206h.918v-1.269h-.918v-1.206h.939a12.445 12.445 0 0 1 24.526-2.768 12.422 12.422 0 0 1 24.131.01 12.422 12.422 0 0 1 24.128-.023 12.526 12.526 0 0 1 12.062-9.449 12.265 12.265 0 0 1 7.719 2.733v-4.782H62.784l-2.948 6.453 2.247.736Zm60.427 1.633c0-.088.011-.173.014-.261h.949v-1.348h-.81a10.084 10.084 0 0 1 19.71 0h-.864v1.348h1c0 .088.014.173.014.261v5.941h-20.014Zm-24.13 0c0-.088.011-.173.014-.261h1v-1.348H99a10.084 10.084 0 0 1 19.711 0h-.916v1.348h1.054c0 .088.014.173.014.261v5.941H98.847Zm-24.132 0c0-.09.012-.175.014-.264h1.55v-1.348h-1.412a10.084 10.084 0 0 1 19.71 0h-.863v1.348h1c0 .088.013.173.013.261v5.941H74.715Zm69.361-10.28h1.95v2.234h-1.95Zm-24.123 0h1.95v2.234h-1.95Zm-24.144 0h1.95v2.234h-1.95Zm-24.113 0h1.95v2.235H71.7Zm-6.4 2.185h1.95v2.235H65.3Z" transform="translate(-28.02 -80.509)"></path>
        <path id="Tracé_17674" d="M74.9 169.41h-.745v-.687a3.885 3.885 0 0 1 3.967-3.79 3.886 3.886 0 0 1 3.967 3.79v.687h-.844v1.347h8.475v-1.347h-.742v-.687a3.972 3.972 0 0 1 7.936 0v.687h-.808v1.347h8.477v-1.347h-.777v-.687a3.972 3.972 0 0 1 7.936 0v.687h-.85v1.347h8.478v-1.347h-.735v-.687a3.972 3.972 0 0 1 7.936 0v.687h-.826v1.347h8.478v-1.347h-.76v-.687a3.973 3.973 0 0 1 7.937 0v.687h-.861v1.347h8.478v-1.347h-.725v-.687a3.973 3.973 0 0 1 7.937 0v2.025h6.891v-2.025a3.887 3.887 0 0 1 3.969-3.79 4.116 4.116 0 0 1 .838.087v-2.995H70.8l-3.988 8.731H74.9Z" transform="translate(-31.114 -71.917)"></path>
        <path id="Tracé_17675" d="M51.526 118.231a13.785 13.785 0 0 1-5.058 1.076c-4.811 0-8.655-3.151-8.655-8.853 0-5.663 4.1-8.731 8.988-8.731a16.536 16.536 0 0 1 8.406 2.629l.375-4.067a18.3 18.3 0 0 0-9.033-2.431c-7.9 0-13.92 4.545-13.92 12.64 0 8.176 5.769 12.682 13.673 12.682a20.54 20.54 0 0 0 10.41-3.111v-10.807h-5.186Z" transform="translate(-15.944 -43.433)"></path>
        <path id="Tracé_17676" d="m91.718 97.281-13 25.361h5.565l.134-.28 1.969-4.308h11.353l2.261 4.588h5.476l-13-25.361Zm-3.677 17.145 4.052-8.492 4.1 8.492Z" transform="translate(-36.398 -43.179)"></path>
        <path id="Tracé_17677" d="M143.878 111.147a5.842 5.842 0 0 0 4.347-5.664c0-4.545-3.929-7.058-10.245-7.058h-5.81v24.724h5.185v-10.208c7.652 0 6.063 10.449 15.68 10.449l.959-3.989c-5.182 0-6.481-7.058-10.116-8.254m-6.523-1.834v-7.14c3.3 0 5.812.719 5.812 3.469 0 2.914-2.425 3.671-5.812 3.671" transform="translate(-60.126 -43.687)"></path>
        <path id="Tracé_17678" d="M182.724 98.426H175.7v3.874h7.444c6.941 0 10.2 3.748 10.2 8.453s-3.259 8.494-10.2 8.494h-2.26v-9.818H175.7v13.721h7.026c11.246 0 15.762-5.581 15.762-12.36 0-6.82-4.516-12.364-15.762-12.364" transform="translate(-79.446 -43.687)"></path>
        <path id="Tracé_17679" d="M89.72 51.534a5.7 5.7 0 0 1-1.765.232c-2.338 0-3.44-1.467-3.44-4s1.1-3.981 3.44-3.981a5.355 5.355 0 0 1 1.765.242v1.346A5.215 5.215 0 0 0 88 45.1c-1.477 0-1.808 1.115-1.808 2.659s.331 2.68 1.808 2.68a5.231 5.231 0 0 0 1.721-.265Z" transform="translate(-38.974 -19.433)"></path>
        <path id="Tracé_17680" d="M99.49 51.766c-2.228 0-3.44-1.632-3.44-3.992s1.212-3.993 3.44-3.993 3.452 1.643 3.452 3.993-1.214 3.992-3.452 3.992m0-6.661c-1.346 0-1.765 1.258-1.765 2.669s.419 2.668 1.765 2.668 1.776-1.246 1.776-2.668-.43-2.669-1.776-2.669" transform="translate(-44.094 -19.433)"></path>
        <path id="Tracé_17681" d="M111.411 44.038h1.467a41.786 41.786 0 0 1 3.253 4.908v-4.908h1.511v7.7h-1.5a48.136 48.136 0 0 0-3.22-5.25v5.25h-1.511Z" transform="translate(-50.912 -19.547)"></path>
        <path id="Tracé_17682" d="M130.617 44.2v1.367a5.7 5.7 0 0 0-2.217-.467c-.64 0-1.1.342-1.1.839s.374.717.97.915l.982.32A2.269 2.269 0 0 1 131 49.449c0 1.588-1.257 2.316-3.043 2.316a5.41 5.41 0 0 1-2.317-.518v-1.412a5.694 5.694 0 0 0 2.35.607c.639 0 1.334-.276 1.334-.916 0-.529-.44-.794-1.157-1.026l-.805-.265a2.2 2.2 0 0 1-1.742-2.216c0-1.379.993-2.239 2.8-2.239a5.72 5.72 0 0 1 2.194.419" transform="translate(-57.22 -19.432)"></path>
        <path id="Tracé_17683" d="M138.347 44.038h5v1.324h-3.376v1.786h2.9v1.3h-2.9v1.963h3.376v1.323h-5Z" transform="translate(-62.868 -19.547)"></path>
        <path id="Rectangle_1847" transform="translate(82.147 24.491)" d="M0 0h1.62v7.698H0z"></path>
        <path id="Tracé_17684" d="M156.938 44.038h1.621v6.353h2.747v1.345h-4.367Z" transform="translate(-71.12 -19.547)"></path>
        <path id="Tracé_17685" d="M43.269 65.24a15.709 15.709 0 0 1 2.438-.166c2.537 0 3.749 1.39 3.749 3.97s-1.213 3.927-3.749 3.927a23.072 23.072 0 0 1-2.438-.122Zm1.621 6.374c.243.022.463.033.75.033 1.588 0 2.139-.981 2.139-2.6S47.328 66.4 45.64 66.4a4.932 4.932 0 0 0-.75.055Z" transform="translate(-20.666 -28.884)"></path>
        <path id="Tracé_17686" d="M57.361 63.37h5v1.323h-3.379v1.787h2.9v1.3h-2.9v1.963h3.375v1.324h-5Zm2.492-2.36h1.8l-1.292 1.59h-1.335Z" transform="translate(-26.921 -27.08)"></path>
        <path id="Tracé_17687" d="M69.353 65.24a17.034 17.034 0 0 1 2.438-.166c1.929 0 3.143.7 3.143 2.5s-1.115 2.537-2.89 2.7c-.97.089-1.071.133-1.071 1.291v1.3h-1.62Zm1.62 4.025A2.942 2.942 0 0 1 72 69.033c.9-.1 1.256-.518 1.256-1.455 0-.717-.43-1.2-1.521-1.2a4.223 4.223 0 0 0-.762.066Z" transform="translate(-32.244 -28.884)"></path>
        <path id="Tracé_17688" d="M84.184 65.253a65.886 65.886 0 0 1 2.514 7.7h-1.687c-.132-.573-.3-1.18-.486-1.819h-2.536c-.187.64-.352 1.246-.485 1.819h-1.687a65.882 65.882 0 0 1 2.515-7.7Zm-1.864 4.566h1.88a45.109 45.109 0 0 0-.938-3.01c-.264.75-.672 2.018-.937 3.01" transform="translate(-36.889 -28.963)"></path>
        <path id="Tracé_17689" d="M94.643 65.24a17.052 17.052 0 0 1 2.438-.166c2.072 0 3.143.816 3.143 2.537a2.173 2.173 0 0 1-1.544 2.128 14.211 14.211 0 0 1 2 3.132h-1.813a15.949 15.949 0 0 0-1.7-2.757l-.32.066c-.463.1-.584.232-.584 1.214v1.477h-1.62Zm1.621 3.848a2.679 2.679 0 0 1 .981-.22c.784-.088 1.313-.463 1.313-1.258 0-.75-.419-1.235-1.522-1.235a4.343 4.343 0 0 0-.772.067Z" transform="translate(-43.469 -28.884)"></path>
        <path id="Tracé_17690" d="M108.1 66.609h-2.041v-1.357h5.7v1.357h-2.039v6.341h-1.62Z" transform="translate(-48.535 -28.963)"></path>
        <path id="Tracé_17691" d="M118.585 65.253h5v1.323h-3.376v1.787h2.9v1.3h-2.9v1.963h3.376v1.323h-5Z" transform="translate(-54.096 -28.963)"></path>
        <path id="Tracé_17692" d="M138.49 72.951h-1.566l-.265-5.635a29.491 29.491 0 0 0-1.523 4.18h-1.566a29.289 29.289 0 0 0-1.522-4.18l-.265 5.635h-1.566l.4-7.7h1.953a26.776 26.776 0 0 1 1.785 4.412 26.922 26.922 0 0 1 1.787-4.412h1.953Z" transform="translate(-59.26 -28.963)"></path>
        <path id="Tracé_17693" d="M148.414 65.253h5v1.323h-3.375v1.787h2.9v1.3h-2.9v1.963h3.375v1.323h-5Z" transform="translate(-67.336 -28.963)"></path>
        <path id="Tracé_17694" d="M160.4 65.253h1.467a41.782 41.782 0 0 1 3.253 4.908v-4.908h1.511v7.7h-1.5a48.226 48.226 0 0 0-3.22-5.25v5.25H160.4Z" transform="translate(-72.658 -28.963)"></path>
        <path id="Tracé_17695" d="M175.923 66.609h-2.041v-1.357h5.7v1.357h-2.039v6.341h-1.622Z" transform="translate(-78.64 -28.963)"></path>
        <path id="Tracé_17696" d="M188.438 65.253a66.2 66.2 0 0 1 2.514 7.7h-1.688c-.132-.573-.3-1.18-.485-1.819h-2.537a32.85 32.85 0 0 0-.484 1.819h-1.688a66.094 66.094 0 0 1 2.515-7.7Zm-1.864 4.566h1.875a44.529 44.529 0 0 0-.938-3.01 45.93 45.93 0 0 0-.937 3.01" transform="translate(-83.162 -28.963)"></path>
        <path id="Tracé_17697" d="M198.9 65.253h1.62v6.352h2.747v1.346H198.9Z" transform="translate(-89.743 -28.963)"></path>
      </g>
    </g>
  </g>
</svg>
