<svg xmlns="http://www.w3.org/2000/svg" width="366" height="365.844" viewBox="0 0 366 365.844">
  <defs>
    <style>
      .cls-1 {
        fill: #fff;
        fill-rule: evenodd;
      }
    </style>
  </defs>
  <path id="Forme_1450" data-name="Forme 1450" class="cls-1" d="M3635.5,487.471v37.741Q3587.35,476,3518.17,476q-71.61,0-121.88,53.574-50.28,53.592-50.29,129.642,0,76.074,50.29,129.339,50.265,53.283,121.58,53.284c37.1-.171,70.2-7.625,98.37-24.086-4.28-4.762-16.2-18.963-37.85-51.762l0.25-.017c-45.67-57.954-66.24-150.692-66.24-150.692,2.22,71.179,21.3,124.814,47.2,160.034-21.16.958-163.38,0.786-63.47-229.434,188.52,110.977,121.77,192.671,89.13,220.055l0.29-.02s42.84,55.242,126.27,63.879l0.17,0.066V487.471H3635.5Z" transform="translate(-3346 -476)"/>
</svg>
