<svg xmlns="http://www.w3.org/2000/svg" viewBox="0 0 250 98" enable-background="new 0 0 250 98">
  <style type="text/css">
    .st0 {
    fill: #003A76;
    }

    .st1 {
    fill: #00A6E2;
    }

    .st2 {
    fill: #04A64A;
    }

    .st3 {
    fill: #5BC5F2;
    }

    .st4 {
    fill: #C4DB9B;
    }

    .st5 {
    fill: #98D7F7;
    }

    .st6 {
    fill: #0083CA;
    }

    .st7 {
    fill: #9FCA7D;
    }

    .st8 {
    fill: #0E823A;
    }

    .st9 {
    fill: #6BB96F;
    }
  </style>
  <path class="st0" d="M123.6 66.1c-2.5 0-4.5 1.9-4.5 4.3s1.9 4.3 4.4 4.3 4.5-1.9 4.5-4.3-1.8-4.3-4.4-4.3m0 6.5c-1.3 0-2.1-1-2.1-2.2 0-1.2.8-2.2 2.1-2.2s2.1 1 2.1 2.2c0 1.2-.8 2.2-2.1 2.2"/>
  <path class="st0" d="M129.9 66.3h6.5v2h-4.3v1.4h3.9v1.9h-3.9v2.9h-2.2zM138.3 66.3h6.6v2h-4.3v1.4h3.9v1.9h-3.9v2.9h-2.3zM146.8 66.3h2.3v8.2h-2.3zM157.2 71.6c-.5.6-1 1-1.9 1-1.2 0-2-1-2-2.2 0-1.2.8-2.2 2-2.2.8 0 1.3.4 1.8 1l1.7-1.3c-.7-1-1.8-1.7-3.5-1.7-2.5 0-4.3 1.9-4.3 4.3 0 2.5 1.9 4.3 4.3 4.3 1.8 0 2.9-.8 3.6-1.9l-1.7-1.3zM160.7 66.3h6.6v1.9h-4.3v1.3h3.9v1.8h-3.9v1.3h4.4v1.9h-6.7zM173.7 66.3h6.6v2h-4.4v1.4h3.9v1.9h-3.9v2.9h-2.2zM187.9 71.7c1-.4 1.7-1.3 1.7-2.6 0-.8-.2-1.4-.7-1.9-.6-.6-1.4-.9-2.7-.9h-3.9v8.2h2.3v-2.5h1l1.7 2.5h2.6l-2-2.8zm-1.8-1.5h-1.5v-2h1.5c.8 0 1.2.3 1.2 1s-.4 1-1.2 1"/>
  <path class="st0" d="M194.3 66.2h2.2l3.5 8.3h-2.4l-.6-1.5h-3.2l-.6 1.5h-2.4l3.5-8.3zm2 5.1l-.9-2.3-.9 2.3h1.8zM201.5 66.3h2.1l3.4 4.3v-4.3h2.3v8.2h-2l-3.5-4.5v4.5h-2.3zM217.4 71.6c-.5.6-1 1-1.9 1-1.2 0-2-1-2-2.2 0-1.2.8-2.2 2-2.2.8 0 1.3.4 1.8 1l1.7-1.3c-.7-1-1.8-1.7-3.5-1.7-2.5 0-4.3 1.9-4.3 4.3 0 2.1 1.3 3.7 3.2 4.1l-.9 1.2 1.8.8.7-1.9c1.6-.1 2.5-.8 3.2-1.8l-1.8-1.3zM223.2 66.2h2.2l3.5 8.3h-2.4l-.6-1.5h-3.2l-.6 1.5h-2.4l3.5-8.3zm2 5.1l-.9-2.3-.9 2.3h1.8zM230.2 66.3h2.3v8.2h-2.3zM238.3 69.4c-1.2-.3-1.4-.4-1.4-.8 0-.3.3-.5.8-.5.7 0 1.6.3 2.3.8l1.1-1.6c-.9-.7-2-1.1-3.4-1.1-2 0-3.2 1.1-3.2 2.6 0 1.7 1.4 2.2 3.1 2.6 1.1.3 1.4.5 1.4.8 0 .4-.3.6-1 .6-1 0-1.8-.3-2.7-1l-1.3 1.5c1 .9 2.4 1.4 3.9 1.4 2 0 3.3-1 3.3-2.7.1-1.6-1-2.2-2.9-2.6M113.7 79.4h-3.2v8.2h3.1c3 0 4.7-1.8 4.7-4.2 0-2.3-1.7-4-4.6-4m0 6.2h-.9v-4.2h.9c1.4 0 2.3.8 2.3 2.1s-.9 2.1-2.3 2.1"/>
  <path class="st0" d="M120.2 79.4h6.7v1.9h-4.4v1.3h4v1.8h-4v1.3h4.4v1.9h-6.7zM133.3 79.4h2.3v6.2h4v2h-6.3zM144.1 79.3h2.2l3.5 8.3h-2.4l-.6-1.5h-3.2l-.6 1.5h-2.4l3.5-8.3zm2 5.1l-.9-2.3-.9 2.3h1.8zM161 83.3c.7-.3 1.3-.9 1.3-1.8 0-.6-.2-1-.5-1.4-.5-.5-1.2-.7-2.2-.7h-4.2v8.2h4.3c2 0 3.1-.9 3.1-2.3-.2-1.1-.8-1.7-1.8-2m-3.5-2.1h1.5c.7 0 1 .3 1 .7 0 .5-.4.7-1.1.7h-1.4v-1.4zm1.8 4.6h-1.8v-1.5h1.7c.8 0 1.1.3 1.1.8.1.4-.3.7-1 .7"/>
  <path class="st0" d="M164.5 79.4h2.3v8.2h-2.3zM173.1 79.2c-2.5 0-4.5 1.9-4.5 4.3s1.9 4.3 4.4 4.3c2.5 0 4.5-1.9 4.5-4.3s-1.9-4.3-4.4-4.3m0 6.5c-1.3 0-2.1-1-2.1-2.2 0-1.2.8-2.2 2.1-2.2s2.1 1 2.1 2.2c-.1 1.2-.9 2.2-2.1 2.2M182.6 79.4h-3.2v8.2h3.1c3 0 4.7-1.8 4.7-4.2 0-2.3-1.7-4-4.6-4m0 6.2h-.9v-4.2h.9c1.4 0 2.3.8 2.3 2.1s-.9 2.1-2.3 2.1"/>
  <path class="st0" d="M189.2 79.4h2.3v8.2h-2.3zM193.1 79.4h2.5l1.9 5.2 1.9-5.2h2.5l-3.4 8.3h-2.1zM203.5 79.4h6.6v1.9h-4.4v1.3h4v1.8h-4v1.3h4.4v1.9h-6.6zM218.1 84.7c1-.4 1.7-1.3 1.7-2.6 0-.8-.2-1.4-.7-1.9-.6-.6-1.4-.9-2.7-.9h-3.9v8.2h2.3v-2.5h1l1.7 2.5h2.6l-2-2.8zm-1.8-1.4h-1.5v-2h1.5c.8 0 1.2.3 1.2 1 0 .6-.4 1-1.2 1M225.4 82.5c-1.2-.3-1.4-.4-1.4-.8 0-.3.3-.5.8-.5.7 0 1.6.3 2.3.8l1.1-1.6c-.9-.7-2-1.1-3.4-1.1-2 0-3.2 1.1-3.2 2.7 0 1.7 1.4 2.2 3.1 2.6 1.1.3 1.4.5 1.4.8 0 .4-.3.6-1 .6-1 0-1.8-.3-2.7-1l-1.3 1.5c1 .9 2.4 1.4 3.9 1.4 2 0 3.3-1 3.3-2.7.2-1.7-1-2.3-2.9-2.7"/>
  <path class="st0" d="M230.4 79.4h2.3v8.2h-2.3zM236.9 81.4h-2.4v-2h7.2v2h-2.5v6.2h-2.3zM243.3 79.4h6.6v1.9h-4.4v1.3h4v1.8h-4v1.3h4.4v1.9h-6.7v-8.2zm3.7-2.5l2.1.6-1.7 1.3h-1.7l1.3-1.9zM204.3 21.9h-21.8v10.1h17v10.5h-17v16.4h-12.4v-47.8h34.2zM163.5 35c0 14.2-11 25.2-26.5 25.2s-26.5-11-26.5-25.2 11-25.2 26.5-25.2 26.5 11 26.5 25.2m-26.5-13.2c-7.3 0-13.5 5.6-13.5 13.2 0 7.5 6.2 13.2 13.5 13.2s13.5-5.6 13.5-13.2-6.2-13.2-13.5-13.2"/>
  <path class="st0" d="M212.1 11.1h19.1c11.4 0 14.3 6.3 14.3 12 0 5.6-2.8 8.6-5.6 10.3 4.4 1 10.1 3.5 10.1 11.4s-4.6 14-17.2 14h-20.7v-47.7zm12.4 18.7h3.7c3.2 0 5.8-1.2 5.8-4.6 0-3-2.1-4.6-5.8-4.6h-3.7v9.2zm0 19.4h5.7c6.2 0 7.2-3 7.2-5.1 0-2.5-1.3-5.1-7.2-5.1h-5.7v10.2z"/>
  <path class="st1" d="M28 40.6l-.1.1c-8.7 7.1-17.3 8-19.5 8h20.1s8.1 0 24.3-16.1c-11 .5-17.6 2.1-24.8 8"/>
  <path class="st2" d="M73.2 69.1c.4.9.8 1.8 1.1 2.7-8.9-1.8-16.1-5.4-21.5-10.8-12.2-12.2-24.3-12.2-24.3-12.2h24.4c-.1 0 12.1 0 20.3 20.3"/>
  <path class="st3" d="M52.7 32.6l.1-.1c7.4-7.4 18.2-14.8 32.4-16.1 4.1 4.7 7.4 10.1 9.5 16.1h-33.7c-3.1 0-5.8 0-8.3.1"/>
  <path class="st4" d="M8.1 48.8c.6 0 20.5.4 32.5 24.4 3.8 7.6 10.8 17.2 24 21.8-5 1.7-10.3 2.6-15.8 2.6-27-.1-48.8-21.9-48.8-48.8h8.1z"/>
  <path class="st0" d="M48.8 0c-27 0-48.8 21.8-48.8 48.8h8.3c2.2 0 10.8-.9 19.5-8 4.5-3.6 9-8.8 12.8-16.4 3.8-7.6 10.8-17.2 24-21.8-5-1.7-10.3-2.6-15.8-2.6"/>
  <path class="st5" d="M28.4 48.8s8.1 0 24.3-16.1c2.5-.1 5.2-.1 8.3-.1h33.8c1.8 5.1 2.8 10.6 2.8 16.3h-69.19999999999999z"/>
  <path class="st6" d="M85.3 16.4c-14.2 1.2-25 8.7-32.4 16.1l-.1.1c-11 .4-17.5 2.1-24.8 8l-.1.1c4.5-3.6 9-8.8 12.8-16.4 3.8-7.6 10.8-17.2 24-21.8 7.9 2.9 15.1 7.7 20.6 13.9"/>
  <path class="st7" d="M40.6 73.2c-12-24-31.9-24.4-32.5-24.4h20.3s12.2 0 24.4 12.2c5.4 5.4 12.5 9 21.5 10.8 2.5 5.4 5.3 9.2 8.6 11.8-5.1 5-11.4 8.9-18.3 11.3-13.2-4.5-20.2-14.2-24-21.7"/>
  <path class="st8" d="M74.3 71.8c-.4-.8-.8-1.7-1.1-2.7-8.2-20.3-20.4-20.3-20.4-20.3h44.7c0 8.9-2.4 17.2-6.5 24.4h-1.6c-5.5 0-10.5-.5-15.1-1.4"/>
  <path class="st9" d="M74.3 71.8c4.6.9 9.6 1.4 15.1 1.4h1.6c-2.2 3.8-5 7.4-8.1 10.4-3.3-2.7-6.1-6.5-8.6-11.8"/>
</svg>